%TF.GenerationSoftware,KiCad,Pcbnew,(5.1.6)-1*%
%TF.CreationDate,2021-03-10T22:21:53+01:00*%
%TF.ProjectId,555_Dice,3535355f-4469-4636-952e-6b696361645f,rev?*%
%TF.SameCoordinates,Original*%
%TF.FileFunction,Legend,Bot*%
%TF.FilePolarity,Positive*%
%FSLAX46Y46*%
G04 Gerber Fmt 4.6, Leading zero omitted, Abs format (unit mm)*
G04 Created by KiCad (PCBNEW (5.1.6)-1) date 2021-03-10 22:21:53*
%MOMM*%
%LPD*%
G01*
G04 APERTURE LIST*
%ADD10C,0.317500*%
%ADD11C,0.300000*%
%ADD12C,1.250000*%
%ADD13C,0.010000*%
G04 APERTURE END LIST*
D10*
X115859285Y-80391190D02*
X115859285Y-81358809D01*
X115859285Y-75311190D02*
X115859285Y-76278809D01*
X115375476Y-75795000D02*
X116343095Y-75795000D01*
D11*
X109758571Y-77906428D02*
X109282380Y-79239761D01*
X108806190Y-77906428D01*
X108139523Y-77430238D02*
X108044285Y-77335000D01*
X107853809Y-77239761D01*
X107377619Y-77239761D01*
X107187142Y-77335000D01*
X107091904Y-77430238D01*
X106996666Y-77620714D01*
X106996666Y-77811190D01*
X107091904Y-78096904D01*
X108234761Y-79239761D01*
X106996666Y-79239761D01*
D12*
X153095714Y-61864404D02*
X153095714Y-56864404D01*
X150238571Y-61864404D01*
X150238571Y-56864404D01*
X147857619Y-61864404D02*
X147857619Y-58531071D01*
X147857619Y-56864404D02*
X148095714Y-57102500D01*
X147857619Y-57340595D01*
X147619523Y-57102500D01*
X147857619Y-56864404D01*
X147857619Y-57340595D01*
X145476666Y-58531071D02*
X145476666Y-63531071D01*
X145476666Y-58769166D02*
X145000476Y-58531071D01*
X144048095Y-58531071D01*
X143571904Y-58769166D01*
X143333809Y-59007261D01*
X143095714Y-59483452D01*
X143095714Y-60912023D01*
X143333809Y-61388214D01*
X143571904Y-61626309D01*
X144048095Y-61864404D01*
X145000476Y-61864404D01*
X145476666Y-61626309D01*
X140952857Y-61864404D02*
X140952857Y-56864404D01*
X138810000Y-61864404D02*
X138810000Y-59245357D01*
X139048095Y-58769166D01*
X139524285Y-58531071D01*
X140238571Y-58531071D01*
X140714761Y-58769166D01*
X140952857Y-59007261D01*
X136429047Y-61864404D02*
X136429047Y-58531071D01*
X136429047Y-59483452D02*
X136190952Y-59007261D01*
X135952857Y-58769166D01*
X135476666Y-58531071D01*
X135000476Y-58531071D01*
X131190952Y-61864404D02*
X131190952Y-59245357D01*
X131429047Y-58769166D01*
X131905238Y-58531071D01*
X132857619Y-58531071D01*
X133333809Y-58769166D01*
X131190952Y-61626309D02*
X131667142Y-61864404D01*
X132857619Y-61864404D01*
X133333809Y-61626309D01*
X133571904Y-61150119D01*
X133571904Y-60673928D01*
X133333809Y-60197738D01*
X132857619Y-59959642D01*
X131667142Y-59959642D01*
X131190952Y-59721547D01*
X128810000Y-61864404D02*
X128810000Y-58531071D01*
X128810000Y-59007261D02*
X128571904Y-58769166D01*
X128095714Y-58531071D01*
X127381428Y-58531071D01*
X126905238Y-58769166D01*
X126667142Y-59245357D01*
X126667142Y-61864404D01*
X126667142Y-59245357D02*
X126429047Y-58769166D01*
X125952857Y-58531071D01*
X125238571Y-58531071D01*
X124762380Y-58769166D01*
X124524285Y-59245357D01*
X124524285Y-61864404D01*
D11*
X114658571Y-84181071D02*
X114372857Y-84181071D01*
X114230000Y-84252500D01*
X114087142Y-84395357D01*
X114015714Y-84681071D01*
X114015714Y-85181071D01*
X114087142Y-85466785D01*
X114230000Y-85609642D01*
X114372857Y-85681071D01*
X114658571Y-85681071D01*
X114801428Y-85609642D01*
X114944285Y-85466785D01*
X115015714Y-85181071D01*
X115015714Y-84681071D01*
X114944285Y-84395357D01*
X114801428Y-84252500D01*
X114658571Y-84181071D01*
X113372857Y-85681071D02*
X113372857Y-84681071D01*
X113372857Y-84966785D02*
X113301428Y-84823928D01*
X113230000Y-84752500D01*
X113087142Y-84681071D01*
X112944285Y-84681071D01*
X111801428Y-85681071D02*
X111801428Y-84181071D01*
X111801428Y-85609642D02*
X111944285Y-85681071D01*
X112230000Y-85681071D01*
X112372857Y-85609642D01*
X112444285Y-85538214D01*
X112515714Y-85395357D01*
X112515714Y-84966785D01*
X112444285Y-84823928D01*
X112372857Y-84752500D01*
X112230000Y-84681071D01*
X111944285Y-84681071D01*
X111801428Y-84752500D01*
X110515714Y-85609642D02*
X110658571Y-85681071D01*
X110944285Y-85681071D01*
X111087142Y-85609642D01*
X111158571Y-85466785D01*
X111158571Y-84895357D01*
X111087142Y-84752500D01*
X110944285Y-84681071D01*
X110658571Y-84681071D01*
X110515714Y-84752500D01*
X110444285Y-84895357D01*
X110444285Y-85038214D01*
X111158571Y-85181071D01*
X109801428Y-85681071D02*
X109801428Y-84681071D01*
X109801428Y-84966785D02*
X109730000Y-84823928D01*
X109658571Y-84752500D01*
X109515714Y-84681071D01*
X109372857Y-84681071D01*
X107730000Y-85681071D02*
X107730000Y-84181071D01*
X106872857Y-85681071D01*
X106872857Y-84181071D01*
X105515714Y-84681071D02*
X105515714Y-85681071D01*
X106158571Y-84681071D02*
X106158571Y-85466785D01*
X106087142Y-85609642D01*
X105944285Y-85681071D01*
X105730000Y-85681071D01*
X105587142Y-85609642D01*
X105515714Y-85538214D01*
X104801428Y-85681071D02*
X104801428Y-84681071D01*
X104801428Y-84823928D02*
X104730000Y-84752500D01*
X104587142Y-84681071D01*
X104372857Y-84681071D01*
X104230000Y-84752500D01*
X104158571Y-84895357D01*
X104158571Y-85681071D01*
X104158571Y-84895357D02*
X104087142Y-84752500D01*
X103944285Y-84681071D01*
X103730000Y-84681071D01*
X103587142Y-84752500D01*
X103515714Y-84895357D01*
X103515714Y-85681071D01*
X102801428Y-85681071D02*
X102801428Y-84181071D01*
X102801428Y-84752500D02*
X102658571Y-84681071D01*
X102372857Y-84681071D01*
X102230000Y-84752500D01*
X102158571Y-84823928D01*
X102087142Y-84966785D01*
X102087142Y-85395357D01*
X102158571Y-85538214D01*
X102230000Y-85609642D01*
X102372857Y-85681071D01*
X102658571Y-85681071D01*
X102801428Y-85609642D01*
X100872857Y-85609642D02*
X101015714Y-85681071D01*
X101301428Y-85681071D01*
X101444285Y-85609642D01*
X101515714Y-85466785D01*
X101515714Y-84895357D01*
X101444285Y-84752500D01*
X101301428Y-84681071D01*
X101015714Y-84681071D01*
X100872857Y-84752500D01*
X100801428Y-84895357D01*
X100801428Y-85038214D01*
X101515714Y-85181071D01*
X100158571Y-85681071D02*
X100158571Y-84681071D01*
X100158571Y-84966785D02*
X100087142Y-84823928D01*
X100015714Y-84752500D01*
X99872857Y-84681071D01*
X99730000Y-84681071D01*
X99230000Y-85538214D02*
X99158571Y-85609642D01*
X99230000Y-85681071D01*
X99301428Y-85609642D01*
X99230000Y-85538214D01*
X99230000Y-85681071D01*
X99230000Y-84752500D02*
X99158571Y-84823928D01*
X99230000Y-84895357D01*
X99301428Y-84823928D01*
X99230000Y-84752500D01*
X99230000Y-84895357D01*
X96554285Y-84181071D02*
X96554285Y-85252500D01*
X96625714Y-85466785D01*
X96768571Y-85609642D01*
X96982857Y-85681071D01*
X97125714Y-85681071D01*
X95125714Y-85681071D02*
X95840000Y-85681071D01*
X95840000Y-84181071D01*
X93768571Y-85538214D02*
X93840000Y-85609642D01*
X94054285Y-85681071D01*
X94197142Y-85681071D01*
X94411428Y-85609642D01*
X94554285Y-85466785D01*
X94625714Y-85323928D01*
X94697142Y-85038214D01*
X94697142Y-84823928D01*
X94625714Y-84538214D01*
X94554285Y-84395357D01*
X94411428Y-84252500D01*
X94197142Y-84181071D01*
X94054285Y-84181071D01*
X93840000Y-84252500D01*
X93768571Y-84323928D01*
X92697142Y-84181071D02*
X92697142Y-85252500D01*
X92768571Y-85466785D01*
X92911428Y-85609642D01*
X93125714Y-85681071D01*
X93268571Y-85681071D01*
X91268571Y-85681071D02*
X91982857Y-85681071D01*
X91982857Y-84181071D01*
X89911428Y-85538214D02*
X89982857Y-85609642D01*
X90197142Y-85681071D01*
X90340000Y-85681071D01*
X90554285Y-85609642D01*
X90697142Y-85466785D01*
X90768571Y-85323928D01*
X90840000Y-85038214D01*
X90840000Y-84823928D01*
X90768571Y-84538214D01*
X90697142Y-84395357D01*
X90554285Y-84252500D01*
X90340000Y-84181071D01*
X90197142Y-84181071D01*
X89982857Y-84252500D01*
X89911428Y-84323928D01*
X88840000Y-84181071D02*
X88840000Y-85252500D01*
X88911428Y-85466785D01*
X89054285Y-85609642D01*
X89268571Y-85681071D01*
X89411428Y-85681071D01*
X87411428Y-85681071D02*
X88125714Y-85681071D01*
X88125714Y-84181071D01*
X86054285Y-85538214D02*
X86125714Y-85609642D01*
X86340000Y-85681071D01*
X86482857Y-85681071D01*
X86697142Y-85609642D01*
X86840000Y-85466785D01*
X86911428Y-85323928D01*
X86982857Y-85038214D01*
X86982857Y-84823928D01*
X86911428Y-84538214D01*
X86840000Y-84395357D01*
X86697142Y-84252500D01*
X86482857Y-84181071D01*
X86340000Y-84181071D01*
X86125714Y-84252500D01*
X86054285Y-84323928D01*
X84982857Y-84181071D02*
X84982857Y-85252500D01*
X85054285Y-85466785D01*
X85197142Y-85609642D01*
X85411428Y-85681071D01*
X85554285Y-85681071D01*
X83554285Y-85681071D02*
X84268571Y-85681071D01*
X84268571Y-84181071D01*
X82197142Y-85538214D02*
X82268571Y-85609642D01*
X82482857Y-85681071D01*
X82625714Y-85681071D01*
X82839999Y-85609642D01*
X82982857Y-85466785D01*
X83054285Y-85323928D01*
X83125714Y-85038214D01*
X83125714Y-84823928D01*
X83054285Y-84538214D01*
X82982857Y-84395357D01*
X82839999Y-84252500D01*
X82625714Y-84181071D01*
X82482857Y-84181071D01*
X82268571Y-84252500D01*
X82197142Y-84323928D01*
D13*
%TO.C,REF\u002A\u002A*%
G36*
X132581177Y-72037033D02*
G01*
X132549798Y-72059276D01*
X132522089Y-72086985D01*
X132522089Y-72396420D01*
X132522162Y-72488299D01*
X132522505Y-72560340D01*
X132523308Y-72615280D01*
X132524759Y-72655860D01*
X132527048Y-72684817D01*
X132530364Y-72704891D01*
X132534895Y-72718821D01*
X132540831Y-72729345D01*
X132545486Y-72735600D01*
X132576217Y-72760173D01*
X132611504Y-72762841D01*
X132643755Y-72747771D01*
X132654412Y-72738874D01*
X132661536Y-72727057D01*
X132665833Y-72708026D01*
X132668009Y-72677492D01*
X132668772Y-72631162D01*
X132668845Y-72595371D01*
X132668845Y-72460545D01*
X133165556Y-72460545D01*
X133165556Y-72583200D01*
X133166069Y-72639287D01*
X133168124Y-72677833D01*
X133172492Y-72703861D01*
X133179944Y-72722397D01*
X133188953Y-72735600D01*
X133219856Y-72760104D01*
X133254804Y-72763006D01*
X133288262Y-72745589D01*
X133297396Y-72736459D01*
X133303848Y-72724355D01*
X133308103Y-72705501D01*
X133310648Y-72676120D01*
X133311971Y-72632437D01*
X133312557Y-72570675D01*
X133312625Y-72556500D01*
X133313109Y-72440131D01*
X133313359Y-72344227D01*
X133313277Y-72266677D01*
X133312769Y-72205369D01*
X133311738Y-72158190D01*
X133310087Y-72123030D01*
X133307721Y-72097776D01*
X133304543Y-72080317D01*
X133300456Y-72068541D01*
X133295366Y-72060335D01*
X133289734Y-72054145D01*
X133257872Y-72034344D01*
X133224643Y-72037033D01*
X133193265Y-72059276D01*
X133180567Y-72073626D01*
X133172474Y-72089478D01*
X133167958Y-72112054D01*
X133165994Y-72146578D01*
X133165556Y-72198276D01*
X133165556Y-72313789D01*
X132668845Y-72313789D01*
X132668845Y-72195256D01*
X132668338Y-72140648D01*
X132666302Y-72103775D01*
X132661965Y-72079807D01*
X132654553Y-72063915D01*
X132646267Y-72054145D01*
X132614406Y-72034344D01*
X132581177Y-72037033D01*
G37*
X132581177Y-72037033D02*
X132549798Y-72059276D01*
X132522089Y-72086985D01*
X132522089Y-72396420D01*
X132522162Y-72488299D01*
X132522505Y-72560340D01*
X132523308Y-72615280D01*
X132524759Y-72655860D01*
X132527048Y-72684817D01*
X132530364Y-72704891D01*
X132534895Y-72718821D01*
X132540831Y-72729345D01*
X132545486Y-72735600D01*
X132576217Y-72760173D01*
X132611504Y-72762841D01*
X132643755Y-72747771D01*
X132654412Y-72738874D01*
X132661536Y-72727057D01*
X132665833Y-72708026D01*
X132668009Y-72677492D01*
X132668772Y-72631162D01*
X132668845Y-72595371D01*
X132668845Y-72460545D01*
X133165556Y-72460545D01*
X133165556Y-72583200D01*
X133166069Y-72639287D01*
X133168124Y-72677833D01*
X133172492Y-72703861D01*
X133179944Y-72722397D01*
X133188953Y-72735600D01*
X133219856Y-72760104D01*
X133254804Y-72763006D01*
X133288262Y-72745589D01*
X133297396Y-72736459D01*
X133303848Y-72724355D01*
X133308103Y-72705501D01*
X133310648Y-72676120D01*
X133311971Y-72632437D01*
X133312557Y-72570675D01*
X133312625Y-72556500D01*
X133313109Y-72440131D01*
X133313359Y-72344227D01*
X133313277Y-72266677D01*
X133312769Y-72205369D01*
X133311738Y-72158190D01*
X133310087Y-72123030D01*
X133307721Y-72097776D01*
X133304543Y-72080317D01*
X133300456Y-72068541D01*
X133295366Y-72060335D01*
X133289734Y-72054145D01*
X133257872Y-72034344D01*
X133224643Y-72037033D01*
X133193265Y-72059276D01*
X133180567Y-72073626D01*
X133172474Y-72089478D01*
X133167958Y-72112054D01*
X133165994Y-72146578D01*
X133165556Y-72198276D01*
X133165556Y-72313789D01*
X132668845Y-72313789D01*
X132668845Y-72195256D01*
X132668338Y-72140648D01*
X132666302Y-72103775D01*
X132661965Y-72079807D01*
X132654553Y-72063915D01*
X132646267Y-72054145D01*
X132614406Y-72034344D01*
X132581177Y-72037033D01*
G36*
X133846935Y-72031663D02*
G01*
X133768228Y-72032042D01*
X133707137Y-72032833D01*
X133661183Y-72034170D01*
X133627886Y-72036183D01*
X133604764Y-72039006D01*
X133589338Y-72042769D01*
X133579129Y-72047605D01*
X133574187Y-72051322D01*
X133548543Y-72083858D01*
X133545441Y-72117638D01*
X133561289Y-72148326D01*
X133571652Y-72160589D01*
X133582804Y-72168950D01*
X133598965Y-72174157D01*
X133624358Y-72176957D01*
X133663202Y-72178096D01*
X133719720Y-72178321D01*
X133730820Y-72178322D01*
X133876756Y-72178322D01*
X133876756Y-72449256D01*
X133876852Y-72534654D01*
X133877289Y-72600364D01*
X133878288Y-72649274D01*
X133880072Y-72684273D01*
X133882863Y-72708249D01*
X133886883Y-72724093D01*
X133892355Y-72734691D01*
X133899334Y-72742767D01*
X133932266Y-72762612D01*
X133966646Y-72761048D01*
X133997824Y-72738406D01*
X134000114Y-72735600D01*
X134007571Y-72724992D01*
X134013253Y-72712581D01*
X134017399Y-72695350D01*
X134020250Y-72670284D01*
X134022046Y-72634367D01*
X134023028Y-72584583D01*
X134023436Y-72517917D01*
X134023511Y-72442089D01*
X134023511Y-72178322D01*
X134162873Y-72178322D01*
X134222678Y-72177918D01*
X134264082Y-72176340D01*
X134291252Y-72173047D01*
X134308354Y-72167492D01*
X134319557Y-72159131D01*
X134320917Y-72157678D01*
X134337275Y-72124439D01*
X134335828Y-72086862D01*
X134317022Y-72054145D01*
X134309750Y-72047798D01*
X134300373Y-72042766D01*
X134286391Y-72038896D01*
X134265304Y-72036037D01*
X134234611Y-72034035D01*
X134191811Y-72032739D01*
X134134405Y-72031998D01*
X134059890Y-72031658D01*
X133965767Y-72031568D01*
X133945740Y-72031567D01*
X133846935Y-72031663D01*
G37*
X133846935Y-72031663D02*
X133768228Y-72032042D01*
X133707137Y-72032833D01*
X133661183Y-72034170D01*
X133627886Y-72036183D01*
X133604764Y-72039006D01*
X133589338Y-72042769D01*
X133579129Y-72047605D01*
X133574187Y-72051322D01*
X133548543Y-72083858D01*
X133545441Y-72117638D01*
X133561289Y-72148326D01*
X133571652Y-72160589D01*
X133582804Y-72168950D01*
X133598965Y-72174157D01*
X133624358Y-72176957D01*
X133663202Y-72178096D01*
X133719720Y-72178321D01*
X133730820Y-72178322D01*
X133876756Y-72178322D01*
X133876756Y-72449256D01*
X133876852Y-72534654D01*
X133877289Y-72600364D01*
X133878288Y-72649274D01*
X133880072Y-72684273D01*
X133882863Y-72708249D01*
X133886883Y-72724093D01*
X133892355Y-72734691D01*
X133899334Y-72742767D01*
X133932266Y-72762612D01*
X133966646Y-72761048D01*
X133997824Y-72738406D01*
X134000114Y-72735600D01*
X134007571Y-72724992D01*
X134013253Y-72712581D01*
X134017399Y-72695350D01*
X134020250Y-72670284D01*
X134022046Y-72634367D01*
X134023028Y-72584583D01*
X134023436Y-72517917D01*
X134023511Y-72442089D01*
X134023511Y-72178322D01*
X134162873Y-72178322D01*
X134222678Y-72177918D01*
X134264082Y-72176340D01*
X134291252Y-72173047D01*
X134308354Y-72167492D01*
X134319557Y-72159131D01*
X134320917Y-72157678D01*
X134337275Y-72124439D01*
X134335828Y-72086862D01*
X134317022Y-72054145D01*
X134309750Y-72047798D01*
X134300373Y-72042766D01*
X134286391Y-72038896D01*
X134265304Y-72036037D01*
X134234611Y-72034035D01*
X134191811Y-72032739D01*
X134134405Y-72031998D01*
X134059890Y-72031658D01*
X133965767Y-72031568D01*
X133945740Y-72031567D01*
X133846935Y-72031663D01*
G36*
X134621386Y-72038377D02*
G01*
X134597673Y-72053147D01*
X134571022Y-72074727D01*
X134571022Y-72396273D01*
X134571107Y-72490330D01*
X134571471Y-72564432D01*
X134572276Y-72621204D01*
X134573687Y-72663268D01*
X134575867Y-72693248D01*
X134578979Y-72713767D01*
X134583186Y-72727449D01*
X134588652Y-72736916D01*
X134592528Y-72741582D01*
X134623966Y-72762075D01*
X134659767Y-72761239D01*
X134691127Y-72743764D01*
X134717778Y-72722184D01*
X134717778Y-72074727D01*
X134691127Y-72053147D01*
X134665406Y-72037449D01*
X134644400Y-72031567D01*
X134621386Y-72038377D01*
G37*
X134621386Y-72038377D02*
X134597673Y-72053147D01*
X134571022Y-72074727D01*
X134571022Y-72396273D01*
X134571107Y-72490330D01*
X134571471Y-72564432D01*
X134572276Y-72621204D01*
X134573687Y-72663268D01*
X134575867Y-72693248D01*
X134578979Y-72713767D01*
X134583186Y-72727449D01*
X134588652Y-72736916D01*
X134592528Y-72741582D01*
X134623966Y-72762075D01*
X134659767Y-72761239D01*
X134691127Y-72743764D01*
X134717778Y-72722184D01*
X134717778Y-72074727D01*
X134691127Y-72053147D01*
X134665406Y-72037449D01*
X134644400Y-72031567D01*
X134621386Y-72038377D01*
G36*
X135065335Y-72033534D02*
G01*
X135045745Y-72040535D01*
X135044990Y-72040877D01*
X135018387Y-72061178D01*
X135003730Y-72082061D01*
X135000862Y-72091852D01*
X135001004Y-72104861D01*
X135005039Y-72123395D01*
X135013854Y-72149757D01*
X135028331Y-72186252D01*
X135049355Y-72235187D01*
X135077812Y-72298865D01*
X135114585Y-72379593D01*
X135134825Y-72423716D01*
X135171375Y-72502485D01*
X135205685Y-72574923D01*
X135236448Y-72638380D01*
X135262352Y-72690208D01*
X135282090Y-72727759D01*
X135294350Y-72748384D01*
X135296776Y-72751233D01*
X135327817Y-72763802D01*
X135362879Y-72762119D01*
X135391000Y-72746832D01*
X135392146Y-72745589D01*
X135403332Y-72728654D01*
X135422096Y-72695670D01*
X135446125Y-72650880D01*
X135473103Y-72598532D01*
X135482799Y-72579242D01*
X135555986Y-72432650D01*
X135635760Y-72591893D01*
X135664233Y-72646915D01*
X135690650Y-72694632D01*
X135712852Y-72731393D01*
X135728681Y-72753544D01*
X135734046Y-72758241D01*
X135775743Y-72764602D01*
X135810151Y-72751233D01*
X135820272Y-72736946D01*
X135837786Y-72705192D01*
X135861265Y-72659097D01*
X135889280Y-72601785D01*
X135920401Y-72536380D01*
X135953201Y-72466007D01*
X135986250Y-72393791D01*
X136018119Y-72322855D01*
X136047381Y-72256325D01*
X136072605Y-72197326D01*
X136092364Y-72148981D01*
X136105228Y-72114415D01*
X136109769Y-72096753D01*
X136109723Y-72096113D01*
X136098674Y-72073888D01*
X136076590Y-72051253D01*
X136075290Y-72050268D01*
X136048147Y-72034925D01*
X136023042Y-72035074D01*
X136013632Y-72037966D01*
X136002166Y-72044218D01*
X135989990Y-72056514D01*
X135975643Y-72077408D01*
X135957664Y-72109449D01*
X135934593Y-72155188D01*
X135904970Y-72217177D01*
X135878255Y-72274398D01*
X135847520Y-72340726D01*
X135819979Y-72400374D01*
X135797062Y-72450225D01*
X135780202Y-72487164D01*
X135770827Y-72508073D01*
X135769460Y-72511345D01*
X135763311Y-72505997D01*
X135749178Y-72483609D01*
X135728943Y-72447446D01*
X135704485Y-72400777D01*
X135694752Y-72381522D01*
X135661783Y-72316504D01*
X135636357Y-72269154D01*
X135616388Y-72236719D01*
X135599790Y-72216446D01*
X135584476Y-72205582D01*
X135568360Y-72201375D01*
X135557857Y-72200900D01*
X135539330Y-72202542D01*
X135523096Y-72209331D01*
X135506965Y-72224066D01*
X135488749Y-72249544D01*
X135466261Y-72288561D01*
X135437311Y-72343914D01*
X135421338Y-72375403D01*
X135395430Y-72425587D01*
X135372833Y-72467204D01*
X135355542Y-72496742D01*
X135345550Y-72510689D01*
X135344191Y-72511270D01*
X135337739Y-72500293D01*
X135323292Y-72471790D01*
X135302297Y-72428744D01*
X135276203Y-72374138D01*
X135246454Y-72310954D01*
X135231820Y-72279571D01*
X135193750Y-72198578D01*
X135163095Y-72136256D01*
X135138263Y-72090571D01*
X135117663Y-72059489D01*
X135099702Y-72040978D01*
X135082790Y-72033004D01*
X135065335Y-72033534D01*
G37*
X135065335Y-72033534D02*
X135045745Y-72040535D01*
X135044990Y-72040877D01*
X135018387Y-72061178D01*
X135003730Y-72082061D01*
X135000862Y-72091852D01*
X135001004Y-72104861D01*
X135005039Y-72123395D01*
X135013854Y-72149757D01*
X135028331Y-72186252D01*
X135049355Y-72235187D01*
X135077812Y-72298865D01*
X135114585Y-72379593D01*
X135134825Y-72423716D01*
X135171375Y-72502485D01*
X135205685Y-72574923D01*
X135236448Y-72638380D01*
X135262352Y-72690208D01*
X135282090Y-72727759D01*
X135294350Y-72748384D01*
X135296776Y-72751233D01*
X135327817Y-72763802D01*
X135362879Y-72762119D01*
X135391000Y-72746832D01*
X135392146Y-72745589D01*
X135403332Y-72728654D01*
X135422096Y-72695670D01*
X135446125Y-72650880D01*
X135473103Y-72598532D01*
X135482799Y-72579242D01*
X135555986Y-72432650D01*
X135635760Y-72591893D01*
X135664233Y-72646915D01*
X135690650Y-72694632D01*
X135712852Y-72731393D01*
X135728681Y-72753544D01*
X135734046Y-72758241D01*
X135775743Y-72764602D01*
X135810151Y-72751233D01*
X135820272Y-72736946D01*
X135837786Y-72705192D01*
X135861265Y-72659097D01*
X135889280Y-72601785D01*
X135920401Y-72536380D01*
X135953201Y-72466007D01*
X135986250Y-72393791D01*
X136018119Y-72322855D01*
X136047381Y-72256325D01*
X136072605Y-72197326D01*
X136092364Y-72148981D01*
X136105228Y-72114415D01*
X136109769Y-72096753D01*
X136109723Y-72096113D01*
X136098674Y-72073888D01*
X136076590Y-72051253D01*
X136075290Y-72050268D01*
X136048147Y-72034925D01*
X136023042Y-72035074D01*
X136013632Y-72037966D01*
X136002166Y-72044218D01*
X135989990Y-72056514D01*
X135975643Y-72077408D01*
X135957664Y-72109449D01*
X135934593Y-72155188D01*
X135904970Y-72217177D01*
X135878255Y-72274398D01*
X135847520Y-72340726D01*
X135819979Y-72400374D01*
X135797062Y-72450225D01*
X135780202Y-72487164D01*
X135770827Y-72508073D01*
X135769460Y-72511345D01*
X135763311Y-72505997D01*
X135749178Y-72483609D01*
X135728943Y-72447446D01*
X135704485Y-72400777D01*
X135694752Y-72381522D01*
X135661783Y-72316504D01*
X135636357Y-72269154D01*
X135616388Y-72236719D01*
X135599790Y-72216446D01*
X135584476Y-72205582D01*
X135568360Y-72201375D01*
X135557857Y-72200900D01*
X135539330Y-72202542D01*
X135523096Y-72209331D01*
X135506965Y-72224066D01*
X135488749Y-72249544D01*
X135466261Y-72288561D01*
X135437311Y-72343914D01*
X135421338Y-72375403D01*
X135395430Y-72425587D01*
X135372833Y-72467204D01*
X135355542Y-72496742D01*
X135345550Y-72510689D01*
X135344191Y-72511270D01*
X135337739Y-72500293D01*
X135323292Y-72471790D01*
X135302297Y-72428744D01*
X135276203Y-72374138D01*
X135246454Y-72310954D01*
X135231820Y-72279571D01*
X135193750Y-72198578D01*
X135163095Y-72136256D01*
X135138263Y-72090571D01*
X135117663Y-72059489D01*
X135099702Y-72040978D01*
X135082790Y-72033004D01*
X135065335Y-72033534D01*
G36*
X137791691Y-72031775D02*
G01*
X137662712Y-72036136D01*
X137553009Y-72049361D01*
X137460774Y-72072241D01*
X137384198Y-72105570D01*
X137321473Y-72150138D01*
X137270788Y-72206736D01*
X137230337Y-72276158D01*
X137229541Y-72277851D01*
X137205399Y-72339983D01*
X137196797Y-72395009D01*
X137203769Y-72450387D01*
X137226346Y-72513573D01*
X137230628Y-72523189D01*
X137259828Y-72579466D01*
X137292644Y-72622951D01*
X137334998Y-72659917D01*
X137392810Y-72696635D01*
X137396169Y-72698552D01*
X137446496Y-72722727D01*
X137503379Y-72740782D01*
X137570473Y-72753339D01*
X137651435Y-72761022D01*
X137749918Y-72764453D01*
X137784714Y-72764751D01*
X137950406Y-72765345D01*
X137973803Y-72735600D01*
X137980743Y-72725819D01*
X137986158Y-72714397D01*
X137990235Y-72698595D01*
X137993163Y-72675675D01*
X137995133Y-72642896D01*
X137995775Y-72618589D01*
X137839156Y-72618589D01*
X137745274Y-72618589D01*
X137690336Y-72616983D01*
X137633940Y-72612755D01*
X137587655Y-72606792D01*
X137584861Y-72606290D01*
X137502652Y-72584236D01*
X137438886Y-72551100D01*
X137391548Y-72505347D01*
X137358618Y-72445439D01*
X137352892Y-72429561D01*
X137347279Y-72404833D01*
X137349709Y-72380402D01*
X137361533Y-72347900D01*
X137368660Y-72331934D01*
X137392000Y-72289506D01*
X137420120Y-72259740D01*
X137451060Y-72239011D01*
X137513034Y-72212037D01*
X137592349Y-72192498D01*
X137684747Y-72181246D01*
X137751667Y-72178770D01*
X137839156Y-72178322D01*
X137839156Y-72618589D01*
X137995775Y-72618589D01*
X137996332Y-72597521D01*
X137996950Y-72536811D01*
X137997175Y-72458026D01*
X137997200Y-72396420D01*
X137997200Y-72086985D01*
X137969491Y-72059276D01*
X137957194Y-72048044D01*
X137943897Y-72040353D01*
X137925328Y-72035540D01*
X137897214Y-72032946D01*
X137855283Y-72031910D01*
X137795263Y-72031770D01*
X137791691Y-72031775D01*
G37*
X137791691Y-72031775D02*
X137662712Y-72036136D01*
X137553009Y-72049361D01*
X137460774Y-72072241D01*
X137384198Y-72105570D01*
X137321473Y-72150138D01*
X137270788Y-72206736D01*
X137230337Y-72276158D01*
X137229541Y-72277851D01*
X137205399Y-72339983D01*
X137196797Y-72395009D01*
X137203769Y-72450387D01*
X137226346Y-72513573D01*
X137230628Y-72523189D01*
X137259828Y-72579466D01*
X137292644Y-72622951D01*
X137334998Y-72659917D01*
X137392810Y-72696635D01*
X137396169Y-72698552D01*
X137446496Y-72722727D01*
X137503379Y-72740782D01*
X137570473Y-72753339D01*
X137651435Y-72761022D01*
X137749918Y-72764453D01*
X137784714Y-72764751D01*
X137950406Y-72765345D01*
X137973803Y-72735600D01*
X137980743Y-72725819D01*
X137986158Y-72714397D01*
X137990235Y-72698595D01*
X137993163Y-72675675D01*
X137995133Y-72642896D01*
X137995775Y-72618589D01*
X137839156Y-72618589D01*
X137745274Y-72618589D01*
X137690336Y-72616983D01*
X137633940Y-72612755D01*
X137587655Y-72606792D01*
X137584861Y-72606290D01*
X137502652Y-72584236D01*
X137438886Y-72551100D01*
X137391548Y-72505347D01*
X137358618Y-72445439D01*
X137352892Y-72429561D01*
X137347279Y-72404833D01*
X137349709Y-72380402D01*
X137361533Y-72347900D01*
X137368660Y-72331934D01*
X137392000Y-72289506D01*
X137420120Y-72259740D01*
X137451060Y-72239011D01*
X137513034Y-72212037D01*
X137592349Y-72192498D01*
X137684747Y-72181246D01*
X137751667Y-72178770D01*
X137839156Y-72178322D01*
X137839156Y-72618589D01*
X137995775Y-72618589D01*
X137996332Y-72597521D01*
X137996950Y-72536811D01*
X137997175Y-72458026D01*
X137997200Y-72396420D01*
X137997200Y-72086985D01*
X137969491Y-72059276D01*
X137957194Y-72048044D01*
X137943897Y-72040353D01*
X137925328Y-72035540D01*
X137897214Y-72032946D01*
X137855283Y-72031910D01*
X137795263Y-72031770D01*
X137791691Y-72031775D01*
G36*
X138579657Y-72031760D02*
G01*
X138503299Y-72032674D01*
X138444783Y-72034811D01*
X138401745Y-72038675D01*
X138371817Y-72044767D01*
X138352632Y-72053590D01*
X138341824Y-72065646D01*
X138337027Y-72081439D01*
X138335873Y-72101470D01*
X138335867Y-72103835D01*
X138336869Y-72126492D01*
X138341604Y-72144003D01*
X138352667Y-72157074D01*
X138372652Y-72166413D01*
X138404154Y-72172727D01*
X138449768Y-72176722D01*
X138512087Y-72179106D01*
X138593707Y-72180586D01*
X138618723Y-72180914D01*
X138860800Y-72183967D01*
X138864186Y-72248878D01*
X138867571Y-72313789D01*
X138699424Y-72313789D01*
X138633734Y-72314031D01*
X138586828Y-72315056D01*
X138554917Y-72317311D01*
X138534209Y-72321242D01*
X138520916Y-72327298D01*
X138511245Y-72335924D01*
X138511183Y-72335993D01*
X138493644Y-72369612D01*
X138494278Y-72405948D01*
X138512686Y-72436923D01*
X138516329Y-72440107D01*
X138529259Y-72448312D01*
X138546976Y-72454021D01*
X138573430Y-72457662D01*
X138612568Y-72459667D01*
X138668338Y-72460464D01*
X138704006Y-72460545D01*
X138866445Y-72460545D01*
X138866445Y-72618589D01*
X138619839Y-72618589D01*
X138538420Y-72618731D01*
X138476590Y-72619314D01*
X138431363Y-72620568D01*
X138399752Y-72622727D01*
X138378769Y-72626023D01*
X138365427Y-72630689D01*
X138356739Y-72636957D01*
X138354550Y-72639233D01*
X138338386Y-72670780D01*
X138337203Y-72706668D01*
X138350464Y-72737785D01*
X138360957Y-72747771D01*
X138371871Y-72753269D01*
X138388783Y-72757522D01*
X138414367Y-72760680D01*
X138451299Y-72762892D01*
X138502254Y-72764306D01*
X138569906Y-72765072D01*
X138656931Y-72765338D01*
X138676606Y-72765345D01*
X138765089Y-72765287D01*
X138833773Y-72764967D01*
X138885436Y-72764167D01*
X138922855Y-72762667D01*
X138948810Y-72760249D01*
X138966078Y-72756694D01*
X138977438Y-72751782D01*
X138985668Y-72745295D01*
X138990183Y-72740638D01*
X138996979Y-72732389D01*
X139002288Y-72722169D01*
X139006294Y-72707300D01*
X139009179Y-72685102D01*
X139011126Y-72652893D01*
X139012319Y-72607996D01*
X139012939Y-72547728D01*
X139013171Y-72469411D01*
X139013200Y-72403494D01*
X139013129Y-72311128D01*
X139012792Y-72238617D01*
X139012002Y-72183237D01*
X139010574Y-72142265D01*
X139008321Y-72112978D01*
X139005057Y-72092653D01*
X139000596Y-72078566D01*
X138994752Y-72067995D01*
X138989803Y-72061311D01*
X138966406Y-72031567D01*
X138676226Y-72031567D01*
X138579657Y-72031760D01*
G37*
X138579657Y-72031760D02*
X138503299Y-72032674D01*
X138444783Y-72034811D01*
X138401745Y-72038675D01*
X138371817Y-72044767D01*
X138352632Y-72053590D01*
X138341824Y-72065646D01*
X138337027Y-72081439D01*
X138335873Y-72101470D01*
X138335867Y-72103835D01*
X138336869Y-72126492D01*
X138341604Y-72144003D01*
X138352667Y-72157074D01*
X138372652Y-72166413D01*
X138404154Y-72172727D01*
X138449768Y-72176722D01*
X138512087Y-72179106D01*
X138593707Y-72180586D01*
X138618723Y-72180914D01*
X138860800Y-72183967D01*
X138864186Y-72248878D01*
X138867571Y-72313789D01*
X138699424Y-72313789D01*
X138633734Y-72314031D01*
X138586828Y-72315056D01*
X138554917Y-72317311D01*
X138534209Y-72321242D01*
X138520916Y-72327298D01*
X138511245Y-72335924D01*
X138511183Y-72335993D01*
X138493644Y-72369612D01*
X138494278Y-72405948D01*
X138512686Y-72436923D01*
X138516329Y-72440107D01*
X138529259Y-72448312D01*
X138546976Y-72454021D01*
X138573430Y-72457662D01*
X138612568Y-72459667D01*
X138668338Y-72460464D01*
X138704006Y-72460545D01*
X138866445Y-72460545D01*
X138866445Y-72618589D01*
X138619839Y-72618589D01*
X138538420Y-72618731D01*
X138476590Y-72619314D01*
X138431363Y-72620568D01*
X138399752Y-72622727D01*
X138378769Y-72626023D01*
X138365427Y-72630689D01*
X138356739Y-72636957D01*
X138354550Y-72639233D01*
X138338386Y-72670780D01*
X138337203Y-72706668D01*
X138350464Y-72737785D01*
X138360957Y-72747771D01*
X138371871Y-72753269D01*
X138388783Y-72757522D01*
X138414367Y-72760680D01*
X138451299Y-72762892D01*
X138502254Y-72764306D01*
X138569906Y-72765072D01*
X138656931Y-72765338D01*
X138676606Y-72765345D01*
X138765089Y-72765287D01*
X138833773Y-72764967D01*
X138885436Y-72764167D01*
X138922855Y-72762667D01*
X138948810Y-72760249D01*
X138966078Y-72756694D01*
X138977438Y-72751782D01*
X138985668Y-72745295D01*
X138990183Y-72740638D01*
X138996979Y-72732389D01*
X139002288Y-72722169D01*
X139006294Y-72707300D01*
X139009179Y-72685102D01*
X139011126Y-72652893D01*
X139012319Y-72607996D01*
X139012939Y-72547728D01*
X139013171Y-72469411D01*
X139013200Y-72403494D01*
X139013129Y-72311128D01*
X139012792Y-72238617D01*
X139012002Y-72183237D01*
X139010574Y-72142265D01*
X139008321Y-72112978D01*
X139005057Y-72092653D01*
X139000596Y-72078566D01*
X138994752Y-72067995D01*
X138989803Y-72061311D01*
X138966406Y-72031567D01*
X138676226Y-72031567D01*
X138579657Y-72031760D01*
G36*
X140110114Y-72035948D02*
G01*
X140086548Y-72049773D01*
X140055735Y-72072381D01*
X140016078Y-72104838D01*
X139965980Y-72148208D01*
X139903843Y-72203558D01*
X139828072Y-72271951D01*
X139741334Y-72350584D01*
X139560711Y-72514378D01*
X139555067Y-72294529D01*
X139553029Y-72218851D01*
X139551063Y-72162494D01*
X139548734Y-72122206D01*
X139545606Y-72094735D01*
X139541245Y-72076829D01*
X139535216Y-72065237D01*
X139527084Y-72056708D01*
X139522772Y-72053123D01*
X139488241Y-72034170D01*
X139455383Y-72036941D01*
X139429318Y-72053133D01*
X139402667Y-72074699D01*
X139399352Y-72389651D01*
X139398435Y-72482279D01*
X139397968Y-72555044D01*
X139398113Y-72610661D01*
X139399032Y-72651842D01*
X139400887Y-72681303D01*
X139403839Y-72701755D01*
X139408050Y-72715913D01*
X139413682Y-72726491D01*
X139419927Y-72734974D01*
X139433439Y-72750707D01*
X139446883Y-72761136D01*
X139462124Y-72765139D01*
X139481026Y-72761594D01*
X139505455Y-72749379D01*
X139537273Y-72727371D01*
X139578348Y-72694449D01*
X139630542Y-72649491D01*
X139695722Y-72591375D01*
X139769556Y-72524599D01*
X140034845Y-72283958D01*
X140040489Y-72503089D01*
X140042531Y-72578628D01*
X140044502Y-72634854D01*
X140046839Y-72675024D01*
X140049981Y-72702396D01*
X140054364Y-72720228D01*
X140060424Y-72731779D01*
X140068600Y-72740307D01*
X140072784Y-72743782D01*
X140109765Y-72762872D01*
X140144708Y-72759993D01*
X140175136Y-72735600D01*
X140182097Y-72725786D01*
X140187523Y-72714326D01*
X140191603Y-72698468D01*
X140194529Y-72675463D01*
X140196492Y-72642562D01*
X140197683Y-72597016D01*
X140198292Y-72536073D01*
X140198511Y-72456986D01*
X140198534Y-72398456D01*
X140198460Y-72306907D01*
X140198113Y-72235187D01*
X140197301Y-72180545D01*
X140195833Y-72140232D01*
X140193519Y-72111498D01*
X140190167Y-72091593D01*
X140185588Y-72077768D01*
X140179589Y-72067272D01*
X140175136Y-72061311D01*
X140163850Y-72047191D01*
X140153301Y-72036529D01*
X140141893Y-72030392D01*
X140128030Y-72029843D01*
X140110114Y-72035948D01*
G37*
X140110114Y-72035948D02*
X140086548Y-72049773D01*
X140055735Y-72072381D01*
X140016078Y-72104838D01*
X139965980Y-72148208D01*
X139903843Y-72203558D01*
X139828072Y-72271951D01*
X139741334Y-72350584D01*
X139560711Y-72514378D01*
X139555067Y-72294529D01*
X139553029Y-72218851D01*
X139551063Y-72162494D01*
X139548734Y-72122206D01*
X139545606Y-72094735D01*
X139541245Y-72076829D01*
X139535216Y-72065237D01*
X139527084Y-72056708D01*
X139522772Y-72053123D01*
X139488241Y-72034170D01*
X139455383Y-72036941D01*
X139429318Y-72053133D01*
X139402667Y-72074699D01*
X139399352Y-72389651D01*
X139398435Y-72482279D01*
X139397968Y-72555044D01*
X139398113Y-72610661D01*
X139399032Y-72651842D01*
X139400887Y-72681303D01*
X139403839Y-72701755D01*
X139408050Y-72715913D01*
X139413682Y-72726491D01*
X139419927Y-72734974D01*
X139433439Y-72750707D01*
X139446883Y-72761136D01*
X139462124Y-72765139D01*
X139481026Y-72761594D01*
X139505455Y-72749379D01*
X139537273Y-72727371D01*
X139578348Y-72694449D01*
X139630542Y-72649491D01*
X139695722Y-72591375D01*
X139769556Y-72524599D01*
X140034845Y-72283958D01*
X140040489Y-72503089D01*
X140042531Y-72578628D01*
X140044502Y-72634854D01*
X140046839Y-72675024D01*
X140049981Y-72702396D01*
X140054364Y-72720228D01*
X140060424Y-72731779D01*
X140068600Y-72740307D01*
X140072784Y-72743782D01*
X140109765Y-72762872D01*
X140144708Y-72759993D01*
X140175136Y-72735600D01*
X140182097Y-72725786D01*
X140187523Y-72714326D01*
X140191603Y-72698468D01*
X140194529Y-72675463D01*
X140196492Y-72642562D01*
X140197683Y-72597016D01*
X140198292Y-72536073D01*
X140198511Y-72456986D01*
X140198534Y-72398456D01*
X140198460Y-72306907D01*
X140198113Y-72235187D01*
X140197301Y-72180545D01*
X140195833Y-72140232D01*
X140193519Y-72111498D01*
X140190167Y-72091593D01*
X140185588Y-72077768D01*
X140179589Y-72067272D01*
X140175136Y-72061311D01*
X140163850Y-72047191D01*
X140153301Y-72036529D01*
X140141893Y-72030392D01*
X140128030Y-72029843D01*
X140110114Y-72035948D01*
G36*
X140760081Y-72037099D02*
G01*
X140691565Y-72048595D01*
X140638943Y-72066467D01*
X140604708Y-72089999D01*
X140595379Y-72103424D01*
X140585893Y-72134648D01*
X140592277Y-72162895D01*
X140612430Y-72189682D01*
X140643745Y-72202213D01*
X140689183Y-72201196D01*
X140724326Y-72194406D01*
X140802419Y-72181471D01*
X140882226Y-72180242D01*
X140971555Y-72190741D01*
X140996229Y-72195190D01*
X141079291Y-72218608D01*
X141144273Y-72253445D01*
X141190461Y-72299104D01*
X141217145Y-72354994D01*
X141222663Y-72383888D01*
X141219051Y-72442512D01*
X141195729Y-72494379D01*
X141154824Y-72538478D01*
X141098459Y-72573799D01*
X141028760Y-72599329D01*
X140947852Y-72614059D01*
X140857860Y-72616978D01*
X140760910Y-72607075D01*
X140755436Y-72606141D01*
X140716875Y-72598959D01*
X140695494Y-72592021D01*
X140686227Y-72581727D01*
X140684006Y-72564476D01*
X140683956Y-72555341D01*
X140683956Y-72516989D01*
X140752431Y-72516989D01*
X140812900Y-72512847D01*
X140854165Y-72499647D01*
X140878175Y-72476230D01*
X140886877Y-72441436D01*
X140886983Y-72436894D01*
X140881892Y-72407154D01*
X140864433Y-72385919D01*
X140831939Y-72371866D01*
X140781743Y-72363673D01*
X140733123Y-72360661D01*
X140662456Y-72358933D01*
X140611198Y-72361570D01*
X140576239Y-72371300D01*
X140554470Y-72390853D01*
X140542780Y-72422956D01*
X140538060Y-72470338D01*
X140537200Y-72532571D01*
X140538609Y-72602035D01*
X140542848Y-72649286D01*
X140549936Y-72674512D01*
X140551311Y-72676488D01*
X140590228Y-72708008D01*
X140647286Y-72732970D01*
X140718869Y-72750840D01*
X140801358Y-72761086D01*
X140891139Y-72763173D01*
X140984592Y-72756568D01*
X141039556Y-72748456D01*
X141125766Y-72724054D01*
X141205892Y-72684162D01*
X141272977Y-72632387D01*
X141283173Y-72622039D01*
X141316302Y-72578535D01*
X141346194Y-72524618D01*
X141369357Y-72468092D01*
X141382298Y-72416759D01*
X141383858Y-72397044D01*
X141377218Y-72355919D01*
X141359568Y-72304752D01*
X141334297Y-72250894D01*
X141304789Y-72201695D01*
X141278719Y-72168834D01*
X141217765Y-72119952D01*
X141138969Y-72081045D01*
X141045157Y-72052994D01*
X140939150Y-72036679D01*
X140842000Y-72032692D01*
X140760081Y-72037099D01*
G37*
X140760081Y-72037099D02*
X140691565Y-72048595D01*
X140638943Y-72066467D01*
X140604708Y-72089999D01*
X140595379Y-72103424D01*
X140585893Y-72134648D01*
X140592277Y-72162895D01*
X140612430Y-72189682D01*
X140643745Y-72202213D01*
X140689183Y-72201196D01*
X140724326Y-72194406D01*
X140802419Y-72181471D01*
X140882226Y-72180242D01*
X140971555Y-72190741D01*
X140996229Y-72195190D01*
X141079291Y-72218608D01*
X141144273Y-72253445D01*
X141190461Y-72299104D01*
X141217145Y-72354994D01*
X141222663Y-72383888D01*
X141219051Y-72442512D01*
X141195729Y-72494379D01*
X141154824Y-72538478D01*
X141098459Y-72573799D01*
X141028760Y-72599329D01*
X140947852Y-72614059D01*
X140857860Y-72616978D01*
X140760910Y-72607075D01*
X140755436Y-72606141D01*
X140716875Y-72598959D01*
X140695494Y-72592021D01*
X140686227Y-72581727D01*
X140684006Y-72564476D01*
X140683956Y-72555341D01*
X140683956Y-72516989D01*
X140752431Y-72516989D01*
X140812900Y-72512847D01*
X140854165Y-72499647D01*
X140878175Y-72476230D01*
X140886877Y-72441436D01*
X140886983Y-72436894D01*
X140881892Y-72407154D01*
X140864433Y-72385919D01*
X140831939Y-72371866D01*
X140781743Y-72363673D01*
X140733123Y-72360661D01*
X140662456Y-72358933D01*
X140611198Y-72361570D01*
X140576239Y-72371300D01*
X140554470Y-72390853D01*
X140542780Y-72422956D01*
X140538060Y-72470338D01*
X140537200Y-72532571D01*
X140538609Y-72602035D01*
X140542848Y-72649286D01*
X140549936Y-72674512D01*
X140551311Y-72676488D01*
X140590228Y-72708008D01*
X140647286Y-72732970D01*
X140718869Y-72750840D01*
X140801358Y-72761086D01*
X140891139Y-72763173D01*
X140984592Y-72756568D01*
X141039556Y-72748456D01*
X141125766Y-72724054D01*
X141205892Y-72684162D01*
X141272977Y-72632387D01*
X141283173Y-72622039D01*
X141316302Y-72578535D01*
X141346194Y-72524618D01*
X141369357Y-72468092D01*
X141382298Y-72416759D01*
X141383858Y-72397044D01*
X141377218Y-72355919D01*
X141359568Y-72304752D01*
X141334297Y-72250894D01*
X141304789Y-72201695D01*
X141278719Y-72168834D01*
X141217765Y-72119952D01*
X141138969Y-72081045D01*
X141045157Y-72052994D01*
X140939150Y-72036679D01*
X140842000Y-72032692D01*
X140760081Y-72037099D01*
G36*
X141733822Y-72054145D02*
G01*
X141727242Y-72061718D01*
X141722079Y-72071487D01*
X141718164Y-72086071D01*
X141715324Y-72108085D01*
X141713387Y-72140148D01*
X141712183Y-72184875D01*
X141711539Y-72244885D01*
X141711284Y-72322794D01*
X141711245Y-72398456D01*
X141711314Y-72492302D01*
X141711638Y-72566189D01*
X141712386Y-72622732D01*
X141713732Y-72664549D01*
X141715846Y-72694257D01*
X141718900Y-72714473D01*
X141723066Y-72727814D01*
X141728516Y-72736898D01*
X141733822Y-72742767D01*
X141766826Y-72762447D01*
X141801991Y-72760681D01*
X141833455Y-72739217D01*
X141840684Y-72730837D01*
X141846334Y-72721114D01*
X141850599Y-72707361D01*
X141853673Y-72686889D01*
X141855752Y-72657012D01*
X141857030Y-72615041D01*
X141857701Y-72558289D01*
X141857959Y-72484067D01*
X141858000Y-72400037D01*
X141858000Y-72086985D01*
X141830291Y-72059276D01*
X141796137Y-72035963D01*
X141763006Y-72035123D01*
X141733822Y-72054145D01*
G37*
X141733822Y-72054145D02*
X141727242Y-72061718D01*
X141722079Y-72071487D01*
X141718164Y-72086071D01*
X141715324Y-72108085D01*
X141713387Y-72140148D01*
X141712183Y-72184875D01*
X141711539Y-72244885D01*
X141711284Y-72322794D01*
X141711245Y-72398456D01*
X141711314Y-72492302D01*
X141711638Y-72566189D01*
X141712386Y-72622732D01*
X141713732Y-72664549D01*
X141715846Y-72694257D01*
X141718900Y-72714473D01*
X141723066Y-72727814D01*
X141728516Y-72736898D01*
X141733822Y-72742767D01*
X141766826Y-72762447D01*
X141801991Y-72760681D01*
X141833455Y-72739217D01*
X141840684Y-72730837D01*
X141846334Y-72721114D01*
X141850599Y-72707361D01*
X141853673Y-72686889D01*
X141855752Y-72657012D01*
X141857030Y-72615041D01*
X141857701Y-72558289D01*
X141857959Y-72484067D01*
X141858000Y-72400037D01*
X141858000Y-72086985D01*
X141830291Y-72059276D01*
X141796137Y-72035963D01*
X141763006Y-72035123D01*
X141733822Y-72054145D01*
G36*
X142501703Y-72032851D02*
G01*
X142426888Y-72038081D01*
X142357306Y-72046250D01*
X142297002Y-72057050D01*
X142250020Y-72070173D01*
X142220406Y-72085313D01*
X142215860Y-72089769D01*
X142200054Y-72124350D01*
X142204847Y-72159851D01*
X142229364Y-72190225D01*
X142230534Y-72191096D01*
X142244954Y-72200454D01*
X142260008Y-72205376D01*
X142281005Y-72205973D01*
X142313257Y-72202361D01*
X142362073Y-72194654D01*
X142366000Y-72194005D01*
X142438739Y-72185069D01*
X142517217Y-72180661D01*
X142595927Y-72180619D01*
X142669361Y-72184779D01*
X142732011Y-72192979D01*
X142778370Y-72205057D01*
X142781416Y-72206271D01*
X142815048Y-72225115D01*
X142826864Y-72244185D01*
X142817614Y-72262939D01*
X142788047Y-72280837D01*
X142738911Y-72297337D01*
X142670957Y-72311896D01*
X142625645Y-72318906D01*
X142531456Y-72332389D01*
X142456544Y-72344714D01*
X142397717Y-72356949D01*
X142351785Y-72370161D01*
X142315555Y-72385417D01*
X142285838Y-72403785D01*
X142259442Y-72426331D01*
X142238230Y-72448471D01*
X142213065Y-72479319D01*
X142200681Y-72505845D01*
X142196808Y-72538526D01*
X142196667Y-72550495D01*
X142199576Y-72590212D01*
X142211202Y-72619759D01*
X142231323Y-72645986D01*
X142272216Y-72686076D01*
X142317817Y-72716649D01*
X142371513Y-72738703D01*
X142436692Y-72753235D01*
X142516744Y-72761241D01*
X142615057Y-72763718D01*
X142631289Y-72763677D01*
X142696849Y-72762318D01*
X142761866Y-72759230D01*
X142819252Y-72754856D01*
X142861922Y-72749640D01*
X142865372Y-72749041D01*
X142907796Y-72738991D01*
X142943780Y-72726296D01*
X142964150Y-72714690D01*
X142983107Y-72684072D01*
X142984427Y-72648418D01*
X142968085Y-72616644D01*
X142964429Y-72613051D01*
X142949315Y-72602376D01*
X142930415Y-72597776D01*
X142901162Y-72598559D01*
X142865651Y-72602627D01*
X142825970Y-72606262D01*
X142770345Y-72609328D01*
X142705406Y-72611553D01*
X142637785Y-72612664D01*
X142620000Y-72612737D01*
X142552128Y-72612464D01*
X142502454Y-72611146D01*
X142466610Y-72608327D01*
X142440224Y-72603550D01*
X142418926Y-72596357D01*
X142406126Y-72590367D01*
X142378000Y-72573733D01*
X142360068Y-72558668D01*
X142357447Y-72554397D01*
X142362976Y-72536763D01*
X142389260Y-72519692D01*
X142434478Y-72503958D01*
X142496808Y-72490338D01*
X142515171Y-72487304D01*
X142611090Y-72472238D01*
X142687641Y-72459646D01*
X142747780Y-72448611D01*
X142794460Y-72438220D01*
X142830637Y-72427556D01*
X142859265Y-72415705D01*
X142883298Y-72401751D01*
X142905692Y-72384781D01*
X142929402Y-72363878D01*
X142937380Y-72356549D01*
X142965353Y-72329199D01*
X142980160Y-72307529D01*
X142985952Y-72282732D01*
X142986889Y-72251483D01*
X142976575Y-72190205D01*
X142945752Y-72138140D01*
X142894595Y-72095458D01*
X142823283Y-72062325D01*
X142772400Y-72047464D01*
X142717100Y-72037866D01*
X142650853Y-72032436D01*
X142577706Y-72030867D01*
X142501703Y-72032851D01*
G37*
X142501703Y-72032851D02*
X142426888Y-72038081D01*
X142357306Y-72046250D01*
X142297002Y-72057050D01*
X142250020Y-72070173D01*
X142220406Y-72085313D01*
X142215860Y-72089769D01*
X142200054Y-72124350D01*
X142204847Y-72159851D01*
X142229364Y-72190225D01*
X142230534Y-72191096D01*
X142244954Y-72200454D01*
X142260008Y-72205376D01*
X142281005Y-72205973D01*
X142313257Y-72202361D01*
X142362073Y-72194654D01*
X142366000Y-72194005D01*
X142438739Y-72185069D01*
X142517217Y-72180661D01*
X142595927Y-72180619D01*
X142669361Y-72184779D01*
X142732011Y-72192979D01*
X142778370Y-72205057D01*
X142781416Y-72206271D01*
X142815048Y-72225115D01*
X142826864Y-72244185D01*
X142817614Y-72262939D01*
X142788047Y-72280837D01*
X142738911Y-72297337D01*
X142670957Y-72311896D01*
X142625645Y-72318906D01*
X142531456Y-72332389D01*
X142456544Y-72344714D01*
X142397717Y-72356949D01*
X142351785Y-72370161D01*
X142315555Y-72385417D01*
X142285838Y-72403785D01*
X142259442Y-72426331D01*
X142238230Y-72448471D01*
X142213065Y-72479319D01*
X142200681Y-72505845D01*
X142196808Y-72538526D01*
X142196667Y-72550495D01*
X142199576Y-72590212D01*
X142211202Y-72619759D01*
X142231323Y-72645986D01*
X142272216Y-72686076D01*
X142317817Y-72716649D01*
X142371513Y-72738703D01*
X142436692Y-72753235D01*
X142516744Y-72761241D01*
X142615057Y-72763718D01*
X142631289Y-72763677D01*
X142696849Y-72762318D01*
X142761866Y-72759230D01*
X142819252Y-72754856D01*
X142861922Y-72749640D01*
X142865372Y-72749041D01*
X142907796Y-72738991D01*
X142943780Y-72726296D01*
X142964150Y-72714690D01*
X142983107Y-72684072D01*
X142984427Y-72648418D01*
X142968085Y-72616644D01*
X142964429Y-72613051D01*
X142949315Y-72602376D01*
X142930415Y-72597776D01*
X142901162Y-72598559D01*
X142865651Y-72602627D01*
X142825970Y-72606262D01*
X142770345Y-72609328D01*
X142705406Y-72611553D01*
X142637785Y-72612664D01*
X142620000Y-72612737D01*
X142552128Y-72612464D01*
X142502454Y-72611146D01*
X142466610Y-72608327D01*
X142440224Y-72603550D01*
X142418926Y-72596357D01*
X142406126Y-72590367D01*
X142378000Y-72573733D01*
X142360068Y-72558668D01*
X142357447Y-72554397D01*
X142362976Y-72536763D01*
X142389260Y-72519692D01*
X142434478Y-72503958D01*
X142496808Y-72490338D01*
X142515171Y-72487304D01*
X142611090Y-72472238D01*
X142687641Y-72459646D01*
X142747780Y-72448611D01*
X142794460Y-72438220D01*
X142830637Y-72427556D01*
X142859265Y-72415705D01*
X142883298Y-72401751D01*
X142905692Y-72384781D01*
X142929402Y-72363878D01*
X142937380Y-72356549D01*
X142965353Y-72329199D01*
X142980160Y-72307529D01*
X142985952Y-72282732D01*
X142986889Y-72251483D01*
X142976575Y-72190205D01*
X142945752Y-72138140D01*
X142894595Y-72095458D01*
X142823283Y-72062325D01*
X142772400Y-72047464D01*
X142717100Y-72037866D01*
X142650853Y-72032436D01*
X142577706Y-72030867D01*
X142501703Y-72032851D01*
G36*
X143522794Y-72031646D02*
G01*
X143453386Y-72032018D01*
X143400997Y-72032885D01*
X143362847Y-72034446D01*
X143336159Y-72036903D01*
X143318153Y-72040457D01*
X143306049Y-72045310D01*
X143297069Y-72051661D01*
X143293818Y-72054584D01*
X143274043Y-72085642D01*
X143270482Y-72121328D01*
X143283491Y-72153010D01*
X143289506Y-72159413D01*
X143299235Y-72165621D01*
X143314901Y-72170410D01*
X143339408Y-72174014D01*
X143375661Y-72176664D01*
X143426565Y-72178595D01*
X143495026Y-72180039D01*
X143557617Y-72180918D01*
X143805334Y-72183967D01*
X143808719Y-72248878D01*
X143812105Y-72313789D01*
X143643958Y-72313789D01*
X143570959Y-72314419D01*
X143517517Y-72317053D01*
X143480628Y-72322809D01*
X143457288Y-72332804D01*
X143444494Y-72348156D01*
X143439242Y-72369982D01*
X143438445Y-72390238D01*
X143440923Y-72415092D01*
X143450277Y-72433406D01*
X143469383Y-72446137D01*
X143501118Y-72454241D01*
X143548359Y-72458676D01*
X143613983Y-72460399D01*
X143649801Y-72460545D01*
X143810978Y-72460545D01*
X143810978Y-72618589D01*
X143562622Y-72618589D01*
X143481213Y-72618702D01*
X143419342Y-72619212D01*
X143373968Y-72620370D01*
X143342054Y-72622430D01*
X143320559Y-72625646D01*
X143306443Y-72630272D01*
X143296668Y-72636559D01*
X143291689Y-72641167D01*
X143274610Y-72668060D01*
X143269111Y-72691967D01*
X143276963Y-72721167D01*
X143291689Y-72742767D01*
X143299546Y-72749566D01*
X143309688Y-72754846D01*
X143324844Y-72758798D01*
X143347741Y-72761613D01*
X143381109Y-72763482D01*
X143427675Y-72764598D01*
X143490167Y-72765151D01*
X143571314Y-72765333D01*
X143613422Y-72765345D01*
X143703598Y-72765265D01*
X143773924Y-72764898D01*
X143827129Y-72764052D01*
X143865940Y-72762536D01*
X143893087Y-72760159D01*
X143911298Y-72756729D01*
X143923300Y-72752054D01*
X143931822Y-72745944D01*
X143935156Y-72742767D01*
X143941755Y-72735170D01*
X143946927Y-72725370D01*
X143950846Y-72710739D01*
X143953684Y-72688652D01*
X143955615Y-72656482D01*
X143956812Y-72611603D01*
X143957448Y-72551389D01*
X143957697Y-72473213D01*
X143957734Y-72400423D01*
X143957700Y-72307207D01*
X143957465Y-72233931D01*
X143956830Y-72177958D01*
X143955594Y-72136651D01*
X143953556Y-72107372D01*
X143950517Y-72087484D01*
X143946277Y-72074350D01*
X143940635Y-72065332D01*
X143933391Y-72057793D01*
X143931606Y-72056112D01*
X143922945Y-72048672D01*
X143912882Y-72042909D01*
X143898625Y-72038612D01*
X143877383Y-72035564D01*
X143846364Y-72033551D01*
X143802777Y-72032360D01*
X143743831Y-72031775D01*
X143666734Y-72031583D01*
X143612001Y-72031567D01*
X143522794Y-72031646D01*
G37*
X143522794Y-72031646D02*
X143453386Y-72032018D01*
X143400997Y-72032885D01*
X143362847Y-72034446D01*
X143336159Y-72036903D01*
X143318153Y-72040457D01*
X143306049Y-72045310D01*
X143297069Y-72051661D01*
X143293818Y-72054584D01*
X143274043Y-72085642D01*
X143270482Y-72121328D01*
X143283491Y-72153010D01*
X143289506Y-72159413D01*
X143299235Y-72165621D01*
X143314901Y-72170410D01*
X143339408Y-72174014D01*
X143375661Y-72176664D01*
X143426565Y-72178595D01*
X143495026Y-72180039D01*
X143557617Y-72180918D01*
X143805334Y-72183967D01*
X143808719Y-72248878D01*
X143812105Y-72313789D01*
X143643958Y-72313789D01*
X143570959Y-72314419D01*
X143517517Y-72317053D01*
X143480628Y-72322809D01*
X143457288Y-72332804D01*
X143444494Y-72348156D01*
X143439242Y-72369982D01*
X143438445Y-72390238D01*
X143440923Y-72415092D01*
X143450277Y-72433406D01*
X143469383Y-72446137D01*
X143501118Y-72454241D01*
X143548359Y-72458676D01*
X143613983Y-72460399D01*
X143649801Y-72460545D01*
X143810978Y-72460545D01*
X143810978Y-72618589D01*
X143562622Y-72618589D01*
X143481213Y-72618702D01*
X143419342Y-72619212D01*
X143373968Y-72620370D01*
X143342054Y-72622430D01*
X143320559Y-72625646D01*
X143306443Y-72630272D01*
X143296668Y-72636559D01*
X143291689Y-72641167D01*
X143274610Y-72668060D01*
X143269111Y-72691967D01*
X143276963Y-72721167D01*
X143291689Y-72742767D01*
X143299546Y-72749566D01*
X143309688Y-72754846D01*
X143324844Y-72758798D01*
X143347741Y-72761613D01*
X143381109Y-72763482D01*
X143427675Y-72764598D01*
X143490167Y-72765151D01*
X143571314Y-72765333D01*
X143613422Y-72765345D01*
X143703598Y-72765265D01*
X143773924Y-72764898D01*
X143827129Y-72764052D01*
X143865940Y-72762536D01*
X143893087Y-72760159D01*
X143911298Y-72756729D01*
X143923300Y-72752054D01*
X143931822Y-72745944D01*
X143935156Y-72742767D01*
X143941755Y-72735170D01*
X143946927Y-72725370D01*
X143950846Y-72710739D01*
X143953684Y-72688652D01*
X143955615Y-72656482D01*
X143956812Y-72611603D01*
X143957448Y-72551389D01*
X143957697Y-72473213D01*
X143957734Y-72400423D01*
X143957700Y-72307207D01*
X143957465Y-72233931D01*
X143956830Y-72177958D01*
X143955594Y-72136651D01*
X143953556Y-72107372D01*
X143950517Y-72087484D01*
X143946277Y-72074350D01*
X143940635Y-72065332D01*
X143933391Y-72057793D01*
X143931606Y-72056112D01*
X143922945Y-72048672D01*
X143912882Y-72042909D01*
X143898625Y-72038612D01*
X143877383Y-72035564D01*
X143846364Y-72033551D01*
X143802777Y-72032360D01*
X143743831Y-72031775D01*
X143666734Y-72031583D01*
X143612001Y-72031567D01*
X143522794Y-72031646D01*
G36*
X144931371Y-72031566D02*
G01*
X144891889Y-72031967D01*
X144776200Y-72034759D01*
X144679311Y-72043050D01*
X144597919Y-72057732D01*
X144528723Y-72079693D01*
X144468420Y-72109822D01*
X144413708Y-72149010D01*
X144394167Y-72166032D01*
X144361750Y-72205863D01*
X144332520Y-72259913D01*
X144309991Y-72319823D01*
X144297679Y-72377239D01*
X144296400Y-72398456D01*
X144304417Y-72457269D01*
X144325899Y-72521513D01*
X144356999Y-72582321D01*
X144393866Y-72630830D01*
X144399854Y-72636682D01*
X144450579Y-72677821D01*
X144506125Y-72709935D01*
X144569696Y-72733865D01*
X144644494Y-72750453D01*
X144733722Y-72760541D01*
X144840582Y-72764969D01*
X144889528Y-72765345D01*
X144951762Y-72765045D01*
X144995528Y-72763792D01*
X145024931Y-72761054D01*
X145044079Y-72756301D01*
X145057077Y-72749001D01*
X145064045Y-72742767D01*
X145070626Y-72735194D01*
X145075788Y-72725424D01*
X145079703Y-72710840D01*
X145082543Y-72688826D01*
X145084480Y-72656764D01*
X145085684Y-72612036D01*
X145086328Y-72552026D01*
X145086583Y-72474117D01*
X145086622Y-72398456D01*
X145086870Y-72297541D01*
X145086817Y-72216927D01*
X145085857Y-72178322D01*
X144939867Y-72178322D01*
X144939867Y-72618589D01*
X144846734Y-72618504D01*
X144790693Y-72616896D01*
X144731999Y-72612756D01*
X144683028Y-72606964D01*
X144681538Y-72606726D01*
X144602392Y-72587590D01*
X144541002Y-72557787D01*
X144494305Y-72515378D01*
X144464635Y-72469461D01*
X144446353Y-72418526D01*
X144447771Y-72370700D01*
X144468988Y-72319433D01*
X144510489Y-72266399D01*
X144567998Y-72227100D01*
X144642750Y-72200831D01*
X144692708Y-72191535D01*
X144749416Y-72185007D01*
X144809519Y-72180282D01*
X144860639Y-72178317D01*
X144863667Y-72178308D01*
X144939867Y-72178322D01*
X145085857Y-72178322D01*
X145085260Y-72154351D01*
X145080998Y-72107555D01*
X145072830Y-72074278D01*
X145059556Y-72052259D01*
X145039974Y-72039239D01*
X145012883Y-72032957D01*
X144977082Y-72031153D01*
X144931371Y-72031566D01*
G37*
X144931371Y-72031566D02*
X144891889Y-72031967D01*
X144776200Y-72034759D01*
X144679311Y-72043050D01*
X144597919Y-72057732D01*
X144528723Y-72079693D01*
X144468420Y-72109822D01*
X144413708Y-72149010D01*
X144394167Y-72166032D01*
X144361750Y-72205863D01*
X144332520Y-72259913D01*
X144309991Y-72319823D01*
X144297679Y-72377239D01*
X144296400Y-72398456D01*
X144304417Y-72457269D01*
X144325899Y-72521513D01*
X144356999Y-72582321D01*
X144393866Y-72630830D01*
X144399854Y-72636682D01*
X144450579Y-72677821D01*
X144506125Y-72709935D01*
X144569696Y-72733865D01*
X144644494Y-72750453D01*
X144733722Y-72760541D01*
X144840582Y-72764969D01*
X144889528Y-72765345D01*
X144951762Y-72765045D01*
X144995528Y-72763792D01*
X145024931Y-72761054D01*
X145044079Y-72756301D01*
X145057077Y-72749001D01*
X145064045Y-72742767D01*
X145070626Y-72735194D01*
X145075788Y-72725424D01*
X145079703Y-72710840D01*
X145082543Y-72688826D01*
X145084480Y-72656764D01*
X145085684Y-72612036D01*
X145086328Y-72552026D01*
X145086583Y-72474117D01*
X145086622Y-72398456D01*
X145086870Y-72297541D01*
X145086817Y-72216927D01*
X145085857Y-72178322D01*
X144939867Y-72178322D01*
X144939867Y-72618589D01*
X144846734Y-72618504D01*
X144790693Y-72616896D01*
X144731999Y-72612756D01*
X144683028Y-72606964D01*
X144681538Y-72606726D01*
X144602392Y-72587590D01*
X144541002Y-72557787D01*
X144494305Y-72515378D01*
X144464635Y-72469461D01*
X144446353Y-72418526D01*
X144447771Y-72370700D01*
X144468988Y-72319433D01*
X144510489Y-72266399D01*
X144567998Y-72227100D01*
X144642750Y-72200831D01*
X144692708Y-72191535D01*
X144749416Y-72185007D01*
X144809519Y-72180282D01*
X144860639Y-72178317D01*
X144863667Y-72178308D01*
X144939867Y-72178322D01*
X145085857Y-72178322D01*
X145085260Y-72154351D01*
X145080998Y-72107555D01*
X145072830Y-72074278D01*
X145059556Y-72052259D01*
X145039974Y-72039239D01*
X145012883Y-72032957D01*
X144977082Y-72031153D01*
X144931371Y-72031566D01*
G36*
X141083043Y-66789071D02*
G01*
X140986768Y-66813309D01*
X140900184Y-66856141D01*
X140825373Y-66915919D01*
X140764418Y-66990994D01*
X140719399Y-67079720D01*
X140693136Y-67176030D01*
X140687286Y-67273295D01*
X140702140Y-67367154D01*
X140735840Y-67455011D01*
X140786528Y-67534270D01*
X140852345Y-67602336D01*
X140931434Y-67656612D01*
X141021934Y-67694502D01*
X141073200Y-67706926D01*
X141117698Y-67714447D01*
X141151999Y-67717419D01*
X141184960Y-67715594D01*
X141225434Y-67708725D01*
X141258531Y-67701750D01*
X141351947Y-67670241D01*
X141435619Y-67619117D01*
X141507665Y-67549929D01*
X141566200Y-67464228D01*
X141580148Y-67436989D01*
X141596586Y-67400622D01*
X141606894Y-67370082D01*
X141612460Y-67337950D01*
X141614669Y-67296807D01*
X141614948Y-67250722D01*
X141610861Y-67166365D01*
X141597446Y-67097086D01*
X141572256Y-67036461D01*
X141532846Y-66978067D01*
X141494298Y-66933802D01*
X141422406Y-66867984D01*
X141347313Y-66822553D01*
X141264562Y-66795350D01*
X141186928Y-66785076D01*
X141083043Y-66789071D01*
G37*
X141083043Y-66789071D02*
X140986768Y-66813309D01*
X140900184Y-66856141D01*
X140825373Y-66915919D01*
X140764418Y-66990994D01*
X140719399Y-67079720D01*
X140693136Y-67176030D01*
X140687286Y-67273295D01*
X140702140Y-67367154D01*
X140735840Y-67455011D01*
X140786528Y-67534270D01*
X140852345Y-67602336D01*
X140931434Y-67656612D01*
X141021934Y-67694502D01*
X141073200Y-67706926D01*
X141117698Y-67714447D01*
X141151999Y-67717419D01*
X141184960Y-67715594D01*
X141225434Y-67708725D01*
X141258531Y-67701750D01*
X141351947Y-67670241D01*
X141435619Y-67619117D01*
X141507665Y-67549929D01*
X141566200Y-67464228D01*
X141580148Y-67436989D01*
X141596586Y-67400622D01*
X141606894Y-67370082D01*
X141612460Y-67337950D01*
X141614669Y-67296807D01*
X141614948Y-67250722D01*
X141610861Y-67166365D01*
X141597446Y-67097086D01*
X141572256Y-67036461D01*
X141532846Y-66978067D01*
X141494298Y-66933802D01*
X141422406Y-66867984D01*
X141347313Y-66822553D01*
X141264562Y-66795350D01*
X141186928Y-66785076D01*
X141083043Y-66789071D01*
G36*
X132623493Y-69234745D02*
G01*
X132623474Y-69469162D01*
X132623448Y-69682103D01*
X132623375Y-69874668D01*
X132623218Y-70047959D01*
X132622936Y-70203076D01*
X132622491Y-70341120D01*
X132621844Y-70463192D01*
X132620955Y-70570394D01*
X132619787Y-70663826D01*
X132618299Y-70744590D01*
X132616454Y-70813786D01*
X132614211Y-70872515D01*
X132611531Y-70921879D01*
X132608377Y-70962978D01*
X132604708Y-70996913D01*
X132600487Y-71024786D01*
X132595673Y-71047698D01*
X132590227Y-71066749D01*
X132584112Y-71083040D01*
X132577288Y-71097673D01*
X132569715Y-71111749D01*
X132561355Y-71126368D01*
X132556161Y-71135474D01*
X132521896Y-71196189D01*
X133380045Y-71196189D01*
X133380045Y-71100233D01*
X133380776Y-71056870D01*
X133382728Y-71023705D01*
X133385537Y-71005924D01*
X133386779Y-71004278D01*
X133398201Y-71011162D01*
X133420916Y-71029005D01*
X133443615Y-71048379D01*
X133498200Y-71089114D01*
X133567679Y-71130117D01*
X133644730Y-71167623D01*
X133722035Y-71197864D01*
X133752887Y-71207512D01*
X133821384Y-71222078D01*
X133904236Y-71232039D01*
X133993629Y-71237083D01*
X134081752Y-71236896D01*
X134160793Y-71231166D01*
X134198489Y-71225358D01*
X134336586Y-71187297D01*
X134463887Y-71129573D01*
X134579708Y-71052711D01*
X134683363Y-70957239D01*
X134774167Y-70843679D01*
X134840969Y-70732881D01*
X134895836Y-70616125D01*
X134937837Y-70496776D01*
X134967833Y-70370783D01*
X134986689Y-70234094D01*
X134995268Y-70082658D01*
X134995994Y-70005211D01*
X134993900Y-69948434D01*
X134164783Y-69948434D01*
X134164576Y-70041502D01*
X134161663Y-70129192D01*
X134156000Y-70206272D01*
X134147545Y-70267509D01*
X134144962Y-70279850D01*
X134113160Y-70387133D01*
X134071502Y-70474158D01*
X134019637Y-70541142D01*
X133957219Y-70588305D01*
X133883900Y-70615865D01*
X133799331Y-70624041D01*
X133703165Y-70613051D01*
X133639689Y-70597329D01*
X133590546Y-70579139D01*
X133536417Y-70553291D01*
X133495756Y-70529589D01*
X133425200Y-70483221D01*
X133425200Y-69333030D01*
X133492608Y-69289462D01*
X133571133Y-69248540D01*
X133655319Y-69221889D01*
X133740443Y-69209965D01*
X133821784Y-69213222D01*
X133894620Y-69232115D01*
X133926574Y-69247684D01*
X133984499Y-69290681D01*
X134033456Y-69347453D01*
X134074610Y-69420075D01*
X134109126Y-69510621D01*
X134138167Y-69621166D01*
X134139448Y-69627033D01*
X134149619Y-69689288D01*
X134157261Y-69767094D01*
X134162330Y-69855220D01*
X134164783Y-69948434D01*
X134993900Y-69948434D01*
X134988143Y-69792395D01*
X134966198Y-69596559D01*
X134930214Y-69417832D01*
X134880241Y-69256345D01*
X134816332Y-69112226D01*
X134738538Y-68985606D01*
X134646911Y-68876615D01*
X134541503Y-68785383D01*
X134496338Y-68754432D01*
X134395389Y-68698285D01*
X134292099Y-68658674D01*
X134182011Y-68634514D01*
X134060670Y-68624719D01*
X133968164Y-68625765D01*
X133838510Y-68636731D01*
X133725916Y-68658546D01*
X133627125Y-68692214D01*
X133538879Y-68738736D01*
X133490014Y-68772948D01*
X133460647Y-68794862D01*
X133438957Y-68809833D01*
X133430747Y-68814233D01*
X133429132Y-68803404D01*
X133427841Y-68772751D01*
X133426862Y-68725026D01*
X133426183Y-68662979D01*
X133425790Y-68589362D01*
X133425670Y-68506927D01*
X133425812Y-68418425D01*
X133426203Y-68326607D01*
X133426829Y-68234224D01*
X133427680Y-68144028D01*
X133428740Y-68058771D01*
X133429999Y-67981203D01*
X133431444Y-67914076D01*
X133433062Y-67860141D01*
X133434839Y-67822150D01*
X133435331Y-67815167D01*
X133442908Y-67744751D01*
X133454469Y-67689602D01*
X133472208Y-67642481D01*
X133498318Y-67596147D01*
X133504585Y-67586567D01*
X133529017Y-67549878D01*
X132623689Y-67549878D01*
X132623493Y-69234745D01*
G37*
X132623493Y-69234745D02*
X132623474Y-69469162D01*
X132623448Y-69682103D01*
X132623375Y-69874668D01*
X132623218Y-70047959D01*
X132622936Y-70203076D01*
X132622491Y-70341120D01*
X132621844Y-70463192D01*
X132620955Y-70570394D01*
X132619787Y-70663826D01*
X132618299Y-70744590D01*
X132616454Y-70813786D01*
X132614211Y-70872515D01*
X132611531Y-70921879D01*
X132608377Y-70962978D01*
X132604708Y-70996913D01*
X132600487Y-71024786D01*
X132595673Y-71047698D01*
X132590227Y-71066749D01*
X132584112Y-71083040D01*
X132577288Y-71097673D01*
X132569715Y-71111749D01*
X132561355Y-71126368D01*
X132556161Y-71135474D01*
X132521896Y-71196189D01*
X133380045Y-71196189D01*
X133380045Y-71100233D01*
X133380776Y-71056870D01*
X133382728Y-71023705D01*
X133385537Y-71005924D01*
X133386779Y-71004278D01*
X133398201Y-71011162D01*
X133420916Y-71029005D01*
X133443615Y-71048379D01*
X133498200Y-71089114D01*
X133567679Y-71130117D01*
X133644730Y-71167623D01*
X133722035Y-71197864D01*
X133752887Y-71207512D01*
X133821384Y-71222078D01*
X133904236Y-71232039D01*
X133993629Y-71237083D01*
X134081752Y-71236896D01*
X134160793Y-71231166D01*
X134198489Y-71225358D01*
X134336586Y-71187297D01*
X134463887Y-71129573D01*
X134579708Y-71052711D01*
X134683363Y-70957239D01*
X134774167Y-70843679D01*
X134840969Y-70732881D01*
X134895836Y-70616125D01*
X134937837Y-70496776D01*
X134967833Y-70370783D01*
X134986689Y-70234094D01*
X134995268Y-70082658D01*
X134995994Y-70005211D01*
X134993900Y-69948434D01*
X134164783Y-69948434D01*
X134164576Y-70041502D01*
X134161663Y-70129192D01*
X134156000Y-70206272D01*
X134147545Y-70267509D01*
X134144962Y-70279850D01*
X134113160Y-70387133D01*
X134071502Y-70474158D01*
X134019637Y-70541142D01*
X133957219Y-70588305D01*
X133883900Y-70615865D01*
X133799331Y-70624041D01*
X133703165Y-70613051D01*
X133639689Y-70597329D01*
X133590546Y-70579139D01*
X133536417Y-70553291D01*
X133495756Y-70529589D01*
X133425200Y-70483221D01*
X133425200Y-69333030D01*
X133492608Y-69289462D01*
X133571133Y-69248540D01*
X133655319Y-69221889D01*
X133740443Y-69209965D01*
X133821784Y-69213222D01*
X133894620Y-69232115D01*
X133926574Y-69247684D01*
X133984499Y-69290681D01*
X134033456Y-69347453D01*
X134074610Y-69420075D01*
X134109126Y-69510621D01*
X134138167Y-69621166D01*
X134139448Y-69627033D01*
X134149619Y-69689288D01*
X134157261Y-69767094D01*
X134162330Y-69855220D01*
X134164783Y-69948434D01*
X134993900Y-69948434D01*
X134988143Y-69792395D01*
X134966198Y-69596559D01*
X134930214Y-69417832D01*
X134880241Y-69256345D01*
X134816332Y-69112226D01*
X134738538Y-68985606D01*
X134646911Y-68876615D01*
X134541503Y-68785383D01*
X134496338Y-68754432D01*
X134395389Y-68698285D01*
X134292099Y-68658674D01*
X134182011Y-68634514D01*
X134060670Y-68624719D01*
X133968164Y-68625765D01*
X133838510Y-68636731D01*
X133725916Y-68658546D01*
X133627125Y-68692214D01*
X133538879Y-68738736D01*
X133490014Y-68772948D01*
X133460647Y-68794862D01*
X133438957Y-68809833D01*
X133430747Y-68814233D01*
X133429132Y-68803404D01*
X133427841Y-68772751D01*
X133426862Y-68725026D01*
X133426183Y-68662979D01*
X133425790Y-68589362D01*
X133425670Y-68506927D01*
X133425812Y-68418425D01*
X133426203Y-68326607D01*
X133426829Y-68234224D01*
X133427680Y-68144028D01*
X133428740Y-68058771D01*
X133429999Y-67981203D01*
X133431444Y-67914076D01*
X133433062Y-67860141D01*
X133434839Y-67822150D01*
X133435331Y-67815167D01*
X133442908Y-67744751D01*
X133454469Y-67689602D01*
X133472208Y-67642481D01*
X133498318Y-67596147D01*
X133504585Y-67586567D01*
X133529017Y-67549878D01*
X132623689Y-67549878D01*
X132623493Y-69234745D01*
G36*
X136136426Y-68629052D02*
G01*
X135984508Y-68649067D01*
X135849244Y-68682702D01*
X135729761Y-68730225D01*
X135625185Y-68791905D01*
X135547576Y-68855465D01*
X135478735Y-68929599D01*
X135424994Y-69009371D01*
X135382090Y-69101591D01*
X135366616Y-69144661D01*
X135353756Y-69183642D01*
X135342554Y-69219789D01*
X135332880Y-69254934D01*
X135324604Y-69290910D01*
X135317597Y-69329550D01*
X135311728Y-69372685D01*
X135306869Y-69422149D01*
X135302890Y-69479773D01*
X135299660Y-69547391D01*
X135297051Y-69626834D01*
X135294933Y-69719936D01*
X135293176Y-69828527D01*
X135291651Y-69954442D01*
X135290228Y-70099512D01*
X135288975Y-70242278D01*
X135287649Y-70398468D01*
X135286444Y-70533739D01*
X135285234Y-70649746D01*
X135283894Y-70748145D01*
X135282300Y-70830593D01*
X135280325Y-70898746D01*
X135277844Y-70954260D01*
X135274731Y-70998792D01*
X135270862Y-71033998D01*
X135266111Y-71061534D01*
X135260352Y-71083056D01*
X135253461Y-71100222D01*
X135245311Y-71114686D01*
X135235777Y-71128106D01*
X135224734Y-71142138D01*
X135220434Y-71147571D01*
X135204614Y-71170410D01*
X135197578Y-71185963D01*
X135197556Y-71186422D01*
X135208433Y-71188621D01*
X135239418Y-71190647D01*
X135288043Y-71192442D01*
X135351837Y-71193951D01*
X135428331Y-71195116D01*
X135515056Y-71195880D01*
X135609543Y-71196186D01*
X135620450Y-71196189D01*
X136043343Y-71196189D01*
X136046605Y-71100122D01*
X136049867Y-71004056D01*
X136111956Y-71055043D01*
X136209286Y-71122557D01*
X136319187Y-71177249D01*
X136405651Y-71207478D01*
X136474722Y-71222166D01*
X136558075Y-71232159D01*
X136647841Y-71237146D01*
X136736155Y-71236813D01*
X136815149Y-71230851D01*
X136851378Y-71225138D01*
X136991397Y-71187276D01*
X137117822Y-71132432D01*
X137229740Y-71061424D01*
X137326238Y-70975068D01*
X137406400Y-70874179D01*
X137469313Y-70759576D01*
X137513688Y-70633484D01*
X137526022Y-70576901D01*
X137533632Y-70514702D01*
X137537261Y-70439863D01*
X137537755Y-70405967D01*
X137537690Y-70402782D01*
X136777752Y-70402782D01*
X136768459Y-70477833D01*
X136740272Y-70541660D01*
X136691803Y-70597298D01*
X136686746Y-70601711D01*
X136638452Y-70636537D01*
X136586743Y-70659120D01*
X136526011Y-70671040D01*
X136450648Y-70673883D01*
X136432541Y-70673478D01*
X136378722Y-70670825D01*
X136338692Y-70665409D01*
X136303676Y-70655245D01*
X136264897Y-70638350D01*
X136254255Y-70633172D01*
X136193604Y-70597344D01*
X136146785Y-70554712D01*
X136134048Y-70539473D01*
X136089378Y-70482962D01*
X136089378Y-70287086D01*
X136089914Y-70208439D01*
X136091604Y-70150488D01*
X136094572Y-70111375D01*
X136098943Y-70089241D01*
X136103028Y-70082774D01*
X136118953Y-70079611D01*
X136152736Y-70076988D01*
X136199660Y-70075155D01*
X136255007Y-70074357D01*
X136263894Y-70074342D01*
X136384670Y-70079596D01*
X136487340Y-70095763D01*
X136573894Y-70123461D01*
X136646319Y-70163308D01*
X136701249Y-70210258D01*
X136745796Y-70268145D01*
X136770520Y-70331193D01*
X136777752Y-70402782D01*
X137537690Y-70402782D01*
X137535822Y-70312212D01*
X137527478Y-70233312D01*
X137511232Y-70162090D01*
X137485595Y-70091364D01*
X137461599Y-70038993D01*
X137402980Y-69943696D01*
X137324883Y-69855670D01*
X137229685Y-69776517D01*
X137119762Y-69707840D01*
X136997490Y-69651241D01*
X136865245Y-69608321D01*
X136800578Y-69593382D01*
X136664396Y-69571277D01*
X136515951Y-69556694D01*
X136364495Y-69550313D01*
X136237936Y-69551945D01*
X136076050Y-69558724D01*
X136083470Y-69499745D01*
X136102762Y-69400592D01*
X136133896Y-69319872D01*
X136177731Y-69256966D01*
X136235129Y-69211256D01*
X136306952Y-69182122D01*
X136394059Y-69168947D01*
X136497314Y-69171111D01*
X136535289Y-69175112D01*
X136676480Y-69200280D01*
X136813293Y-69241314D01*
X136907822Y-69279315D01*
X136952982Y-69298690D01*
X136991415Y-69314260D01*
X137017766Y-69323905D01*
X137025454Y-69325952D01*
X137035198Y-69316874D01*
X137051917Y-69287905D01*
X137075768Y-69238717D01*
X137106907Y-69168984D01*
X137145493Y-69078379D01*
X137152090Y-69062589D01*
X137182147Y-68990272D01*
X137209126Y-68924925D01*
X137231864Y-68869406D01*
X137249194Y-68826572D01*
X137259952Y-68799281D01*
X137263059Y-68790442D01*
X137253060Y-68785687D01*
X137226783Y-68780410D01*
X137198511Y-68776731D01*
X137168354Y-68771974D01*
X137120567Y-68762528D01*
X137059388Y-68749320D01*
X136989054Y-68733276D01*
X136913806Y-68715320D01*
X136885245Y-68708297D01*
X136780184Y-68682709D01*
X136692520Y-68662647D01*
X136617932Y-68647469D01*
X136552097Y-68636535D01*
X136490693Y-68629204D01*
X136429398Y-68624835D01*
X136363890Y-68622787D01*
X136305872Y-68622389D01*
X136136426Y-68629052D01*
G37*
X136136426Y-68629052D02*
X135984508Y-68649067D01*
X135849244Y-68682702D01*
X135729761Y-68730225D01*
X135625185Y-68791905D01*
X135547576Y-68855465D01*
X135478735Y-68929599D01*
X135424994Y-69009371D01*
X135382090Y-69101591D01*
X135366616Y-69144661D01*
X135353756Y-69183642D01*
X135342554Y-69219789D01*
X135332880Y-69254934D01*
X135324604Y-69290910D01*
X135317597Y-69329550D01*
X135311728Y-69372685D01*
X135306869Y-69422149D01*
X135302890Y-69479773D01*
X135299660Y-69547391D01*
X135297051Y-69626834D01*
X135294933Y-69719936D01*
X135293176Y-69828527D01*
X135291651Y-69954442D01*
X135290228Y-70099512D01*
X135288975Y-70242278D01*
X135287649Y-70398468D01*
X135286444Y-70533739D01*
X135285234Y-70649746D01*
X135283894Y-70748145D01*
X135282300Y-70830593D01*
X135280325Y-70898746D01*
X135277844Y-70954260D01*
X135274731Y-70998792D01*
X135270862Y-71033998D01*
X135266111Y-71061534D01*
X135260352Y-71083056D01*
X135253461Y-71100222D01*
X135245311Y-71114686D01*
X135235777Y-71128106D01*
X135224734Y-71142138D01*
X135220434Y-71147571D01*
X135204614Y-71170410D01*
X135197578Y-71185963D01*
X135197556Y-71186422D01*
X135208433Y-71188621D01*
X135239418Y-71190647D01*
X135288043Y-71192442D01*
X135351837Y-71193951D01*
X135428331Y-71195116D01*
X135515056Y-71195880D01*
X135609543Y-71196186D01*
X135620450Y-71196189D01*
X136043343Y-71196189D01*
X136046605Y-71100122D01*
X136049867Y-71004056D01*
X136111956Y-71055043D01*
X136209286Y-71122557D01*
X136319187Y-71177249D01*
X136405651Y-71207478D01*
X136474722Y-71222166D01*
X136558075Y-71232159D01*
X136647841Y-71237146D01*
X136736155Y-71236813D01*
X136815149Y-71230851D01*
X136851378Y-71225138D01*
X136991397Y-71187276D01*
X137117822Y-71132432D01*
X137229740Y-71061424D01*
X137326238Y-70975068D01*
X137406400Y-70874179D01*
X137469313Y-70759576D01*
X137513688Y-70633484D01*
X137526022Y-70576901D01*
X137533632Y-70514702D01*
X137537261Y-70439863D01*
X137537755Y-70405967D01*
X137537690Y-70402782D01*
X136777752Y-70402782D01*
X136768459Y-70477833D01*
X136740272Y-70541660D01*
X136691803Y-70597298D01*
X136686746Y-70601711D01*
X136638452Y-70636537D01*
X136586743Y-70659120D01*
X136526011Y-70671040D01*
X136450648Y-70673883D01*
X136432541Y-70673478D01*
X136378722Y-70670825D01*
X136338692Y-70665409D01*
X136303676Y-70655245D01*
X136264897Y-70638350D01*
X136254255Y-70633172D01*
X136193604Y-70597344D01*
X136146785Y-70554712D01*
X136134048Y-70539473D01*
X136089378Y-70482962D01*
X136089378Y-70287086D01*
X136089914Y-70208439D01*
X136091604Y-70150488D01*
X136094572Y-70111375D01*
X136098943Y-70089241D01*
X136103028Y-70082774D01*
X136118953Y-70079611D01*
X136152736Y-70076988D01*
X136199660Y-70075155D01*
X136255007Y-70074357D01*
X136263894Y-70074342D01*
X136384670Y-70079596D01*
X136487340Y-70095763D01*
X136573894Y-70123461D01*
X136646319Y-70163308D01*
X136701249Y-70210258D01*
X136745796Y-70268145D01*
X136770520Y-70331193D01*
X136777752Y-70402782D01*
X137537690Y-70402782D01*
X137535822Y-70312212D01*
X137527478Y-70233312D01*
X137511232Y-70162090D01*
X137485595Y-70091364D01*
X137461599Y-70038993D01*
X137402980Y-69943696D01*
X137324883Y-69855670D01*
X137229685Y-69776517D01*
X137119762Y-69707840D01*
X136997490Y-69651241D01*
X136865245Y-69608321D01*
X136800578Y-69593382D01*
X136664396Y-69571277D01*
X136515951Y-69556694D01*
X136364495Y-69550313D01*
X136237936Y-69551945D01*
X136076050Y-69558724D01*
X136083470Y-69499745D01*
X136102762Y-69400592D01*
X136133896Y-69319872D01*
X136177731Y-69256966D01*
X136235129Y-69211256D01*
X136306952Y-69182122D01*
X136394059Y-69168947D01*
X136497314Y-69171111D01*
X136535289Y-69175112D01*
X136676480Y-69200280D01*
X136813293Y-69241314D01*
X136907822Y-69279315D01*
X136952982Y-69298690D01*
X136991415Y-69314260D01*
X137017766Y-69323905D01*
X137025454Y-69325952D01*
X137035198Y-69316874D01*
X137051917Y-69287905D01*
X137075768Y-69238717D01*
X137106907Y-69168984D01*
X137145493Y-69078379D01*
X137152090Y-69062589D01*
X137182147Y-68990272D01*
X137209126Y-68924925D01*
X137231864Y-68869406D01*
X137249194Y-68826572D01*
X137259952Y-68799281D01*
X137263059Y-68790442D01*
X137253060Y-68785687D01*
X137226783Y-68780410D01*
X137198511Y-68776731D01*
X137168354Y-68771974D01*
X137120567Y-68762528D01*
X137059388Y-68749320D01*
X136989054Y-68733276D01*
X136913806Y-68715320D01*
X136885245Y-68708297D01*
X136780184Y-68682709D01*
X136692520Y-68662647D01*
X136617932Y-68647469D01*
X136552097Y-68636535D01*
X136490693Y-68629204D01*
X136429398Y-68624835D01*
X136363890Y-68622787D01*
X136305872Y-68622389D01*
X136136426Y-68629052D01*
G36*
X138481571Y-67711571D02*
G01*
X138321430Y-67732745D01*
X138157490Y-67772885D01*
X137987687Y-67832389D01*
X137809957Y-67911654D01*
X137798690Y-67917199D01*
X137740995Y-67945225D01*
X137689448Y-67969302D01*
X137647809Y-67987749D01*
X137619838Y-67998886D01*
X137610267Y-68001433D01*
X137591050Y-68006441D01*
X137586439Y-68010647D01*
X137591542Y-68021080D01*
X137607582Y-68047368D01*
X137632712Y-68086757D01*
X137665086Y-68136491D01*
X137702857Y-68193815D01*
X137744178Y-68255976D01*
X137787202Y-68320218D01*
X137830083Y-68383785D01*
X137870974Y-68443925D01*
X137908029Y-68497880D01*
X137939400Y-68542897D01*
X137963241Y-68576221D01*
X137977706Y-68595097D01*
X137979691Y-68597287D01*
X137989809Y-68592638D01*
X138012150Y-68575462D01*
X138042720Y-68548940D01*
X138058464Y-68534464D01*
X138154953Y-68459182D01*
X138261664Y-68403741D01*
X138377168Y-68368641D01*
X138500038Y-68354380D01*
X138569439Y-68355551D01*
X138690577Y-68372712D01*
X138799795Y-68408594D01*
X138897418Y-68463459D01*
X138983772Y-68537570D01*
X139059185Y-68631188D01*
X139123982Y-68744576D01*
X139161399Y-68831167D01*
X139205252Y-68966866D01*
X139237572Y-69114350D01*
X139258443Y-69269814D01*
X139267949Y-69429456D01*
X139266173Y-69589473D01*
X139253197Y-69746061D01*
X139229106Y-69895418D01*
X139193982Y-70033740D01*
X139147908Y-70157224D01*
X139131627Y-70191478D01*
X139063380Y-70305564D01*
X138982921Y-70402057D01*
X138891430Y-70480170D01*
X138790089Y-70539117D01*
X138680080Y-70578112D01*
X138562585Y-70596368D01*
X138521117Y-70597711D01*
X138399559Y-70586790D01*
X138279122Y-70553974D01*
X138161334Y-70499939D01*
X138047723Y-70425365D01*
X137956315Y-70347039D01*
X137909785Y-70302508D01*
X137728517Y-70599771D01*
X137683420Y-70673933D01*
X137642181Y-70742146D01*
X137606265Y-70801959D01*
X137577134Y-70850920D01*
X137556250Y-70886579D01*
X137545076Y-70906484D01*
X137543625Y-70909579D01*
X137551854Y-70919218D01*
X137577433Y-70936499D01*
X137617127Y-70959783D01*
X137667703Y-70987434D01*
X137725926Y-71017815D01*
X137788563Y-71049290D01*
X137852379Y-71080222D01*
X137914140Y-71108973D01*
X137970612Y-71133908D01*
X138018562Y-71153389D01*
X138042014Y-71161818D01*
X138175779Y-71199633D01*
X138313673Y-71224636D01*
X138461378Y-71237640D01*
X138588167Y-71239968D01*
X138656122Y-71238873D01*
X138721723Y-71236775D01*
X138779153Y-71233934D01*
X138822597Y-71230606D01*
X138836702Y-71228922D01*
X138975716Y-71200087D01*
X139117243Y-71154968D01*
X139254725Y-71096250D01*
X139381606Y-71026620D01*
X139459111Y-70973941D01*
X139586519Y-70865739D01*
X139704822Y-70739171D01*
X139811828Y-70597366D01*
X139905348Y-70443451D01*
X139983190Y-70280553D01*
X140027044Y-70163256D01*
X140077292Y-69979628D01*
X140110791Y-69785081D01*
X140127551Y-69583825D01*
X140127584Y-69380068D01*
X140110899Y-69178021D01*
X140077507Y-68981892D01*
X140027420Y-68795891D01*
X140023603Y-68784303D01*
X139960719Y-68622250D01*
X139883972Y-68474332D01*
X139790758Y-68336365D01*
X139678473Y-68204161D01*
X139634608Y-68158899D01*
X139498466Y-68034957D01*
X139358509Y-67932415D01*
X139212589Y-67850156D01*
X139058558Y-67787064D01*
X138894268Y-67742023D01*
X138798711Y-67724533D01*
X138639977Y-67708966D01*
X138481571Y-67711571D01*
G37*
X138481571Y-67711571D02*
X138321430Y-67732745D01*
X138157490Y-67772885D01*
X137987687Y-67832389D01*
X137809957Y-67911654D01*
X137798690Y-67917199D01*
X137740995Y-67945225D01*
X137689448Y-67969302D01*
X137647809Y-67987749D01*
X137619838Y-67998886D01*
X137610267Y-68001433D01*
X137591050Y-68006441D01*
X137586439Y-68010647D01*
X137591542Y-68021080D01*
X137607582Y-68047368D01*
X137632712Y-68086757D01*
X137665086Y-68136491D01*
X137702857Y-68193815D01*
X137744178Y-68255976D01*
X137787202Y-68320218D01*
X137830083Y-68383785D01*
X137870974Y-68443925D01*
X137908029Y-68497880D01*
X137939400Y-68542897D01*
X137963241Y-68576221D01*
X137977706Y-68595097D01*
X137979691Y-68597287D01*
X137989809Y-68592638D01*
X138012150Y-68575462D01*
X138042720Y-68548940D01*
X138058464Y-68534464D01*
X138154953Y-68459182D01*
X138261664Y-68403741D01*
X138377168Y-68368641D01*
X138500038Y-68354380D01*
X138569439Y-68355551D01*
X138690577Y-68372712D01*
X138799795Y-68408594D01*
X138897418Y-68463459D01*
X138983772Y-68537570D01*
X139059185Y-68631188D01*
X139123982Y-68744576D01*
X139161399Y-68831167D01*
X139205252Y-68966866D01*
X139237572Y-69114350D01*
X139258443Y-69269814D01*
X139267949Y-69429456D01*
X139266173Y-69589473D01*
X139253197Y-69746061D01*
X139229106Y-69895418D01*
X139193982Y-70033740D01*
X139147908Y-70157224D01*
X139131627Y-70191478D01*
X139063380Y-70305564D01*
X138982921Y-70402057D01*
X138891430Y-70480170D01*
X138790089Y-70539117D01*
X138680080Y-70578112D01*
X138562585Y-70596368D01*
X138521117Y-70597711D01*
X138399559Y-70586790D01*
X138279122Y-70553974D01*
X138161334Y-70499939D01*
X138047723Y-70425365D01*
X137956315Y-70347039D01*
X137909785Y-70302508D01*
X137728517Y-70599771D01*
X137683420Y-70673933D01*
X137642181Y-70742146D01*
X137606265Y-70801959D01*
X137577134Y-70850920D01*
X137556250Y-70886579D01*
X137545076Y-70906484D01*
X137543625Y-70909579D01*
X137551854Y-70919218D01*
X137577433Y-70936499D01*
X137617127Y-70959783D01*
X137667703Y-70987434D01*
X137725926Y-71017815D01*
X137788563Y-71049290D01*
X137852379Y-71080222D01*
X137914140Y-71108973D01*
X137970612Y-71133908D01*
X138018562Y-71153389D01*
X138042014Y-71161818D01*
X138175779Y-71199633D01*
X138313673Y-71224636D01*
X138461378Y-71237640D01*
X138588167Y-71239968D01*
X138656122Y-71238873D01*
X138721723Y-71236775D01*
X138779153Y-71233934D01*
X138822597Y-71230606D01*
X138836702Y-71228922D01*
X138975716Y-71200087D01*
X139117243Y-71154968D01*
X139254725Y-71096250D01*
X139381606Y-71026620D01*
X139459111Y-70973941D01*
X139586519Y-70865739D01*
X139704822Y-70739171D01*
X139811828Y-70597366D01*
X139905348Y-70443451D01*
X139983190Y-70280553D01*
X140027044Y-70163256D01*
X140077292Y-69979628D01*
X140110791Y-69785081D01*
X140127551Y-69583825D01*
X140127584Y-69380068D01*
X140110899Y-69178021D01*
X140077507Y-68981892D01*
X140027420Y-68795891D01*
X140023603Y-68784303D01*
X139960719Y-68622250D01*
X139883972Y-68474332D01*
X139790758Y-68336365D01*
X139678473Y-68204161D01*
X139634608Y-68158899D01*
X139498466Y-68034957D01*
X139358509Y-67932415D01*
X139212589Y-67850156D01*
X139058558Y-67787064D01*
X138894268Y-67742023D01*
X138798711Y-67724533D01*
X138639977Y-67708966D01*
X138481571Y-67711571D01*
G36*
X141756400Y-67251554D02*
G01*
X141745535Y-67365493D01*
X141713918Y-67473116D01*
X141663015Y-67572115D01*
X141594293Y-67660184D01*
X141509219Y-67735016D01*
X141412232Y-67792884D01*
X141305964Y-67832505D01*
X141198950Y-67851073D01*
X141093300Y-67849934D01*
X140991125Y-67830430D01*
X140894534Y-67793906D01*
X140805638Y-67741705D01*
X140726546Y-67675173D01*
X140659369Y-67595652D01*
X140606217Y-67504487D01*
X140569199Y-67403023D01*
X140550427Y-67292602D01*
X140548489Y-67242706D01*
X140548489Y-67154767D01*
X140496560Y-67154767D01*
X140460253Y-67157611D01*
X140433355Y-67169411D01*
X140406249Y-67193149D01*
X140367867Y-67231531D01*
X140367867Y-69423102D01*
X140367876Y-69685239D01*
X140367908Y-69925741D01*
X140367972Y-70145548D01*
X140368076Y-70345601D01*
X140368227Y-70526844D01*
X140368434Y-70690216D01*
X140368706Y-70836660D01*
X140369050Y-70967117D01*
X140369474Y-71082529D01*
X140369987Y-71183838D01*
X140370597Y-71271984D01*
X140371312Y-71347910D01*
X140372140Y-71412557D01*
X140373089Y-71466867D01*
X140374167Y-71511780D01*
X140375383Y-71548240D01*
X140376745Y-71577187D01*
X140378261Y-71599563D01*
X140379938Y-71616309D01*
X140381786Y-71628368D01*
X140383813Y-71636680D01*
X140386025Y-71642187D01*
X140387108Y-71644037D01*
X140391271Y-71651049D01*
X140394805Y-71657496D01*
X140398635Y-71663400D01*
X140403682Y-71668786D01*
X140410871Y-71673678D01*
X140421123Y-71678098D01*
X140435364Y-71682072D01*
X140454514Y-71685621D01*
X140479499Y-71688770D01*
X140511240Y-71691542D01*
X140550662Y-71693961D01*
X140598686Y-71696051D01*
X140656237Y-71697835D01*
X140724237Y-71699337D01*
X140803610Y-71700580D01*
X140895279Y-71701589D01*
X141000166Y-71702385D01*
X141119196Y-71702994D01*
X141253290Y-71703439D01*
X141403373Y-71703743D01*
X141570367Y-71703930D01*
X141755196Y-71704024D01*
X141958783Y-71704048D01*
X142182050Y-71704025D01*
X142425922Y-71703980D01*
X142691321Y-71703937D01*
X142729704Y-71703932D01*
X142996682Y-71703889D01*
X143242002Y-71703818D01*
X143466583Y-71703713D01*
X143671345Y-71703566D01*
X143857206Y-71703369D01*
X144025088Y-71703116D01*
X144175908Y-71702800D01*
X144310587Y-71702413D01*
X144430044Y-71701947D01*
X144535199Y-71701397D01*
X144626971Y-71700753D01*
X144706279Y-71700011D01*
X144774043Y-71699161D01*
X144831182Y-71698197D01*
X144878617Y-71697111D01*
X144917266Y-71695897D01*
X144948049Y-71694547D01*
X144971885Y-71693055D01*
X144989694Y-71691411D01*
X145002395Y-71689611D01*
X145010908Y-71687645D01*
X145015266Y-71685977D01*
X145023728Y-71682406D01*
X145031497Y-71679770D01*
X145038602Y-71677134D01*
X145045073Y-71673562D01*
X145050939Y-71668121D01*
X145056229Y-71659875D01*
X145060974Y-71647890D01*
X145065202Y-71631231D01*
X145068943Y-71608963D01*
X145072227Y-71580152D01*
X145075083Y-71543863D01*
X145077540Y-71499161D01*
X145079629Y-71445111D01*
X145081378Y-71380779D01*
X145082817Y-71305230D01*
X145083976Y-71217530D01*
X145084883Y-71116743D01*
X145085569Y-71001934D01*
X145086063Y-70872170D01*
X145086395Y-70726515D01*
X145086593Y-70564035D01*
X145086687Y-70383795D01*
X145086708Y-70184860D01*
X145086685Y-69966296D01*
X145086646Y-69727168D01*
X145086622Y-69466540D01*
X145086622Y-69424389D01*
X145086636Y-69161492D01*
X145086661Y-68920232D01*
X145086671Y-68699665D01*
X145086642Y-68498852D01*
X145086548Y-68316849D01*
X145086362Y-68152716D01*
X145086059Y-68005511D01*
X145085614Y-67874292D01*
X145085034Y-67764367D01*
X144782197Y-67764367D01*
X144742407Y-67822211D01*
X144731236Y-67837979D01*
X144721166Y-67851941D01*
X144712138Y-67865284D01*
X144704097Y-67879193D01*
X144696986Y-67894856D01*
X144690747Y-67913458D01*
X144685325Y-67936186D01*
X144680662Y-67964227D01*
X144676701Y-67998767D01*
X144673385Y-68040992D01*
X144670659Y-68092089D01*
X144668464Y-68153244D01*
X144666745Y-68225644D01*
X144665444Y-68310475D01*
X144664505Y-68408922D01*
X144663870Y-68522174D01*
X144663484Y-68651416D01*
X144663288Y-68797834D01*
X144663227Y-68962616D01*
X144663243Y-69146947D01*
X144663280Y-69352013D01*
X144663289Y-69474633D01*
X144663265Y-69691582D01*
X144663231Y-69887142D01*
X144663243Y-70062499D01*
X144663358Y-70218841D01*
X144663630Y-70357357D01*
X144664118Y-70479234D01*
X144664876Y-70585660D01*
X144665962Y-70677822D01*
X144667431Y-70756909D01*
X144669340Y-70824108D01*
X144671744Y-70880607D01*
X144674701Y-70927593D01*
X144678266Y-70966255D01*
X144682495Y-70997780D01*
X144687446Y-71023355D01*
X144693173Y-71044170D01*
X144699733Y-71061411D01*
X144707183Y-71076265D01*
X144715579Y-71089922D01*
X144724976Y-71103569D01*
X144735432Y-71118393D01*
X144741523Y-71127283D01*
X144780296Y-71184900D01*
X144248732Y-71184900D01*
X144125483Y-71184865D01*
X144022987Y-71184715D01*
X143939420Y-71184378D01*
X143872956Y-71183786D01*
X143821771Y-71182867D01*
X143784041Y-71181551D01*
X143757940Y-71179769D01*
X143741644Y-71177451D01*
X143733328Y-71174526D01*
X143731168Y-71170924D01*
X143733339Y-71166575D01*
X143734535Y-71165145D01*
X143759685Y-71128073D01*
X143785583Y-71075272D01*
X143809192Y-71013270D01*
X143817461Y-70986857D01*
X143822078Y-70968916D01*
X143825979Y-70947855D01*
X143829248Y-70921589D01*
X143831966Y-70888032D01*
X143834215Y-70845099D01*
X143836077Y-70790704D01*
X143837636Y-70722762D01*
X143838972Y-70639188D01*
X143840169Y-70537895D01*
X143841308Y-70416800D01*
X143841685Y-70372100D01*
X143842702Y-70246949D01*
X143843460Y-70142582D01*
X143843903Y-70057207D01*
X143843970Y-69989033D01*
X143843605Y-69936265D01*
X143842748Y-69897114D01*
X143841341Y-69869785D01*
X143839325Y-69852486D01*
X143836643Y-69843426D01*
X143833236Y-69840812D01*
X143829044Y-69842851D01*
X143824571Y-69847167D01*
X143814216Y-69860102D01*
X143792158Y-69889176D01*
X143759957Y-69932259D01*
X143719174Y-69987218D01*
X143671370Y-70051923D01*
X143618105Y-70124242D01*
X143560940Y-70202044D01*
X143501437Y-70283198D01*
X143441155Y-70365572D01*
X143381655Y-70447036D01*
X143324498Y-70525457D01*
X143271245Y-70598704D01*
X143223457Y-70664647D01*
X143182693Y-70721154D01*
X143150516Y-70766093D01*
X143128485Y-70797334D01*
X143123917Y-70803966D01*
X143100996Y-70840869D01*
X143074188Y-70888859D01*
X143048789Y-70938397D01*
X143045568Y-70945077D01*
X143023890Y-70993272D01*
X143011304Y-71030834D01*
X143005574Y-71066660D01*
X143004456Y-71108700D01*
X143005090Y-71184900D01*
X141850651Y-71184900D01*
X141941815Y-71091169D01*
X141988612Y-71041275D01*
X142038899Y-70984795D01*
X142084944Y-70930526D01*
X142105369Y-70905173D01*
X142135807Y-70865628D01*
X142175862Y-70812416D01*
X142224361Y-70747167D01*
X142280135Y-70671511D01*
X142342011Y-70587077D01*
X142408819Y-70495494D01*
X142479387Y-70398392D01*
X142552545Y-70297401D01*
X142627121Y-70194150D01*
X142701944Y-70090268D01*
X142775843Y-69987385D01*
X142847646Y-69887131D01*
X142916184Y-69791136D01*
X142980284Y-69701027D01*
X143038775Y-69618436D01*
X143090486Y-69544992D01*
X143134247Y-69482324D01*
X143168885Y-69432061D01*
X143193230Y-69395834D01*
X143206111Y-69375271D01*
X143207869Y-69371168D01*
X143199910Y-69359842D01*
X143179115Y-69332662D01*
X143146847Y-69291329D01*
X143104470Y-69237544D01*
X143053347Y-69173006D01*
X142994841Y-69099418D01*
X142930314Y-69018478D01*
X142861131Y-68931888D01*
X142788653Y-68841348D01*
X142714246Y-68748560D01*
X142654517Y-68674202D01*
X141643511Y-68674202D01*
X141637602Y-68687159D01*
X141623272Y-68709408D01*
X141622225Y-68710891D01*
X141603438Y-68741044D01*
X141583791Y-68777875D01*
X141579892Y-68786011D01*
X141576356Y-68794440D01*
X141573230Y-68804559D01*
X141570486Y-68817760D01*
X141568092Y-68835438D01*
X141566019Y-68858984D01*
X141564235Y-68889793D01*
X141562712Y-68929257D01*
X141561419Y-68978769D01*
X141560326Y-69039723D01*
X141559403Y-69113511D01*
X141558619Y-69201528D01*
X141557945Y-69305165D01*
X141557350Y-69425816D01*
X141556805Y-69564874D01*
X141556279Y-69723732D01*
X141555745Y-69902589D01*
X141555206Y-70087707D01*
X141554772Y-70251645D01*
X141554509Y-70395803D01*
X141554484Y-70521579D01*
X141554765Y-70630371D01*
X141555419Y-70723577D01*
X141556514Y-70802597D01*
X141558118Y-70868828D01*
X141560297Y-70923670D01*
X141563119Y-70968521D01*
X141566651Y-71004778D01*
X141570961Y-71033841D01*
X141576117Y-71057109D01*
X141582185Y-71075979D01*
X141589233Y-71091851D01*
X141597329Y-71106122D01*
X141606540Y-71120191D01*
X141615040Y-71132658D01*
X141632176Y-71158952D01*
X141642322Y-71176537D01*
X141643511Y-71179757D01*
X141632604Y-71180834D01*
X141601411Y-71181835D01*
X141552223Y-71182735D01*
X141487333Y-71183510D01*
X141409030Y-71184137D01*
X141319607Y-71184591D01*
X141221356Y-71184849D01*
X141152445Y-71184900D01*
X141047452Y-71184680D01*
X140950610Y-71184048D01*
X140864107Y-71183049D01*
X140790132Y-71181727D01*
X140730874Y-71180126D01*
X140688520Y-71178291D01*
X140665260Y-71176265D01*
X140661378Y-71174993D01*
X140669076Y-71160091D01*
X140677074Y-71152060D01*
X140690246Y-71134934D01*
X140707485Y-71104683D01*
X140719407Y-71080122D01*
X140746045Y-71021211D01*
X140749120Y-69844345D01*
X140752195Y-68667478D01*
X141197853Y-68667478D01*
X141295670Y-68667642D01*
X141386064Y-68668111D01*
X141466630Y-68668847D01*
X141534962Y-68669816D01*
X141588656Y-68670980D01*
X141625305Y-68672303D01*
X141642504Y-68673749D01*
X141643511Y-68674202D01*
X142654517Y-68674202D01*
X142639270Y-68655222D01*
X142565090Y-68563037D01*
X142493069Y-68473704D01*
X142424569Y-68388924D01*
X142360955Y-68310398D01*
X142303588Y-68239826D01*
X142253833Y-68178909D01*
X142213052Y-68129347D01*
X142195888Y-68108678D01*
X142109596Y-68008016D01*
X142032997Y-67924759D01*
X141964183Y-67856938D01*
X141901248Y-67802589D01*
X141891867Y-67795222D01*
X141852356Y-67764617D01*
X142984116Y-67764367D01*
X142978827Y-67812344D01*
X142982130Y-67869688D01*
X143003661Y-67937963D01*
X143043635Y-68017712D01*
X143088943Y-68089995D01*
X143105161Y-68112640D01*
X143133214Y-68150196D01*
X143171430Y-68200521D01*
X143218137Y-68261473D01*
X143271661Y-68330911D01*
X143330331Y-68406694D01*
X143392475Y-68486680D01*
X143456421Y-68568728D01*
X143520495Y-68650696D01*
X143583027Y-68730443D01*
X143642343Y-68805827D01*
X143696771Y-68874707D01*
X143744639Y-68934942D01*
X143784275Y-68984389D01*
X143814006Y-69020908D01*
X143832161Y-69042358D01*
X143835220Y-69045656D01*
X143838079Y-69037649D01*
X143840293Y-69007355D01*
X143841857Y-68955056D01*
X143842767Y-68881031D01*
X143843020Y-68785563D01*
X143842613Y-68668934D01*
X143841704Y-68548945D01*
X143840382Y-68416833D01*
X143838857Y-68305094D01*
X143836881Y-68211525D01*
X143834206Y-68133919D01*
X143830582Y-68070074D01*
X143825761Y-68017783D01*
X143819494Y-67974844D01*
X143811532Y-67939051D01*
X143801627Y-67908200D01*
X143789531Y-67880086D01*
X143774993Y-67852505D01*
X143760311Y-67827466D01*
X143722314Y-67764367D01*
X144782197Y-67764367D01*
X145085034Y-67764367D01*
X145085001Y-67758117D01*
X145084195Y-67656044D01*
X145083170Y-67567133D01*
X145081900Y-67490441D01*
X145080360Y-67425027D01*
X145078524Y-67369949D01*
X145076367Y-67324265D01*
X145073863Y-67287034D01*
X145070987Y-67257313D01*
X145067713Y-67234162D01*
X145064015Y-67216639D01*
X145059869Y-67203801D01*
X145055247Y-67194708D01*
X145050126Y-67188418D01*
X145044478Y-67183988D01*
X145038279Y-67180478D01*
X145031504Y-67176945D01*
X145025508Y-67173376D01*
X145020275Y-67170800D01*
X145012099Y-67168472D01*
X144999886Y-67166378D01*
X144982541Y-67164507D01*
X144958969Y-67162847D01*
X144928077Y-67161384D01*
X144888768Y-67160108D01*
X144839950Y-67159004D01*
X144780527Y-67158061D01*
X144709404Y-67157267D01*
X144625488Y-67156609D01*
X144527683Y-67156075D01*
X144414894Y-67155653D01*
X144286029Y-67155329D01*
X144139991Y-67155092D01*
X143975686Y-67154930D01*
X143792020Y-67154830D01*
X143587897Y-67154780D01*
X143376753Y-67154767D01*
X141756400Y-67154767D01*
X141756400Y-67251554D01*
G37*
X141756400Y-67251554D02*
X141745535Y-67365493D01*
X141713918Y-67473116D01*
X141663015Y-67572115D01*
X141594293Y-67660184D01*
X141509219Y-67735016D01*
X141412232Y-67792884D01*
X141305964Y-67832505D01*
X141198950Y-67851073D01*
X141093300Y-67849934D01*
X140991125Y-67830430D01*
X140894534Y-67793906D01*
X140805638Y-67741705D01*
X140726546Y-67675173D01*
X140659369Y-67595652D01*
X140606217Y-67504487D01*
X140569199Y-67403023D01*
X140550427Y-67292602D01*
X140548489Y-67242706D01*
X140548489Y-67154767D01*
X140496560Y-67154767D01*
X140460253Y-67157611D01*
X140433355Y-67169411D01*
X140406249Y-67193149D01*
X140367867Y-67231531D01*
X140367867Y-69423102D01*
X140367876Y-69685239D01*
X140367908Y-69925741D01*
X140367972Y-70145548D01*
X140368076Y-70345601D01*
X140368227Y-70526844D01*
X140368434Y-70690216D01*
X140368706Y-70836660D01*
X140369050Y-70967117D01*
X140369474Y-71082529D01*
X140369987Y-71183838D01*
X140370597Y-71271984D01*
X140371312Y-71347910D01*
X140372140Y-71412557D01*
X140373089Y-71466867D01*
X140374167Y-71511780D01*
X140375383Y-71548240D01*
X140376745Y-71577187D01*
X140378261Y-71599563D01*
X140379938Y-71616309D01*
X140381786Y-71628368D01*
X140383813Y-71636680D01*
X140386025Y-71642187D01*
X140387108Y-71644037D01*
X140391271Y-71651049D01*
X140394805Y-71657496D01*
X140398635Y-71663400D01*
X140403682Y-71668786D01*
X140410871Y-71673678D01*
X140421123Y-71678098D01*
X140435364Y-71682072D01*
X140454514Y-71685621D01*
X140479499Y-71688770D01*
X140511240Y-71691542D01*
X140550662Y-71693961D01*
X140598686Y-71696051D01*
X140656237Y-71697835D01*
X140724237Y-71699337D01*
X140803610Y-71700580D01*
X140895279Y-71701589D01*
X141000166Y-71702385D01*
X141119196Y-71702994D01*
X141253290Y-71703439D01*
X141403373Y-71703743D01*
X141570367Y-71703930D01*
X141755196Y-71704024D01*
X141958783Y-71704048D01*
X142182050Y-71704025D01*
X142425922Y-71703980D01*
X142691321Y-71703937D01*
X142729704Y-71703932D01*
X142996682Y-71703889D01*
X143242002Y-71703818D01*
X143466583Y-71703713D01*
X143671345Y-71703566D01*
X143857206Y-71703369D01*
X144025088Y-71703116D01*
X144175908Y-71702800D01*
X144310587Y-71702413D01*
X144430044Y-71701947D01*
X144535199Y-71701397D01*
X144626971Y-71700753D01*
X144706279Y-71700011D01*
X144774043Y-71699161D01*
X144831182Y-71698197D01*
X144878617Y-71697111D01*
X144917266Y-71695897D01*
X144948049Y-71694547D01*
X144971885Y-71693055D01*
X144989694Y-71691411D01*
X145002395Y-71689611D01*
X145010908Y-71687645D01*
X145015266Y-71685977D01*
X145023728Y-71682406D01*
X145031497Y-71679770D01*
X145038602Y-71677134D01*
X145045073Y-71673562D01*
X145050939Y-71668121D01*
X145056229Y-71659875D01*
X145060974Y-71647890D01*
X145065202Y-71631231D01*
X145068943Y-71608963D01*
X145072227Y-71580152D01*
X145075083Y-71543863D01*
X145077540Y-71499161D01*
X145079629Y-71445111D01*
X145081378Y-71380779D01*
X145082817Y-71305230D01*
X145083976Y-71217530D01*
X145084883Y-71116743D01*
X145085569Y-71001934D01*
X145086063Y-70872170D01*
X145086395Y-70726515D01*
X145086593Y-70564035D01*
X145086687Y-70383795D01*
X145086708Y-70184860D01*
X145086685Y-69966296D01*
X145086646Y-69727168D01*
X145086622Y-69466540D01*
X145086622Y-69424389D01*
X145086636Y-69161492D01*
X145086661Y-68920232D01*
X145086671Y-68699665D01*
X145086642Y-68498852D01*
X145086548Y-68316849D01*
X145086362Y-68152716D01*
X145086059Y-68005511D01*
X145085614Y-67874292D01*
X145085034Y-67764367D01*
X144782197Y-67764367D01*
X144742407Y-67822211D01*
X144731236Y-67837979D01*
X144721166Y-67851941D01*
X144712138Y-67865284D01*
X144704097Y-67879193D01*
X144696986Y-67894856D01*
X144690747Y-67913458D01*
X144685325Y-67936186D01*
X144680662Y-67964227D01*
X144676701Y-67998767D01*
X144673385Y-68040992D01*
X144670659Y-68092089D01*
X144668464Y-68153244D01*
X144666745Y-68225644D01*
X144665444Y-68310475D01*
X144664505Y-68408922D01*
X144663870Y-68522174D01*
X144663484Y-68651416D01*
X144663288Y-68797834D01*
X144663227Y-68962616D01*
X144663243Y-69146947D01*
X144663280Y-69352013D01*
X144663289Y-69474633D01*
X144663265Y-69691582D01*
X144663231Y-69887142D01*
X144663243Y-70062499D01*
X144663358Y-70218841D01*
X144663630Y-70357357D01*
X144664118Y-70479234D01*
X144664876Y-70585660D01*
X144665962Y-70677822D01*
X144667431Y-70756909D01*
X144669340Y-70824108D01*
X144671744Y-70880607D01*
X144674701Y-70927593D01*
X144678266Y-70966255D01*
X144682495Y-70997780D01*
X144687446Y-71023355D01*
X144693173Y-71044170D01*
X144699733Y-71061411D01*
X144707183Y-71076265D01*
X144715579Y-71089922D01*
X144724976Y-71103569D01*
X144735432Y-71118393D01*
X144741523Y-71127283D01*
X144780296Y-71184900D01*
X144248732Y-71184900D01*
X144125483Y-71184865D01*
X144022987Y-71184715D01*
X143939420Y-71184378D01*
X143872956Y-71183786D01*
X143821771Y-71182867D01*
X143784041Y-71181551D01*
X143757940Y-71179769D01*
X143741644Y-71177451D01*
X143733328Y-71174526D01*
X143731168Y-71170924D01*
X143733339Y-71166575D01*
X143734535Y-71165145D01*
X143759685Y-71128073D01*
X143785583Y-71075272D01*
X143809192Y-71013270D01*
X143817461Y-70986857D01*
X143822078Y-70968916D01*
X143825979Y-70947855D01*
X143829248Y-70921589D01*
X143831966Y-70888032D01*
X143834215Y-70845099D01*
X143836077Y-70790704D01*
X143837636Y-70722762D01*
X143838972Y-70639188D01*
X143840169Y-70537895D01*
X143841308Y-70416800D01*
X143841685Y-70372100D01*
X143842702Y-70246949D01*
X143843460Y-70142582D01*
X143843903Y-70057207D01*
X143843970Y-69989033D01*
X143843605Y-69936265D01*
X143842748Y-69897114D01*
X143841341Y-69869785D01*
X143839325Y-69852486D01*
X143836643Y-69843426D01*
X143833236Y-69840812D01*
X143829044Y-69842851D01*
X143824571Y-69847167D01*
X143814216Y-69860102D01*
X143792158Y-69889176D01*
X143759957Y-69932259D01*
X143719174Y-69987218D01*
X143671370Y-70051923D01*
X143618105Y-70124242D01*
X143560940Y-70202044D01*
X143501437Y-70283198D01*
X143441155Y-70365572D01*
X143381655Y-70447036D01*
X143324498Y-70525457D01*
X143271245Y-70598704D01*
X143223457Y-70664647D01*
X143182693Y-70721154D01*
X143150516Y-70766093D01*
X143128485Y-70797334D01*
X143123917Y-70803966D01*
X143100996Y-70840869D01*
X143074188Y-70888859D01*
X143048789Y-70938397D01*
X143045568Y-70945077D01*
X143023890Y-70993272D01*
X143011304Y-71030834D01*
X143005574Y-71066660D01*
X143004456Y-71108700D01*
X143005090Y-71184900D01*
X141850651Y-71184900D01*
X141941815Y-71091169D01*
X141988612Y-71041275D01*
X142038899Y-70984795D01*
X142084944Y-70930526D01*
X142105369Y-70905173D01*
X142135807Y-70865628D01*
X142175862Y-70812416D01*
X142224361Y-70747167D01*
X142280135Y-70671511D01*
X142342011Y-70587077D01*
X142408819Y-70495494D01*
X142479387Y-70398392D01*
X142552545Y-70297401D01*
X142627121Y-70194150D01*
X142701944Y-70090268D01*
X142775843Y-69987385D01*
X142847646Y-69887131D01*
X142916184Y-69791136D01*
X142980284Y-69701027D01*
X143038775Y-69618436D01*
X143090486Y-69544992D01*
X143134247Y-69482324D01*
X143168885Y-69432061D01*
X143193230Y-69395834D01*
X143206111Y-69375271D01*
X143207869Y-69371168D01*
X143199910Y-69359842D01*
X143179115Y-69332662D01*
X143146847Y-69291329D01*
X143104470Y-69237544D01*
X143053347Y-69173006D01*
X142994841Y-69099418D01*
X142930314Y-69018478D01*
X142861131Y-68931888D01*
X142788653Y-68841348D01*
X142714246Y-68748560D01*
X142654517Y-68674202D01*
X141643511Y-68674202D01*
X141637602Y-68687159D01*
X141623272Y-68709408D01*
X141622225Y-68710891D01*
X141603438Y-68741044D01*
X141583791Y-68777875D01*
X141579892Y-68786011D01*
X141576356Y-68794440D01*
X141573230Y-68804559D01*
X141570486Y-68817760D01*
X141568092Y-68835438D01*
X141566019Y-68858984D01*
X141564235Y-68889793D01*
X141562712Y-68929257D01*
X141561419Y-68978769D01*
X141560326Y-69039723D01*
X141559403Y-69113511D01*
X141558619Y-69201528D01*
X141557945Y-69305165D01*
X141557350Y-69425816D01*
X141556805Y-69564874D01*
X141556279Y-69723732D01*
X141555745Y-69902589D01*
X141555206Y-70087707D01*
X141554772Y-70251645D01*
X141554509Y-70395803D01*
X141554484Y-70521579D01*
X141554765Y-70630371D01*
X141555419Y-70723577D01*
X141556514Y-70802597D01*
X141558118Y-70868828D01*
X141560297Y-70923670D01*
X141563119Y-70968521D01*
X141566651Y-71004778D01*
X141570961Y-71033841D01*
X141576117Y-71057109D01*
X141582185Y-71075979D01*
X141589233Y-71091851D01*
X141597329Y-71106122D01*
X141606540Y-71120191D01*
X141615040Y-71132658D01*
X141632176Y-71158952D01*
X141642322Y-71176537D01*
X141643511Y-71179757D01*
X141632604Y-71180834D01*
X141601411Y-71181835D01*
X141552223Y-71182735D01*
X141487333Y-71183510D01*
X141409030Y-71184137D01*
X141319607Y-71184591D01*
X141221356Y-71184849D01*
X141152445Y-71184900D01*
X141047452Y-71184680D01*
X140950610Y-71184048D01*
X140864107Y-71183049D01*
X140790132Y-71181727D01*
X140730874Y-71180126D01*
X140688520Y-71178291D01*
X140665260Y-71176265D01*
X140661378Y-71174993D01*
X140669076Y-71160091D01*
X140677074Y-71152060D01*
X140690246Y-71134934D01*
X140707485Y-71104683D01*
X140719407Y-71080122D01*
X140746045Y-71021211D01*
X140749120Y-69844345D01*
X140752195Y-68667478D01*
X141197853Y-68667478D01*
X141295670Y-68667642D01*
X141386064Y-68668111D01*
X141466630Y-68668847D01*
X141534962Y-68669816D01*
X141588656Y-68670980D01*
X141625305Y-68672303D01*
X141642504Y-68673749D01*
X141643511Y-68674202D01*
X142654517Y-68674202D01*
X142639270Y-68655222D01*
X142565090Y-68563037D01*
X142493069Y-68473704D01*
X142424569Y-68388924D01*
X142360955Y-68310398D01*
X142303588Y-68239826D01*
X142253833Y-68178909D01*
X142213052Y-68129347D01*
X142195888Y-68108678D01*
X142109596Y-68008016D01*
X142032997Y-67924759D01*
X141964183Y-67856938D01*
X141901248Y-67802589D01*
X141891867Y-67795222D01*
X141852356Y-67764617D01*
X142984116Y-67764367D01*
X142978827Y-67812344D01*
X142982130Y-67869688D01*
X143003661Y-67937963D01*
X143043635Y-68017712D01*
X143088943Y-68089995D01*
X143105161Y-68112640D01*
X143133214Y-68150196D01*
X143171430Y-68200521D01*
X143218137Y-68261473D01*
X143271661Y-68330911D01*
X143330331Y-68406694D01*
X143392475Y-68486680D01*
X143456421Y-68568728D01*
X143520495Y-68650696D01*
X143583027Y-68730443D01*
X143642343Y-68805827D01*
X143696771Y-68874707D01*
X143744639Y-68934942D01*
X143784275Y-68984389D01*
X143814006Y-69020908D01*
X143832161Y-69042358D01*
X143835220Y-69045656D01*
X143838079Y-69037649D01*
X143840293Y-69007355D01*
X143841857Y-68955056D01*
X143842767Y-68881031D01*
X143843020Y-68785563D01*
X143842613Y-68668934D01*
X143841704Y-68548945D01*
X143840382Y-68416833D01*
X143838857Y-68305094D01*
X143836881Y-68211525D01*
X143834206Y-68133919D01*
X143830582Y-68070074D01*
X143825761Y-68017783D01*
X143819494Y-67974844D01*
X143811532Y-67939051D01*
X143801627Y-67908200D01*
X143789531Y-67880086D01*
X143774993Y-67852505D01*
X143760311Y-67827466D01*
X143722314Y-67764367D01*
X144782197Y-67764367D01*
X145085034Y-67764367D01*
X145085001Y-67758117D01*
X145084195Y-67656044D01*
X145083170Y-67567133D01*
X145081900Y-67490441D01*
X145080360Y-67425027D01*
X145078524Y-67369949D01*
X145076367Y-67324265D01*
X145073863Y-67287034D01*
X145070987Y-67257313D01*
X145067713Y-67234162D01*
X145064015Y-67216639D01*
X145059869Y-67203801D01*
X145055247Y-67194708D01*
X145050126Y-67188418D01*
X145044478Y-67183988D01*
X145038279Y-67180478D01*
X145031504Y-67176945D01*
X145025508Y-67173376D01*
X145020275Y-67170800D01*
X145012099Y-67168472D01*
X144999886Y-67166378D01*
X144982541Y-67164507D01*
X144958969Y-67162847D01*
X144928077Y-67161384D01*
X144888768Y-67160108D01*
X144839950Y-67159004D01*
X144780527Y-67158061D01*
X144709404Y-67157267D01*
X144625488Y-67156609D01*
X144527683Y-67156075D01*
X144414894Y-67155653D01*
X144286029Y-67155329D01*
X144139991Y-67155092D01*
X143975686Y-67154930D01*
X143792020Y-67154830D01*
X143587897Y-67154780D01*
X143376753Y-67154767D01*
X141756400Y-67154767D01*
X141756400Y-67251554D01*
%TD*%
M02*
