%TF.GenerationSoftware,KiCad,Pcbnew,(5.1.6)-1*%
%TF.CreationDate,2021-03-10T22:21:53+01:00*%
%TF.ProjectId,555_Dice,3535355f-4469-4636-952e-6b696361645f,rev?*%
%TF.SameCoordinates,Original*%
%TF.FileFunction,Copper,L1,Top*%
%TF.FilePolarity,Positive*%
%FSLAX46Y46*%
G04 Gerber Fmt 4.6, Leading zero omitted, Abs format (unit mm)*
G04 Created by KiCad (PCBNEW (5.1.6)-1) date 2021-03-10 22:21:53*
%MOMM*%
%LPD*%
G01*
G04 APERTURE LIST*
%TA.AperFunction,ComponentPad*%
%ADD10R,3.000000X3.000000*%
%TD*%
%TA.AperFunction,ComponentPad*%
%ADD11O,1.600000X1.600000*%
%TD*%
%TA.AperFunction,ComponentPad*%
%ADD12C,1.600000*%
%TD*%
%TA.AperFunction,ComponentPad*%
%ADD13C,2.000000*%
%TD*%
%TA.AperFunction,ComponentPad*%
%ADD14C,1.800000*%
%TD*%
%TA.AperFunction,ComponentPad*%
%ADD15R,1.800000X1.800000*%
%TD*%
%TA.AperFunction,ComponentPad*%
%ADD16R,1.800000X1.100000*%
%TD*%
%TA.AperFunction,ComponentPad*%
%ADD17R,1.600000X1.600000*%
%TD*%
%TA.AperFunction,ComponentPad*%
%ADD18R,2.400000X1.600000*%
%TD*%
%TA.AperFunction,ComponentPad*%
%ADD19O,2.400000X1.600000*%
%TD*%
%TA.AperFunction,Conductor*%
%ADD20C,1.000000*%
%TD*%
%TA.AperFunction,Conductor*%
%ADD21C,0.508000*%
%TD*%
%TA.AperFunction,Conductor*%
%ADD22C,0.635000*%
%TD*%
G04 APERTURE END LIST*
D10*
%TO.P,BT1,2*%
%TO.N,GND*%
X118490000Y-80875000D03*
%TO.P,BT1,1*%
%TO.N,+9V*%
X118490000Y-75795000D03*
%TD*%
D11*
%TO.P,R16,2*%
%TO.N,Net-(Q5-Pad1)*%
X133730000Y-78017500D03*
D12*
%TO.P,R16,1*%
%TO.N,Net-(D4-Pad1)*%
X143890000Y-78017500D03*
%TD*%
D11*
%TO.P,R15,2*%
%TO.N,Net-(D3-Pad2)*%
X133730000Y-74842500D03*
D12*
%TO.P,R15,1*%
%TO.N,Net-(D5-Pad1)*%
X143890000Y-74842500D03*
%TD*%
D11*
%TO.P,R14,2*%
%TO.N,Net-(D2-Pad2)*%
X143890000Y-55157500D03*
D12*
%TO.P,R14,1*%
%TO.N,Net-(Q3-Pad1)*%
X133730000Y-55157500D03*
%TD*%
D11*
%TO.P,R13,2*%
%TO.N,Net-(D1-Pad2)*%
X133730000Y-51982500D03*
D12*
%TO.P,R13,1*%
%TO.N,Net-(D7-Pad1)*%
X143890000Y-51982500D03*
%TD*%
D11*
%TO.P,R12,2*%
%TO.N,5*%
X103250000Y-71350000D03*
D12*
%TO.P,R12,1*%
%TO.N,Net-(Q5-Pad2)*%
X113410000Y-71350000D03*
%TD*%
D11*
%TO.P,R11,2*%
%TO.N,1*%
X103250000Y-68175000D03*
D12*
%TO.P,R11,1*%
%TO.N,Net-(Q5-Pad2)*%
X113410000Y-68175000D03*
%TD*%
D11*
%TO.P,R10,2*%
%TO.N,3*%
X103250000Y-65000000D03*
D12*
%TO.P,R10,1*%
%TO.N,Net-(Q5-Pad2)*%
X113410000Y-65000000D03*
%TD*%
D11*
%TO.P,R9,2*%
%TO.N,6*%
X103250000Y-61825000D03*
D12*
%TO.P,R9,1*%
%TO.N,Net-(Q4-Pad2)*%
X113410000Y-61825000D03*
%TD*%
D11*
%TO.P,R8,2*%
%TO.N,1*%
X103250000Y-58650000D03*
D12*
%TO.P,R8,1*%
%TO.N,Net-(Q3-Pad2)*%
X113410000Y-58650000D03*
%TD*%
D11*
%TO.P,R7,2*%
%TO.N,5*%
X103250000Y-55475000D03*
D12*
%TO.P,R7,1*%
%TO.N,Net-(Q2-Pad2)*%
X113410000Y-55475000D03*
%TD*%
D11*
%TO.P,R6,2*%
%TO.N,4*%
X103250000Y-52300000D03*
D12*
%TO.P,R6,1*%
%TO.N,Net-(Q2-Pad2)*%
X113410000Y-52300000D03*
%TD*%
D11*
%TO.P,R5,2*%
%TO.N,6*%
X103250000Y-49125000D03*
D12*
%TO.P,R5,1*%
%TO.N,Net-(Q2-Pad2)*%
X113410000Y-49125000D03*
%TD*%
D11*
%TO.P,R4,2*%
%TO.N,Net-(Q1-Pad2)*%
X99757500Y-71350000D03*
D12*
%TO.P,R4,1*%
%TO.N,+9V*%
X99757500Y-81510000D03*
%TD*%
D11*
%TO.P,R3,2*%
%TO.N,Net-(C2-Pad2)*%
X96582500Y-81510000D03*
D12*
%TO.P,R3,1*%
%TO.N,Net-(Q1-Pad2)*%
X96582500Y-71350000D03*
%TD*%
D11*
%TO.P,R2,2*%
%TO.N,Net-(C1-Pad1)*%
X93407500Y-71350000D03*
D12*
%TO.P,R2,1*%
%TO.N,Net-(Q1-Pad1)*%
X93407500Y-81510000D03*
%TD*%
D11*
%TO.P,R1,2*%
%TO.N,Net-(C1-Pad1)*%
X90232500Y-71350000D03*
D12*
%TO.P,R1,1*%
%TO.N,GND*%
X90232500Y-81510000D03*
%TD*%
D13*
%TO.P,SW1,1*%
%TO.N,GND*%
X111580000Y-76085000D03*
%TO.P,SW1,2*%
%TO.N,Net-(C2-Pad2)*%
X111580000Y-80585000D03*
%TO.P,SW1,1*%
%TO.N,GND*%
X105080000Y-76085000D03*
%TO.P,SW1,2*%
%TO.N,Net-(C2-Pad2)*%
X105080000Y-80585000D03*
%TD*%
D14*
%TO.P,D7,2*%
%TO.N,+9V*%
X148970000Y-76430000D03*
D15*
%TO.P,D7,1*%
%TO.N,Net-(D7-Pad1)*%
X151510000Y-76430000D03*
%TD*%
D14*
%TO.P,D6,2*%
%TO.N,Net-(D2-Pad1)*%
X128650000Y-76430000D03*
D15*
%TO.P,D6,1*%
%TO.N,GND*%
X126110000Y-76430000D03*
%TD*%
D14*
%TO.P,D5,2*%
%TO.N,+9V*%
X151510000Y-65000000D03*
D15*
%TO.P,D5,1*%
%TO.N,Net-(D5-Pad1)*%
X148970000Y-65000000D03*
%TD*%
D14*
%TO.P,D4,2*%
%TO.N,+9V*%
X140080000Y-65000000D03*
D15*
%TO.P,D4,1*%
%TO.N,Net-(D4-Pad1)*%
X137540000Y-65000000D03*
%TD*%
D14*
%TO.P,D3,2*%
%TO.N,Net-(D3-Pad2)*%
X128650000Y-65000000D03*
D15*
%TO.P,D3,1*%
%TO.N,Net-(D3-Pad1)*%
X126110000Y-65000000D03*
%TD*%
D14*
%TO.P,D2,2*%
%TO.N,Net-(D2-Pad2)*%
X148970000Y-53570000D03*
D15*
%TO.P,D2,1*%
%TO.N,Net-(D2-Pad1)*%
X151510000Y-53570000D03*
%TD*%
D14*
%TO.P,D1,2*%
%TO.N,Net-(D1-Pad2)*%
X128650000Y-53570000D03*
D15*
%TO.P,D1,1*%
%TO.N,Net-(D1-Pad1)*%
X126110000Y-53570000D03*
%TD*%
%TO.P,Q4,2*%
%TO.N,Net-(Q4-Pad2)*%
%TA.AperFunction,ComponentPad*%
G36*
G01*
X117445000Y-63962500D02*
X116195000Y-63962500D01*
G75*
G02*
X115920000Y-63687500I0J275000D01*
G01*
X115920000Y-63137500D01*
G75*
G02*
X116195000Y-62862500I275000J0D01*
G01*
X117445000Y-62862500D01*
G75*
G02*
X117720000Y-63137500I0J-275000D01*
G01*
X117720000Y-63687500D01*
G75*
G02*
X117445000Y-63962500I-275000J0D01*
G01*
G37*
%TD.AperFunction*%
%TO.P,Q4,3*%
%TO.N,GND*%
%TA.AperFunction,ComponentPad*%
G36*
G01*
X119515000Y-62692500D02*
X118265000Y-62692500D01*
G75*
G02*
X117990000Y-62417500I0J275000D01*
G01*
X117990000Y-61867500D01*
G75*
G02*
X118265000Y-61592500I275000J0D01*
G01*
X119515000Y-61592500D01*
G75*
G02*
X119790000Y-61867500I0J-275000D01*
G01*
X119790000Y-62417500D01*
G75*
G02*
X119515000Y-62692500I-275000J0D01*
G01*
G37*
%TD.AperFunction*%
D16*
%TO.P,Q4,1*%
%TO.N,Net-(D3-Pad1)*%
X118890000Y-64682500D03*
%TD*%
D12*
%TO.P,C1,2*%
%TO.N,GND*%
X84795000Y-53570000D03*
%TO.P,C1,1*%
%TO.N,Net-(C1-Pad1)*%
X82295000Y-53570000D03*
%TD*%
%TO.P,C2,2*%
%TO.N,Net-(C2-Pad2)*%
X84795000Y-78017500D03*
D17*
%TO.P,C2,1*%
%TO.N,+9V*%
X82295000Y-78017500D03*
%TD*%
%TO.P,Q5,2*%
%TO.N,Net-(Q5-Pad2)*%
%TA.AperFunction,ComponentPad*%
G36*
G01*
X117445000Y-70312500D02*
X116195000Y-70312500D01*
G75*
G02*
X115920000Y-70037500I0J275000D01*
G01*
X115920000Y-69487500D01*
G75*
G02*
X116195000Y-69212500I275000J0D01*
G01*
X117445000Y-69212500D01*
G75*
G02*
X117720000Y-69487500I0J-275000D01*
G01*
X117720000Y-70037500D01*
G75*
G02*
X117445000Y-70312500I-275000J0D01*
G01*
G37*
%TD.AperFunction*%
%TO.P,Q5,3*%
%TO.N,GND*%
%TA.AperFunction,ComponentPad*%
G36*
G01*
X119515000Y-69042500D02*
X118265000Y-69042500D01*
G75*
G02*
X117990000Y-68767500I0J275000D01*
G01*
X117990000Y-68217500D01*
G75*
G02*
X118265000Y-67942500I275000J0D01*
G01*
X119515000Y-67942500D01*
G75*
G02*
X119790000Y-68217500I0J-275000D01*
G01*
X119790000Y-68767500D01*
G75*
G02*
X119515000Y-69042500I-275000J0D01*
G01*
G37*
%TD.AperFunction*%
D16*
%TO.P,Q5,1*%
%TO.N,Net-(Q5-Pad1)*%
X118890000Y-71032500D03*
%TD*%
%TO.P,Q2,2*%
%TO.N,Net-(Q2-Pad2)*%
%TA.AperFunction,ComponentPad*%
G36*
G01*
X117445000Y-51262500D02*
X116195000Y-51262500D01*
G75*
G02*
X115920000Y-50987500I0J275000D01*
G01*
X115920000Y-50437500D01*
G75*
G02*
X116195000Y-50162500I275000J0D01*
G01*
X117445000Y-50162500D01*
G75*
G02*
X117720000Y-50437500I0J-275000D01*
G01*
X117720000Y-50987500D01*
G75*
G02*
X117445000Y-51262500I-275000J0D01*
G01*
G37*
%TD.AperFunction*%
%TO.P,Q2,3*%
%TO.N,GND*%
%TA.AperFunction,ComponentPad*%
G36*
G01*
X119515000Y-49992500D02*
X118265000Y-49992500D01*
G75*
G02*
X117990000Y-49717500I0J275000D01*
G01*
X117990000Y-49167500D01*
G75*
G02*
X118265000Y-48892500I275000J0D01*
G01*
X119515000Y-48892500D01*
G75*
G02*
X119790000Y-49167500I0J-275000D01*
G01*
X119790000Y-49717500D01*
G75*
G02*
X119515000Y-49992500I-275000J0D01*
G01*
G37*
%TD.AperFunction*%
%TO.P,Q2,1*%
%TO.N,Net-(D1-Pad1)*%
X118890000Y-51982500D03*
%TD*%
%TO.P,Q3,2*%
%TO.N,Net-(Q3-Pad2)*%
%TA.AperFunction,ComponentPad*%
G36*
G01*
X117445000Y-57612500D02*
X116195000Y-57612500D01*
G75*
G02*
X115920000Y-57337500I0J275000D01*
G01*
X115920000Y-56787500D01*
G75*
G02*
X116195000Y-56512500I275000J0D01*
G01*
X117445000Y-56512500D01*
G75*
G02*
X117720000Y-56787500I0J-275000D01*
G01*
X117720000Y-57337500D01*
G75*
G02*
X117445000Y-57612500I-275000J0D01*
G01*
G37*
%TD.AperFunction*%
%TO.P,Q3,3*%
%TO.N,+9V*%
%TA.AperFunction,ComponentPad*%
G36*
G01*
X119515000Y-56342500D02*
X118265000Y-56342500D01*
G75*
G02*
X117990000Y-56067500I0J275000D01*
G01*
X117990000Y-55517500D01*
G75*
G02*
X118265000Y-55242500I275000J0D01*
G01*
X119515000Y-55242500D01*
G75*
G02*
X119790000Y-55517500I0J-275000D01*
G01*
X119790000Y-56067500D01*
G75*
G02*
X119515000Y-56342500I-275000J0D01*
G01*
G37*
%TD.AperFunction*%
%TO.P,Q3,1*%
%TO.N,Net-(Q3-Pad1)*%
X118890000Y-58332500D03*
%TD*%
%TO.P,Q1,2*%
%TO.N,Net-(Q1-Pad2)*%
%TA.AperFunction,ComponentPad*%
G36*
G01*
X84610000Y-70800000D02*
X85860000Y-70800000D01*
G75*
G02*
X86135000Y-71075000I0J-275000D01*
G01*
X86135000Y-71625000D01*
G75*
G02*
X85860000Y-71900000I-275000J0D01*
G01*
X84610000Y-71900000D01*
G75*
G02*
X84335000Y-71625000I0J275000D01*
G01*
X84335000Y-71075000D01*
G75*
G02*
X84610000Y-70800000I275000J0D01*
G01*
G37*
%TD.AperFunction*%
%TO.P,Q1,3*%
%TO.N,+9V*%
%TA.AperFunction,ComponentPad*%
G36*
G01*
X82540000Y-72070000D02*
X83790000Y-72070000D01*
G75*
G02*
X84065000Y-72345000I0J-275000D01*
G01*
X84065000Y-72895000D01*
G75*
G02*
X83790000Y-73170000I-275000J0D01*
G01*
X82540000Y-73170000D01*
G75*
G02*
X82265000Y-72895000I0J275000D01*
G01*
X82265000Y-72345000D01*
G75*
G02*
X82540000Y-72070000I275000J0D01*
G01*
G37*
%TD.AperFunction*%
%TO.P,Q1,1*%
%TO.N,Net-(Q1-Pad1)*%
X83165000Y-70080000D03*
%TD*%
D18*
%TO.P,U2,1*%
%TO.N,1*%
X98805000Y-67540000D03*
D19*
%TO.P,U2,9*%
%TO.N,Net-(U2-Pad9)*%
X91185000Y-49760000D03*
%TO.P,U2,2*%
%TO.N,2*%
X98805000Y-65000000D03*
%TO.P,U2,10*%
%TO.N,6*%
X91185000Y-52300000D03*
%TO.P,U2,3*%
%TO.N,5*%
X98805000Y-62460000D03*
%TO.P,U2,11*%
%TO.N,Net-(U2-Pad11)*%
X91185000Y-54840000D03*
%TO.P,U2,4*%
%TO.N,3*%
X98805000Y-59920000D03*
%TO.P,U2,12*%
%TO.N,Net-(U2-Pad12)*%
X91185000Y-57380000D03*
%TO.P,U2,5*%
%TO.N,Net-(U2-Pad15)*%
X98805000Y-57380000D03*
%TO.P,U2,13*%
%TO.N,GND*%
X91185000Y-59920000D03*
%TO.P,U2,6*%
%TO.N,Net-(U2-Pad6)*%
X98805000Y-54840000D03*
%TO.P,U2,14*%
%TO.N,Net-(U1-Pad3)*%
X91185000Y-62460000D03*
%TO.P,U2,7*%
%TO.N,4*%
X98805000Y-52300000D03*
%TO.P,U2,15*%
%TO.N,Net-(U2-Pad15)*%
X91185000Y-65000000D03*
%TO.P,U2,8*%
%TO.N,GND*%
X98805000Y-49760000D03*
%TO.P,U2,16*%
%TO.N,+9V*%
X91185000Y-67540000D03*
%TD*%
%TO.P,U1,8*%
%TO.N,+9V*%
X79755000Y-65000000D03*
%TO.P,U1,4*%
X87375000Y-57380000D03*
%TO.P,U1,7*%
%TO.N,Net-(C1-Pad1)*%
X79755000Y-62460000D03*
%TO.P,U1,3*%
%TO.N,Net-(U1-Pad3)*%
X87375000Y-59920000D03*
%TO.P,U1,6*%
%TO.N,Net-(C1-Pad1)*%
X79755000Y-59920000D03*
%TO.P,U1,2*%
X87375000Y-62460000D03*
%TO.P,U1,5*%
%TO.N,Net-(U1-Pad5)*%
X79755000Y-57380000D03*
D18*
%TO.P,U1,1*%
%TO.N,GND*%
X87375000Y-65000000D03*
%TD*%
D20*
%TO.N,+9V*%
X91185000Y-67540000D02*
X93090000Y-67540000D01*
X91185000Y-67540000D02*
X89280000Y-67540000D01*
X147065000Y-76430000D02*
X148970000Y-76430000D01*
X141985000Y-65000000D02*
X140080000Y-65000000D01*
X118490000Y-55792500D02*
X121347500Y-55792500D01*
X87375000Y-57380000D02*
X85470000Y-57380000D01*
X79755000Y-65000000D02*
X77532500Y-65000000D01*
X99757500Y-81510000D02*
X101345000Y-81510000D01*
X82295000Y-78017500D02*
X80390000Y-78017500D01*
X85470000Y-57380000D02*
X84835000Y-57380000D01*
X151510000Y-65000000D02*
X151510000Y-62460000D01*
X151510000Y-62460000D02*
X151510000Y-67857500D01*
X83565000Y-72620000D02*
X80390000Y-72620000D01*
X118490000Y-75795000D02*
X115632500Y-75795000D01*
%TO.N,GND*%
X118490000Y-68492500D02*
X121347500Y-68492500D01*
X126110000Y-76430000D02*
X126110000Y-74525000D01*
X126110000Y-74525000D02*
X126110000Y-73890000D01*
X121347500Y-68492500D02*
X121665000Y-68492500D01*
X121347500Y-68492500D02*
X121982500Y-68492500D01*
X126110000Y-73890000D02*
X126110000Y-73255000D01*
X91185000Y-59920000D02*
X93090000Y-59920000D01*
X98805000Y-49760000D02*
X96900000Y-49760000D01*
%TO.N,Net-(D1-Pad2)*%
X130237500Y-51982500D02*
X128650000Y-53570000D01*
X133730000Y-51982500D02*
X130237500Y-51982500D01*
%TO.N,Net-(D1-Pad1)*%
X124522500Y-51982500D02*
X126110000Y-53570000D01*
X118490000Y-51982500D02*
X124522500Y-51982500D01*
%TO.N,Net-(D2-Pad2)*%
X147382500Y-55157500D02*
X148970000Y-53570000D01*
X143890000Y-55157500D02*
X147382500Y-55157500D01*
%TO.N,Net-(D2-Pad1)*%
X145795000Y-59285000D02*
X136905000Y-59285000D01*
X151510000Y-53570000D02*
X145795000Y-59285000D01*
X135635000Y-60555000D02*
X135635000Y-75317501D01*
X136905000Y-59285000D02*
X135635000Y-60555000D01*
X134522501Y-76430000D02*
X128650000Y-76430000D01*
X135635000Y-75317501D02*
X134522501Y-76430000D01*
%TO.N,Net-(D3-Pad2)*%
X133730000Y-74842500D02*
X133730000Y-66270000D01*
X132460000Y-65000000D02*
X128650000Y-65000000D01*
X133730000Y-66270000D02*
X132460000Y-65000000D01*
%TO.N,Net-(D3-Pad1)*%
X125792500Y-64682500D02*
X126110000Y-65000000D01*
X118490000Y-64682500D02*
X125792500Y-64682500D01*
%TO.N,Net-(D4-Pad1)*%
X138810000Y-78017500D02*
X143890000Y-78017500D01*
X137540000Y-65000000D02*
X137540000Y-76747500D01*
X137540000Y-76747500D02*
X138810000Y-78017500D01*
%TO.N,Net-(Q1-Pad2)*%
X96582500Y-71350000D02*
X99757500Y-71350000D01*
X95630000Y-73255000D02*
X96582500Y-72302500D01*
X96582500Y-72302500D02*
X96582500Y-71350000D01*
X87375000Y-73255000D02*
X95630000Y-73255000D01*
X84835000Y-71350000D02*
X85470000Y-71350000D01*
X85470000Y-71350000D02*
X87375000Y-73255000D01*
%TO.N,Net-(Q2-Pad2)*%
X117220000Y-50712500D02*
X113410000Y-50712500D01*
X113410000Y-55475000D02*
X113410000Y-49125000D01*
%TO.N,Net-(Q3-Pad2)*%
X114680000Y-57062500D02*
X117220000Y-57062500D01*
X113410000Y-58650000D02*
X113410000Y-58332500D01*
X113410000Y-58332500D02*
X114680000Y-57062500D01*
%TO.N,Net-(Q4-Pad2)*%
X113410000Y-62142500D02*
X113410000Y-61825000D01*
X117220000Y-63412500D02*
X114680000Y-63412500D01*
X114680000Y-63412500D02*
X113410000Y-62142500D01*
%TO.N,Net-(Q5-Pad2)*%
X117220000Y-69762500D02*
X113410000Y-69762500D01*
X113410000Y-71350000D02*
X113410000Y-65000000D01*
%TO.N,1*%
X105155000Y-60555000D02*
X103250000Y-58650000D01*
X103250000Y-68175000D02*
X105155000Y-66270000D01*
X105155000Y-66270000D02*
X105155000Y-60555000D01*
%TO.N,5*%
X100710000Y-62460000D02*
X101345000Y-63095000D01*
X98805000Y-62460000D02*
X100710000Y-62460000D01*
X100710000Y-62460000D02*
X101345000Y-61825000D01*
X101345000Y-63095000D02*
X101345000Y-61825000D01*
X101345000Y-69445000D02*
X103250000Y-71350000D01*
X101345000Y-63095000D02*
X101345000Y-69445000D01*
X101345000Y-57380000D02*
X103250000Y-55475000D01*
X101345000Y-61825000D02*
X101345000Y-57380000D01*
%TO.N,4*%
X98805000Y-52300000D02*
X103250000Y-52300000D01*
%TO.N,6*%
X94995000Y-51030000D02*
X93725000Y-52300000D01*
X93725000Y-52300000D02*
X91185000Y-52300000D01*
X96265000Y-47855000D02*
X94995000Y-49125000D01*
X103250000Y-49125000D02*
X101980000Y-47855000D01*
X94995000Y-49125000D02*
X94995000Y-51030000D01*
X101980000Y-47855000D02*
X96265000Y-47855000D01*
%TO.N,Net-(U1-Pad3)*%
X90550000Y-62460000D02*
X91185000Y-62460000D01*
X87375000Y-59920000D02*
X88010000Y-59920000D01*
X88010000Y-59920000D02*
X90550000Y-62460000D01*
%TO.N,Net-(D7-Pad1)*%
X153415000Y-75795000D02*
X152780000Y-76430000D01*
X152780000Y-76430000D02*
X151510000Y-76430000D01*
X153415000Y-51982500D02*
X153415000Y-75795000D01*
X152615001Y-51182501D02*
X153415000Y-51982500D01*
X143890000Y-51982500D02*
X144689999Y-51182501D01*
X144689999Y-51182501D02*
X152615001Y-51182501D01*
%TO.N,Net-(D5-Pad1)*%
X143890000Y-70080000D02*
X148970000Y-65000000D01*
X143890000Y-74842500D02*
X143890000Y-70080000D01*
%TO.N,Net-(Q3-Pad1)*%
X130555000Y-58332500D02*
X118490000Y-58332500D01*
X133730000Y-55157500D02*
X130555000Y-58332500D01*
%TO.N,Net-(C1-Pad1)*%
X82930000Y-62460000D02*
X83565000Y-62460000D01*
X79755000Y-62460000D02*
X82930000Y-62460000D01*
X83565000Y-62460000D02*
X84200000Y-62460000D01*
X90232500Y-71350000D02*
X93407500Y-71350000D01*
X79755000Y-59920000D02*
X79755000Y-62460000D01*
X84200000Y-62460000D02*
X85470000Y-62460000D01*
X85470000Y-62460000D02*
X87375000Y-62460000D01*
X83565000Y-63095000D02*
X83565000Y-62460000D01*
X84200000Y-62460000D02*
X83565000Y-63095000D01*
X82930000Y-62460000D02*
X83565000Y-63095000D01*
X83565000Y-63095000D02*
X83565000Y-65000000D01*
X89915000Y-71350000D02*
X90232500Y-71350000D01*
X83565000Y-65000000D02*
X89915000Y-71350000D01*
X81660000Y-59920000D02*
X79755000Y-59920000D01*
X82295000Y-53570000D02*
X82295000Y-59285000D01*
X82295000Y-59285000D02*
X81660000Y-59920000D01*
%TO.N,Net-(C2-Pad2)*%
X84795000Y-78017500D02*
X94360000Y-78017500D01*
X96582500Y-78652500D02*
X95947500Y-78017500D01*
X96582500Y-81510000D02*
X96582500Y-78652500D01*
X94360000Y-78017500D02*
X95947500Y-78017500D01*
X96582500Y-78652500D02*
X97217500Y-78017500D01*
X95947500Y-78017500D02*
X97217500Y-78017500D01*
X98805000Y-78017500D02*
X97217500Y-78017500D01*
X105080000Y-80585000D02*
X102512500Y-78017500D01*
X102512500Y-78017500D02*
X98805000Y-78017500D01*
%TO.N,Net-(Q5-Pad1)*%
X124205000Y-78652500D02*
X133095000Y-78652500D01*
X122935000Y-77382500D02*
X124205000Y-78652500D01*
X122935000Y-72302500D02*
X122935000Y-77382500D01*
X118490000Y-71032500D02*
X121665000Y-71032500D01*
X121665000Y-71032500D02*
X122935000Y-72302500D01*
X133095000Y-78652500D02*
X133730000Y-78017500D01*
%TO.N,Net-(U2-Pad15)*%
X94995000Y-58650000D02*
X96265000Y-57380000D01*
X94995000Y-63730000D02*
X94995000Y-58650000D01*
X91185000Y-65000000D02*
X93725000Y-65000000D01*
X96265000Y-57380000D02*
X98805000Y-57380000D01*
X93725000Y-65000000D02*
X94995000Y-63730000D01*
%TD*%
D21*
%TO.N,+9V*%
G36*
X157349667Y-42997926D02*
G01*
X158085332Y-43199181D01*
X158773722Y-43527527D01*
X159393091Y-43972588D01*
X159923858Y-44520297D01*
X160349245Y-45153340D01*
X160655806Y-45851705D01*
X160835305Y-46599376D01*
X160883000Y-47248852D01*
X160883001Y-82744943D01*
X160812074Y-83539669D01*
X160610819Y-84275332D01*
X160282473Y-84963723D01*
X159837412Y-85583092D01*
X159289703Y-86113857D01*
X158656661Y-86539244D01*
X157958295Y-86845805D01*
X157210623Y-87025305D01*
X156561148Y-87073000D01*
X78837546Y-87073000D01*
X78042831Y-87002074D01*
X77307168Y-86800819D01*
X76618777Y-86472473D01*
X75999408Y-86027412D01*
X75468643Y-85479703D01*
X75043256Y-84846661D01*
X74736695Y-84148295D01*
X74557195Y-83400623D01*
X74509500Y-82751148D01*
X74509500Y-82547363D01*
X76440500Y-82547363D01*
X76440500Y-83012637D01*
X76531270Y-83468970D01*
X76709322Y-83898827D01*
X76967815Y-84285687D01*
X77296813Y-84614685D01*
X77683673Y-84873178D01*
X78113530Y-85051230D01*
X78569863Y-85142000D01*
X79035137Y-85142000D01*
X79491470Y-85051230D01*
X79921327Y-84873178D01*
X80308187Y-84614685D01*
X80637185Y-84285687D01*
X80895678Y-83898827D01*
X81073730Y-83468970D01*
X81164500Y-83012637D01*
X81164500Y-82547363D01*
X81073730Y-82091030D01*
X80895678Y-81661173D01*
X80691872Y-81356156D01*
X88670500Y-81356156D01*
X88670500Y-81663844D01*
X88730527Y-81965619D01*
X88848273Y-82249885D01*
X89019215Y-82505717D01*
X89236783Y-82723285D01*
X89492615Y-82894227D01*
X89776881Y-83011973D01*
X90078656Y-83072000D01*
X90386344Y-83072000D01*
X90688119Y-83011973D01*
X90972385Y-82894227D01*
X91228217Y-82723285D01*
X91445785Y-82505717D01*
X91616727Y-82249885D01*
X91734473Y-81965619D01*
X91794500Y-81663844D01*
X91794500Y-81356156D01*
X91845500Y-81356156D01*
X91845500Y-81663844D01*
X91905527Y-81965619D01*
X92023273Y-82249885D01*
X92194215Y-82505717D01*
X92411783Y-82723285D01*
X92667615Y-82894227D01*
X92951881Y-83011973D01*
X93253656Y-83072000D01*
X93561344Y-83072000D01*
X93863119Y-83011973D01*
X94147385Y-82894227D01*
X94403217Y-82723285D01*
X94620785Y-82505717D01*
X94791727Y-82249885D01*
X94909473Y-81965619D01*
X94969500Y-81663844D01*
X94969500Y-81356156D01*
X94909473Y-81054381D01*
X94791727Y-80770115D01*
X94620785Y-80514283D01*
X94403217Y-80296715D01*
X94147385Y-80125773D01*
X93863119Y-80008027D01*
X93561344Y-79948000D01*
X93253656Y-79948000D01*
X92951881Y-80008027D01*
X92667615Y-80125773D01*
X92411783Y-80296715D01*
X92194215Y-80514283D01*
X92023273Y-80770115D01*
X91905527Y-81054381D01*
X91845500Y-81356156D01*
X91794500Y-81356156D01*
X91734473Y-81054381D01*
X91616727Y-80770115D01*
X91445785Y-80514283D01*
X91228217Y-80296715D01*
X90972385Y-80125773D01*
X90688119Y-80008027D01*
X90386344Y-79948000D01*
X90078656Y-79948000D01*
X89776881Y-80008027D01*
X89492615Y-80125773D01*
X89236783Y-80296715D01*
X89019215Y-80514283D01*
X88848273Y-80770115D01*
X88730527Y-81054381D01*
X88670500Y-81356156D01*
X80691872Y-81356156D01*
X80637185Y-81274313D01*
X80308187Y-80945315D01*
X79921327Y-80686822D01*
X79491470Y-80508770D01*
X79035137Y-80418000D01*
X78569863Y-80418000D01*
X78113530Y-80508770D01*
X77683673Y-80686822D01*
X77296813Y-80945315D01*
X76967815Y-81274313D01*
X76709322Y-81661173D01*
X76531270Y-82091030D01*
X76440500Y-82547363D01*
X74509500Y-82547363D01*
X74509500Y-77217500D01*
X80729314Y-77217500D01*
X80729314Y-78817500D01*
X80744026Y-78966878D01*
X80787598Y-79110515D01*
X80858355Y-79242892D01*
X80953578Y-79358922D01*
X81069608Y-79454145D01*
X81201985Y-79524902D01*
X81345622Y-79568474D01*
X81495000Y-79583186D01*
X83095000Y-79583186D01*
X83244378Y-79568474D01*
X83388015Y-79524902D01*
X83520392Y-79454145D01*
X83636422Y-79358922D01*
X83731645Y-79242892D01*
X83759422Y-79190924D01*
X83799283Y-79230785D01*
X84055115Y-79401727D01*
X84339381Y-79519473D01*
X84641156Y-79579500D01*
X84948844Y-79579500D01*
X85250619Y-79519473D01*
X85534885Y-79401727D01*
X85717810Y-79279500D01*
X95320501Y-79279500D01*
X95320500Y-80587189D01*
X95198273Y-80770115D01*
X95080527Y-81054381D01*
X95020500Y-81356156D01*
X95020500Y-81663844D01*
X95080527Y-81965619D01*
X95198273Y-82249885D01*
X95369215Y-82505717D01*
X95586783Y-82723285D01*
X95842615Y-82894227D01*
X96126881Y-83011973D01*
X96428656Y-83072000D01*
X96736344Y-83072000D01*
X97038119Y-83011973D01*
X97322385Y-82894227D01*
X97578217Y-82723285D01*
X97795785Y-82505717D01*
X97966727Y-82249885D01*
X98084473Y-81965619D01*
X98144500Y-81663844D01*
X98144500Y-81356156D01*
X98195500Y-81356156D01*
X98195500Y-81663844D01*
X98255527Y-81965619D01*
X98373273Y-82249885D01*
X98544215Y-82505717D01*
X98761783Y-82723285D01*
X99017615Y-82894227D01*
X99301881Y-83011973D01*
X99603656Y-83072000D01*
X99911344Y-83072000D01*
X100213119Y-83011973D01*
X100497385Y-82894227D01*
X100753217Y-82723285D01*
X100970785Y-82505717D01*
X101141727Y-82249885D01*
X101259473Y-81965619D01*
X101319500Y-81663844D01*
X101319500Y-81356156D01*
X101259473Y-81054381D01*
X101141727Y-80770115D01*
X100970785Y-80514283D01*
X100753217Y-80296715D01*
X100497385Y-80125773D01*
X100213119Y-80008027D01*
X99911344Y-79948000D01*
X99603656Y-79948000D01*
X99301881Y-80008027D01*
X99017615Y-80125773D01*
X98761783Y-80296715D01*
X98544215Y-80514283D01*
X98373273Y-80770115D01*
X98255527Y-81054381D01*
X98195500Y-81356156D01*
X98144500Y-81356156D01*
X98084473Y-81054381D01*
X97966727Y-80770115D01*
X97844500Y-80587190D01*
X97844500Y-79279500D01*
X101989764Y-79279500D01*
X103318000Y-80607737D01*
X103318000Y-80758542D01*
X103385712Y-81098957D01*
X103518535Y-81419620D01*
X103711365Y-81708210D01*
X103956790Y-81953635D01*
X104245380Y-82146465D01*
X104566043Y-82279288D01*
X104906458Y-82347000D01*
X105253542Y-82347000D01*
X105593957Y-82279288D01*
X105914620Y-82146465D01*
X106203210Y-81953635D01*
X106448635Y-81708210D01*
X106641465Y-81419620D01*
X106774288Y-81098957D01*
X106842000Y-80758542D01*
X106842000Y-80411458D01*
X109818000Y-80411458D01*
X109818000Y-80758542D01*
X109885712Y-81098957D01*
X110018535Y-81419620D01*
X110211365Y-81708210D01*
X110456790Y-81953635D01*
X110745380Y-82146465D01*
X111066043Y-82279288D01*
X111406458Y-82347000D01*
X111753542Y-82347000D01*
X112093957Y-82279288D01*
X112414620Y-82146465D01*
X112703210Y-81953635D01*
X112948635Y-81708210D01*
X113141465Y-81419620D01*
X113274288Y-81098957D01*
X113342000Y-80758542D01*
X113342000Y-80411458D01*
X113274288Y-80071043D01*
X113141465Y-79750380D01*
X112948635Y-79461790D01*
X112861845Y-79375000D01*
X116224314Y-79375000D01*
X116224314Y-82375000D01*
X116239026Y-82524378D01*
X116282598Y-82668015D01*
X116353355Y-82800392D01*
X116448578Y-82916422D01*
X116564608Y-83011645D01*
X116696985Y-83082402D01*
X116840622Y-83125974D01*
X116990000Y-83140686D01*
X119990000Y-83140686D01*
X120139378Y-83125974D01*
X120283015Y-83082402D01*
X120415392Y-83011645D01*
X120531422Y-82916422D01*
X120626645Y-82800392D01*
X120697402Y-82668015D01*
X120734001Y-82547363D01*
X154228000Y-82547363D01*
X154228000Y-83012637D01*
X154318770Y-83468970D01*
X154496822Y-83898827D01*
X154755315Y-84285687D01*
X155084313Y-84614685D01*
X155471173Y-84873178D01*
X155901030Y-85051230D01*
X156357363Y-85142000D01*
X156822637Y-85142000D01*
X157278970Y-85051230D01*
X157708827Y-84873178D01*
X158095687Y-84614685D01*
X158424685Y-84285687D01*
X158683178Y-83898827D01*
X158861230Y-83468970D01*
X158952000Y-83012637D01*
X158952000Y-82547363D01*
X158861230Y-82091030D01*
X158683178Y-81661173D01*
X158424685Y-81274313D01*
X158095687Y-80945315D01*
X157708827Y-80686822D01*
X157278970Y-80508770D01*
X156822637Y-80418000D01*
X156357363Y-80418000D01*
X155901030Y-80508770D01*
X155471173Y-80686822D01*
X155084313Y-80945315D01*
X154755315Y-81274313D01*
X154496822Y-81661173D01*
X154318770Y-82091030D01*
X154228000Y-82547363D01*
X120734001Y-82547363D01*
X120740974Y-82524378D01*
X120755686Y-82375000D01*
X120755686Y-79375000D01*
X120740974Y-79225622D01*
X120697402Y-79081985D01*
X120626645Y-78949608D01*
X120531422Y-78833578D01*
X120415392Y-78738355D01*
X120283015Y-78667598D01*
X120139378Y-78624026D01*
X119990000Y-78609314D01*
X116990000Y-78609314D01*
X116840622Y-78624026D01*
X116696985Y-78667598D01*
X116564608Y-78738355D01*
X116448578Y-78833578D01*
X116353355Y-78949608D01*
X116282598Y-79081985D01*
X116239026Y-79225622D01*
X116224314Y-79375000D01*
X112861845Y-79375000D01*
X112703210Y-79216365D01*
X112414620Y-79023535D01*
X112093957Y-78890712D01*
X111753542Y-78823000D01*
X111406458Y-78823000D01*
X111066043Y-78890712D01*
X110745380Y-79023535D01*
X110456790Y-79216365D01*
X110211365Y-79461790D01*
X110018535Y-79750380D01*
X109885712Y-80071043D01*
X109818000Y-80411458D01*
X106842000Y-80411458D01*
X106774288Y-80071043D01*
X106641465Y-79750380D01*
X106448635Y-79461790D01*
X106203210Y-79216365D01*
X105914620Y-79023535D01*
X105593957Y-78890712D01*
X105253542Y-78823000D01*
X105102737Y-78823000D01*
X103448711Y-77168975D01*
X103409186Y-77120814D01*
X103217022Y-76963108D01*
X102997783Y-76845923D01*
X102759895Y-76773760D01*
X102574496Y-76755500D01*
X102574488Y-76755500D01*
X102512500Y-76749395D01*
X102450512Y-76755500D01*
X97279488Y-76755500D01*
X97217500Y-76749395D01*
X97155511Y-76755500D01*
X96009488Y-76755500D01*
X95947500Y-76749395D01*
X95885512Y-76755500D01*
X85717810Y-76755500D01*
X85534885Y-76633273D01*
X85250619Y-76515527D01*
X84948844Y-76455500D01*
X84641156Y-76455500D01*
X84339381Y-76515527D01*
X84055115Y-76633273D01*
X83799283Y-76804215D01*
X83759422Y-76844076D01*
X83731645Y-76792108D01*
X83636422Y-76676078D01*
X83520392Y-76580855D01*
X83388015Y-76510098D01*
X83244378Y-76466526D01*
X83095000Y-76451814D01*
X81495000Y-76451814D01*
X81345622Y-76466526D01*
X81201985Y-76510098D01*
X81069608Y-76580855D01*
X80953578Y-76676078D01*
X80858355Y-76792108D01*
X80787598Y-76924485D01*
X80744026Y-77068122D01*
X80729314Y-77217500D01*
X74509500Y-77217500D01*
X74509500Y-75911458D01*
X103318000Y-75911458D01*
X103318000Y-76258542D01*
X103385712Y-76598957D01*
X103518535Y-76919620D01*
X103711365Y-77208210D01*
X103956790Y-77453635D01*
X104245380Y-77646465D01*
X104566043Y-77779288D01*
X104906458Y-77847000D01*
X105253542Y-77847000D01*
X105593957Y-77779288D01*
X105914620Y-77646465D01*
X106203210Y-77453635D01*
X106448635Y-77208210D01*
X106641465Y-76919620D01*
X106774288Y-76598957D01*
X106842000Y-76258542D01*
X106842000Y-75911458D01*
X109818000Y-75911458D01*
X109818000Y-76258542D01*
X109885712Y-76598957D01*
X110018535Y-76919620D01*
X110211365Y-77208210D01*
X110456790Y-77453635D01*
X110745380Y-77646465D01*
X111066043Y-77779288D01*
X111406458Y-77847000D01*
X111753542Y-77847000D01*
X112093957Y-77779288D01*
X112414620Y-77646465D01*
X112703210Y-77453635D01*
X112948635Y-77208210D01*
X113141465Y-76919620D01*
X113274288Y-76598957D01*
X113342000Y-76258542D01*
X113342000Y-75911458D01*
X113274288Y-75571043D01*
X113141465Y-75250380D01*
X112948635Y-74961790D01*
X112703210Y-74716365D01*
X112414620Y-74523535D01*
X112093957Y-74390712D01*
X111753542Y-74323000D01*
X111406458Y-74323000D01*
X111066043Y-74390712D01*
X110745380Y-74523535D01*
X110456790Y-74716365D01*
X110211365Y-74961790D01*
X110018535Y-75250380D01*
X109885712Y-75571043D01*
X109818000Y-75911458D01*
X106842000Y-75911458D01*
X106774288Y-75571043D01*
X106641465Y-75250380D01*
X106448635Y-74961790D01*
X106203210Y-74716365D01*
X105914620Y-74523535D01*
X105593957Y-74390712D01*
X105253542Y-74323000D01*
X104906458Y-74323000D01*
X104566043Y-74390712D01*
X104245380Y-74523535D01*
X103956790Y-74716365D01*
X103711365Y-74961790D01*
X103518535Y-75250380D01*
X103385712Y-75571043D01*
X103318000Y-75911458D01*
X74509500Y-75911458D01*
X74509500Y-57380000D01*
X77785443Y-57380000D01*
X77815602Y-57686205D01*
X77904918Y-57980643D01*
X78049961Y-58251999D01*
X78245156Y-58489844D01*
X78440306Y-58650000D01*
X78245156Y-58810156D01*
X78049961Y-59048001D01*
X77904918Y-59319357D01*
X77815602Y-59613795D01*
X77785443Y-59920000D01*
X77815602Y-60226205D01*
X77904918Y-60520643D01*
X78049961Y-60791999D01*
X78245156Y-61029844D01*
X78440306Y-61190000D01*
X78245156Y-61350156D01*
X78049961Y-61588001D01*
X77904918Y-61859357D01*
X77815602Y-62153795D01*
X77785443Y-62460000D01*
X77815602Y-62766205D01*
X77904918Y-63060643D01*
X78049961Y-63331999D01*
X78245156Y-63569844D01*
X78440306Y-63730000D01*
X78245156Y-63890156D01*
X78049961Y-64128001D01*
X77904918Y-64399357D01*
X77815602Y-64693795D01*
X77785443Y-65000000D01*
X77815602Y-65306205D01*
X77904918Y-65600643D01*
X78049961Y-65871999D01*
X78245156Y-66109844D01*
X78483001Y-66305039D01*
X78754357Y-66450082D01*
X79048795Y-66539398D01*
X79278274Y-66562000D01*
X80231726Y-66562000D01*
X80461205Y-66539398D01*
X80755643Y-66450082D01*
X81026999Y-66305039D01*
X81264844Y-66109844D01*
X81460039Y-65871999D01*
X81605082Y-65600643D01*
X81694398Y-65306205D01*
X81724557Y-65000000D01*
X81694398Y-64693795D01*
X81605082Y-64399357D01*
X81460039Y-64128001D01*
X81264844Y-63890156D01*
X81069694Y-63730000D01*
X81079442Y-63722000D01*
X82303000Y-63722000D01*
X82303001Y-64938002D01*
X82296895Y-65000000D01*
X82321260Y-65247395D01*
X82374066Y-65421468D01*
X82393424Y-65485283D01*
X82510609Y-65704522D01*
X82668315Y-65896686D01*
X82716470Y-65936206D01*
X88773262Y-71993000D01*
X87897737Y-71993000D01*
X86892050Y-70987314D01*
X86880690Y-70871972D01*
X86821468Y-70676747D01*
X86725299Y-70496826D01*
X86595876Y-70339124D01*
X86438174Y-70209701D01*
X86258253Y-70113532D01*
X86063028Y-70054310D01*
X85860000Y-70034314D01*
X84830686Y-70034314D01*
X84830686Y-69530000D01*
X84815974Y-69380622D01*
X84772402Y-69236985D01*
X84701645Y-69104608D01*
X84606422Y-68988578D01*
X84490392Y-68893355D01*
X84358015Y-68822598D01*
X84214378Y-68779026D01*
X84065000Y-68764314D01*
X82265000Y-68764314D01*
X82115622Y-68779026D01*
X81971985Y-68822598D01*
X81839608Y-68893355D01*
X81723578Y-68988578D01*
X81628355Y-69104608D01*
X81557598Y-69236985D01*
X81514026Y-69380622D01*
X81499314Y-69530000D01*
X81499314Y-70630000D01*
X81514026Y-70779378D01*
X81557598Y-70923015D01*
X81628355Y-71055392D01*
X81723578Y-71171422D01*
X81839608Y-71266645D01*
X81971985Y-71337402D01*
X82115622Y-71380974D01*
X82141723Y-71383545D01*
X81961826Y-71479701D01*
X81804124Y-71609124D01*
X81674701Y-71766826D01*
X81578532Y-71946747D01*
X81519310Y-72141972D01*
X81499314Y-72345000D01*
X81499314Y-72895000D01*
X81519310Y-73098028D01*
X81578532Y-73293253D01*
X81674701Y-73473174D01*
X81804124Y-73630876D01*
X81961826Y-73760299D01*
X82141747Y-73856468D01*
X82336972Y-73915690D01*
X82540000Y-73935686D01*
X83790000Y-73935686D01*
X83993028Y-73915690D01*
X84188253Y-73856468D01*
X84368174Y-73760299D01*
X84525876Y-73630876D01*
X84655299Y-73473174D01*
X84751468Y-73293253D01*
X84810690Y-73098028D01*
X84830686Y-72895000D01*
X84830686Y-72665686D01*
X85000950Y-72665686D01*
X86438793Y-74103530D01*
X86478314Y-74151686D01*
X86670478Y-74309392D01*
X86772531Y-74363940D01*
X86889716Y-74426577D01*
X87127604Y-74498740D01*
X87149713Y-74500917D01*
X87313004Y-74517000D01*
X87313011Y-74517000D01*
X87375000Y-74523105D01*
X87436988Y-74517000D01*
X95568012Y-74517000D01*
X95630000Y-74523105D01*
X95691988Y-74517000D01*
X95691996Y-74517000D01*
X95877395Y-74498740D01*
X96115283Y-74426577D01*
X96334522Y-74309392D01*
X96352058Y-74295000D01*
X116224314Y-74295000D01*
X116224314Y-77295000D01*
X116239026Y-77444378D01*
X116282598Y-77588015D01*
X116353355Y-77720392D01*
X116448578Y-77836422D01*
X116564608Y-77931645D01*
X116696985Y-78002402D01*
X116840622Y-78045974D01*
X116990000Y-78060686D01*
X119990000Y-78060686D01*
X120139378Y-78045974D01*
X120283015Y-78002402D01*
X120415392Y-77931645D01*
X120531422Y-77836422D01*
X120626645Y-77720392D01*
X120697402Y-77588015D01*
X120740974Y-77444378D01*
X120755686Y-77295000D01*
X120755686Y-74295000D01*
X120740974Y-74145622D01*
X120697402Y-74001985D01*
X120626645Y-73869608D01*
X120531422Y-73753578D01*
X120415392Y-73658355D01*
X120283015Y-73587598D01*
X120139378Y-73544026D01*
X119990000Y-73529314D01*
X116990000Y-73529314D01*
X116840622Y-73544026D01*
X116696985Y-73587598D01*
X116564608Y-73658355D01*
X116448578Y-73753578D01*
X116353355Y-73869608D01*
X116282598Y-74001985D01*
X116239026Y-74145622D01*
X116224314Y-74295000D01*
X96352058Y-74295000D01*
X96526686Y-74151686D01*
X96566210Y-74103526D01*
X97431036Y-73238701D01*
X97479186Y-73199186D01*
X97518702Y-73151036D01*
X97518706Y-73151032D01*
X97636413Y-73007606D01*
X97636892Y-73007022D01*
X97754077Y-72787783D01*
X97807401Y-72612000D01*
X98834690Y-72612000D01*
X99017615Y-72734227D01*
X99301881Y-72851973D01*
X99603656Y-72912000D01*
X99911344Y-72912000D01*
X100213119Y-72851973D01*
X100497385Y-72734227D01*
X100753217Y-72563285D01*
X100970785Y-72345717D01*
X101141727Y-72089885D01*
X101259473Y-71805619D01*
X101319500Y-71503844D01*
X101319500Y-71204236D01*
X101705106Y-71589843D01*
X101748027Y-71805619D01*
X101865773Y-72089885D01*
X102036715Y-72345717D01*
X102254283Y-72563285D01*
X102510115Y-72734227D01*
X102794381Y-72851973D01*
X103096156Y-72912000D01*
X103403844Y-72912000D01*
X103705619Y-72851973D01*
X103989885Y-72734227D01*
X104245717Y-72563285D01*
X104463285Y-72345717D01*
X104634227Y-72089885D01*
X104751973Y-71805619D01*
X104812000Y-71503844D01*
X104812000Y-71196156D01*
X104751973Y-70894381D01*
X104634227Y-70610115D01*
X104463285Y-70354283D01*
X104245717Y-70136715D01*
X103989885Y-69965773D01*
X103705619Y-69848027D01*
X103489843Y-69805106D01*
X103418768Y-69734031D01*
X103705619Y-69676973D01*
X103989885Y-69559227D01*
X104245717Y-69388285D01*
X104463285Y-69170717D01*
X104634227Y-68914885D01*
X104751973Y-68630619D01*
X104794894Y-68414843D01*
X106003532Y-67206205D01*
X106051686Y-67166686D01*
X106209392Y-66974522D01*
X106263940Y-66872469D01*
X106326577Y-66755284D01*
X106398740Y-66517396D01*
X106403128Y-66472846D01*
X106417000Y-66331996D01*
X106417000Y-66331989D01*
X106423105Y-66270000D01*
X106417000Y-66208012D01*
X106417000Y-61671156D01*
X111848000Y-61671156D01*
X111848000Y-61978844D01*
X111908027Y-62280619D01*
X112025773Y-62564885D01*
X112196715Y-62820717D01*
X112414283Y-63038285D01*
X112521000Y-63109591D01*
X112521000Y-63715409D01*
X112414283Y-63786715D01*
X112196715Y-64004283D01*
X112025773Y-64260115D01*
X111908027Y-64544381D01*
X111848000Y-64846156D01*
X111848000Y-65153844D01*
X111908027Y-65455619D01*
X112025773Y-65739885D01*
X112148001Y-65922811D01*
X112148001Y-67252189D01*
X112025773Y-67435115D01*
X111908027Y-67719381D01*
X111848000Y-68021156D01*
X111848000Y-68328844D01*
X111908027Y-68630619D01*
X112025773Y-68914885D01*
X112148000Y-69097811D01*
X112148000Y-69700501D01*
X112141894Y-69762500D01*
X112148000Y-69824498D01*
X112148000Y-70427190D01*
X112025773Y-70610115D01*
X111908027Y-70894381D01*
X111848000Y-71196156D01*
X111848000Y-71503844D01*
X111908027Y-71805619D01*
X112025773Y-72089885D01*
X112196715Y-72345717D01*
X112414283Y-72563285D01*
X112670115Y-72734227D01*
X112954381Y-72851973D01*
X113256156Y-72912000D01*
X113563844Y-72912000D01*
X113865619Y-72851973D01*
X114149885Y-72734227D01*
X114405717Y-72563285D01*
X114623285Y-72345717D01*
X114794227Y-72089885D01*
X114911973Y-71805619D01*
X114972000Y-71503844D01*
X114972000Y-71196156D01*
X114937855Y-71024500D01*
X115880913Y-71024500D01*
X115991972Y-71058190D01*
X116195000Y-71078186D01*
X117224314Y-71078186D01*
X117224314Y-71582500D01*
X117239026Y-71731878D01*
X117282598Y-71875515D01*
X117353355Y-72007892D01*
X117448578Y-72123922D01*
X117564608Y-72219145D01*
X117696985Y-72289902D01*
X117840622Y-72333474D01*
X117990000Y-72348186D01*
X119790000Y-72348186D01*
X119939378Y-72333474D01*
X120067857Y-72294500D01*
X121142263Y-72294500D01*
X121673000Y-72825238D01*
X121673001Y-77320502D01*
X121666895Y-77382500D01*
X121691260Y-77629895D01*
X121762172Y-77863656D01*
X121763424Y-77867783D01*
X121880609Y-78087022D01*
X122038315Y-78279186D01*
X122086470Y-78318706D01*
X123268798Y-79501036D01*
X123308314Y-79549186D01*
X123356464Y-79588702D01*
X123356468Y-79588706D01*
X123473063Y-79684393D01*
X123500478Y-79706892D01*
X123719717Y-79824077D01*
X123957605Y-79896240D01*
X124143004Y-79914500D01*
X124143013Y-79914500D01*
X124204999Y-79920605D01*
X124266985Y-79914500D01*
X133033012Y-79914500D01*
X133095000Y-79920605D01*
X133156988Y-79914500D01*
X133156996Y-79914500D01*
X133342395Y-79896240D01*
X133580283Y-79824077D01*
X133799522Y-79706892D01*
X133977432Y-79560884D01*
X134185619Y-79519473D01*
X134469885Y-79401727D01*
X134725717Y-79230785D01*
X134943285Y-79013217D01*
X135114227Y-78757385D01*
X135231973Y-78473119D01*
X135292000Y-78171344D01*
X135292000Y-77863656D01*
X135231973Y-77561881D01*
X135204797Y-77496272D01*
X135227023Y-77484392D01*
X135419187Y-77326686D01*
X135458711Y-77278526D01*
X136278001Y-76459238D01*
X136278001Y-76685502D01*
X136271895Y-76747500D01*
X136296260Y-76994895D01*
X136368424Y-77232783D01*
X136485609Y-77452022D01*
X136575769Y-77561881D01*
X136643315Y-77644186D01*
X136691470Y-77683706D01*
X137873798Y-78866036D01*
X137913314Y-78914186D01*
X137961464Y-78953702D01*
X137961468Y-78953706D01*
X138046555Y-79023535D01*
X138105478Y-79071892D01*
X138324717Y-79189077D01*
X138562605Y-79261240D01*
X138748004Y-79279500D01*
X138748013Y-79279500D01*
X138809999Y-79285605D01*
X138871985Y-79279500D01*
X142967190Y-79279500D01*
X143150115Y-79401727D01*
X143434381Y-79519473D01*
X143736156Y-79579500D01*
X144043844Y-79579500D01*
X144345619Y-79519473D01*
X144629885Y-79401727D01*
X144885717Y-79230785D01*
X145103285Y-79013217D01*
X145274227Y-78757385D01*
X145391973Y-78473119D01*
X145452000Y-78171344D01*
X145452000Y-77863656D01*
X145391973Y-77561881D01*
X145274227Y-77277615D01*
X145103285Y-77021783D01*
X144885717Y-76804215D01*
X144629885Y-76633273D01*
X144345619Y-76515527D01*
X144043844Y-76455500D01*
X143736156Y-76455500D01*
X143434381Y-76515527D01*
X143150115Y-76633273D01*
X142967190Y-76755500D01*
X139332737Y-76755500D01*
X138802000Y-76224763D01*
X138802000Y-66570529D01*
X138865392Y-66536645D01*
X138981422Y-66441422D01*
X139075024Y-66327367D01*
X139292748Y-66472846D01*
X139595212Y-66598131D01*
X139916307Y-66662000D01*
X140243693Y-66662000D01*
X140564788Y-66598131D01*
X140867252Y-66472846D01*
X141139463Y-66290960D01*
X141370960Y-66059463D01*
X141552846Y-65787252D01*
X141678131Y-65484788D01*
X141742000Y-65163693D01*
X141742000Y-64836307D01*
X141678131Y-64515212D01*
X141552846Y-64212748D01*
X141370960Y-63940537D01*
X141139463Y-63709040D01*
X140867252Y-63527154D01*
X140564788Y-63401869D01*
X140243693Y-63338000D01*
X139916307Y-63338000D01*
X139595212Y-63401869D01*
X139292748Y-63527154D01*
X139075024Y-63672633D01*
X138981422Y-63558578D01*
X138865392Y-63463355D01*
X138733015Y-63392598D01*
X138589378Y-63349026D01*
X138440000Y-63334314D01*
X136897000Y-63334314D01*
X136897000Y-61077737D01*
X137427737Y-60547000D01*
X145733012Y-60547000D01*
X145795000Y-60553105D01*
X145856988Y-60547000D01*
X145856996Y-60547000D01*
X146042395Y-60528740D01*
X146280283Y-60456577D01*
X146499522Y-60339392D01*
X146691686Y-60181686D01*
X146731211Y-60133525D01*
X151629051Y-55235686D01*
X152153000Y-55235686D01*
X152153000Y-63467403D01*
X151994788Y-63401869D01*
X151673693Y-63338000D01*
X151346307Y-63338000D01*
X151025212Y-63401869D01*
X150722748Y-63527154D01*
X150505024Y-63672633D01*
X150411422Y-63558578D01*
X150295392Y-63463355D01*
X150163015Y-63392598D01*
X150019378Y-63349026D01*
X149870000Y-63334314D01*
X148070000Y-63334314D01*
X147920622Y-63349026D01*
X147776985Y-63392598D01*
X147644608Y-63463355D01*
X147528578Y-63558578D01*
X147433355Y-63674608D01*
X147362598Y-63806985D01*
X147319026Y-63950622D01*
X147304314Y-64100000D01*
X147304314Y-64880949D01*
X143041470Y-69143794D01*
X142993315Y-69183314D01*
X142953795Y-69231469D01*
X142953794Y-69231470D01*
X142835609Y-69375478D01*
X142718424Y-69594717D01*
X142646260Y-69832605D01*
X142621895Y-70080000D01*
X142628001Y-70141998D01*
X142628000Y-73919690D01*
X142505773Y-74102615D01*
X142388027Y-74386881D01*
X142328000Y-74688656D01*
X142328000Y-74996344D01*
X142388027Y-75298119D01*
X142505773Y-75582385D01*
X142676715Y-75838217D01*
X142894283Y-76055785D01*
X143150115Y-76226727D01*
X143434381Y-76344473D01*
X143736156Y-76404500D01*
X144043844Y-76404500D01*
X144345619Y-76344473D01*
X144629885Y-76226727D01*
X144885717Y-76055785D01*
X145103285Y-75838217D01*
X145274227Y-75582385D01*
X145391973Y-75298119D01*
X145452000Y-74996344D01*
X145452000Y-74688656D01*
X145391973Y-74386881D01*
X145274227Y-74102615D01*
X145152000Y-73919690D01*
X145152000Y-70602736D01*
X149089051Y-66665686D01*
X149870000Y-66665686D01*
X150019378Y-66650974D01*
X150163015Y-66607402D01*
X150295392Y-66536645D01*
X150411422Y-66441422D01*
X150505024Y-66327367D01*
X150722748Y-66472846D01*
X151025212Y-66598131D01*
X151346307Y-66662000D01*
X151673693Y-66662000D01*
X151994788Y-66598131D01*
X152153001Y-66532597D01*
X152153001Y-74764314D01*
X150610000Y-74764314D01*
X150460622Y-74779026D01*
X150316985Y-74822598D01*
X150184608Y-74893355D01*
X150068578Y-74988578D01*
X149974976Y-75102633D01*
X149757252Y-74957154D01*
X149454788Y-74831869D01*
X149133693Y-74768000D01*
X148806307Y-74768000D01*
X148485212Y-74831869D01*
X148182748Y-74957154D01*
X147910537Y-75139040D01*
X147679040Y-75370537D01*
X147497154Y-75642748D01*
X147371869Y-75945212D01*
X147308000Y-76266307D01*
X147308000Y-76593693D01*
X147371869Y-76914788D01*
X147497154Y-77217252D01*
X147679040Y-77489463D01*
X147910537Y-77720960D01*
X148182748Y-77902846D01*
X148485212Y-78028131D01*
X148806307Y-78092000D01*
X149133693Y-78092000D01*
X149454788Y-78028131D01*
X149757252Y-77902846D01*
X149974976Y-77757367D01*
X150068578Y-77871422D01*
X150184608Y-77966645D01*
X150316985Y-78037402D01*
X150460622Y-78080974D01*
X150610000Y-78095686D01*
X152410000Y-78095686D01*
X152559378Y-78080974D01*
X152703015Y-78037402D01*
X152835392Y-77966645D01*
X152951422Y-77871422D01*
X153046645Y-77755392D01*
X153102460Y-77650969D01*
X153265283Y-77601577D01*
X153484522Y-77484392D01*
X153676686Y-77326686D01*
X153716211Y-77278525D01*
X154263525Y-76731211D01*
X154311686Y-76691686D01*
X154469392Y-76499522D01*
X154586577Y-76280283D01*
X154607617Y-76210924D01*
X154658740Y-76042396D01*
X154661529Y-76014077D01*
X154677000Y-75856996D01*
X154677000Y-75856989D01*
X154683105Y-75795000D01*
X154677000Y-75733012D01*
X154677000Y-52044485D01*
X154683105Y-51982499D01*
X154677000Y-51920513D01*
X154677000Y-51920504D01*
X154658740Y-51735105D01*
X154586577Y-51497217D01*
X154469392Y-51277978D01*
X154311686Y-51085814D01*
X154263531Y-51046294D01*
X153551211Y-50333975D01*
X153511687Y-50285815D01*
X153319523Y-50128109D01*
X153100284Y-50010924D01*
X152862396Y-49938761D01*
X152676997Y-49920501D01*
X152676989Y-49920501D01*
X152615001Y-49914396D01*
X152553013Y-49920501D01*
X144751984Y-49920501D01*
X144689998Y-49914396D01*
X144628012Y-49920501D01*
X144628003Y-49920501D01*
X144442604Y-49938761D01*
X144204716Y-50010924D01*
X143985477Y-50128109D01*
X143793313Y-50285815D01*
X143753792Y-50333971D01*
X143650157Y-50437606D01*
X143434381Y-50480527D01*
X143150115Y-50598273D01*
X142894283Y-50769215D01*
X142676715Y-50986783D01*
X142505773Y-51242615D01*
X142388027Y-51526881D01*
X142328000Y-51828656D01*
X142328000Y-52136344D01*
X142388027Y-52438119D01*
X142505773Y-52722385D01*
X142676715Y-52978217D01*
X142894283Y-53195785D01*
X143150115Y-53366727D01*
X143434381Y-53484473D01*
X143736156Y-53544500D01*
X144043844Y-53544500D01*
X144345619Y-53484473D01*
X144629885Y-53366727D01*
X144885717Y-53195785D01*
X145103285Y-52978217D01*
X145274227Y-52722385D01*
X145389330Y-52444501D01*
X147745076Y-52444501D01*
X147679040Y-52510537D01*
X147497154Y-52782748D01*
X147371869Y-53085212D01*
X147308000Y-53406307D01*
X147308000Y-53447263D01*
X146859764Y-53895500D01*
X144812810Y-53895500D01*
X144629885Y-53773273D01*
X144345619Y-53655527D01*
X144043844Y-53595500D01*
X143736156Y-53595500D01*
X143434381Y-53655527D01*
X143150115Y-53773273D01*
X142894283Y-53944215D01*
X142676715Y-54161783D01*
X142505773Y-54417615D01*
X142388027Y-54701881D01*
X142328000Y-55003656D01*
X142328000Y-55311344D01*
X142388027Y-55613119D01*
X142505773Y-55897385D01*
X142676715Y-56153217D01*
X142894283Y-56370785D01*
X143150115Y-56541727D01*
X143434381Y-56659473D01*
X143736156Y-56719500D01*
X144043844Y-56719500D01*
X144345619Y-56659473D01*
X144629885Y-56541727D01*
X144812810Y-56419500D01*
X146875764Y-56419500D01*
X145272264Y-58023000D01*
X136966985Y-58023000D01*
X136904999Y-58016895D01*
X136843013Y-58023000D01*
X136843004Y-58023000D01*
X136657605Y-58041260D01*
X136419717Y-58113423D01*
X136200478Y-58230608D01*
X136200476Y-58230609D01*
X136200477Y-58230609D01*
X136056468Y-58348794D01*
X136056464Y-58348798D01*
X136008314Y-58388314D01*
X135968798Y-58436464D01*
X134786474Y-59618790D01*
X134738314Y-59658314D01*
X134580608Y-59850479D01*
X134463423Y-60069718D01*
X134438471Y-60151973D01*
X134391261Y-60307604D01*
X134391260Y-60307606D01*
X134373000Y-60493005D01*
X134373000Y-60493012D01*
X134366895Y-60555000D01*
X134373000Y-60616988D01*
X134373000Y-65128263D01*
X133396210Y-64151474D01*
X133356686Y-64103314D01*
X133164522Y-63945608D01*
X132945283Y-63828423D01*
X132707395Y-63756260D01*
X132521996Y-63738000D01*
X132521988Y-63738000D01*
X132460000Y-63731895D01*
X132398012Y-63738000D01*
X129738423Y-63738000D01*
X129709463Y-63709040D01*
X129437252Y-63527154D01*
X129134788Y-63401869D01*
X128813693Y-63338000D01*
X128486307Y-63338000D01*
X128165212Y-63401869D01*
X127862748Y-63527154D01*
X127645024Y-63672633D01*
X127551422Y-63558578D01*
X127435392Y-63463355D01*
X127303015Y-63392598D01*
X127159378Y-63349026D01*
X127010000Y-63334314D01*
X125210000Y-63334314D01*
X125060622Y-63349026D01*
X124916985Y-63392598D01*
X124864784Y-63420500D01*
X120067857Y-63420500D01*
X119939378Y-63381526D01*
X119913277Y-63378955D01*
X120093174Y-63282799D01*
X120250876Y-63153376D01*
X120380299Y-62995674D01*
X120476468Y-62815753D01*
X120535690Y-62620528D01*
X120555686Y-62417500D01*
X120555686Y-61867500D01*
X120535690Y-61664472D01*
X120476468Y-61469247D01*
X120380299Y-61289326D01*
X120250876Y-61131624D01*
X120093174Y-61002201D01*
X119913253Y-60906032D01*
X119718028Y-60846810D01*
X119515000Y-60826814D01*
X118265000Y-60826814D01*
X118061972Y-60846810D01*
X117866747Y-60906032D01*
X117686826Y-61002201D01*
X117529124Y-61131624D01*
X117399701Y-61289326D01*
X117303532Y-61469247D01*
X117244310Y-61664472D01*
X117224314Y-61867500D01*
X117224314Y-62096814D01*
X116195000Y-62096814D01*
X115991972Y-62116810D01*
X115880913Y-62150500D01*
X115202737Y-62150500D01*
X114972000Y-61919763D01*
X114972000Y-61671156D01*
X114911973Y-61369381D01*
X114794227Y-61085115D01*
X114623285Y-60829283D01*
X114405717Y-60611715D01*
X114149885Y-60440773D01*
X113865619Y-60323027D01*
X113563844Y-60263000D01*
X113256156Y-60263000D01*
X112954381Y-60323027D01*
X112670115Y-60440773D01*
X112414283Y-60611715D01*
X112196715Y-60829283D01*
X112025773Y-61085115D01*
X111908027Y-61369381D01*
X111848000Y-61671156D01*
X106417000Y-61671156D01*
X106417000Y-60616988D01*
X106423105Y-60555000D01*
X106417000Y-60493011D01*
X106417000Y-60493004D01*
X106398740Y-60307605D01*
X106385209Y-60263000D01*
X106326577Y-60069716D01*
X106213415Y-59858005D01*
X106209392Y-59850478D01*
X106051686Y-59658314D01*
X106003530Y-59618793D01*
X104794894Y-58410157D01*
X104751973Y-58194381D01*
X104634227Y-57910115D01*
X104463285Y-57654283D01*
X104245717Y-57436715D01*
X103989885Y-57265773D01*
X103705619Y-57148027D01*
X103418768Y-57090969D01*
X103489843Y-57019894D01*
X103705619Y-56976973D01*
X103989885Y-56859227D01*
X104245717Y-56688285D01*
X104463285Y-56470717D01*
X104634227Y-56214885D01*
X104751973Y-55930619D01*
X104812000Y-55628844D01*
X104812000Y-55321156D01*
X104751973Y-55019381D01*
X104634227Y-54735115D01*
X104463285Y-54479283D01*
X104245717Y-54261715D01*
X103989885Y-54090773D01*
X103705619Y-53973027D01*
X103403844Y-53913000D01*
X103096156Y-53913000D01*
X102794381Y-53973027D01*
X102510115Y-54090773D01*
X102254283Y-54261715D01*
X102036715Y-54479283D01*
X101865773Y-54735115D01*
X101748027Y-55019381D01*
X101705106Y-55235157D01*
X100496470Y-56443794D01*
X100473091Y-56462980D01*
X100314844Y-56270156D01*
X100119694Y-56110000D01*
X100314844Y-55949844D01*
X100510039Y-55711999D01*
X100655082Y-55440643D01*
X100744398Y-55146205D01*
X100774557Y-54840000D01*
X100744398Y-54533795D01*
X100655082Y-54239357D01*
X100510039Y-53968001D01*
X100314844Y-53730156D01*
X100119694Y-53570000D01*
X100129442Y-53562000D01*
X102327190Y-53562000D01*
X102510115Y-53684227D01*
X102794381Y-53801973D01*
X103096156Y-53862000D01*
X103403844Y-53862000D01*
X103705619Y-53801973D01*
X103989885Y-53684227D01*
X104245717Y-53513285D01*
X104463285Y-53295717D01*
X104634227Y-53039885D01*
X104751973Y-52755619D01*
X104812000Y-52453844D01*
X104812000Y-52146156D01*
X104751973Y-51844381D01*
X104634227Y-51560115D01*
X104463285Y-51304283D01*
X104245717Y-51086715D01*
X103989885Y-50915773D01*
X103705619Y-50798027D01*
X103403844Y-50738000D01*
X103096156Y-50738000D01*
X102794381Y-50798027D01*
X102510115Y-50915773D01*
X102327190Y-51038000D01*
X100129442Y-51038000D01*
X100119694Y-51030000D01*
X100314844Y-50869844D01*
X100510039Y-50631999D01*
X100655082Y-50360643D01*
X100744398Y-50066205D01*
X100774557Y-49760000D01*
X100744398Y-49453795D01*
X100655082Y-49159357D01*
X100632442Y-49117000D01*
X101457263Y-49117000D01*
X101705106Y-49364843D01*
X101748027Y-49580619D01*
X101865773Y-49864885D01*
X102036715Y-50120717D01*
X102254283Y-50338285D01*
X102510115Y-50509227D01*
X102794381Y-50626973D01*
X103096156Y-50687000D01*
X103403844Y-50687000D01*
X103705619Y-50626973D01*
X103989885Y-50509227D01*
X104245717Y-50338285D01*
X104463285Y-50120717D01*
X104634227Y-49864885D01*
X104751973Y-49580619D01*
X104812000Y-49278844D01*
X104812000Y-48971156D01*
X111848000Y-48971156D01*
X111848000Y-49278844D01*
X111908027Y-49580619D01*
X112025773Y-49864885D01*
X112148001Y-50047811D01*
X112148001Y-50650496D01*
X112141894Y-50712500D01*
X112148001Y-50774503D01*
X112148001Y-51377189D01*
X112025773Y-51560115D01*
X111908027Y-51844381D01*
X111848000Y-52146156D01*
X111848000Y-52453844D01*
X111908027Y-52755619D01*
X112025773Y-53039885D01*
X112148000Y-53222811D01*
X112148000Y-54552190D01*
X112025773Y-54735115D01*
X111908027Y-55019381D01*
X111848000Y-55321156D01*
X111848000Y-55628844D01*
X111908027Y-55930619D01*
X112025773Y-56214885D01*
X112196715Y-56470717D01*
X112414283Y-56688285D01*
X112670115Y-56859227D01*
X112954381Y-56976973D01*
X112976409Y-56981355D01*
X112707459Y-57250305D01*
X112670115Y-57265773D01*
X112414283Y-57436715D01*
X112196715Y-57654283D01*
X112025773Y-57910115D01*
X111908027Y-58194381D01*
X111848000Y-58496156D01*
X111848000Y-58803844D01*
X111908027Y-59105619D01*
X112025773Y-59389885D01*
X112196715Y-59645717D01*
X112414283Y-59863285D01*
X112670115Y-60034227D01*
X112954381Y-60151973D01*
X113256156Y-60212000D01*
X113563844Y-60212000D01*
X113865619Y-60151973D01*
X114149885Y-60034227D01*
X114405717Y-59863285D01*
X114623285Y-59645717D01*
X114794227Y-59389885D01*
X114911973Y-59105619D01*
X114972000Y-58803844D01*
X114972000Y-58555237D01*
X115202737Y-58324500D01*
X115880913Y-58324500D01*
X115991972Y-58358190D01*
X116195000Y-58378186D01*
X117224314Y-58378186D01*
X117224314Y-58882500D01*
X117239026Y-59031878D01*
X117282598Y-59175515D01*
X117353355Y-59307892D01*
X117448578Y-59423922D01*
X117564608Y-59519145D01*
X117696985Y-59589902D01*
X117840622Y-59633474D01*
X117990000Y-59648186D01*
X119790000Y-59648186D01*
X119939378Y-59633474D01*
X120067857Y-59594500D01*
X130493012Y-59594500D01*
X130555000Y-59600605D01*
X130616988Y-59594500D01*
X130616996Y-59594500D01*
X130802395Y-59576240D01*
X131040283Y-59504077D01*
X131259522Y-59386892D01*
X131451686Y-59229186D01*
X131491211Y-59181025D01*
X133969844Y-56702393D01*
X134185619Y-56659473D01*
X134469885Y-56541727D01*
X134725717Y-56370785D01*
X134943285Y-56153217D01*
X135114227Y-55897385D01*
X135231973Y-55613119D01*
X135292000Y-55311344D01*
X135292000Y-55003656D01*
X135231973Y-54701881D01*
X135114227Y-54417615D01*
X134943285Y-54161783D01*
X134725717Y-53944215D01*
X134469885Y-53773273D01*
X134185619Y-53655527D01*
X133883844Y-53595500D01*
X133576156Y-53595500D01*
X133274381Y-53655527D01*
X132990115Y-53773273D01*
X132734283Y-53944215D01*
X132516715Y-54161783D01*
X132345773Y-54417615D01*
X132228027Y-54701881D01*
X132185107Y-54917656D01*
X130032264Y-57070500D01*
X120067857Y-57070500D01*
X119939378Y-57031526D01*
X119913277Y-57028955D01*
X120093174Y-56932799D01*
X120250876Y-56803376D01*
X120380299Y-56645674D01*
X120476468Y-56465753D01*
X120535690Y-56270528D01*
X120555686Y-56067500D01*
X120555686Y-55517500D01*
X120535690Y-55314472D01*
X120476468Y-55119247D01*
X120380299Y-54939326D01*
X120250876Y-54781624D01*
X120093174Y-54652201D01*
X119913253Y-54556032D01*
X119718028Y-54496810D01*
X119515000Y-54476814D01*
X118265000Y-54476814D01*
X118061972Y-54496810D01*
X117866747Y-54556032D01*
X117686826Y-54652201D01*
X117529124Y-54781624D01*
X117399701Y-54939326D01*
X117303532Y-55119247D01*
X117244310Y-55314472D01*
X117224314Y-55517500D01*
X117224314Y-55746814D01*
X116195000Y-55746814D01*
X115991972Y-55766810D01*
X115880913Y-55800500D01*
X114937855Y-55800500D01*
X114972000Y-55628844D01*
X114972000Y-55321156D01*
X114911973Y-55019381D01*
X114794227Y-54735115D01*
X114672000Y-54552190D01*
X114672000Y-53222810D01*
X114794227Y-53039885D01*
X114911973Y-52755619D01*
X114972000Y-52453844D01*
X114972000Y-52146156D01*
X114937855Y-51974500D01*
X115880913Y-51974500D01*
X115991972Y-52008190D01*
X116195000Y-52028186D01*
X117224314Y-52028186D01*
X117224314Y-52532500D01*
X117239026Y-52681878D01*
X117282598Y-52825515D01*
X117353355Y-52957892D01*
X117448578Y-53073922D01*
X117564608Y-53169145D01*
X117696985Y-53239902D01*
X117840622Y-53283474D01*
X117990000Y-53298186D01*
X119790000Y-53298186D01*
X119939378Y-53283474D01*
X120067857Y-53244500D01*
X123999764Y-53244500D01*
X124444314Y-53689051D01*
X124444314Y-54470000D01*
X124459026Y-54619378D01*
X124502598Y-54763015D01*
X124573355Y-54895392D01*
X124668578Y-55011422D01*
X124784608Y-55106645D01*
X124916985Y-55177402D01*
X125060622Y-55220974D01*
X125210000Y-55235686D01*
X127010000Y-55235686D01*
X127159378Y-55220974D01*
X127303015Y-55177402D01*
X127435392Y-55106645D01*
X127551422Y-55011422D01*
X127645024Y-54897367D01*
X127862748Y-55042846D01*
X128165212Y-55168131D01*
X128486307Y-55232000D01*
X128813693Y-55232000D01*
X129134788Y-55168131D01*
X129437252Y-55042846D01*
X129709463Y-54860960D01*
X129940960Y-54629463D01*
X130122846Y-54357252D01*
X130248131Y-54054788D01*
X130312000Y-53733693D01*
X130312000Y-53692736D01*
X130760237Y-53244500D01*
X132807190Y-53244500D01*
X132990115Y-53366727D01*
X133274381Y-53484473D01*
X133576156Y-53544500D01*
X133883844Y-53544500D01*
X134185619Y-53484473D01*
X134469885Y-53366727D01*
X134725717Y-53195785D01*
X134943285Y-52978217D01*
X135114227Y-52722385D01*
X135231973Y-52438119D01*
X135292000Y-52136344D01*
X135292000Y-51828656D01*
X135231973Y-51526881D01*
X135114227Y-51242615D01*
X134943285Y-50986783D01*
X134725717Y-50769215D01*
X134469885Y-50598273D01*
X134185619Y-50480527D01*
X133883844Y-50420500D01*
X133576156Y-50420500D01*
X133274381Y-50480527D01*
X132990115Y-50598273D01*
X132807190Y-50720500D01*
X130299485Y-50720500D01*
X130237499Y-50714395D01*
X130175513Y-50720500D01*
X130175504Y-50720500D01*
X129990105Y-50738760D01*
X129752217Y-50810923D01*
X129532978Y-50928108D01*
X129340814Y-51085814D01*
X129301294Y-51133969D01*
X128527264Y-51908000D01*
X128486307Y-51908000D01*
X128165212Y-51971869D01*
X127862748Y-52097154D01*
X127645024Y-52242633D01*
X127551422Y-52128578D01*
X127435392Y-52033355D01*
X127303015Y-51962598D01*
X127159378Y-51919026D01*
X127010000Y-51904314D01*
X126229051Y-51904314D01*
X125458711Y-51133975D01*
X125419186Y-51085814D01*
X125227022Y-50928108D01*
X125007783Y-50810923D01*
X124769895Y-50738760D01*
X124584496Y-50720500D01*
X124584488Y-50720500D01*
X124522500Y-50714395D01*
X124460512Y-50720500D01*
X120067857Y-50720500D01*
X119939378Y-50681526D01*
X119913277Y-50678955D01*
X120093174Y-50582799D01*
X120250876Y-50453376D01*
X120380299Y-50295674D01*
X120476468Y-50115753D01*
X120535690Y-49920528D01*
X120555686Y-49717500D01*
X120555686Y-49167500D01*
X120535690Y-48964472D01*
X120476468Y-48769247D01*
X120380299Y-48589326D01*
X120250876Y-48431624D01*
X120093174Y-48302201D01*
X119913253Y-48206032D01*
X119718028Y-48146810D01*
X119515000Y-48126814D01*
X118265000Y-48126814D01*
X118061972Y-48146810D01*
X117866747Y-48206032D01*
X117686826Y-48302201D01*
X117529124Y-48431624D01*
X117399701Y-48589326D01*
X117303532Y-48769247D01*
X117244310Y-48964472D01*
X117224314Y-49167500D01*
X117224314Y-49396814D01*
X116195000Y-49396814D01*
X115991972Y-49416810D01*
X115880913Y-49450500D01*
X114937855Y-49450500D01*
X114972000Y-49278844D01*
X114972000Y-48971156D01*
X114911973Y-48669381D01*
X114794227Y-48385115D01*
X114623285Y-48129283D01*
X114405717Y-47911715D01*
X114149885Y-47740773D01*
X113865619Y-47623027D01*
X113563844Y-47563000D01*
X113256156Y-47563000D01*
X112954381Y-47623027D01*
X112670115Y-47740773D01*
X112414283Y-47911715D01*
X112196715Y-48129283D01*
X112025773Y-48385115D01*
X111908027Y-48669381D01*
X111848000Y-48971156D01*
X104812000Y-48971156D01*
X104751973Y-48669381D01*
X104634227Y-48385115D01*
X104463285Y-48129283D01*
X104245717Y-47911715D01*
X103989885Y-47740773D01*
X103705619Y-47623027D01*
X103489843Y-47580106D01*
X102916210Y-47006474D01*
X102900526Y-46987363D01*
X154228000Y-46987363D01*
X154228000Y-47452637D01*
X154318770Y-47908970D01*
X154496822Y-48338827D01*
X154755315Y-48725687D01*
X155084313Y-49054685D01*
X155471173Y-49313178D01*
X155901030Y-49491230D01*
X156357363Y-49582000D01*
X156822637Y-49582000D01*
X157278970Y-49491230D01*
X157708827Y-49313178D01*
X158095687Y-49054685D01*
X158424685Y-48725687D01*
X158683178Y-48338827D01*
X158861230Y-47908970D01*
X158952000Y-47452637D01*
X158952000Y-46987363D01*
X158861230Y-46531030D01*
X158683178Y-46101173D01*
X158424685Y-45714313D01*
X158095687Y-45385315D01*
X157708827Y-45126822D01*
X157278970Y-44948770D01*
X156822637Y-44858000D01*
X156357363Y-44858000D01*
X155901030Y-44948770D01*
X155471173Y-45126822D01*
X155084313Y-45385315D01*
X154755315Y-45714313D01*
X154496822Y-46101173D01*
X154318770Y-46531030D01*
X154228000Y-46987363D01*
X102900526Y-46987363D01*
X102876686Y-46958314D01*
X102684522Y-46800608D01*
X102465283Y-46683423D01*
X102227395Y-46611260D01*
X102041996Y-46593000D01*
X102041988Y-46593000D01*
X101980000Y-46586895D01*
X101918012Y-46593000D01*
X96326985Y-46593000D01*
X96264999Y-46586895D01*
X96203013Y-46593000D01*
X96203004Y-46593000D01*
X96017605Y-46611260D01*
X95779717Y-46683423D01*
X95560478Y-46800608D01*
X95560476Y-46800609D01*
X95560477Y-46800609D01*
X95416468Y-46918794D01*
X95416464Y-46918798D01*
X95368314Y-46958314D01*
X95328798Y-47006464D01*
X94146474Y-48188790D01*
X94098314Y-48228314D01*
X93940608Y-48420479D01*
X93823423Y-48639718D01*
X93789458Y-48751686D01*
X93751261Y-48877604D01*
X93751260Y-48877606D01*
X93733000Y-49063005D01*
X93733000Y-49063012D01*
X93726895Y-49125000D01*
X93733000Y-49186989D01*
X93733001Y-50507262D01*
X93202263Y-51038000D01*
X92509442Y-51038000D01*
X92499694Y-51030000D01*
X92694844Y-50869844D01*
X92890039Y-50631999D01*
X93035082Y-50360643D01*
X93124398Y-50066205D01*
X93154557Y-49760000D01*
X93124398Y-49453795D01*
X93035082Y-49159357D01*
X92890039Y-48888001D01*
X92694844Y-48650156D01*
X92456999Y-48454961D01*
X92185643Y-48309918D01*
X91891205Y-48220602D01*
X91661726Y-48198000D01*
X90708274Y-48198000D01*
X90478795Y-48220602D01*
X90184357Y-48309918D01*
X89913001Y-48454961D01*
X89675156Y-48650156D01*
X89479961Y-48888001D01*
X89334918Y-49159357D01*
X89245602Y-49453795D01*
X89215443Y-49760000D01*
X89245602Y-50066205D01*
X89334918Y-50360643D01*
X89479961Y-50631999D01*
X89675156Y-50869844D01*
X89870306Y-51030000D01*
X89675156Y-51190156D01*
X89479961Y-51428001D01*
X89334918Y-51699357D01*
X89245602Y-51993795D01*
X89215443Y-52300000D01*
X89245602Y-52606205D01*
X89334918Y-52900643D01*
X89479961Y-53171999D01*
X89675156Y-53409844D01*
X89870306Y-53570000D01*
X89675156Y-53730156D01*
X89479961Y-53968001D01*
X89334918Y-54239357D01*
X89245602Y-54533795D01*
X89215443Y-54840000D01*
X89245602Y-55146205D01*
X89334918Y-55440643D01*
X89479961Y-55711999D01*
X89675156Y-55949844D01*
X89870306Y-56110000D01*
X89675156Y-56270156D01*
X89479961Y-56508001D01*
X89334918Y-56779357D01*
X89280000Y-56960399D01*
X89225082Y-56779357D01*
X89080039Y-56508001D01*
X88884844Y-56270156D01*
X88646999Y-56074961D01*
X88375643Y-55929918D01*
X88081205Y-55840602D01*
X87851726Y-55818000D01*
X86898274Y-55818000D01*
X86668795Y-55840602D01*
X86374357Y-55929918D01*
X86103001Y-56074961D01*
X85865156Y-56270156D01*
X85669961Y-56508001D01*
X85524918Y-56779357D01*
X85435602Y-57073795D01*
X85405443Y-57380000D01*
X85435602Y-57686205D01*
X85524918Y-57980643D01*
X85669961Y-58251999D01*
X85865156Y-58489844D01*
X86060306Y-58650000D01*
X85865156Y-58810156D01*
X85669961Y-59048001D01*
X85524918Y-59319357D01*
X85435602Y-59613795D01*
X85405443Y-59920000D01*
X85435602Y-60226205D01*
X85524918Y-60520643D01*
X85669961Y-60791999D01*
X85865156Y-61029844D01*
X86060306Y-61190000D01*
X86050558Y-61198000D01*
X84261988Y-61198000D01*
X84200000Y-61191895D01*
X84138011Y-61198000D01*
X83626996Y-61198000D01*
X83565000Y-61191894D01*
X83503004Y-61198000D01*
X82991988Y-61198000D01*
X82930000Y-61191895D01*
X82868012Y-61198000D01*
X81079442Y-61198000D01*
X81069694Y-61190000D01*
X81079442Y-61182000D01*
X81598012Y-61182000D01*
X81660000Y-61188105D01*
X81721988Y-61182000D01*
X81721996Y-61182000D01*
X81907395Y-61163740D01*
X82145283Y-61091577D01*
X82364522Y-60974392D01*
X82556686Y-60816686D01*
X82596211Y-60768525D01*
X83143525Y-60221211D01*
X83191686Y-60181686D01*
X83349392Y-59989522D01*
X83466577Y-59770283D01*
X83496207Y-59672606D01*
X83538740Y-59532396D01*
X83548360Y-59434717D01*
X83557000Y-59346996D01*
X83557000Y-59346989D01*
X83563105Y-59285000D01*
X83557000Y-59223012D01*
X83557000Y-54528729D01*
X83581715Y-54565717D01*
X83799283Y-54783285D01*
X84055115Y-54954227D01*
X84339381Y-55071973D01*
X84641156Y-55132000D01*
X84948844Y-55132000D01*
X85250619Y-55071973D01*
X85534885Y-54954227D01*
X85790717Y-54783285D01*
X86008285Y-54565717D01*
X86179227Y-54309885D01*
X86296973Y-54025619D01*
X86357000Y-53723844D01*
X86357000Y-53416156D01*
X86296973Y-53114381D01*
X86179227Y-52830115D01*
X86008285Y-52574283D01*
X85790717Y-52356715D01*
X85534885Y-52185773D01*
X85250619Y-52068027D01*
X84948844Y-52008000D01*
X84641156Y-52008000D01*
X84339381Y-52068027D01*
X84055115Y-52185773D01*
X83799283Y-52356715D01*
X83581715Y-52574283D01*
X83545000Y-52629231D01*
X83508285Y-52574283D01*
X83290717Y-52356715D01*
X83034885Y-52185773D01*
X82750619Y-52068027D01*
X82448844Y-52008000D01*
X82141156Y-52008000D01*
X81839381Y-52068027D01*
X81555115Y-52185773D01*
X81299283Y-52356715D01*
X81081715Y-52574283D01*
X80910773Y-52830115D01*
X80793027Y-53114381D01*
X80733000Y-53416156D01*
X80733000Y-53723844D01*
X80793027Y-54025619D01*
X80910773Y-54309885D01*
X81033000Y-54492810D01*
X81033000Y-56079886D01*
X81026999Y-56074961D01*
X80755643Y-55929918D01*
X80461205Y-55840602D01*
X80231726Y-55818000D01*
X79278274Y-55818000D01*
X79048795Y-55840602D01*
X78754357Y-55929918D01*
X78483001Y-56074961D01*
X78245156Y-56270156D01*
X78049961Y-56508001D01*
X77904918Y-56779357D01*
X77815602Y-57073795D01*
X77785443Y-57380000D01*
X74509500Y-57380000D01*
X74509500Y-47255046D01*
X74533389Y-46987363D01*
X76440500Y-46987363D01*
X76440500Y-47452637D01*
X76531270Y-47908970D01*
X76709322Y-48338827D01*
X76967815Y-48725687D01*
X77296813Y-49054685D01*
X77683673Y-49313178D01*
X78113530Y-49491230D01*
X78569863Y-49582000D01*
X79035137Y-49582000D01*
X79491470Y-49491230D01*
X79921327Y-49313178D01*
X80308187Y-49054685D01*
X80637185Y-48725687D01*
X80895678Y-48338827D01*
X81073730Y-47908970D01*
X81164500Y-47452637D01*
X81164500Y-46987363D01*
X81073730Y-46531030D01*
X80895678Y-46101173D01*
X80637185Y-45714313D01*
X80308187Y-45385315D01*
X79921327Y-45126822D01*
X79491470Y-44948770D01*
X79035137Y-44858000D01*
X78569863Y-44858000D01*
X78113530Y-44948770D01*
X77683673Y-45126822D01*
X77296813Y-45385315D01*
X76967815Y-45714313D01*
X76709322Y-46101173D01*
X76531270Y-46531030D01*
X76440500Y-46987363D01*
X74533389Y-46987363D01*
X74580426Y-46460333D01*
X74781681Y-45724668D01*
X75110027Y-45036278D01*
X75555088Y-44416909D01*
X76102797Y-43886142D01*
X76735840Y-43460755D01*
X77434205Y-43154194D01*
X78181876Y-42974695D01*
X78831352Y-42927000D01*
X156554954Y-42927000D01*
X157349667Y-42997926D01*
G37*
X157349667Y-42997926D02*
X158085332Y-43199181D01*
X158773722Y-43527527D01*
X159393091Y-43972588D01*
X159923858Y-44520297D01*
X160349245Y-45153340D01*
X160655806Y-45851705D01*
X160835305Y-46599376D01*
X160883000Y-47248852D01*
X160883001Y-82744943D01*
X160812074Y-83539669D01*
X160610819Y-84275332D01*
X160282473Y-84963723D01*
X159837412Y-85583092D01*
X159289703Y-86113857D01*
X158656661Y-86539244D01*
X157958295Y-86845805D01*
X157210623Y-87025305D01*
X156561148Y-87073000D01*
X78837546Y-87073000D01*
X78042831Y-87002074D01*
X77307168Y-86800819D01*
X76618777Y-86472473D01*
X75999408Y-86027412D01*
X75468643Y-85479703D01*
X75043256Y-84846661D01*
X74736695Y-84148295D01*
X74557195Y-83400623D01*
X74509500Y-82751148D01*
X74509500Y-82547363D01*
X76440500Y-82547363D01*
X76440500Y-83012637D01*
X76531270Y-83468970D01*
X76709322Y-83898827D01*
X76967815Y-84285687D01*
X77296813Y-84614685D01*
X77683673Y-84873178D01*
X78113530Y-85051230D01*
X78569863Y-85142000D01*
X79035137Y-85142000D01*
X79491470Y-85051230D01*
X79921327Y-84873178D01*
X80308187Y-84614685D01*
X80637185Y-84285687D01*
X80895678Y-83898827D01*
X81073730Y-83468970D01*
X81164500Y-83012637D01*
X81164500Y-82547363D01*
X81073730Y-82091030D01*
X80895678Y-81661173D01*
X80691872Y-81356156D01*
X88670500Y-81356156D01*
X88670500Y-81663844D01*
X88730527Y-81965619D01*
X88848273Y-82249885D01*
X89019215Y-82505717D01*
X89236783Y-82723285D01*
X89492615Y-82894227D01*
X89776881Y-83011973D01*
X90078656Y-83072000D01*
X90386344Y-83072000D01*
X90688119Y-83011973D01*
X90972385Y-82894227D01*
X91228217Y-82723285D01*
X91445785Y-82505717D01*
X91616727Y-82249885D01*
X91734473Y-81965619D01*
X91794500Y-81663844D01*
X91794500Y-81356156D01*
X91845500Y-81356156D01*
X91845500Y-81663844D01*
X91905527Y-81965619D01*
X92023273Y-82249885D01*
X92194215Y-82505717D01*
X92411783Y-82723285D01*
X92667615Y-82894227D01*
X92951881Y-83011973D01*
X93253656Y-83072000D01*
X93561344Y-83072000D01*
X93863119Y-83011973D01*
X94147385Y-82894227D01*
X94403217Y-82723285D01*
X94620785Y-82505717D01*
X94791727Y-82249885D01*
X94909473Y-81965619D01*
X94969500Y-81663844D01*
X94969500Y-81356156D01*
X94909473Y-81054381D01*
X94791727Y-80770115D01*
X94620785Y-80514283D01*
X94403217Y-80296715D01*
X94147385Y-80125773D01*
X93863119Y-80008027D01*
X93561344Y-79948000D01*
X93253656Y-79948000D01*
X92951881Y-80008027D01*
X92667615Y-80125773D01*
X92411783Y-80296715D01*
X92194215Y-80514283D01*
X92023273Y-80770115D01*
X91905527Y-81054381D01*
X91845500Y-81356156D01*
X91794500Y-81356156D01*
X91734473Y-81054381D01*
X91616727Y-80770115D01*
X91445785Y-80514283D01*
X91228217Y-80296715D01*
X90972385Y-80125773D01*
X90688119Y-80008027D01*
X90386344Y-79948000D01*
X90078656Y-79948000D01*
X89776881Y-80008027D01*
X89492615Y-80125773D01*
X89236783Y-80296715D01*
X89019215Y-80514283D01*
X88848273Y-80770115D01*
X88730527Y-81054381D01*
X88670500Y-81356156D01*
X80691872Y-81356156D01*
X80637185Y-81274313D01*
X80308187Y-80945315D01*
X79921327Y-80686822D01*
X79491470Y-80508770D01*
X79035137Y-80418000D01*
X78569863Y-80418000D01*
X78113530Y-80508770D01*
X77683673Y-80686822D01*
X77296813Y-80945315D01*
X76967815Y-81274313D01*
X76709322Y-81661173D01*
X76531270Y-82091030D01*
X76440500Y-82547363D01*
X74509500Y-82547363D01*
X74509500Y-77217500D01*
X80729314Y-77217500D01*
X80729314Y-78817500D01*
X80744026Y-78966878D01*
X80787598Y-79110515D01*
X80858355Y-79242892D01*
X80953578Y-79358922D01*
X81069608Y-79454145D01*
X81201985Y-79524902D01*
X81345622Y-79568474D01*
X81495000Y-79583186D01*
X83095000Y-79583186D01*
X83244378Y-79568474D01*
X83388015Y-79524902D01*
X83520392Y-79454145D01*
X83636422Y-79358922D01*
X83731645Y-79242892D01*
X83759422Y-79190924D01*
X83799283Y-79230785D01*
X84055115Y-79401727D01*
X84339381Y-79519473D01*
X84641156Y-79579500D01*
X84948844Y-79579500D01*
X85250619Y-79519473D01*
X85534885Y-79401727D01*
X85717810Y-79279500D01*
X95320501Y-79279500D01*
X95320500Y-80587189D01*
X95198273Y-80770115D01*
X95080527Y-81054381D01*
X95020500Y-81356156D01*
X95020500Y-81663844D01*
X95080527Y-81965619D01*
X95198273Y-82249885D01*
X95369215Y-82505717D01*
X95586783Y-82723285D01*
X95842615Y-82894227D01*
X96126881Y-83011973D01*
X96428656Y-83072000D01*
X96736344Y-83072000D01*
X97038119Y-83011973D01*
X97322385Y-82894227D01*
X97578217Y-82723285D01*
X97795785Y-82505717D01*
X97966727Y-82249885D01*
X98084473Y-81965619D01*
X98144500Y-81663844D01*
X98144500Y-81356156D01*
X98195500Y-81356156D01*
X98195500Y-81663844D01*
X98255527Y-81965619D01*
X98373273Y-82249885D01*
X98544215Y-82505717D01*
X98761783Y-82723285D01*
X99017615Y-82894227D01*
X99301881Y-83011973D01*
X99603656Y-83072000D01*
X99911344Y-83072000D01*
X100213119Y-83011973D01*
X100497385Y-82894227D01*
X100753217Y-82723285D01*
X100970785Y-82505717D01*
X101141727Y-82249885D01*
X101259473Y-81965619D01*
X101319500Y-81663844D01*
X101319500Y-81356156D01*
X101259473Y-81054381D01*
X101141727Y-80770115D01*
X100970785Y-80514283D01*
X100753217Y-80296715D01*
X100497385Y-80125773D01*
X100213119Y-80008027D01*
X99911344Y-79948000D01*
X99603656Y-79948000D01*
X99301881Y-80008027D01*
X99017615Y-80125773D01*
X98761783Y-80296715D01*
X98544215Y-80514283D01*
X98373273Y-80770115D01*
X98255527Y-81054381D01*
X98195500Y-81356156D01*
X98144500Y-81356156D01*
X98084473Y-81054381D01*
X97966727Y-80770115D01*
X97844500Y-80587190D01*
X97844500Y-79279500D01*
X101989764Y-79279500D01*
X103318000Y-80607737D01*
X103318000Y-80758542D01*
X103385712Y-81098957D01*
X103518535Y-81419620D01*
X103711365Y-81708210D01*
X103956790Y-81953635D01*
X104245380Y-82146465D01*
X104566043Y-82279288D01*
X104906458Y-82347000D01*
X105253542Y-82347000D01*
X105593957Y-82279288D01*
X105914620Y-82146465D01*
X106203210Y-81953635D01*
X106448635Y-81708210D01*
X106641465Y-81419620D01*
X106774288Y-81098957D01*
X106842000Y-80758542D01*
X106842000Y-80411458D01*
X109818000Y-80411458D01*
X109818000Y-80758542D01*
X109885712Y-81098957D01*
X110018535Y-81419620D01*
X110211365Y-81708210D01*
X110456790Y-81953635D01*
X110745380Y-82146465D01*
X111066043Y-82279288D01*
X111406458Y-82347000D01*
X111753542Y-82347000D01*
X112093957Y-82279288D01*
X112414620Y-82146465D01*
X112703210Y-81953635D01*
X112948635Y-81708210D01*
X113141465Y-81419620D01*
X113274288Y-81098957D01*
X113342000Y-80758542D01*
X113342000Y-80411458D01*
X113274288Y-80071043D01*
X113141465Y-79750380D01*
X112948635Y-79461790D01*
X112861845Y-79375000D01*
X116224314Y-79375000D01*
X116224314Y-82375000D01*
X116239026Y-82524378D01*
X116282598Y-82668015D01*
X116353355Y-82800392D01*
X116448578Y-82916422D01*
X116564608Y-83011645D01*
X116696985Y-83082402D01*
X116840622Y-83125974D01*
X116990000Y-83140686D01*
X119990000Y-83140686D01*
X120139378Y-83125974D01*
X120283015Y-83082402D01*
X120415392Y-83011645D01*
X120531422Y-82916422D01*
X120626645Y-82800392D01*
X120697402Y-82668015D01*
X120734001Y-82547363D01*
X154228000Y-82547363D01*
X154228000Y-83012637D01*
X154318770Y-83468970D01*
X154496822Y-83898827D01*
X154755315Y-84285687D01*
X155084313Y-84614685D01*
X155471173Y-84873178D01*
X155901030Y-85051230D01*
X156357363Y-85142000D01*
X156822637Y-85142000D01*
X157278970Y-85051230D01*
X157708827Y-84873178D01*
X158095687Y-84614685D01*
X158424685Y-84285687D01*
X158683178Y-83898827D01*
X158861230Y-83468970D01*
X158952000Y-83012637D01*
X158952000Y-82547363D01*
X158861230Y-82091030D01*
X158683178Y-81661173D01*
X158424685Y-81274313D01*
X158095687Y-80945315D01*
X157708827Y-80686822D01*
X157278970Y-80508770D01*
X156822637Y-80418000D01*
X156357363Y-80418000D01*
X155901030Y-80508770D01*
X155471173Y-80686822D01*
X155084313Y-80945315D01*
X154755315Y-81274313D01*
X154496822Y-81661173D01*
X154318770Y-82091030D01*
X154228000Y-82547363D01*
X120734001Y-82547363D01*
X120740974Y-82524378D01*
X120755686Y-82375000D01*
X120755686Y-79375000D01*
X120740974Y-79225622D01*
X120697402Y-79081985D01*
X120626645Y-78949608D01*
X120531422Y-78833578D01*
X120415392Y-78738355D01*
X120283015Y-78667598D01*
X120139378Y-78624026D01*
X119990000Y-78609314D01*
X116990000Y-78609314D01*
X116840622Y-78624026D01*
X116696985Y-78667598D01*
X116564608Y-78738355D01*
X116448578Y-78833578D01*
X116353355Y-78949608D01*
X116282598Y-79081985D01*
X116239026Y-79225622D01*
X116224314Y-79375000D01*
X112861845Y-79375000D01*
X112703210Y-79216365D01*
X112414620Y-79023535D01*
X112093957Y-78890712D01*
X111753542Y-78823000D01*
X111406458Y-78823000D01*
X111066043Y-78890712D01*
X110745380Y-79023535D01*
X110456790Y-79216365D01*
X110211365Y-79461790D01*
X110018535Y-79750380D01*
X109885712Y-80071043D01*
X109818000Y-80411458D01*
X106842000Y-80411458D01*
X106774288Y-80071043D01*
X106641465Y-79750380D01*
X106448635Y-79461790D01*
X106203210Y-79216365D01*
X105914620Y-79023535D01*
X105593957Y-78890712D01*
X105253542Y-78823000D01*
X105102737Y-78823000D01*
X103448711Y-77168975D01*
X103409186Y-77120814D01*
X103217022Y-76963108D01*
X102997783Y-76845923D01*
X102759895Y-76773760D01*
X102574496Y-76755500D01*
X102574488Y-76755500D01*
X102512500Y-76749395D01*
X102450512Y-76755500D01*
X97279488Y-76755500D01*
X97217500Y-76749395D01*
X97155511Y-76755500D01*
X96009488Y-76755500D01*
X95947500Y-76749395D01*
X95885512Y-76755500D01*
X85717810Y-76755500D01*
X85534885Y-76633273D01*
X85250619Y-76515527D01*
X84948844Y-76455500D01*
X84641156Y-76455500D01*
X84339381Y-76515527D01*
X84055115Y-76633273D01*
X83799283Y-76804215D01*
X83759422Y-76844076D01*
X83731645Y-76792108D01*
X83636422Y-76676078D01*
X83520392Y-76580855D01*
X83388015Y-76510098D01*
X83244378Y-76466526D01*
X83095000Y-76451814D01*
X81495000Y-76451814D01*
X81345622Y-76466526D01*
X81201985Y-76510098D01*
X81069608Y-76580855D01*
X80953578Y-76676078D01*
X80858355Y-76792108D01*
X80787598Y-76924485D01*
X80744026Y-77068122D01*
X80729314Y-77217500D01*
X74509500Y-77217500D01*
X74509500Y-75911458D01*
X103318000Y-75911458D01*
X103318000Y-76258542D01*
X103385712Y-76598957D01*
X103518535Y-76919620D01*
X103711365Y-77208210D01*
X103956790Y-77453635D01*
X104245380Y-77646465D01*
X104566043Y-77779288D01*
X104906458Y-77847000D01*
X105253542Y-77847000D01*
X105593957Y-77779288D01*
X105914620Y-77646465D01*
X106203210Y-77453635D01*
X106448635Y-77208210D01*
X106641465Y-76919620D01*
X106774288Y-76598957D01*
X106842000Y-76258542D01*
X106842000Y-75911458D01*
X109818000Y-75911458D01*
X109818000Y-76258542D01*
X109885712Y-76598957D01*
X110018535Y-76919620D01*
X110211365Y-77208210D01*
X110456790Y-77453635D01*
X110745380Y-77646465D01*
X111066043Y-77779288D01*
X111406458Y-77847000D01*
X111753542Y-77847000D01*
X112093957Y-77779288D01*
X112414620Y-77646465D01*
X112703210Y-77453635D01*
X112948635Y-77208210D01*
X113141465Y-76919620D01*
X113274288Y-76598957D01*
X113342000Y-76258542D01*
X113342000Y-75911458D01*
X113274288Y-75571043D01*
X113141465Y-75250380D01*
X112948635Y-74961790D01*
X112703210Y-74716365D01*
X112414620Y-74523535D01*
X112093957Y-74390712D01*
X111753542Y-74323000D01*
X111406458Y-74323000D01*
X111066043Y-74390712D01*
X110745380Y-74523535D01*
X110456790Y-74716365D01*
X110211365Y-74961790D01*
X110018535Y-75250380D01*
X109885712Y-75571043D01*
X109818000Y-75911458D01*
X106842000Y-75911458D01*
X106774288Y-75571043D01*
X106641465Y-75250380D01*
X106448635Y-74961790D01*
X106203210Y-74716365D01*
X105914620Y-74523535D01*
X105593957Y-74390712D01*
X105253542Y-74323000D01*
X104906458Y-74323000D01*
X104566043Y-74390712D01*
X104245380Y-74523535D01*
X103956790Y-74716365D01*
X103711365Y-74961790D01*
X103518535Y-75250380D01*
X103385712Y-75571043D01*
X103318000Y-75911458D01*
X74509500Y-75911458D01*
X74509500Y-57380000D01*
X77785443Y-57380000D01*
X77815602Y-57686205D01*
X77904918Y-57980643D01*
X78049961Y-58251999D01*
X78245156Y-58489844D01*
X78440306Y-58650000D01*
X78245156Y-58810156D01*
X78049961Y-59048001D01*
X77904918Y-59319357D01*
X77815602Y-59613795D01*
X77785443Y-59920000D01*
X77815602Y-60226205D01*
X77904918Y-60520643D01*
X78049961Y-60791999D01*
X78245156Y-61029844D01*
X78440306Y-61190000D01*
X78245156Y-61350156D01*
X78049961Y-61588001D01*
X77904918Y-61859357D01*
X77815602Y-62153795D01*
X77785443Y-62460000D01*
X77815602Y-62766205D01*
X77904918Y-63060643D01*
X78049961Y-63331999D01*
X78245156Y-63569844D01*
X78440306Y-63730000D01*
X78245156Y-63890156D01*
X78049961Y-64128001D01*
X77904918Y-64399357D01*
X77815602Y-64693795D01*
X77785443Y-65000000D01*
X77815602Y-65306205D01*
X77904918Y-65600643D01*
X78049961Y-65871999D01*
X78245156Y-66109844D01*
X78483001Y-66305039D01*
X78754357Y-66450082D01*
X79048795Y-66539398D01*
X79278274Y-66562000D01*
X80231726Y-66562000D01*
X80461205Y-66539398D01*
X80755643Y-66450082D01*
X81026999Y-66305039D01*
X81264844Y-66109844D01*
X81460039Y-65871999D01*
X81605082Y-65600643D01*
X81694398Y-65306205D01*
X81724557Y-65000000D01*
X81694398Y-64693795D01*
X81605082Y-64399357D01*
X81460039Y-64128001D01*
X81264844Y-63890156D01*
X81069694Y-63730000D01*
X81079442Y-63722000D01*
X82303000Y-63722000D01*
X82303001Y-64938002D01*
X82296895Y-65000000D01*
X82321260Y-65247395D01*
X82374066Y-65421468D01*
X82393424Y-65485283D01*
X82510609Y-65704522D01*
X82668315Y-65896686D01*
X82716470Y-65936206D01*
X88773262Y-71993000D01*
X87897737Y-71993000D01*
X86892050Y-70987314D01*
X86880690Y-70871972D01*
X86821468Y-70676747D01*
X86725299Y-70496826D01*
X86595876Y-70339124D01*
X86438174Y-70209701D01*
X86258253Y-70113532D01*
X86063028Y-70054310D01*
X85860000Y-70034314D01*
X84830686Y-70034314D01*
X84830686Y-69530000D01*
X84815974Y-69380622D01*
X84772402Y-69236985D01*
X84701645Y-69104608D01*
X84606422Y-68988578D01*
X84490392Y-68893355D01*
X84358015Y-68822598D01*
X84214378Y-68779026D01*
X84065000Y-68764314D01*
X82265000Y-68764314D01*
X82115622Y-68779026D01*
X81971985Y-68822598D01*
X81839608Y-68893355D01*
X81723578Y-68988578D01*
X81628355Y-69104608D01*
X81557598Y-69236985D01*
X81514026Y-69380622D01*
X81499314Y-69530000D01*
X81499314Y-70630000D01*
X81514026Y-70779378D01*
X81557598Y-70923015D01*
X81628355Y-71055392D01*
X81723578Y-71171422D01*
X81839608Y-71266645D01*
X81971985Y-71337402D01*
X82115622Y-71380974D01*
X82141723Y-71383545D01*
X81961826Y-71479701D01*
X81804124Y-71609124D01*
X81674701Y-71766826D01*
X81578532Y-71946747D01*
X81519310Y-72141972D01*
X81499314Y-72345000D01*
X81499314Y-72895000D01*
X81519310Y-73098028D01*
X81578532Y-73293253D01*
X81674701Y-73473174D01*
X81804124Y-73630876D01*
X81961826Y-73760299D01*
X82141747Y-73856468D01*
X82336972Y-73915690D01*
X82540000Y-73935686D01*
X83790000Y-73935686D01*
X83993028Y-73915690D01*
X84188253Y-73856468D01*
X84368174Y-73760299D01*
X84525876Y-73630876D01*
X84655299Y-73473174D01*
X84751468Y-73293253D01*
X84810690Y-73098028D01*
X84830686Y-72895000D01*
X84830686Y-72665686D01*
X85000950Y-72665686D01*
X86438793Y-74103530D01*
X86478314Y-74151686D01*
X86670478Y-74309392D01*
X86772531Y-74363940D01*
X86889716Y-74426577D01*
X87127604Y-74498740D01*
X87149713Y-74500917D01*
X87313004Y-74517000D01*
X87313011Y-74517000D01*
X87375000Y-74523105D01*
X87436988Y-74517000D01*
X95568012Y-74517000D01*
X95630000Y-74523105D01*
X95691988Y-74517000D01*
X95691996Y-74517000D01*
X95877395Y-74498740D01*
X96115283Y-74426577D01*
X96334522Y-74309392D01*
X96352058Y-74295000D01*
X116224314Y-74295000D01*
X116224314Y-77295000D01*
X116239026Y-77444378D01*
X116282598Y-77588015D01*
X116353355Y-77720392D01*
X116448578Y-77836422D01*
X116564608Y-77931645D01*
X116696985Y-78002402D01*
X116840622Y-78045974D01*
X116990000Y-78060686D01*
X119990000Y-78060686D01*
X120139378Y-78045974D01*
X120283015Y-78002402D01*
X120415392Y-77931645D01*
X120531422Y-77836422D01*
X120626645Y-77720392D01*
X120697402Y-77588015D01*
X120740974Y-77444378D01*
X120755686Y-77295000D01*
X120755686Y-74295000D01*
X120740974Y-74145622D01*
X120697402Y-74001985D01*
X120626645Y-73869608D01*
X120531422Y-73753578D01*
X120415392Y-73658355D01*
X120283015Y-73587598D01*
X120139378Y-73544026D01*
X119990000Y-73529314D01*
X116990000Y-73529314D01*
X116840622Y-73544026D01*
X116696985Y-73587598D01*
X116564608Y-73658355D01*
X116448578Y-73753578D01*
X116353355Y-73869608D01*
X116282598Y-74001985D01*
X116239026Y-74145622D01*
X116224314Y-74295000D01*
X96352058Y-74295000D01*
X96526686Y-74151686D01*
X96566210Y-74103526D01*
X97431036Y-73238701D01*
X97479186Y-73199186D01*
X97518702Y-73151036D01*
X97518706Y-73151032D01*
X97636413Y-73007606D01*
X97636892Y-73007022D01*
X97754077Y-72787783D01*
X97807401Y-72612000D01*
X98834690Y-72612000D01*
X99017615Y-72734227D01*
X99301881Y-72851973D01*
X99603656Y-72912000D01*
X99911344Y-72912000D01*
X100213119Y-72851973D01*
X100497385Y-72734227D01*
X100753217Y-72563285D01*
X100970785Y-72345717D01*
X101141727Y-72089885D01*
X101259473Y-71805619D01*
X101319500Y-71503844D01*
X101319500Y-71204236D01*
X101705106Y-71589843D01*
X101748027Y-71805619D01*
X101865773Y-72089885D01*
X102036715Y-72345717D01*
X102254283Y-72563285D01*
X102510115Y-72734227D01*
X102794381Y-72851973D01*
X103096156Y-72912000D01*
X103403844Y-72912000D01*
X103705619Y-72851973D01*
X103989885Y-72734227D01*
X104245717Y-72563285D01*
X104463285Y-72345717D01*
X104634227Y-72089885D01*
X104751973Y-71805619D01*
X104812000Y-71503844D01*
X104812000Y-71196156D01*
X104751973Y-70894381D01*
X104634227Y-70610115D01*
X104463285Y-70354283D01*
X104245717Y-70136715D01*
X103989885Y-69965773D01*
X103705619Y-69848027D01*
X103489843Y-69805106D01*
X103418768Y-69734031D01*
X103705619Y-69676973D01*
X103989885Y-69559227D01*
X104245717Y-69388285D01*
X104463285Y-69170717D01*
X104634227Y-68914885D01*
X104751973Y-68630619D01*
X104794894Y-68414843D01*
X106003532Y-67206205D01*
X106051686Y-67166686D01*
X106209392Y-66974522D01*
X106263940Y-66872469D01*
X106326577Y-66755284D01*
X106398740Y-66517396D01*
X106403128Y-66472846D01*
X106417000Y-66331996D01*
X106417000Y-66331989D01*
X106423105Y-66270000D01*
X106417000Y-66208012D01*
X106417000Y-61671156D01*
X111848000Y-61671156D01*
X111848000Y-61978844D01*
X111908027Y-62280619D01*
X112025773Y-62564885D01*
X112196715Y-62820717D01*
X112414283Y-63038285D01*
X112521000Y-63109591D01*
X112521000Y-63715409D01*
X112414283Y-63786715D01*
X112196715Y-64004283D01*
X112025773Y-64260115D01*
X111908027Y-64544381D01*
X111848000Y-64846156D01*
X111848000Y-65153844D01*
X111908027Y-65455619D01*
X112025773Y-65739885D01*
X112148001Y-65922811D01*
X112148001Y-67252189D01*
X112025773Y-67435115D01*
X111908027Y-67719381D01*
X111848000Y-68021156D01*
X111848000Y-68328844D01*
X111908027Y-68630619D01*
X112025773Y-68914885D01*
X112148000Y-69097811D01*
X112148000Y-69700501D01*
X112141894Y-69762500D01*
X112148000Y-69824498D01*
X112148000Y-70427190D01*
X112025773Y-70610115D01*
X111908027Y-70894381D01*
X111848000Y-71196156D01*
X111848000Y-71503844D01*
X111908027Y-71805619D01*
X112025773Y-72089885D01*
X112196715Y-72345717D01*
X112414283Y-72563285D01*
X112670115Y-72734227D01*
X112954381Y-72851973D01*
X113256156Y-72912000D01*
X113563844Y-72912000D01*
X113865619Y-72851973D01*
X114149885Y-72734227D01*
X114405717Y-72563285D01*
X114623285Y-72345717D01*
X114794227Y-72089885D01*
X114911973Y-71805619D01*
X114972000Y-71503844D01*
X114972000Y-71196156D01*
X114937855Y-71024500D01*
X115880913Y-71024500D01*
X115991972Y-71058190D01*
X116195000Y-71078186D01*
X117224314Y-71078186D01*
X117224314Y-71582500D01*
X117239026Y-71731878D01*
X117282598Y-71875515D01*
X117353355Y-72007892D01*
X117448578Y-72123922D01*
X117564608Y-72219145D01*
X117696985Y-72289902D01*
X117840622Y-72333474D01*
X117990000Y-72348186D01*
X119790000Y-72348186D01*
X119939378Y-72333474D01*
X120067857Y-72294500D01*
X121142263Y-72294500D01*
X121673000Y-72825238D01*
X121673001Y-77320502D01*
X121666895Y-77382500D01*
X121691260Y-77629895D01*
X121762172Y-77863656D01*
X121763424Y-77867783D01*
X121880609Y-78087022D01*
X122038315Y-78279186D01*
X122086470Y-78318706D01*
X123268798Y-79501036D01*
X123308314Y-79549186D01*
X123356464Y-79588702D01*
X123356468Y-79588706D01*
X123473063Y-79684393D01*
X123500478Y-79706892D01*
X123719717Y-79824077D01*
X123957605Y-79896240D01*
X124143004Y-79914500D01*
X124143013Y-79914500D01*
X124204999Y-79920605D01*
X124266985Y-79914500D01*
X133033012Y-79914500D01*
X133095000Y-79920605D01*
X133156988Y-79914500D01*
X133156996Y-79914500D01*
X133342395Y-79896240D01*
X133580283Y-79824077D01*
X133799522Y-79706892D01*
X133977432Y-79560884D01*
X134185619Y-79519473D01*
X134469885Y-79401727D01*
X134725717Y-79230785D01*
X134943285Y-79013217D01*
X135114227Y-78757385D01*
X135231973Y-78473119D01*
X135292000Y-78171344D01*
X135292000Y-77863656D01*
X135231973Y-77561881D01*
X135204797Y-77496272D01*
X135227023Y-77484392D01*
X135419187Y-77326686D01*
X135458711Y-77278526D01*
X136278001Y-76459238D01*
X136278001Y-76685502D01*
X136271895Y-76747500D01*
X136296260Y-76994895D01*
X136368424Y-77232783D01*
X136485609Y-77452022D01*
X136575769Y-77561881D01*
X136643315Y-77644186D01*
X136691470Y-77683706D01*
X137873798Y-78866036D01*
X137913314Y-78914186D01*
X137961464Y-78953702D01*
X137961468Y-78953706D01*
X138046555Y-79023535D01*
X138105478Y-79071892D01*
X138324717Y-79189077D01*
X138562605Y-79261240D01*
X138748004Y-79279500D01*
X138748013Y-79279500D01*
X138809999Y-79285605D01*
X138871985Y-79279500D01*
X142967190Y-79279500D01*
X143150115Y-79401727D01*
X143434381Y-79519473D01*
X143736156Y-79579500D01*
X144043844Y-79579500D01*
X144345619Y-79519473D01*
X144629885Y-79401727D01*
X144885717Y-79230785D01*
X145103285Y-79013217D01*
X145274227Y-78757385D01*
X145391973Y-78473119D01*
X145452000Y-78171344D01*
X145452000Y-77863656D01*
X145391973Y-77561881D01*
X145274227Y-77277615D01*
X145103285Y-77021783D01*
X144885717Y-76804215D01*
X144629885Y-76633273D01*
X144345619Y-76515527D01*
X144043844Y-76455500D01*
X143736156Y-76455500D01*
X143434381Y-76515527D01*
X143150115Y-76633273D01*
X142967190Y-76755500D01*
X139332737Y-76755500D01*
X138802000Y-76224763D01*
X138802000Y-66570529D01*
X138865392Y-66536645D01*
X138981422Y-66441422D01*
X139075024Y-66327367D01*
X139292748Y-66472846D01*
X139595212Y-66598131D01*
X139916307Y-66662000D01*
X140243693Y-66662000D01*
X140564788Y-66598131D01*
X140867252Y-66472846D01*
X141139463Y-66290960D01*
X141370960Y-66059463D01*
X141552846Y-65787252D01*
X141678131Y-65484788D01*
X141742000Y-65163693D01*
X141742000Y-64836307D01*
X141678131Y-64515212D01*
X141552846Y-64212748D01*
X141370960Y-63940537D01*
X141139463Y-63709040D01*
X140867252Y-63527154D01*
X140564788Y-63401869D01*
X140243693Y-63338000D01*
X139916307Y-63338000D01*
X139595212Y-63401869D01*
X139292748Y-63527154D01*
X139075024Y-63672633D01*
X138981422Y-63558578D01*
X138865392Y-63463355D01*
X138733015Y-63392598D01*
X138589378Y-63349026D01*
X138440000Y-63334314D01*
X136897000Y-63334314D01*
X136897000Y-61077737D01*
X137427737Y-60547000D01*
X145733012Y-60547000D01*
X145795000Y-60553105D01*
X145856988Y-60547000D01*
X145856996Y-60547000D01*
X146042395Y-60528740D01*
X146280283Y-60456577D01*
X146499522Y-60339392D01*
X146691686Y-60181686D01*
X146731211Y-60133525D01*
X151629051Y-55235686D01*
X152153000Y-55235686D01*
X152153000Y-63467403D01*
X151994788Y-63401869D01*
X151673693Y-63338000D01*
X151346307Y-63338000D01*
X151025212Y-63401869D01*
X150722748Y-63527154D01*
X150505024Y-63672633D01*
X150411422Y-63558578D01*
X150295392Y-63463355D01*
X150163015Y-63392598D01*
X150019378Y-63349026D01*
X149870000Y-63334314D01*
X148070000Y-63334314D01*
X147920622Y-63349026D01*
X147776985Y-63392598D01*
X147644608Y-63463355D01*
X147528578Y-63558578D01*
X147433355Y-63674608D01*
X147362598Y-63806985D01*
X147319026Y-63950622D01*
X147304314Y-64100000D01*
X147304314Y-64880949D01*
X143041470Y-69143794D01*
X142993315Y-69183314D01*
X142953795Y-69231469D01*
X142953794Y-69231470D01*
X142835609Y-69375478D01*
X142718424Y-69594717D01*
X142646260Y-69832605D01*
X142621895Y-70080000D01*
X142628001Y-70141998D01*
X142628000Y-73919690D01*
X142505773Y-74102615D01*
X142388027Y-74386881D01*
X142328000Y-74688656D01*
X142328000Y-74996344D01*
X142388027Y-75298119D01*
X142505773Y-75582385D01*
X142676715Y-75838217D01*
X142894283Y-76055785D01*
X143150115Y-76226727D01*
X143434381Y-76344473D01*
X143736156Y-76404500D01*
X144043844Y-76404500D01*
X144345619Y-76344473D01*
X144629885Y-76226727D01*
X144885717Y-76055785D01*
X145103285Y-75838217D01*
X145274227Y-75582385D01*
X145391973Y-75298119D01*
X145452000Y-74996344D01*
X145452000Y-74688656D01*
X145391973Y-74386881D01*
X145274227Y-74102615D01*
X145152000Y-73919690D01*
X145152000Y-70602736D01*
X149089051Y-66665686D01*
X149870000Y-66665686D01*
X150019378Y-66650974D01*
X150163015Y-66607402D01*
X150295392Y-66536645D01*
X150411422Y-66441422D01*
X150505024Y-66327367D01*
X150722748Y-66472846D01*
X151025212Y-66598131D01*
X151346307Y-66662000D01*
X151673693Y-66662000D01*
X151994788Y-66598131D01*
X152153001Y-66532597D01*
X152153001Y-74764314D01*
X150610000Y-74764314D01*
X150460622Y-74779026D01*
X150316985Y-74822598D01*
X150184608Y-74893355D01*
X150068578Y-74988578D01*
X149974976Y-75102633D01*
X149757252Y-74957154D01*
X149454788Y-74831869D01*
X149133693Y-74768000D01*
X148806307Y-74768000D01*
X148485212Y-74831869D01*
X148182748Y-74957154D01*
X147910537Y-75139040D01*
X147679040Y-75370537D01*
X147497154Y-75642748D01*
X147371869Y-75945212D01*
X147308000Y-76266307D01*
X147308000Y-76593693D01*
X147371869Y-76914788D01*
X147497154Y-77217252D01*
X147679040Y-77489463D01*
X147910537Y-77720960D01*
X148182748Y-77902846D01*
X148485212Y-78028131D01*
X148806307Y-78092000D01*
X149133693Y-78092000D01*
X149454788Y-78028131D01*
X149757252Y-77902846D01*
X149974976Y-77757367D01*
X150068578Y-77871422D01*
X150184608Y-77966645D01*
X150316985Y-78037402D01*
X150460622Y-78080974D01*
X150610000Y-78095686D01*
X152410000Y-78095686D01*
X152559378Y-78080974D01*
X152703015Y-78037402D01*
X152835392Y-77966645D01*
X152951422Y-77871422D01*
X153046645Y-77755392D01*
X153102460Y-77650969D01*
X153265283Y-77601577D01*
X153484522Y-77484392D01*
X153676686Y-77326686D01*
X153716211Y-77278525D01*
X154263525Y-76731211D01*
X154311686Y-76691686D01*
X154469392Y-76499522D01*
X154586577Y-76280283D01*
X154607617Y-76210924D01*
X154658740Y-76042396D01*
X154661529Y-76014077D01*
X154677000Y-75856996D01*
X154677000Y-75856989D01*
X154683105Y-75795000D01*
X154677000Y-75733012D01*
X154677000Y-52044485D01*
X154683105Y-51982499D01*
X154677000Y-51920513D01*
X154677000Y-51920504D01*
X154658740Y-51735105D01*
X154586577Y-51497217D01*
X154469392Y-51277978D01*
X154311686Y-51085814D01*
X154263531Y-51046294D01*
X153551211Y-50333975D01*
X153511687Y-50285815D01*
X153319523Y-50128109D01*
X153100284Y-50010924D01*
X152862396Y-49938761D01*
X152676997Y-49920501D01*
X152676989Y-49920501D01*
X152615001Y-49914396D01*
X152553013Y-49920501D01*
X144751984Y-49920501D01*
X144689998Y-49914396D01*
X144628012Y-49920501D01*
X144628003Y-49920501D01*
X144442604Y-49938761D01*
X144204716Y-50010924D01*
X143985477Y-50128109D01*
X143793313Y-50285815D01*
X143753792Y-50333971D01*
X143650157Y-50437606D01*
X143434381Y-50480527D01*
X143150115Y-50598273D01*
X142894283Y-50769215D01*
X142676715Y-50986783D01*
X142505773Y-51242615D01*
X142388027Y-51526881D01*
X142328000Y-51828656D01*
X142328000Y-52136344D01*
X142388027Y-52438119D01*
X142505773Y-52722385D01*
X142676715Y-52978217D01*
X142894283Y-53195785D01*
X143150115Y-53366727D01*
X143434381Y-53484473D01*
X143736156Y-53544500D01*
X144043844Y-53544500D01*
X144345619Y-53484473D01*
X144629885Y-53366727D01*
X144885717Y-53195785D01*
X145103285Y-52978217D01*
X145274227Y-52722385D01*
X145389330Y-52444501D01*
X147745076Y-52444501D01*
X147679040Y-52510537D01*
X147497154Y-52782748D01*
X147371869Y-53085212D01*
X147308000Y-53406307D01*
X147308000Y-53447263D01*
X146859764Y-53895500D01*
X144812810Y-53895500D01*
X144629885Y-53773273D01*
X144345619Y-53655527D01*
X144043844Y-53595500D01*
X143736156Y-53595500D01*
X143434381Y-53655527D01*
X143150115Y-53773273D01*
X142894283Y-53944215D01*
X142676715Y-54161783D01*
X142505773Y-54417615D01*
X142388027Y-54701881D01*
X142328000Y-55003656D01*
X142328000Y-55311344D01*
X142388027Y-55613119D01*
X142505773Y-55897385D01*
X142676715Y-56153217D01*
X142894283Y-56370785D01*
X143150115Y-56541727D01*
X143434381Y-56659473D01*
X143736156Y-56719500D01*
X144043844Y-56719500D01*
X144345619Y-56659473D01*
X144629885Y-56541727D01*
X144812810Y-56419500D01*
X146875764Y-56419500D01*
X145272264Y-58023000D01*
X136966985Y-58023000D01*
X136904999Y-58016895D01*
X136843013Y-58023000D01*
X136843004Y-58023000D01*
X136657605Y-58041260D01*
X136419717Y-58113423D01*
X136200478Y-58230608D01*
X136200476Y-58230609D01*
X136200477Y-58230609D01*
X136056468Y-58348794D01*
X136056464Y-58348798D01*
X136008314Y-58388314D01*
X135968798Y-58436464D01*
X134786474Y-59618790D01*
X134738314Y-59658314D01*
X134580608Y-59850479D01*
X134463423Y-60069718D01*
X134438471Y-60151973D01*
X134391261Y-60307604D01*
X134391260Y-60307606D01*
X134373000Y-60493005D01*
X134373000Y-60493012D01*
X134366895Y-60555000D01*
X134373000Y-60616988D01*
X134373000Y-65128263D01*
X133396210Y-64151474D01*
X133356686Y-64103314D01*
X133164522Y-63945608D01*
X132945283Y-63828423D01*
X132707395Y-63756260D01*
X132521996Y-63738000D01*
X132521988Y-63738000D01*
X132460000Y-63731895D01*
X132398012Y-63738000D01*
X129738423Y-63738000D01*
X129709463Y-63709040D01*
X129437252Y-63527154D01*
X129134788Y-63401869D01*
X128813693Y-63338000D01*
X128486307Y-63338000D01*
X128165212Y-63401869D01*
X127862748Y-63527154D01*
X127645024Y-63672633D01*
X127551422Y-63558578D01*
X127435392Y-63463355D01*
X127303015Y-63392598D01*
X127159378Y-63349026D01*
X127010000Y-63334314D01*
X125210000Y-63334314D01*
X125060622Y-63349026D01*
X124916985Y-63392598D01*
X124864784Y-63420500D01*
X120067857Y-63420500D01*
X119939378Y-63381526D01*
X119913277Y-63378955D01*
X120093174Y-63282799D01*
X120250876Y-63153376D01*
X120380299Y-62995674D01*
X120476468Y-62815753D01*
X120535690Y-62620528D01*
X120555686Y-62417500D01*
X120555686Y-61867500D01*
X120535690Y-61664472D01*
X120476468Y-61469247D01*
X120380299Y-61289326D01*
X120250876Y-61131624D01*
X120093174Y-61002201D01*
X119913253Y-60906032D01*
X119718028Y-60846810D01*
X119515000Y-60826814D01*
X118265000Y-60826814D01*
X118061972Y-60846810D01*
X117866747Y-60906032D01*
X117686826Y-61002201D01*
X117529124Y-61131624D01*
X117399701Y-61289326D01*
X117303532Y-61469247D01*
X117244310Y-61664472D01*
X117224314Y-61867500D01*
X117224314Y-62096814D01*
X116195000Y-62096814D01*
X115991972Y-62116810D01*
X115880913Y-62150500D01*
X115202737Y-62150500D01*
X114972000Y-61919763D01*
X114972000Y-61671156D01*
X114911973Y-61369381D01*
X114794227Y-61085115D01*
X114623285Y-60829283D01*
X114405717Y-60611715D01*
X114149885Y-60440773D01*
X113865619Y-60323027D01*
X113563844Y-60263000D01*
X113256156Y-60263000D01*
X112954381Y-60323027D01*
X112670115Y-60440773D01*
X112414283Y-60611715D01*
X112196715Y-60829283D01*
X112025773Y-61085115D01*
X111908027Y-61369381D01*
X111848000Y-61671156D01*
X106417000Y-61671156D01*
X106417000Y-60616988D01*
X106423105Y-60555000D01*
X106417000Y-60493011D01*
X106417000Y-60493004D01*
X106398740Y-60307605D01*
X106385209Y-60263000D01*
X106326577Y-60069716D01*
X106213415Y-59858005D01*
X106209392Y-59850478D01*
X106051686Y-59658314D01*
X106003530Y-59618793D01*
X104794894Y-58410157D01*
X104751973Y-58194381D01*
X104634227Y-57910115D01*
X104463285Y-57654283D01*
X104245717Y-57436715D01*
X103989885Y-57265773D01*
X103705619Y-57148027D01*
X103418768Y-57090969D01*
X103489843Y-57019894D01*
X103705619Y-56976973D01*
X103989885Y-56859227D01*
X104245717Y-56688285D01*
X104463285Y-56470717D01*
X104634227Y-56214885D01*
X104751973Y-55930619D01*
X104812000Y-55628844D01*
X104812000Y-55321156D01*
X104751973Y-55019381D01*
X104634227Y-54735115D01*
X104463285Y-54479283D01*
X104245717Y-54261715D01*
X103989885Y-54090773D01*
X103705619Y-53973027D01*
X103403844Y-53913000D01*
X103096156Y-53913000D01*
X102794381Y-53973027D01*
X102510115Y-54090773D01*
X102254283Y-54261715D01*
X102036715Y-54479283D01*
X101865773Y-54735115D01*
X101748027Y-55019381D01*
X101705106Y-55235157D01*
X100496470Y-56443794D01*
X100473091Y-56462980D01*
X100314844Y-56270156D01*
X100119694Y-56110000D01*
X100314844Y-55949844D01*
X100510039Y-55711999D01*
X100655082Y-55440643D01*
X100744398Y-55146205D01*
X100774557Y-54840000D01*
X100744398Y-54533795D01*
X100655082Y-54239357D01*
X100510039Y-53968001D01*
X100314844Y-53730156D01*
X100119694Y-53570000D01*
X100129442Y-53562000D01*
X102327190Y-53562000D01*
X102510115Y-53684227D01*
X102794381Y-53801973D01*
X103096156Y-53862000D01*
X103403844Y-53862000D01*
X103705619Y-53801973D01*
X103989885Y-53684227D01*
X104245717Y-53513285D01*
X104463285Y-53295717D01*
X104634227Y-53039885D01*
X104751973Y-52755619D01*
X104812000Y-52453844D01*
X104812000Y-52146156D01*
X104751973Y-51844381D01*
X104634227Y-51560115D01*
X104463285Y-51304283D01*
X104245717Y-51086715D01*
X103989885Y-50915773D01*
X103705619Y-50798027D01*
X103403844Y-50738000D01*
X103096156Y-50738000D01*
X102794381Y-50798027D01*
X102510115Y-50915773D01*
X102327190Y-51038000D01*
X100129442Y-51038000D01*
X100119694Y-51030000D01*
X100314844Y-50869844D01*
X100510039Y-50631999D01*
X100655082Y-50360643D01*
X100744398Y-50066205D01*
X100774557Y-49760000D01*
X100744398Y-49453795D01*
X100655082Y-49159357D01*
X100632442Y-49117000D01*
X101457263Y-49117000D01*
X101705106Y-49364843D01*
X101748027Y-49580619D01*
X101865773Y-49864885D01*
X102036715Y-50120717D01*
X102254283Y-50338285D01*
X102510115Y-50509227D01*
X102794381Y-50626973D01*
X103096156Y-50687000D01*
X103403844Y-50687000D01*
X103705619Y-50626973D01*
X103989885Y-50509227D01*
X104245717Y-50338285D01*
X104463285Y-50120717D01*
X104634227Y-49864885D01*
X104751973Y-49580619D01*
X104812000Y-49278844D01*
X104812000Y-48971156D01*
X111848000Y-48971156D01*
X111848000Y-49278844D01*
X111908027Y-49580619D01*
X112025773Y-49864885D01*
X112148001Y-50047811D01*
X112148001Y-50650496D01*
X112141894Y-50712500D01*
X112148001Y-50774503D01*
X112148001Y-51377189D01*
X112025773Y-51560115D01*
X111908027Y-51844381D01*
X111848000Y-52146156D01*
X111848000Y-52453844D01*
X111908027Y-52755619D01*
X112025773Y-53039885D01*
X112148000Y-53222811D01*
X112148000Y-54552190D01*
X112025773Y-54735115D01*
X111908027Y-55019381D01*
X111848000Y-55321156D01*
X111848000Y-55628844D01*
X111908027Y-55930619D01*
X112025773Y-56214885D01*
X112196715Y-56470717D01*
X112414283Y-56688285D01*
X112670115Y-56859227D01*
X112954381Y-56976973D01*
X112976409Y-56981355D01*
X112707459Y-57250305D01*
X112670115Y-57265773D01*
X112414283Y-57436715D01*
X112196715Y-57654283D01*
X112025773Y-57910115D01*
X111908027Y-58194381D01*
X111848000Y-58496156D01*
X111848000Y-58803844D01*
X111908027Y-59105619D01*
X112025773Y-59389885D01*
X112196715Y-59645717D01*
X112414283Y-59863285D01*
X112670115Y-60034227D01*
X112954381Y-60151973D01*
X113256156Y-60212000D01*
X113563844Y-60212000D01*
X113865619Y-60151973D01*
X114149885Y-60034227D01*
X114405717Y-59863285D01*
X114623285Y-59645717D01*
X114794227Y-59389885D01*
X114911973Y-59105619D01*
X114972000Y-58803844D01*
X114972000Y-58555237D01*
X115202737Y-58324500D01*
X115880913Y-58324500D01*
X115991972Y-58358190D01*
X116195000Y-58378186D01*
X117224314Y-58378186D01*
X117224314Y-58882500D01*
X117239026Y-59031878D01*
X117282598Y-59175515D01*
X117353355Y-59307892D01*
X117448578Y-59423922D01*
X117564608Y-59519145D01*
X117696985Y-59589902D01*
X117840622Y-59633474D01*
X117990000Y-59648186D01*
X119790000Y-59648186D01*
X119939378Y-59633474D01*
X120067857Y-59594500D01*
X130493012Y-59594500D01*
X130555000Y-59600605D01*
X130616988Y-59594500D01*
X130616996Y-59594500D01*
X130802395Y-59576240D01*
X131040283Y-59504077D01*
X131259522Y-59386892D01*
X131451686Y-59229186D01*
X131491211Y-59181025D01*
X133969844Y-56702393D01*
X134185619Y-56659473D01*
X134469885Y-56541727D01*
X134725717Y-56370785D01*
X134943285Y-56153217D01*
X135114227Y-55897385D01*
X135231973Y-55613119D01*
X135292000Y-55311344D01*
X135292000Y-55003656D01*
X135231973Y-54701881D01*
X135114227Y-54417615D01*
X134943285Y-54161783D01*
X134725717Y-53944215D01*
X134469885Y-53773273D01*
X134185619Y-53655527D01*
X133883844Y-53595500D01*
X133576156Y-53595500D01*
X133274381Y-53655527D01*
X132990115Y-53773273D01*
X132734283Y-53944215D01*
X132516715Y-54161783D01*
X132345773Y-54417615D01*
X132228027Y-54701881D01*
X132185107Y-54917656D01*
X130032264Y-57070500D01*
X120067857Y-57070500D01*
X119939378Y-57031526D01*
X119913277Y-57028955D01*
X120093174Y-56932799D01*
X120250876Y-56803376D01*
X120380299Y-56645674D01*
X120476468Y-56465753D01*
X120535690Y-56270528D01*
X120555686Y-56067500D01*
X120555686Y-55517500D01*
X120535690Y-55314472D01*
X120476468Y-55119247D01*
X120380299Y-54939326D01*
X120250876Y-54781624D01*
X120093174Y-54652201D01*
X119913253Y-54556032D01*
X119718028Y-54496810D01*
X119515000Y-54476814D01*
X118265000Y-54476814D01*
X118061972Y-54496810D01*
X117866747Y-54556032D01*
X117686826Y-54652201D01*
X117529124Y-54781624D01*
X117399701Y-54939326D01*
X117303532Y-55119247D01*
X117244310Y-55314472D01*
X117224314Y-55517500D01*
X117224314Y-55746814D01*
X116195000Y-55746814D01*
X115991972Y-55766810D01*
X115880913Y-55800500D01*
X114937855Y-55800500D01*
X114972000Y-55628844D01*
X114972000Y-55321156D01*
X114911973Y-55019381D01*
X114794227Y-54735115D01*
X114672000Y-54552190D01*
X114672000Y-53222810D01*
X114794227Y-53039885D01*
X114911973Y-52755619D01*
X114972000Y-52453844D01*
X114972000Y-52146156D01*
X114937855Y-51974500D01*
X115880913Y-51974500D01*
X115991972Y-52008190D01*
X116195000Y-52028186D01*
X117224314Y-52028186D01*
X117224314Y-52532500D01*
X117239026Y-52681878D01*
X117282598Y-52825515D01*
X117353355Y-52957892D01*
X117448578Y-53073922D01*
X117564608Y-53169145D01*
X117696985Y-53239902D01*
X117840622Y-53283474D01*
X117990000Y-53298186D01*
X119790000Y-53298186D01*
X119939378Y-53283474D01*
X120067857Y-53244500D01*
X123999764Y-53244500D01*
X124444314Y-53689051D01*
X124444314Y-54470000D01*
X124459026Y-54619378D01*
X124502598Y-54763015D01*
X124573355Y-54895392D01*
X124668578Y-55011422D01*
X124784608Y-55106645D01*
X124916985Y-55177402D01*
X125060622Y-55220974D01*
X125210000Y-55235686D01*
X127010000Y-55235686D01*
X127159378Y-55220974D01*
X127303015Y-55177402D01*
X127435392Y-55106645D01*
X127551422Y-55011422D01*
X127645024Y-54897367D01*
X127862748Y-55042846D01*
X128165212Y-55168131D01*
X128486307Y-55232000D01*
X128813693Y-55232000D01*
X129134788Y-55168131D01*
X129437252Y-55042846D01*
X129709463Y-54860960D01*
X129940960Y-54629463D01*
X130122846Y-54357252D01*
X130248131Y-54054788D01*
X130312000Y-53733693D01*
X130312000Y-53692736D01*
X130760237Y-53244500D01*
X132807190Y-53244500D01*
X132990115Y-53366727D01*
X133274381Y-53484473D01*
X133576156Y-53544500D01*
X133883844Y-53544500D01*
X134185619Y-53484473D01*
X134469885Y-53366727D01*
X134725717Y-53195785D01*
X134943285Y-52978217D01*
X135114227Y-52722385D01*
X135231973Y-52438119D01*
X135292000Y-52136344D01*
X135292000Y-51828656D01*
X135231973Y-51526881D01*
X135114227Y-51242615D01*
X134943285Y-50986783D01*
X134725717Y-50769215D01*
X134469885Y-50598273D01*
X134185619Y-50480527D01*
X133883844Y-50420500D01*
X133576156Y-50420500D01*
X133274381Y-50480527D01*
X132990115Y-50598273D01*
X132807190Y-50720500D01*
X130299485Y-50720500D01*
X130237499Y-50714395D01*
X130175513Y-50720500D01*
X130175504Y-50720500D01*
X129990105Y-50738760D01*
X129752217Y-50810923D01*
X129532978Y-50928108D01*
X129340814Y-51085814D01*
X129301294Y-51133969D01*
X128527264Y-51908000D01*
X128486307Y-51908000D01*
X128165212Y-51971869D01*
X127862748Y-52097154D01*
X127645024Y-52242633D01*
X127551422Y-52128578D01*
X127435392Y-52033355D01*
X127303015Y-51962598D01*
X127159378Y-51919026D01*
X127010000Y-51904314D01*
X126229051Y-51904314D01*
X125458711Y-51133975D01*
X125419186Y-51085814D01*
X125227022Y-50928108D01*
X125007783Y-50810923D01*
X124769895Y-50738760D01*
X124584496Y-50720500D01*
X124584488Y-50720500D01*
X124522500Y-50714395D01*
X124460512Y-50720500D01*
X120067857Y-50720500D01*
X119939378Y-50681526D01*
X119913277Y-50678955D01*
X120093174Y-50582799D01*
X120250876Y-50453376D01*
X120380299Y-50295674D01*
X120476468Y-50115753D01*
X120535690Y-49920528D01*
X120555686Y-49717500D01*
X120555686Y-49167500D01*
X120535690Y-48964472D01*
X120476468Y-48769247D01*
X120380299Y-48589326D01*
X120250876Y-48431624D01*
X120093174Y-48302201D01*
X119913253Y-48206032D01*
X119718028Y-48146810D01*
X119515000Y-48126814D01*
X118265000Y-48126814D01*
X118061972Y-48146810D01*
X117866747Y-48206032D01*
X117686826Y-48302201D01*
X117529124Y-48431624D01*
X117399701Y-48589326D01*
X117303532Y-48769247D01*
X117244310Y-48964472D01*
X117224314Y-49167500D01*
X117224314Y-49396814D01*
X116195000Y-49396814D01*
X115991972Y-49416810D01*
X115880913Y-49450500D01*
X114937855Y-49450500D01*
X114972000Y-49278844D01*
X114972000Y-48971156D01*
X114911973Y-48669381D01*
X114794227Y-48385115D01*
X114623285Y-48129283D01*
X114405717Y-47911715D01*
X114149885Y-47740773D01*
X113865619Y-47623027D01*
X113563844Y-47563000D01*
X113256156Y-47563000D01*
X112954381Y-47623027D01*
X112670115Y-47740773D01*
X112414283Y-47911715D01*
X112196715Y-48129283D01*
X112025773Y-48385115D01*
X111908027Y-48669381D01*
X111848000Y-48971156D01*
X104812000Y-48971156D01*
X104751973Y-48669381D01*
X104634227Y-48385115D01*
X104463285Y-48129283D01*
X104245717Y-47911715D01*
X103989885Y-47740773D01*
X103705619Y-47623027D01*
X103489843Y-47580106D01*
X102916210Y-47006474D01*
X102900526Y-46987363D01*
X154228000Y-46987363D01*
X154228000Y-47452637D01*
X154318770Y-47908970D01*
X154496822Y-48338827D01*
X154755315Y-48725687D01*
X155084313Y-49054685D01*
X155471173Y-49313178D01*
X155901030Y-49491230D01*
X156357363Y-49582000D01*
X156822637Y-49582000D01*
X157278970Y-49491230D01*
X157708827Y-49313178D01*
X158095687Y-49054685D01*
X158424685Y-48725687D01*
X158683178Y-48338827D01*
X158861230Y-47908970D01*
X158952000Y-47452637D01*
X158952000Y-46987363D01*
X158861230Y-46531030D01*
X158683178Y-46101173D01*
X158424685Y-45714313D01*
X158095687Y-45385315D01*
X157708827Y-45126822D01*
X157278970Y-44948770D01*
X156822637Y-44858000D01*
X156357363Y-44858000D01*
X155901030Y-44948770D01*
X155471173Y-45126822D01*
X155084313Y-45385315D01*
X154755315Y-45714313D01*
X154496822Y-46101173D01*
X154318770Y-46531030D01*
X154228000Y-46987363D01*
X102900526Y-46987363D01*
X102876686Y-46958314D01*
X102684522Y-46800608D01*
X102465283Y-46683423D01*
X102227395Y-46611260D01*
X102041996Y-46593000D01*
X102041988Y-46593000D01*
X101980000Y-46586895D01*
X101918012Y-46593000D01*
X96326985Y-46593000D01*
X96264999Y-46586895D01*
X96203013Y-46593000D01*
X96203004Y-46593000D01*
X96017605Y-46611260D01*
X95779717Y-46683423D01*
X95560478Y-46800608D01*
X95560476Y-46800609D01*
X95560477Y-46800609D01*
X95416468Y-46918794D01*
X95416464Y-46918798D01*
X95368314Y-46958314D01*
X95328798Y-47006464D01*
X94146474Y-48188790D01*
X94098314Y-48228314D01*
X93940608Y-48420479D01*
X93823423Y-48639718D01*
X93789458Y-48751686D01*
X93751261Y-48877604D01*
X93751260Y-48877606D01*
X93733000Y-49063005D01*
X93733000Y-49063012D01*
X93726895Y-49125000D01*
X93733000Y-49186989D01*
X93733001Y-50507262D01*
X93202263Y-51038000D01*
X92509442Y-51038000D01*
X92499694Y-51030000D01*
X92694844Y-50869844D01*
X92890039Y-50631999D01*
X93035082Y-50360643D01*
X93124398Y-50066205D01*
X93154557Y-49760000D01*
X93124398Y-49453795D01*
X93035082Y-49159357D01*
X92890039Y-48888001D01*
X92694844Y-48650156D01*
X92456999Y-48454961D01*
X92185643Y-48309918D01*
X91891205Y-48220602D01*
X91661726Y-48198000D01*
X90708274Y-48198000D01*
X90478795Y-48220602D01*
X90184357Y-48309918D01*
X89913001Y-48454961D01*
X89675156Y-48650156D01*
X89479961Y-48888001D01*
X89334918Y-49159357D01*
X89245602Y-49453795D01*
X89215443Y-49760000D01*
X89245602Y-50066205D01*
X89334918Y-50360643D01*
X89479961Y-50631999D01*
X89675156Y-50869844D01*
X89870306Y-51030000D01*
X89675156Y-51190156D01*
X89479961Y-51428001D01*
X89334918Y-51699357D01*
X89245602Y-51993795D01*
X89215443Y-52300000D01*
X89245602Y-52606205D01*
X89334918Y-52900643D01*
X89479961Y-53171999D01*
X89675156Y-53409844D01*
X89870306Y-53570000D01*
X89675156Y-53730156D01*
X89479961Y-53968001D01*
X89334918Y-54239357D01*
X89245602Y-54533795D01*
X89215443Y-54840000D01*
X89245602Y-55146205D01*
X89334918Y-55440643D01*
X89479961Y-55711999D01*
X89675156Y-55949844D01*
X89870306Y-56110000D01*
X89675156Y-56270156D01*
X89479961Y-56508001D01*
X89334918Y-56779357D01*
X89280000Y-56960399D01*
X89225082Y-56779357D01*
X89080039Y-56508001D01*
X88884844Y-56270156D01*
X88646999Y-56074961D01*
X88375643Y-55929918D01*
X88081205Y-55840602D01*
X87851726Y-55818000D01*
X86898274Y-55818000D01*
X86668795Y-55840602D01*
X86374357Y-55929918D01*
X86103001Y-56074961D01*
X85865156Y-56270156D01*
X85669961Y-56508001D01*
X85524918Y-56779357D01*
X85435602Y-57073795D01*
X85405443Y-57380000D01*
X85435602Y-57686205D01*
X85524918Y-57980643D01*
X85669961Y-58251999D01*
X85865156Y-58489844D01*
X86060306Y-58650000D01*
X85865156Y-58810156D01*
X85669961Y-59048001D01*
X85524918Y-59319357D01*
X85435602Y-59613795D01*
X85405443Y-59920000D01*
X85435602Y-60226205D01*
X85524918Y-60520643D01*
X85669961Y-60791999D01*
X85865156Y-61029844D01*
X86060306Y-61190000D01*
X86050558Y-61198000D01*
X84261988Y-61198000D01*
X84200000Y-61191895D01*
X84138011Y-61198000D01*
X83626996Y-61198000D01*
X83565000Y-61191894D01*
X83503004Y-61198000D01*
X82991988Y-61198000D01*
X82930000Y-61191895D01*
X82868012Y-61198000D01*
X81079442Y-61198000D01*
X81069694Y-61190000D01*
X81079442Y-61182000D01*
X81598012Y-61182000D01*
X81660000Y-61188105D01*
X81721988Y-61182000D01*
X81721996Y-61182000D01*
X81907395Y-61163740D01*
X82145283Y-61091577D01*
X82364522Y-60974392D01*
X82556686Y-60816686D01*
X82596211Y-60768525D01*
X83143525Y-60221211D01*
X83191686Y-60181686D01*
X83349392Y-59989522D01*
X83466577Y-59770283D01*
X83496207Y-59672606D01*
X83538740Y-59532396D01*
X83548360Y-59434717D01*
X83557000Y-59346996D01*
X83557000Y-59346989D01*
X83563105Y-59285000D01*
X83557000Y-59223012D01*
X83557000Y-54528729D01*
X83581715Y-54565717D01*
X83799283Y-54783285D01*
X84055115Y-54954227D01*
X84339381Y-55071973D01*
X84641156Y-55132000D01*
X84948844Y-55132000D01*
X85250619Y-55071973D01*
X85534885Y-54954227D01*
X85790717Y-54783285D01*
X86008285Y-54565717D01*
X86179227Y-54309885D01*
X86296973Y-54025619D01*
X86357000Y-53723844D01*
X86357000Y-53416156D01*
X86296973Y-53114381D01*
X86179227Y-52830115D01*
X86008285Y-52574283D01*
X85790717Y-52356715D01*
X85534885Y-52185773D01*
X85250619Y-52068027D01*
X84948844Y-52008000D01*
X84641156Y-52008000D01*
X84339381Y-52068027D01*
X84055115Y-52185773D01*
X83799283Y-52356715D01*
X83581715Y-52574283D01*
X83545000Y-52629231D01*
X83508285Y-52574283D01*
X83290717Y-52356715D01*
X83034885Y-52185773D01*
X82750619Y-52068027D01*
X82448844Y-52008000D01*
X82141156Y-52008000D01*
X81839381Y-52068027D01*
X81555115Y-52185773D01*
X81299283Y-52356715D01*
X81081715Y-52574283D01*
X80910773Y-52830115D01*
X80793027Y-53114381D01*
X80733000Y-53416156D01*
X80733000Y-53723844D01*
X80793027Y-54025619D01*
X80910773Y-54309885D01*
X81033000Y-54492810D01*
X81033000Y-56079886D01*
X81026999Y-56074961D01*
X80755643Y-55929918D01*
X80461205Y-55840602D01*
X80231726Y-55818000D01*
X79278274Y-55818000D01*
X79048795Y-55840602D01*
X78754357Y-55929918D01*
X78483001Y-56074961D01*
X78245156Y-56270156D01*
X78049961Y-56508001D01*
X77904918Y-56779357D01*
X77815602Y-57073795D01*
X77785443Y-57380000D01*
X74509500Y-57380000D01*
X74509500Y-47255046D01*
X74533389Y-46987363D01*
X76440500Y-46987363D01*
X76440500Y-47452637D01*
X76531270Y-47908970D01*
X76709322Y-48338827D01*
X76967815Y-48725687D01*
X77296813Y-49054685D01*
X77683673Y-49313178D01*
X78113530Y-49491230D01*
X78569863Y-49582000D01*
X79035137Y-49582000D01*
X79491470Y-49491230D01*
X79921327Y-49313178D01*
X80308187Y-49054685D01*
X80637185Y-48725687D01*
X80895678Y-48338827D01*
X81073730Y-47908970D01*
X81164500Y-47452637D01*
X81164500Y-46987363D01*
X81073730Y-46531030D01*
X80895678Y-46101173D01*
X80637185Y-45714313D01*
X80308187Y-45385315D01*
X79921327Y-45126822D01*
X79491470Y-44948770D01*
X79035137Y-44858000D01*
X78569863Y-44858000D01*
X78113530Y-44948770D01*
X77683673Y-45126822D01*
X77296813Y-45385315D01*
X76967815Y-45714313D01*
X76709322Y-46101173D01*
X76531270Y-46531030D01*
X76440500Y-46987363D01*
X74533389Y-46987363D01*
X74580426Y-46460333D01*
X74781681Y-45724668D01*
X75110027Y-45036278D01*
X75555088Y-44416909D01*
X76102797Y-43886142D01*
X76735840Y-43460755D01*
X77434205Y-43154194D01*
X78181876Y-42974695D01*
X78831352Y-42927000D01*
X156554954Y-42927000D01*
X157349667Y-42997926D01*
G36*
X97490306Y-58650000D02*
G01*
X97295156Y-58810156D01*
X97099961Y-59048001D01*
X96954918Y-59319357D01*
X96865602Y-59613795D01*
X96835443Y-59920000D01*
X96865602Y-60226205D01*
X96954918Y-60520643D01*
X97099961Y-60791999D01*
X97295156Y-61029844D01*
X97490306Y-61190000D01*
X97295156Y-61350156D01*
X97099961Y-61588001D01*
X96954918Y-61859357D01*
X96865602Y-62153795D01*
X96835443Y-62460000D01*
X96865602Y-62766205D01*
X96954918Y-63060643D01*
X97099961Y-63331999D01*
X97295156Y-63569844D01*
X97490306Y-63730000D01*
X97295156Y-63890156D01*
X97099961Y-64128001D01*
X96954918Y-64399357D01*
X96865602Y-64693795D01*
X96835443Y-65000000D01*
X96865602Y-65306205D01*
X96954918Y-65600643D01*
X97099961Y-65871999D01*
X97256223Y-66062404D01*
X97179608Y-66103355D01*
X97063578Y-66198578D01*
X96968355Y-66314608D01*
X96897598Y-66446985D01*
X96854026Y-66590622D01*
X96839314Y-66740000D01*
X96839314Y-68340000D01*
X96854026Y-68489378D01*
X96897598Y-68633015D01*
X96968355Y-68765392D01*
X97063578Y-68881422D01*
X97179608Y-68976645D01*
X97311985Y-69047402D01*
X97455622Y-69090974D01*
X97605000Y-69105686D01*
X100005000Y-69105686D01*
X100083001Y-69098004D01*
X100083001Y-69383002D01*
X100076895Y-69445000D01*
X100101260Y-69692395D01*
X100144320Y-69834342D01*
X99911344Y-69788000D01*
X99603656Y-69788000D01*
X99301881Y-69848027D01*
X99017615Y-69965773D01*
X98834690Y-70088000D01*
X97505310Y-70088000D01*
X97322385Y-69965773D01*
X97038119Y-69848027D01*
X96736344Y-69788000D01*
X96428656Y-69788000D01*
X96126881Y-69848027D01*
X95842615Y-69965773D01*
X95586783Y-70136715D01*
X95369215Y-70354283D01*
X95198273Y-70610115D01*
X95080527Y-70894381D01*
X95020500Y-71196156D01*
X95020500Y-71503844D01*
X95080527Y-71805619D01*
X95143240Y-71957023D01*
X95107263Y-71993000D01*
X94831858Y-71993000D01*
X94909473Y-71805619D01*
X94969500Y-71503844D01*
X94969500Y-71196156D01*
X94909473Y-70894381D01*
X94791727Y-70610115D01*
X94620785Y-70354283D01*
X94403217Y-70136715D01*
X94147385Y-69965773D01*
X93863119Y-69848027D01*
X93561344Y-69788000D01*
X93253656Y-69788000D01*
X92951881Y-69848027D01*
X92667615Y-69965773D01*
X92484690Y-70088000D01*
X91155310Y-70088000D01*
X90972385Y-69965773D01*
X90688119Y-69848027D01*
X90386344Y-69788000D01*
X90137738Y-69788000D01*
X86915423Y-66565686D01*
X88575000Y-66565686D01*
X88724378Y-66550974D01*
X88868015Y-66507402D01*
X89000392Y-66436645D01*
X89116422Y-66341422D01*
X89211645Y-66225392D01*
X89282402Y-66093015D01*
X89325974Y-65949378D01*
X89340686Y-65800000D01*
X89340686Y-65611434D01*
X89479961Y-65871999D01*
X89675156Y-66109844D01*
X89870306Y-66270000D01*
X89675156Y-66430156D01*
X89479961Y-66668001D01*
X89334918Y-66939357D01*
X89245602Y-67233795D01*
X89215443Y-67540000D01*
X89245602Y-67846205D01*
X89334918Y-68140643D01*
X89479961Y-68411999D01*
X89675156Y-68649844D01*
X89913001Y-68845039D01*
X90184357Y-68990082D01*
X90478795Y-69079398D01*
X90708274Y-69102000D01*
X91661726Y-69102000D01*
X91891205Y-69079398D01*
X92185643Y-68990082D01*
X92456999Y-68845039D01*
X92694844Y-68649844D01*
X92890039Y-68411999D01*
X93035082Y-68140643D01*
X93124398Y-67846205D01*
X93154557Y-67540000D01*
X93124398Y-67233795D01*
X93035082Y-66939357D01*
X92890039Y-66668001D01*
X92694844Y-66430156D01*
X92499694Y-66270000D01*
X92509442Y-66262000D01*
X93663012Y-66262000D01*
X93725000Y-66268105D01*
X93786988Y-66262000D01*
X93786996Y-66262000D01*
X93972395Y-66243740D01*
X94210283Y-66171577D01*
X94429522Y-66054392D01*
X94621686Y-65896686D01*
X94661210Y-65848526D01*
X95843537Y-64666201D01*
X95891686Y-64626686D01*
X95931202Y-64578536D01*
X95931206Y-64578532D01*
X96026893Y-64461937D01*
X96049392Y-64434522D01*
X96166577Y-64215283D01*
X96238740Y-63977395D01*
X96257000Y-63791996D01*
X96257000Y-63791987D01*
X96263105Y-63730001D01*
X96257000Y-63668015D01*
X96257000Y-59172737D01*
X96787737Y-58642000D01*
X97480558Y-58642000D01*
X97490306Y-58650000D01*
G37*
X97490306Y-58650000D02*
X97295156Y-58810156D01*
X97099961Y-59048001D01*
X96954918Y-59319357D01*
X96865602Y-59613795D01*
X96835443Y-59920000D01*
X96865602Y-60226205D01*
X96954918Y-60520643D01*
X97099961Y-60791999D01*
X97295156Y-61029844D01*
X97490306Y-61190000D01*
X97295156Y-61350156D01*
X97099961Y-61588001D01*
X96954918Y-61859357D01*
X96865602Y-62153795D01*
X96835443Y-62460000D01*
X96865602Y-62766205D01*
X96954918Y-63060643D01*
X97099961Y-63331999D01*
X97295156Y-63569844D01*
X97490306Y-63730000D01*
X97295156Y-63890156D01*
X97099961Y-64128001D01*
X96954918Y-64399357D01*
X96865602Y-64693795D01*
X96835443Y-65000000D01*
X96865602Y-65306205D01*
X96954918Y-65600643D01*
X97099961Y-65871999D01*
X97256223Y-66062404D01*
X97179608Y-66103355D01*
X97063578Y-66198578D01*
X96968355Y-66314608D01*
X96897598Y-66446985D01*
X96854026Y-66590622D01*
X96839314Y-66740000D01*
X96839314Y-68340000D01*
X96854026Y-68489378D01*
X96897598Y-68633015D01*
X96968355Y-68765392D01*
X97063578Y-68881422D01*
X97179608Y-68976645D01*
X97311985Y-69047402D01*
X97455622Y-69090974D01*
X97605000Y-69105686D01*
X100005000Y-69105686D01*
X100083001Y-69098004D01*
X100083001Y-69383002D01*
X100076895Y-69445000D01*
X100101260Y-69692395D01*
X100144320Y-69834342D01*
X99911344Y-69788000D01*
X99603656Y-69788000D01*
X99301881Y-69848027D01*
X99017615Y-69965773D01*
X98834690Y-70088000D01*
X97505310Y-70088000D01*
X97322385Y-69965773D01*
X97038119Y-69848027D01*
X96736344Y-69788000D01*
X96428656Y-69788000D01*
X96126881Y-69848027D01*
X95842615Y-69965773D01*
X95586783Y-70136715D01*
X95369215Y-70354283D01*
X95198273Y-70610115D01*
X95080527Y-70894381D01*
X95020500Y-71196156D01*
X95020500Y-71503844D01*
X95080527Y-71805619D01*
X95143240Y-71957023D01*
X95107263Y-71993000D01*
X94831858Y-71993000D01*
X94909473Y-71805619D01*
X94969500Y-71503844D01*
X94969500Y-71196156D01*
X94909473Y-70894381D01*
X94791727Y-70610115D01*
X94620785Y-70354283D01*
X94403217Y-70136715D01*
X94147385Y-69965773D01*
X93863119Y-69848027D01*
X93561344Y-69788000D01*
X93253656Y-69788000D01*
X92951881Y-69848027D01*
X92667615Y-69965773D01*
X92484690Y-70088000D01*
X91155310Y-70088000D01*
X90972385Y-69965773D01*
X90688119Y-69848027D01*
X90386344Y-69788000D01*
X90137738Y-69788000D01*
X86915423Y-66565686D01*
X88575000Y-66565686D01*
X88724378Y-66550974D01*
X88868015Y-66507402D01*
X89000392Y-66436645D01*
X89116422Y-66341422D01*
X89211645Y-66225392D01*
X89282402Y-66093015D01*
X89325974Y-65949378D01*
X89340686Y-65800000D01*
X89340686Y-65611434D01*
X89479961Y-65871999D01*
X89675156Y-66109844D01*
X89870306Y-66270000D01*
X89675156Y-66430156D01*
X89479961Y-66668001D01*
X89334918Y-66939357D01*
X89245602Y-67233795D01*
X89215443Y-67540000D01*
X89245602Y-67846205D01*
X89334918Y-68140643D01*
X89479961Y-68411999D01*
X89675156Y-68649844D01*
X89913001Y-68845039D01*
X90184357Y-68990082D01*
X90478795Y-69079398D01*
X90708274Y-69102000D01*
X91661726Y-69102000D01*
X91891205Y-69079398D01*
X92185643Y-68990082D01*
X92456999Y-68845039D01*
X92694844Y-68649844D01*
X92890039Y-68411999D01*
X93035082Y-68140643D01*
X93124398Y-67846205D01*
X93154557Y-67540000D01*
X93124398Y-67233795D01*
X93035082Y-66939357D01*
X92890039Y-66668001D01*
X92694844Y-66430156D01*
X92499694Y-66270000D01*
X92509442Y-66262000D01*
X93663012Y-66262000D01*
X93725000Y-66268105D01*
X93786988Y-66262000D01*
X93786996Y-66262000D01*
X93972395Y-66243740D01*
X94210283Y-66171577D01*
X94429522Y-66054392D01*
X94621686Y-65896686D01*
X94661210Y-65848526D01*
X95843537Y-64666201D01*
X95891686Y-64626686D01*
X95931202Y-64578536D01*
X95931206Y-64578532D01*
X96026893Y-64461937D01*
X96049392Y-64434522D01*
X96166577Y-64215283D01*
X96238740Y-63977395D01*
X96257000Y-63791996D01*
X96257000Y-63791987D01*
X96263105Y-63730001D01*
X96257000Y-63668015D01*
X96257000Y-59172737D01*
X96787737Y-58642000D01*
X97480558Y-58642000D01*
X97490306Y-58650000D01*
D22*
%TO.N,GND*%
G36*
X115954628Y-64895933D02*
G01*
X116195000Y-64919608D01*
X117032892Y-64919608D01*
X117032892Y-65232500D01*
X117051283Y-65419223D01*
X117105748Y-65598769D01*
X117194194Y-65764241D01*
X117313222Y-65909278D01*
X117458259Y-66028306D01*
X117623731Y-66116752D01*
X117803277Y-66171217D01*
X117990000Y-66189608D01*
X119790000Y-66189608D01*
X119976723Y-66171217D01*
X120096114Y-66135000D01*
X124285928Y-66135000D01*
X124325748Y-66266269D01*
X124414194Y-66431741D01*
X124533222Y-66576778D01*
X124678259Y-66695806D01*
X124843731Y-66784252D01*
X125023277Y-66838717D01*
X125210000Y-66857108D01*
X127010000Y-66857108D01*
X127196723Y-66838717D01*
X127376269Y-66784252D01*
X127541741Y-66695806D01*
X127681673Y-66580967D01*
X127772512Y-66641664D01*
X128109646Y-66781309D01*
X128467545Y-66852500D01*
X128832455Y-66852500D01*
X129190354Y-66781309D01*
X129527488Y-66641664D01*
X129810591Y-66452500D01*
X131858355Y-66452500D01*
X132277501Y-66871646D01*
X132277500Y-73861902D01*
X132176954Y-74012380D01*
X132044847Y-74331314D01*
X131977500Y-74669894D01*
X131977500Y-74977500D01*
X129810591Y-74977500D01*
X129527488Y-74788336D01*
X129190354Y-74648691D01*
X128832455Y-74577500D01*
X128467545Y-74577500D01*
X128109646Y-74648691D01*
X127772512Y-74788336D01*
X127681673Y-74849033D01*
X127541741Y-74734194D01*
X127376269Y-74645748D01*
X127196723Y-74591283D01*
X127010000Y-74572892D01*
X125210000Y-74572892D01*
X125023277Y-74591283D01*
X124843731Y-74645748D01*
X124678259Y-74734194D01*
X124533222Y-74853222D01*
X124414194Y-74998259D01*
X124387500Y-75048200D01*
X124387500Y-72373846D01*
X124394527Y-72302499D01*
X124387500Y-72231152D01*
X124387500Y-72231142D01*
X124366484Y-72017760D01*
X124283428Y-71743963D01*
X124148554Y-71491631D01*
X124148553Y-71491629D01*
X124012530Y-71325884D01*
X124012520Y-71325874D01*
X123967041Y-71270458D01*
X123911626Y-71224980D01*
X122742532Y-70055888D01*
X122697042Y-70000458D01*
X122475870Y-69818947D01*
X122223537Y-69684072D01*
X121949740Y-69601016D01*
X121736358Y-69580000D01*
X121736347Y-69580000D01*
X121665000Y-69572973D01*
X121593653Y-69580000D01*
X120434432Y-69580000D01*
X120539460Y-69452023D01*
X120653319Y-69239007D01*
X120723433Y-69007872D01*
X120747108Y-68767500D01*
X120747108Y-68217500D01*
X120723433Y-67977128D01*
X120653319Y-67745993D01*
X120539460Y-67532977D01*
X120386232Y-67346268D01*
X120199523Y-67193040D01*
X119986507Y-67079181D01*
X119755372Y-67009067D01*
X119515000Y-66985392D01*
X118265000Y-66985392D01*
X118024628Y-67009067D01*
X117793493Y-67079181D01*
X117580477Y-67193040D01*
X117393768Y-67346268D01*
X117240540Y-67532977D01*
X117126681Y-67745993D01*
X117056567Y-67977128D01*
X117032892Y-68217500D01*
X117032892Y-68255392D01*
X116195000Y-68255392D01*
X115954628Y-68279067D01*
X115852656Y-68310000D01*
X115162500Y-68310000D01*
X115162500Y-68002394D01*
X115095153Y-67663814D01*
X114963046Y-67344880D01*
X114862500Y-67194402D01*
X114862500Y-65980598D01*
X114963046Y-65830120D01*
X115095153Y-65511186D01*
X115162500Y-65172606D01*
X115162500Y-64865000D01*
X115852656Y-64865000D01*
X115954628Y-64895933D01*
G37*
X115954628Y-64895933D02*
X116195000Y-64919608D01*
X117032892Y-64919608D01*
X117032892Y-65232500D01*
X117051283Y-65419223D01*
X117105748Y-65598769D01*
X117194194Y-65764241D01*
X117313222Y-65909278D01*
X117458259Y-66028306D01*
X117623731Y-66116752D01*
X117803277Y-66171217D01*
X117990000Y-66189608D01*
X119790000Y-66189608D01*
X119976723Y-66171217D01*
X120096114Y-66135000D01*
X124285928Y-66135000D01*
X124325748Y-66266269D01*
X124414194Y-66431741D01*
X124533222Y-66576778D01*
X124678259Y-66695806D01*
X124843731Y-66784252D01*
X125023277Y-66838717D01*
X125210000Y-66857108D01*
X127010000Y-66857108D01*
X127196723Y-66838717D01*
X127376269Y-66784252D01*
X127541741Y-66695806D01*
X127681673Y-66580967D01*
X127772512Y-66641664D01*
X128109646Y-66781309D01*
X128467545Y-66852500D01*
X128832455Y-66852500D01*
X129190354Y-66781309D01*
X129527488Y-66641664D01*
X129810591Y-66452500D01*
X131858355Y-66452500D01*
X132277501Y-66871646D01*
X132277500Y-73861902D01*
X132176954Y-74012380D01*
X132044847Y-74331314D01*
X131977500Y-74669894D01*
X131977500Y-74977500D01*
X129810591Y-74977500D01*
X129527488Y-74788336D01*
X129190354Y-74648691D01*
X128832455Y-74577500D01*
X128467545Y-74577500D01*
X128109646Y-74648691D01*
X127772512Y-74788336D01*
X127681673Y-74849033D01*
X127541741Y-74734194D01*
X127376269Y-74645748D01*
X127196723Y-74591283D01*
X127010000Y-74572892D01*
X125210000Y-74572892D01*
X125023277Y-74591283D01*
X124843731Y-74645748D01*
X124678259Y-74734194D01*
X124533222Y-74853222D01*
X124414194Y-74998259D01*
X124387500Y-75048200D01*
X124387500Y-72373846D01*
X124394527Y-72302499D01*
X124387500Y-72231152D01*
X124387500Y-72231142D01*
X124366484Y-72017760D01*
X124283428Y-71743963D01*
X124148554Y-71491631D01*
X124148553Y-71491629D01*
X124012530Y-71325884D01*
X124012520Y-71325874D01*
X123967041Y-71270458D01*
X123911626Y-71224980D01*
X122742532Y-70055888D01*
X122697042Y-70000458D01*
X122475870Y-69818947D01*
X122223537Y-69684072D01*
X121949740Y-69601016D01*
X121736358Y-69580000D01*
X121736347Y-69580000D01*
X121665000Y-69572973D01*
X121593653Y-69580000D01*
X120434432Y-69580000D01*
X120539460Y-69452023D01*
X120653319Y-69239007D01*
X120723433Y-69007872D01*
X120747108Y-68767500D01*
X120747108Y-68217500D01*
X120723433Y-67977128D01*
X120653319Y-67745993D01*
X120539460Y-67532977D01*
X120386232Y-67346268D01*
X120199523Y-67193040D01*
X119986507Y-67079181D01*
X119755372Y-67009067D01*
X119515000Y-66985392D01*
X118265000Y-66985392D01*
X118024628Y-67009067D01*
X117793493Y-67079181D01*
X117580477Y-67193040D01*
X117393768Y-67346268D01*
X117240540Y-67532977D01*
X117126681Y-67745993D01*
X117056567Y-67977128D01*
X117032892Y-68217500D01*
X117032892Y-68255392D01*
X116195000Y-68255392D01*
X115954628Y-68279067D01*
X115852656Y-68310000D01*
X115162500Y-68310000D01*
X115162500Y-68002394D01*
X115095153Y-67663814D01*
X114963046Y-67344880D01*
X114862500Y-67194402D01*
X114862500Y-65980598D01*
X114963046Y-65830120D01*
X115095153Y-65511186D01*
X115162500Y-65172606D01*
X115162500Y-64865000D01*
X115852656Y-64865000D01*
X115954628Y-64895933D01*
D21*
G36*
X96954918Y-49159357D02*
G01*
X96865602Y-49453795D01*
X96835443Y-49760000D01*
X96865602Y-50066205D01*
X96954918Y-50360643D01*
X97099961Y-50631999D01*
X97295156Y-50869844D01*
X97490306Y-51030000D01*
X97295156Y-51190156D01*
X97099961Y-51428001D01*
X96954918Y-51699357D01*
X96865602Y-51993795D01*
X96835443Y-52300000D01*
X96865602Y-52606205D01*
X96954918Y-52900643D01*
X97099961Y-53171999D01*
X97295156Y-53409844D01*
X97490306Y-53570000D01*
X97295156Y-53730156D01*
X97099961Y-53968001D01*
X96954918Y-54239357D01*
X96865602Y-54533795D01*
X96835443Y-54840000D01*
X96865602Y-55146205D01*
X96954918Y-55440643D01*
X97099961Y-55711999D01*
X97295156Y-55949844D01*
X97490306Y-56110000D01*
X97480558Y-56118000D01*
X96326985Y-56118000D01*
X96264999Y-56111895D01*
X96203013Y-56118000D01*
X96203004Y-56118000D01*
X96017605Y-56136260D01*
X95779717Y-56208423D01*
X95560478Y-56325608D01*
X95560476Y-56325609D01*
X95560477Y-56325609D01*
X95416468Y-56443794D01*
X95416464Y-56443798D01*
X95368314Y-56483314D01*
X95328798Y-56531464D01*
X94146470Y-57713794D01*
X94098315Y-57753314D01*
X94058795Y-57801469D01*
X94058794Y-57801470D01*
X93940609Y-57945478D01*
X93823424Y-58164717D01*
X93751260Y-58402605D01*
X93726895Y-58650000D01*
X93733001Y-58711998D01*
X93733000Y-63207262D01*
X93202263Y-63738000D01*
X92509442Y-63738000D01*
X92499694Y-63730000D01*
X92694844Y-63569844D01*
X92890039Y-63331999D01*
X93035082Y-63060643D01*
X93124398Y-62766205D01*
X93154557Y-62460000D01*
X93124398Y-62153795D01*
X93035082Y-61859357D01*
X92890039Y-61588001D01*
X92694844Y-61350156D01*
X92499694Y-61190000D01*
X92694844Y-61029844D01*
X92890039Y-60791999D01*
X93035082Y-60520643D01*
X93124398Y-60226205D01*
X93154557Y-59920000D01*
X93124398Y-59613795D01*
X93035082Y-59319357D01*
X92890039Y-59048001D01*
X92694844Y-58810156D01*
X92499694Y-58650000D01*
X92694844Y-58489844D01*
X92890039Y-58251999D01*
X93035082Y-57980643D01*
X93124398Y-57686205D01*
X93154557Y-57380000D01*
X93124398Y-57073795D01*
X93035082Y-56779357D01*
X92890039Y-56508001D01*
X92694844Y-56270156D01*
X92499694Y-56110000D01*
X92694844Y-55949844D01*
X92890039Y-55711999D01*
X93035082Y-55440643D01*
X93124398Y-55146205D01*
X93154557Y-54840000D01*
X93124398Y-54533795D01*
X93035082Y-54239357D01*
X92890039Y-53968001D01*
X92694844Y-53730156D01*
X92499694Y-53570000D01*
X92509442Y-53562000D01*
X93663012Y-53562000D01*
X93725000Y-53568105D01*
X93786988Y-53562000D01*
X93786996Y-53562000D01*
X93972395Y-53543740D01*
X94210283Y-53471577D01*
X94429522Y-53354392D01*
X94621686Y-53196686D01*
X94661210Y-53148526D01*
X95843536Y-51966202D01*
X95891686Y-51926686D01*
X95931202Y-51878536D01*
X95931206Y-51878532D01*
X96049391Y-51734523D01*
X96166576Y-51515284D01*
X96166577Y-51515283D01*
X96238740Y-51277395D01*
X96257000Y-51091996D01*
X96257000Y-51091987D01*
X96263105Y-51030001D01*
X96257000Y-50968015D01*
X96257000Y-49647737D01*
X96787737Y-49117000D01*
X96977558Y-49117000D01*
X96954918Y-49159357D01*
G37*
X96954918Y-49159357D02*
X96865602Y-49453795D01*
X96835443Y-49760000D01*
X96865602Y-50066205D01*
X96954918Y-50360643D01*
X97099961Y-50631999D01*
X97295156Y-50869844D01*
X97490306Y-51030000D01*
X97295156Y-51190156D01*
X97099961Y-51428001D01*
X96954918Y-51699357D01*
X96865602Y-51993795D01*
X96835443Y-52300000D01*
X96865602Y-52606205D01*
X96954918Y-52900643D01*
X97099961Y-53171999D01*
X97295156Y-53409844D01*
X97490306Y-53570000D01*
X97295156Y-53730156D01*
X97099961Y-53968001D01*
X96954918Y-54239357D01*
X96865602Y-54533795D01*
X96835443Y-54840000D01*
X96865602Y-55146205D01*
X96954918Y-55440643D01*
X97099961Y-55711999D01*
X97295156Y-55949844D01*
X97490306Y-56110000D01*
X97480558Y-56118000D01*
X96326985Y-56118000D01*
X96264999Y-56111895D01*
X96203013Y-56118000D01*
X96203004Y-56118000D01*
X96017605Y-56136260D01*
X95779717Y-56208423D01*
X95560478Y-56325608D01*
X95560476Y-56325609D01*
X95560477Y-56325609D01*
X95416468Y-56443794D01*
X95416464Y-56443798D01*
X95368314Y-56483314D01*
X95328798Y-56531464D01*
X94146470Y-57713794D01*
X94098315Y-57753314D01*
X94058795Y-57801469D01*
X94058794Y-57801470D01*
X93940609Y-57945478D01*
X93823424Y-58164717D01*
X93751260Y-58402605D01*
X93726895Y-58650000D01*
X93733001Y-58711998D01*
X93733000Y-63207262D01*
X93202263Y-63738000D01*
X92509442Y-63738000D01*
X92499694Y-63730000D01*
X92694844Y-63569844D01*
X92890039Y-63331999D01*
X93035082Y-63060643D01*
X93124398Y-62766205D01*
X93154557Y-62460000D01*
X93124398Y-62153795D01*
X93035082Y-61859357D01*
X92890039Y-61588001D01*
X92694844Y-61350156D01*
X92499694Y-61190000D01*
X92694844Y-61029844D01*
X92890039Y-60791999D01*
X93035082Y-60520643D01*
X93124398Y-60226205D01*
X93154557Y-59920000D01*
X93124398Y-59613795D01*
X93035082Y-59319357D01*
X92890039Y-59048001D01*
X92694844Y-58810156D01*
X92499694Y-58650000D01*
X92694844Y-58489844D01*
X92890039Y-58251999D01*
X93035082Y-57980643D01*
X93124398Y-57686205D01*
X93154557Y-57380000D01*
X93124398Y-57073795D01*
X93035082Y-56779357D01*
X92890039Y-56508001D01*
X92694844Y-56270156D01*
X92499694Y-56110000D01*
X92694844Y-55949844D01*
X92890039Y-55711999D01*
X93035082Y-55440643D01*
X93124398Y-55146205D01*
X93154557Y-54840000D01*
X93124398Y-54533795D01*
X93035082Y-54239357D01*
X92890039Y-53968001D01*
X92694844Y-53730156D01*
X92499694Y-53570000D01*
X92509442Y-53562000D01*
X93663012Y-53562000D01*
X93725000Y-53568105D01*
X93786988Y-53562000D01*
X93786996Y-53562000D01*
X93972395Y-53543740D01*
X94210283Y-53471577D01*
X94429522Y-53354392D01*
X94621686Y-53196686D01*
X94661210Y-53148526D01*
X95843536Y-51966202D01*
X95891686Y-51926686D01*
X95931202Y-51878536D01*
X95931206Y-51878532D01*
X96049391Y-51734523D01*
X96166576Y-51515284D01*
X96166577Y-51515283D01*
X96238740Y-51277395D01*
X96257000Y-51091996D01*
X96257000Y-51091987D01*
X96263105Y-51030001D01*
X96257000Y-50968015D01*
X96257000Y-49647737D01*
X96787737Y-49117000D01*
X96977558Y-49117000D01*
X96954918Y-49159357D01*
%TD*%
M02*
