M48
; DRILL file {KiCad (5.1.6)-1} date 03/10/21 22:21:55
; FORMAT={-:-/ absolute / inch / decimal}
; #@! TF.CreationDate,2021-03-10T22:21:55+01:00
; #@! TF.GenerationSoftware,Kicad,Pcbnew,(5.1.6)-1
; #@! TF.FileFunction,Plated,1,2,PTH
FMAT,2
INCH
T1C0.0295
T2C0.0315
T3C0.0354
T4C0.0394
T5C0.0433
%
G90
G05
T1
X4.615Y-2.2466
X4.665Y-2.1966
X4.665Y-2.2966
X3.29Y-2.7591
X3.29Y-2.8591
X3.34Y-2.8091
X4.615Y-2.4966
X4.665Y-2.4466
X4.665Y-2.5466
X4.615Y-1.9966
X4.665Y-1.9466
X4.665Y-2.0466
X4.615Y-2.7466
X4.665Y-2.6966
X4.665Y-2.7966
T2
X5.265Y-2.1716
X5.665Y-2.1716
X5.265Y-2.0466
X5.665Y-2.0466
X3.9275Y-2.8091
X3.9275Y-3.2091
X3.8025Y-2.8091
X3.8025Y-3.2091
X3.24Y-2.1091
X3.3384Y-2.1091
X3.59Y-1.9591
X3.59Y-2.0591
X3.59Y-2.1591
X3.59Y-2.2591
X3.59Y-2.3591
X3.59Y-2.4591
X3.59Y-2.5591
X3.59Y-2.6591
X3.89Y-1.9591
X3.89Y-2.0591
X3.89Y-2.1591
X3.89Y-2.2591
X3.89Y-2.3591
X3.89Y-2.4591
X3.89Y-2.5591
X3.89Y-2.6591
X4.065Y-2.0591
X4.465Y-2.0591
X4.065Y-2.6841
X4.465Y-2.6841
X5.265Y-3.0716
X5.665Y-3.0716
X3.5525Y-2.8091
X3.5525Y-3.2091
X3.24Y-3.0716
X3.3384Y-3.0716
X3.6775Y-2.8091
X3.6775Y-3.2091
X4.065Y-2.4341
X4.465Y-2.4341
X4.065Y-2.3091
X4.465Y-2.3091
X5.265Y-2.9466
X5.665Y-2.9466
X3.14Y-2.2591
X3.14Y-2.3591
X3.14Y-2.4591
X3.14Y-2.5591
X3.44Y-2.2591
X3.44Y-2.3591
X3.44Y-2.4591
X3.44Y-2.5591
X4.065Y-2.5591
X4.465Y-2.5591
X4.065Y-2.1841
X4.465Y-2.1841
X4.065Y-1.9341
X4.465Y-1.9341
X4.065Y-2.8091
X4.465Y-2.8091
T3
X5.865Y-2.5591
X5.965Y-2.5591
X4.965Y-3.0091
X5.065Y-3.0091
X5.865Y-2.1091
X5.965Y-2.1091
X4.965Y-2.5591
X5.065Y-2.5591
X4.965Y-2.1091
X5.065Y-2.1091
X5.865Y-3.0091
X5.965Y-3.0091
X5.415Y-2.5591
X5.515Y-2.5591
T4
X4.665Y-2.9841
X4.665Y-3.1841
T5
X4.137Y-2.9955
X4.137Y-3.1726
X4.3929Y-2.9955
X4.3929Y-3.1726
T0
M30
