%TF.GenerationSoftware,KiCad,Pcbnew,(5.1.6)-1*%
%TF.CreationDate,2021-03-10T22:21:53+01:00*%
%TF.ProjectId,555_Dice,3535355f-4469-4636-952e-6b696361645f,rev?*%
%TF.SameCoordinates,Original*%
%TF.FileFunction,Soldermask,Bot*%
%TF.FilePolarity,Negative*%
%FSLAX46Y46*%
G04 Gerber Fmt 4.6, Leading zero omitted, Abs format (unit mm)*
G04 Created by KiCad (PCBNEW (5.1.6)-1) date 2021-03-10 22:21:53*
%MOMM*%
%LPD*%
G01*
G04 APERTURE LIST*
%ADD10C,0.100000*%
G04 APERTURE END LIST*
D10*
G36*
X157085872Y-81145330D02*
G01*
X157395252Y-81273479D01*
X157673687Y-81459523D01*
X157910477Y-81696313D01*
X158096521Y-81974748D01*
X158224670Y-82284128D01*
X158290000Y-82612565D01*
X158290000Y-82947435D01*
X158224670Y-83275872D01*
X158096521Y-83585252D01*
X157910477Y-83863687D01*
X157673687Y-84100477D01*
X157395252Y-84286521D01*
X157085872Y-84414670D01*
X156757435Y-84480000D01*
X156422565Y-84480000D01*
X156094128Y-84414670D01*
X155784748Y-84286521D01*
X155506313Y-84100477D01*
X155269523Y-83863687D01*
X155083479Y-83585252D01*
X154955330Y-83275872D01*
X154890000Y-82947435D01*
X154890000Y-82612565D01*
X154955330Y-82284128D01*
X155083479Y-81974748D01*
X155269523Y-81696313D01*
X155506313Y-81459523D01*
X155784748Y-81273479D01*
X156094128Y-81145330D01*
X156422565Y-81080000D01*
X156757435Y-81080000D01*
X157085872Y-81145330D01*
G37*
G36*
X79298372Y-81145330D02*
G01*
X79607752Y-81273479D01*
X79886187Y-81459523D01*
X80122977Y-81696313D01*
X80309021Y-81974748D01*
X80437170Y-82284128D01*
X80502500Y-82612565D01*
X80502500Y-82947435D01*
X80437170Y-83275872D01*
X80309021Y-83585252D01*
X80122977Y-83863687D01*
X79886187Y-84100477D01*
X79607752Y-84286521D01*
X79298372Y-84414670D01*
X78969935Y-84480000D01*
X78635065Y-84480000D01*
X78306628Y-84414670D01*
X77997248Y-84286521D01*
X77718813Y-84100477D01*
X77482023Y-83863687D01*
X77295979Y-83585252D01*
X77167830Y-83275872D01*
X77102500Y-82947435D01*
X77102500Y-82612565D01*
X77167830Y-82284128D01*
X77295979Y-81974748D01*
X77482023Y-81696313D01*
X77718813Y-81459523D01*
X77997248Y-81273479D01*
X78306628Y-81145330D01*
X78635065Y-81080000D01*
X78969935Y-81080000D01*
X79298372Y-81145330D01*
G37*
G36*
X120090000Y-82475000D02*
G01*
X116890000Y-82475000D01*
X116890000Y-79275000D01*
X120090000Y-79275000D01*
X120090000Y-82475000D01*
G37*
G36*
X90495020Y-80644586D02*
G01*
X90495023Y-80644587D01*
X90495022Y-80644587D01*
X90658812Y-80712431D01*
X90708168Y-80745410D01*
X90806217Y-80810924D01*
X90931576Y-80936283D01*
X90997090Y-81034332D01*
X91027605Y-81080000D01*
X91030070Y-81083690D01*
X91097914Y-81247480D01*
X91132500Y-81421358D01*
X91132500Y-81598642D01*
X91097914Y-81772520D01*
X91030070Y-81936310D01*
X90931576Y-82083717D01*
X90806217Y-82209076D01*
X90708168Y-82274590D01*
X90658812Y-82307569D01*
X90658811Y-82307570D01*
X90658810Y-82307570D01*
X90495020Y-82375414D01*
X90321142Y-82410000D01*
X90143858Y-82410000D01*
X89969980Y-82375414D01*
X89806190Y-82307570D01*
X89806189Y-82307570D01*
X89806188Y-82307569D01*
X89756832Y-82274590D01*
X89658783Y-82209076D01*
X89533424Y-82083717D01*
X89434930Y-81936310D01*
X89367086Y-81772520D01*
X89332500Y-81598642D01*
X89332500Y-81421358D01*
X89367086Y-81247480D01*
X89434930Y-81083690D01*
X89437396Y-81080000D01*
X89467910Y-81034332D01*
X89533424Y-80936283D01*
X89658783Y-80810924D01*
X89756832Y-80745410D01*
X89806188Y-80712431D01*
X89969978Y-80644587D01*
X89969977Y-80644587D01*
X89969980Y-80644586D01*
X90143858Y-80610000D01*
X90321142Y-80610000D01*
X90495020Y-80644586D01*
G37*
G36*
X100020020Y-80644586D02*
G01*
X100020023Y-80644587D01*
X100020022Y-80644587D01*
X100183812Y-80712431D01*
X100233168Y-80745410D01*
X100331217Y-80810924D01*
X100456576Y-80936283D01*
X100522090Y-81034332D01*
X100552605Y-81080000D01*
X100555070Y-81083690D01*
X100622914Y-81247480D01*
X100657500Y-81421358D01*
X100657500Y-81598642D01*
X100622914Y-81772520D01*
X100555070Y-81936310D01*
X100456576Y-82083717D01*
X100331217Y-82209076D01*
X100233168Y-82274590D01*
X100183812Y-82307569D01*
X100183811Y-82307570D01*
X100183810Y-82307570D01*
X100020020Y-82375414D01*
X99846142Y-82410000D01*
X99668858Y-82410000D01*
X99494980Y-82375414D01*
X99331190Y-82307570D01*
X99331189Y-82307570D01*
X99331188Y-82307569D01*
X99281832Y-82274590D01*
X99183783Y-82209076D01*
X99058424Y-82083717D01*
X98959930Y-81936310D01*
X98892086Y-81772520D01*
X98857500Y-81598642D01*
X98857500Y-81421358D01*
X98892086Y-81247480D01*
X98959930Y-81083690D01*
X98962396Y-81080000D01*
X98992910Y-81034332D01*
X99058424Y-80936283D01*
X99183783Y-80810924D01*
X99281832Y-80745410D01*
X99331188Y-80712431D01*
X99494978Y-80644587D01*
X99494977Y-80644587D01*
X99494980Y-80644586D01*
X99668858Y-80610000D01*
X99846142Y-80610000D01*
X100020020Y-80644586D01*
G37*
G36*
X96845020Y-80644586D02*
G01*
X96845023Y-80644587D01*
X96845022Y-80644587D01*
X97008812Y-80712431D01*
X97058168Y-80745410D01*
X97156217Y-80810924D01*
X97281576Y-80936283D01*
X97347090Y-81034332D01*
X97377605Y-81080000D01*
X97380070Y-81083690D01*
X97447914Y-81247480D01*
X97482500Y-81421358D01*
X97482500Y-81598642D01*
X97447914Y-81772520D01*
X97380070Y-81936310D01*
X97281576Y-82083717D01*
X97156217Y-82209076D01*
X97058168Y-82274590D01*
X97008812Y-82307569D01*
X97008811Y-82307570D01*
X97008810Y-82307570D01*
X96845020Y-82375414D01*
X96671142Y-82410000D01*
X96493858Y-82410000D01*
X96319980Y-82375414D01*
X96156190Y-82307570D01*
X96156189Y-82307570D01*
X96156188Y-82307569D01*
X96106832Y-82274590D01*
X96008783Y-82209076D01*
X95883424Y-82083717D01*
X95784930Y-81936310D01*
X95717086Y-81772520D01*
X95682500Y-81598642D01*
X95682500Y-81421358D01*
X95717086Y-81247480D01*
X95784930Y-81083690D01*
X95787396Y-81080000D01*
X95817910Y-81034332D01*
X95883424Y-80936283D01*
X96008783Y-80810924D01*
X96106832Y-80745410D01*
X96156188Y-80712431D01*
X96319978Y-80644587D01*
X96319977Y-80644587D01*
X96319980Y-80644586D01*
X96493858Y-80610000D01*
X96671142Y-80610000D01*
X96845020Y-80644586D01*
G37*
G36*
X93670020Y-80644586D02*
G01*
X93670023Y-80644587D01*
X93670022Y-80644587D01*
X93833812Y-80712431D01*
X93883168Y-80745410D01*
X93981217Y-80810924D01*
X94106576Y-80936283D01*
X94172090Y-81034332D01*
X94202605Y-81080000D01*
X94205070Y-81083690D01*
X94272914Y-81247480D01*
X94307500Y-81421358D01*
X94307500Y-81598642D01*
X94272914Y-81772520D01*
X94205070Y-81936310D01*
X94106576Y-82083717D01*
X93981217Y-82209076D01*
X93883168Y-82274590D01*
X93833812Y-82307569D01*
X93833811Y-82307570D01*
X93833810Y-82307570D01*
X93670020Y-82375414D01*
X93496142Y-82410000D01*
X93318858Y-82410000D01*
X93144980Y-82375414D01*
X92981190Y-82307570D01*
X92981189Y-82307570D01*
X92981188Y-82307569D01*
X92931832Y-82274590D01*
X92833783Y-82209076D01*
X92708424Y-82083717D01*
X92609930Y-81936310D01*
X92542086Y-81772520D01*
X92507500Y-81598642D01*
X92507500Y-81421358D01*
X92542086Y-81247480D01*
X92609930Y-81083690D01*
X92612396Y-81080000D01*
X92642910Y-81034332D01*
X92708424Y-80936283D01*
X92833783Y-80810924D01*
X92931832Y-80745410D01*
X92981188Y-80712431D01*
X93144978Y-80644587D01*
X93144977Y-80644587D01*
X93144980Y-80644586D01*
X93318858Y-80610000D01*
X93496142Y-80610000D01*
X93670020Y-80644586D01*
G37*
G36*
X111794599Y-79506136D02*
G01*
X111900860Y-79527273D01*
X112101047Y-79610193D01*
X112281209Y-79730574D01*
X112434426Y-79883791D01*
X112554807Y-80063953D01*
X112637727Y-80264140D01*
X112637727Y-80264142D01*
X112680000Y-80476659D01*
X112680000Y-80693341D01*
X112658863Y-80799600D01*
X112637727Y-80905860D01*
X112554807Y-81106047D01*
X112434426Y-81286209D01*
X112281209Y-81439426D01*
X112101047Y-81559807D01*
X111900860Y-81642727D01*
X111794599Y-81663864D01*
X111688341Y-81685000D01*
X111471659Y-81685000D01*
X111365401Y-81663864D01*
X111259140Y-81642727D01*
X111058953Y-81559807D01*
X110878791Y-81439426D01*
X110725574Y-81286209D01*
X110605193Y-81106047D01*
X110522273Y-80905860D01*
X110501137Y-80799600D01*
X110480000Y-80693341D01*
X110480000Y-80476659D01*
X110522273Y-80264142D01*
X110522273Y-80264140D01*
X110605193Y-80063953D01*
X110725574Y-79883791D01*
X110878791Y-79730574D01*
X111058953Y-79610193D01*
X111259140Y-79527273D01*
X111365401Y-79506136D01*
X111471659Y-79485000D01*
X111688341Y-79485000D01*
X111794599Y-79506136D01*
G37*
G36*
X105294599Y-79506136D02*
G01*
X105400860Y-79527273D01*
X105601047Y-79610193D01*
X105781209Y-79730574D01*
X105934426Y-79883791D01*
X106054807Y-80063953D01*
X106137727Y-80264140D01*
X106137727Y-80264142D01*
X106180000Y-80476659D01*
X106180000Y-80693341D01*
X106158863Y-80799600D01*
X106137727Y-80905860D01*
X106054807Y-81106047D01*
X105934426Y-81286209D01*
X105781209Y-81439426D01*
X105601047Y-81559807D01*
X105400860Y-81642727D01*
X105294599Y-81663864D01*
X105188341Y-81685000D01*
X104971659Y-81685000D01*
X104865401Y-81663864D01*
X104759140Y-81642727D01*
X104558953Y-81559807D01*
X104378791Y-81439426D01*
X104225574Y-81286209D01*
X104105193Y-81106047D01*
X104022273Y-80905860D01*
X104001137Y-80799600D01*
X103980000Y-80693341D01*
X103980000Y-80476659D01*
X104022273Y-80264142D01*
X104022273Y-80264140D01*
X104105193Y-80063953D01*
X104225574Y-79883791D01*
X104378791Y-79730574D01*
X104558953Y-79610193D01*
X104759140Y-79527273D01*
X104865401Y-79506136D01*
X104971659Y-79485000D01*
X105188341Y-79485000D01*
X105294599Y-79506136D01*
G37*
G36*
X83195000Y-78917500D02*
G01*
X81395000Y-78917500D01*
X81395000Y-77117500D01*
X83195000Y-77117500D01*
X83195000Y-78917500D01*
G37*
G36*
X133992520Y-77152086D02*
G01*
X133992523Y-77152087D01*
X133992522Y-77152087D01*
X134156312Y-77219931D01*
X134205668Y-77252910D01*
X134303717Y-77318424D01*
X134429076Y-77443783D01*
X134527570Y-77591190D01*
X134595414Y-77754980D01*
X134630000Y-77928858D01*
X134630000Y-78106142D01*
X134595414Y-78280020D01*
X134527570Y-78443810D01*
X134429076Y-78591217D01*
X134303717Y-78716576D01*
X134205668Y-78782090D01*
X134156312Y-78815069D01*
X134156311Y-78815070D01*
X134156310Y-78815070D01*
X133992520Y-78882914D01*
X133818642Y-78917500D01*
X133641358Y-78917500D01*
X133467480Y-78882914D01*
X133303690Y-78815070D01*
X133303689Y-78815070D01*
X133303688Y-78815069D01*
X133254332Y-78782090D01*
X133156283Y-78716576D01*
X133030924Y-78591217D01*
X132932430Y-78443810D01*
X132864586Y-78280020D01*
X132830000Y-78106142D01*
X132830000Y-77928858D01*
X132864586Y-77754980D01*
X132932430Y-77591190D01*
X133030924Y-77443783D01*
X133156283Y-77318424D01*
X133254332Y-77252910D01*
X133303688Y-77219931D01*
X133467478Y-77152087D01*
X133467477Y-77152087D01*
X133467480Y-77152086D01*
X133641358Y-77117500D01*
X133818642Y-77117500D01*
X133992520Y-77152086D01*
G37*
G36*
X85057520Y-77152086D02*
G01*
X85057523Y-77152087D01*
X85057522Y-77152087D01*
X85221312Y-77219931D01*
X85270668Y-77252910D01*
X85368717Y-77318424D01*
X85494076Y-77443783D01*
X85592570Y-77591190D01*
X85660414Y-77754980D01*
X85695000Y-77928858D01*
X85695000Y-78106142D01*
X85660414Y-78280020D01*
X85592570Y-78443810D01*
X85494076Y-78591217D01*
X85368717Y-78716576D01*
X85270668Y-78782090D01*
X85221312Y-78815069D01*
X85221311Y-78815070D01*
X85221310Y-78815070D01*
X85057520Y-78882914D01*
X84883642Y-78917500D01*
X84706358Y-78917500D01*
X84532480Y-78882914D01*
X84368690Y-78815070D01*
X84368689Y-78815070D01*
X84368688Y-78815069D01*
X84319332Y-78782090D01*
X84221283Y-78716576D01*
X84095924Y-78591217D01*
X83997430Y-78443810D01*
X83929586Y-78280020D01*
X83895000Y-78106142D01*
X83895000Y-77928858D01*
X83929586Y-77754980D01*
X83997430Y-77591190D01*
X84095924Y-77443783D01*
X84221283Y-77318424D01*
X84319332Y-77252910D01*
X84368688Y-77219931D01*
X84532478Y-77152087D01*
X84532477Y-77152087D01*
X84532480Y-77152086D01*
X84706358Y-77117500D01*
X84883642Y-77117500D01*
X85057520Y-77152086D01*
G37*
G36*
X144152520Y-77152086D02*
G01*
X144152523Y-77152087D01*
X144152522Y-77152087D01*
X144316312Y-77219931D01*
X144365668Y-77252910D01*
X144463717Y-77318424D01*
X144589076Y-77443783D01*
X144687570Y-77591190D01*
X144755414Y-77754980D01*
X144790000Y-77928858D01*
X144790000Y-78106142D01*
X144755414Y-78280020D01*
X144687570Y-78443810D01*
X144589076Y-78591217D01*
X144463717Y-78716576D01*
X144365668Y-78782090D01*
X144316312Y-78815069D01*
X144316311Y-78815070D01*
X144316310Y-78815070D01*
X144152520Y-78882914D01*
X143978642Y-78917500D01*
X143801358Y-78917500D01*
X143627480Y-78882914D01*
X143463690Y-78815070D01*
X143463689Y-78815070D01*
X143463688Y-78815069D01*
X143414332Y-78782090D01*
X143316283Y-78716576D01*
X143190924Y-78591217D01*
X143092430Y-78443810D01*
X143024586Y-78280020D01*
X142990000Y-78106142D01*
X142990000Y-77928858D01*
X143024586Y-77754980D01*
X143092430Y-77591190D01*
X143190924Y-77443783D01*
X143316283Y-77318424D01*
X143414332Y-77252910D01*
X143463688Y-77219931D01*
X143627478Y-77152087D01*
X143627477Y-77152087D01*
X143627480Y-77152086D01*
X143801358Y-77117500D01*
X143978642Y-77117500D01*
X144152520Y-77152086D01*
G37*
G36*
X149261689Y-75468429D02*
G01*
X149443678Y-75543811D01*
X149607463Y-75653249D01*
X149746751Y-75792537D01*
X149856189Y-75956322D01*
X149931571Y-76138311D01*
X149970000Y-76331509D01*
X149970000Y-76528491D01*
X149931571Y-76721689D01*
X149856189Y-76903678D01*
X149746751Y-77067463D01*
X149607463Y-77206751D01*
X149443678Y-77316189D01*
X149261689Y-77391571D01*
X149068491Y-77430000D01*
X148871509Y-77430000D01*
X148678311Y-77391571D01*
X148496322Y-77316189D01*
X148332537Y-77206751D01*
X148193249Y-77067463D01*
X148083811Y-76903678D01*
X148008429Y-76721689D01*
X147970000Y-76528491D01*
X147970000Y-76331509D01*
X148008429Y-76138311D01*
X148083811Y-75956322D01*
X148193249Y-75792537D01*
X148332537Y-75653249D01*
X148496322Y-75543811D01*
X148678311Y-75468429D01*
X148871509Y-75430000D01*
X149068491Y-75430000D01*
X149261689Y-75468429D01*
G37*
G36*
X127110000Y-77430000D02*
G01*
X125110000Y-77430000D01*
X125110000Y-75430000D01*
X127110000Y-75430000D01*
X127110000Y-77430000D01*
G37*
G36*
X128941689Y-75468429D02*
G01*
X129123678Y-75543811D01*
X129287463Y-75653249D01*
X129426751Y-75792537D01*
X129536189Y-75956322D01*
X129611571Y-76138311D01*
X129650000Y-76331509D01*
X129650000Y-76528491D01*
X129611571Y-76721689D01*
X129536189Y-76903678D01*
X129426751Y-77067463D01*
X129287463Y-77206751D01*
X129123678Y-77316189D01*
X128941689Y-77391571D01*
X128748491Y-77430000D01*
X128551509Y-77430000D01*
X128358311Y-77391571D01*
X128176322Y-77316189D01*
X128012537Y-77206751D01*
X127873249Y-77067463D01*
X127763811Y-76903678D01*
X127688429Y-76721689D01*
X127650000Y-76528491D01*
X127650000Y-76331509D01*
X127688429Y-76138311D01*
X127763811Y-75956322D01*
X127873249Y-75792537D01*
X128012537Y-75653249D01*
X128176322Y-75543811D01*
X128358311Y-75468429D01*
X128551509Y-75430000D01*
X128748491Y-75430000D01*
X128941689Y-75468429D01*
G37*
G36*
X152510000Y-77430000D02*
G01*
X150510000Y-77430000D01*
X150510000Y-75430000D01*
X152510000Y-75430000D01*
X152510000Y-77430000D01*
G37*
G36*
X120090000Y-77395000D02*
G01*
X116890000Y-77395000D01*
X116890000Y-74195000D01*
X120090000Y-74195000D01*
X120090000Y-77395000D01*
G37*
G36*
X105294600Y-75006137D02*
G01*
X105400860Y-75027273D01*
X105601047Y-75110193D01*
X105781209Y-75230574D01*
X105934426Y-75383791D01*
X106054807Y-75563953D01*
X106137727Y-75764140D01*
X106158864Y-75870401D01*
X106175955Y-75956322D01*
X106180000Y-75976661D01*
X106180000Y-76193339D01*
X106137727Y-76405860D01*
X106054807Y-76606047D01*
X105934426Y-76786209D01*
X105781209Y-76939426D01*
X105601047Y-77059807D01*
X105400860Y-77142727D01*
X105294599Y-77163864D01*
X105188341Y-77185000D01*
X104971659Y-77185000D01*
X104865401Y-77163864D01*
X104759140Y-77142727D01*
X104558953Y-77059807D01*
X104378791Y-76939426D01*
X104225574Y-76786209D01*
X104105193Y-76606047D01*
X104022273Y-76405860D01*
X103980000Y-76193339D01*
X103980000Y-75976661D01*
X103984046Y-75956322D01*
X104001136Y-75870401D01*
X104022273Y-75764140D01*
X104105193Y-75563953D01*
X104225574Y-75383791D01*
X104378791Y-75230574D01*
X104558953Y-75110193D01*
X104759140Y-75027273D01*
X104865400Y-75006137D01*
X104971659Y-74985000D01*
X105188341Y-74985000D01*
X105294600Y-75006137D01*
G37*
G36*
X111794600Y-75006137D02*
G01*
X111900860Y-75027273D01*
X112101047Y-75110193D01*
X112281209Y-75230574D01*
X112434426Y-75383791D01*
X112554807Y-75563953D01*
X112637727Y-75764140D01*
X112658864Y-75870401D01*
X112675955Y-75956322D01*
X112680000Y-75976661D01*
X112680000Y-76193339D01*
X112637727Y-76405860D01*
X112554807Y-76606047D01*
X112434426Y-76786209D01*
X112281209Y-76939426D01*
X112101047Y-77059807D01*
X111900860Y-77142727D01*
X111794599Y-77163864D01*
X111688341Y-77185000D01*
X111471659Y-77185000D01*
X111365401Y-77163864D01*
X111259140Y-77142727D01*
X111058953Y-77059807D01*
X110878791Y-76939426D01*
X110725574Y-76786209D01*
X110605193Y-76606047D01*
X110522273Y-76405860D01*
X110480000Y-76193339D01*
X110480000Y-75976661D01*
X110484046Y-75956322D01*
X110501136Y-75870401D01*
X110522273Y-75764140D01*
X110605193Y-75563953D01*
X110725574Y-75383791D01*
X110878791Y-75230574D01*
X111058953Y-75110193D01*
X111259140Y-75027273D01*
X111365400Y-75006137D01*
X111471659Y-74985000D01*
X111688341Y-74985000D01*
X111794600Y-75006137D01*
G37*
G36*
X133992520Y-73977086D02*
G01*
X133992523Y-73977087D01*
X133992522Y-73977087D01*
X134156312Y-74044931D01*
X134205668Y-74077910D01*
X134303717Y-74143424D01*
X134429076Y-74268783D01*
X134527570Y-74416190D01*
X134595414Y-74579980D01*
X134630000Y-74753858D01*
X134630000Y-74931142D01*
X134595414Y-75105020D01*
X134527570Y-75268810D01*
X134429076Y-75416217D01*
X134303717Y-75541576D01*
X134270227Y-75563953D01*
X134156312Y-75640069D01*
X134156311Y-75640070D01*
X134156310Y-75640070D01*
X133992520Y-75707914D01*
X133818642Y-75742500D01*
X133641358Y-75742500D01*
X133467480Y-75707914D01*
X133303690Y-75640070D01*
X133303689Y-75640070D01*
X133303688Y-75640069D01*
X133189773Y-75563953D01*
X133156283Y-75541576D01*
X133030924Y-75416217D01*
X132932430Y-75268810D01*
X132864586Y-75105020D01*
X132830000Y-74931142D01*
X132830000Y-74753858D01*
X132864586Y-74579980D01*
X132932430Y-74416190D01*
X133030924Y-74268783D01*
X133156283Y-74143424D01*
X133254332Y-74077910D01*
X133303688Y-74044931D01*
X133467478Y-73977087D01*
X133467477Y-73977087D01*
X133467480Y-73977086D01*
X133641358Y-73942500D01*
X133818642Y-73942500D01*
X133992520Y-73977086D01*
G37*
G36*
X144152520Y-73977086D02*
G01*
X144152523Y-73977087D01*
X144152522Y-73977087D01*
X144316312Y-74044931D01*
X144365668Y-74077910D01*
X144463717Y-74143424D01*
X144589076Y-74268783D01*
X144687570Y-74416190D01*
X144755414Y-74579980D01*
X144790000Y-74753858D01*
X144790000Y-74931142D01*
X144755414Y-75105020D01*
X144687570Y-75268810D01*
X144589076Y-75416217D01*
X144463717Y-75541576D01*
X144430227Y-75563953D01*
X144316312Y-75640069D01*
X144316311Y-75640070D01*
X144316310Y-75640070D01*
X144152520Y-75707914D01*
X143978642Y-75742500D01*
X143801358Y-75742500D01*
X143627480Y-75707914D01*
X143463690Y-75640070D01*
X143463689Y-75640070D01*
X143463688Y-75640069D01*
X143349773Y-75563953D01*
X143316283Y-75541576D01*
X143190924Y-75416217D01*
X143092430Y-75268810D01*
X143024586Y-75105020D01*
X142990000Y-74931142D01*
X142990000Y-74753858D01*
X143024586Y-74579980D01*
X143092430Y-74416190D01*
X143190924Y-74268783D01*
X143316283Y-74143424D01*
X143414332Y-74077910D01*
X143463688Y-74044931D01*
X143627478Y-73977087D01*
X143627477Y-73977087D01*
X143627480Y-73977086D01*
X143801358Y-73942500D01*
X143978642Y-73942500D01*
X144152520Y-73977086D01*
G37*
G36*
X83963634Y-71975516D02*
G01*
X84010394Y-71989701D01*
X84034856Y-72002776D01*
X84062022Y-72014029D01*
X84090862Y-72019766D01*
X84120267Y-72019766D01*
X84149107Y-72014029D01*
X84176274Y-72002776D01*
X84187685Y-71995152D01*
X84178484Y-72004352D01*
X84162148Y-72028802D01*
X84150895Y-72055968D01*
X84145158Y-72084808D01*
X84145158Y-72114213D01*
X84150895Y-72143053D01*
X84159484Y-72171366D01*
X84165000Y-72227373D01*
X84165000Y-73012627D01*
X84159484Y-73068634D01*
X84145299Y-73115394D01*
X84122264Y-73158489D01*
X84091264Y-73196264D01*
X84053489Y-73227264D01*
X84010394Y-73250299D01*
X83963634Y-73264484D01*
X83907627Y-73270000D01*
X82422373Y-73270000D01*
X82366366Y-73264484D01*
X82319606Y-73250299D01*
X82276511Y-73227264D01*
X82238736Y-73196264D01*
X82207736Y-73158489D01*
X82184701Y-73115394D01*
X82170516Y-73068634D01*
X82165000Y-73012627D01*
X82165000Y-72227373D01*
X82170516Y-72171366D01*
X82184701Y-72124606D01*
X82207736Y-72081511D01*
X82238736Y-72043736D01*
X82276511Y-72012736D01*
X82319606Y-71989701D01*
X82366366Y-71975516D01*
X82422373Y-71970000D01*
X83907627Y-71970000D01*
X83963634Y-71975516D01*
G37*
G36*
X113672520Y-70484586D02*
G01*
X113836310Y-70552430D01*
X113836312Y-70552431D01*
X113885668Y-70585410D01*
X113983717Y-70650924D01*
X114109076Y-70776283D01*
X114154617Y-70844440D01*
X114192161Y-70900628D01*
X114207570Y-70923690D01*
X114275414Y-71087480D01*
X114310000Y-71261358D01*
X114310000Y-71438642D01*
X114275414Y-71612520D01*
X114275413Y-71612522D01*
X114207569Y-71776312D01*
X114174590Y-71825668D01*
X114109076Y-71923717D01*
X113983717Y-72049076D01*
X113935174Y-72081511D01*
X113836312Y-72147569D01*
X113836311Y-72147570D01*
X113836310Y-72147570D01*
X113672520Y-72215414D01*
X113498642Y-72250000D01*
X113321358Y-72250000D01*
X113147480Y-72215414D01*
X112983690Y-72147570D01*
X112983689Y-72147570D01*
X112983688Y-72147569D01*
X112884826Y-72081511D01*
X112836283Y-72049076D01*
X112710924Y-71923717D01*
X112645410Y-71825668D01*
X112612431Y-71776312D01*
X112544587Y-71612522D01*
X112544586Y-71612520D01*
X112510000Y-71438642D01*
X112510000Y-71261358D01*
X112544586Y-71087480D01*
X112612430Y-70923690D01*
X112627840Y-70900628D01*
X112665383Y-70844440D01*
X112710924Y-70776283D01*
X112836283Y-70650924D01*
X112934332Y-70585410D01*
X112983688Y-70552431D01*
X112983690Y-70552430D01*
X113147480Y-70484586D01*
X113321358Y-70450000D01*
X113498642Y-70450000D01*
X113672520Y-70484586D01*
G37*
G36*
X90495020Y-70484586D02*
G01*
X90658810Y-70552430D01*
X90658812Y-70552431D01*
X90708168Y-70585410D01*
X90806217Y-70650924D01*
X90931576Y-70776283D01*
X90977117Y-70844440D01*
X91014661Y-70900628D01*
X91030070Y-70923690D01*
X91097914Y-71087480D01*
X91132500Y-71261358D01*
X91132500Y-71438642D01*
X91097914Y-71612520D01*
X91097913Y-71612522D01*
X91030069Y-71776312D01*
X90997090Y-71825668D01*
X90931576Y-71923717D01*
X90806217Y-72049076D01*
X90757674Y-72081511D01*
X90658812Y-72147569D01*
X90658811Y-72147570D01*
X90658810Y-72147570D01*
X90495020Y-72215414D01*
X90321142Y-72250000D01*
X90143858Y-72250000D01*
X89969980Y-72215414D01*
X89806190Y-72147570D01*
X89806189Y-72147570D01*
X89806188Y-72147569D01*
X89707326Y-72081511D01*
X89658783Y-72049076D01*
X89533424Y-71923717D01*
X89467910Y-71825668D01*
X89434931Y-71776312D01*
X89367087Y-71612522D01*
X89367086Y-71612520D01*
X89332500Y-71438642D01*
X89332500Y-71261358D01*
X89367086Y-71087480D01*
X89434930Y-70923690D01*
X89450340Y-70900628D01*
X89487883Y-70844440D01*
X89533424Y-70776283D01*
X89658783Y-70650924D01*
X89756832Y-70585410D01*
X89806188Y-70552431D01*
X89806190Y-70552430D01*
X89969980Y-70484586D01*
X90143858Y-70450000D01*
X90321142Y-70450000D01*
X90495020Y-70484586D01*
G37*
G36*
X103512520Y-70484586D02*
G01*
X103676310Y-70552430D01*
X103676312Y-70552431D01*
X103725668Y-70585410D01*
X103823717Y-70650924D01*
X103949076Y-70776283D01*
X103994617Y-70844440D01*
X104032161Y-70900628D01*
X104047570Y-70923690D01*
X104115414Y-71087480D01*
X104150000Y-71261358D01*
X104150000Y-71438642D01*
X104115414Y-71612520D01*
X104115413Y-71612522D01*
X104047569Y-71776312D01*
X104014590Y-71825668D01*
X103949076Y-71923717D01*
X103823717Y-72049076D01*
X103775174Y-72081511D01*
X103676312Y-72147569D01*
X103676311Y-72147570D01*
X103676310Y-72147570D01*
X103512520Y-72215414D01*
X103338642Y-72250000D01*
X103161358Y-72250000D01*
X102987480Y-72215414D01*
X102823690Y-72147570D01*
X102823689Y-72147570D01*
X102823688Y-72147569D01*
X102724826Y-72081511D01*
X102676283Y-72049076D01*
X102550924Y-71923717D01*
X102485410Y-71825668D01*
X102452431Y-71776312D01*
X102384587Y-71612522D01*
X102384586Y-71612520D01*
X102350000Y-71438642D01*
X102350000Y-71261358D01*
X102384586Y-71087480D01*
X102452430Y-70923690D01*
X102467840Y-70900628D01*
X102505383Y-70844440D01*
X102550924Y-70776283D01*
X102676283Y-70650924D01*
X102774332Y-70585410D01*
X102823688Y-70552431D01*
X102823690Y-70552430D01*
X102987480Y-70484586D01*
X103161358Y-70450000D01*
X103338642Y-70450000D01*
X103512520Y-70484586D01*
G37*
G36*
X100020020Y-70484586D02*
G01*
X100183810Y-70552430D01*
X100183812Y-70552431D01*
X100233168Y-70585410D01*
X100331217Y-70650924D01*
X100456576Y-70776283D01*
X100502117Y-70844440D01*
X100539661Y-70900628D01*
X100555070Y-70923690D01*
X100622914Y-71087480D01*
X100657500Y-71261358D01*
X100657500Y-71438642D01*
X100622914Y-71612520D01*
X100622913Y-71612522D01*
X100555069Y-71776312D01*
X100522090Y-71825668D01*
X100456576Y-71923717D01*
X100331217Y-72049076D01*
X100282674Y-72081511D01*
X100183812Y-72147569D01*
X100183811Y-72147570D01*
X100183810Y-72147570D01*
X100020020Y-72215414D01*
X99846142Y-72250000D01*
X99668858Y-72250000D01*
X99494980Y-72215414D01*
X99331190Y-72147570D01*
X99331189Y-72147570D01*
X99331188Y-72147569D01*
X99232326Y-72081511D01*
X99183783Y-72049076D01*
X99058424Y-71923717D01*
X98992910Y-71825668D01*
X98959931Y-71776312D01*
X98892087Y-71612522D01*
X98892086Y-71612520D01*
X98857500Y-71438642D01*
X98857500Y-71261358D01*
X98892086Y-71087480D01*
X98959930Y-70923690D01*
X98975340Y-70900628D01*
X99012883Y-70844440D01*
X99058424Y-70776283D01*
X99183783Y-70650924D01*
X99281832Y-70585410D01*
X99331188Y-70552431D01*
X99331190Y-70552430D01*
X99494980Y-70484586D01*
X99668858Y-70450000D01*
X99846142Y-70450000D01*
X100020020Y-70484586D01*
G37*
G36*
X96845020Y-70484586D02*
G01*
X97008810Y-70552430D01*
X97008812Y-70552431D01*
X97058168Y-70585410D01*
X97156217Y-70650924D01*
X97281576Y-70776283D01*
X97327117Y-70844440D01*
X97364661Y-70900628D01*
X97380070Y-70923690D01*
X97447914Y-71087480D01*
X97482500Y-71261358D01*
X97482500Y-71438642D01*
X97447914Y-71612520D01*
X97447913Y-71612522D01*
X97380069Y-71776312D01*
X97347090Y-71825668D01*
X97281576Y-71923717D01*
X97156217Y-72049076D01*
X97107674Y-72081511D01*
X97008812Y-72147569D01*
X97008811Y-72147570D01*
X97008810Y-72147570D01*
X96845020Y-72215414D01*
X96671142Y-72250000D01*
X96493858Y-72250000D01*
X96319980Y-72215414D01*
X96156190Y-72147570D01*
X96156189Y-72147570D01*
X96156188Y-72147569D01*
X96057326Y-72081511D01*
X96008783Y-72049076D01*
X95883424Y-71923717D01*
X95817910Y-71825668D01*
X95784931Y-71776312D01*
X95717087Y-71612522D01*
X95717086Y-71612520D01*
X95682500Y-71438642D01*
X95682500Y-71261358D01*
X95717086Y-71087480D01*
X95784930Y-70923690D01*
X95800340Y-70900628D01*
X95837883Y-70844440D01*
X95883424Y-70776283D01*
X96008783Y-70650924D01*
X96106832Y-70585410D01*
X96156188Y-70552431D01*
X96156190Y-70552430D01*
X96319980Y-70484586D01*
X96493858Y-70450000D01*
X96671142Y-70450000D01*
X96845020Y-70484586D01*
G37*
G36*
X93670020Y-70484586D02*
G01*
X93833810Y-70552430D01*
X93833812Y-70552431D01*
X93883168Y-70585410D01*
X93981217Y-70650924D01*
X94106576Y-70776283D01*
X94152117Y-70844440D01*
X94189661Y-70900628D01*
X94205070Y-70923690D01*
X94272914Y-71087480D01*
X94307500Y-71261358D01*
X94307500Y-71438642D01*
X94272914Y-71612520D01*
X94272913Y-71612522D01*
X94205069Y-71776312D01*
X94172090Y-71825668D01*
X94106576Y-71923717D01*
X93981217Y-72049076D01*
X93932674Y-72081511D01*
X93833812Y-72147569D01*
X93833811Y-72147570D01*
X93833810Y-72147570D01*
X93670020Y-72215414D01*
X93496142Y-72250000D01*
X93318858Y-72250000D01*
X93144980Y-72215414D01*
X92981190Y-72147570D01*
X92981189Y-72147570D01*
X92981188Y-72147569D01*
X92882326Y-72081511D01*
X92833783Y-72049076D01*
X92708424Y-71923717D01*
X92642910Y-71825668D01*
X92609931Y-71776312D01*
X92542087Y-71612522D01*
X92542086Y-71612520D01*
X92507500Y-71438642D01*
X92507500Y-71261358D01*
X92542086Y-71087480D01*
X92609930Y-70923690D01*
X92625340Y-70900628D01*
X92662883Y-70844440D01*
X92708424Y-70776283D01*
X92833783Y-70650924D01*
X92931832Y-70585410D01*
X92981188Y-70552431D01*
X92981190Y-70552430D01*
X93144980Y-70484586D01*
X93318858Y-70450000D01*
X93496142Y-70450000D01*
X93670020Y-70484586D01*
G37*
G36*
X84165000Y-70589497D02*
G01*
X84167882Y-70618760D01*
X84176418Y-70646899D01*
X84190279Y-70672832D01*
X84208934Y-70695562D01*
X84231664Y-70714217D01*
X84257597Y-70728078D01*
X84285736Y-70736614D01*
X84314999Y-70739496D01*
X84344262Y-70736614D01*
X84385707Y-70721785D01*
X84389608Y-70719700D01*
X84436366Y-70705516D01*
X84492373Y-70700000D01*
X85977627Y-70700000D01*
X86033634Y-70705516D01*
X86080394Y-70719701D01*
X86123489Y-70742736D01*
X86161264Y-70773736D01*
X86192264Y-70811511D01*
X86215299Y-70854606D01*
X86229484Y-70901366D01*
X86235000Y-70957373D01*
X86235000Y-71742627D01*
X86229484Y-71798634D01*
X86215299Y-71845394D01*
X86192264Y-71888489D01*
X86161264Y-71926264D01*
X86123489Y-71957264D01*
X86080394Y-71980299D01*
X86033634Y-71994484D01*
X85977627Y-72000000D01*
X84492373Y-72000000D01*
X84436366Y-71994484D01*
X84389606Y-71980299D01*
X84365144Y-71967224D01*
X84337978Y-71955971D01*
X84309138Y-71950234D01*
X84279733Y-71950234D01*
X84250893Y-71955971D01*
X84223726Y-71967224D01*
X84212315Y-71974848D01*
X84221516Y-71965648D01*
X84237852Y-71941198D01*
X84249105Y-71914032D01*
X84254842Y-71885192D01*
X84254842Y-71855787D01*
X84249105Y-71826947D01*
X84240516Y-71798634D01*
X84235000Y-71742627D01*
X84235000Y-70957374D01*
X84241173Y-70894703D01*
X84241173Y-70865298D01*
X84235436Y-70836458D01*
X84224184Y-70809291D01*
X84207847Y-70784841D01*
X84187055Y-70764049D01*
X84162606Y-70747712D01*
X84135439Y-70736459D01*
X84106600Y-70730722D01*
X84091896Y-70730000D01*
X82165000Y-70730000D01*
X82165000Y-69430000D01*
X84165000Y-69430000D01*
X84165000Y-70589497D01*
G37*
G36*
X117618634Y-69118016D02*
G01*
X117665394Y-69132201D01*
X117689856Y-69145276D01*
X117717022Y-69156529D01*
X117745862Y-69162266D01*
X117775267Y-69162266D01*
X117804107Y-69156529D01*
X117831274Y-69145276D01*
X117842685Y-69137652D01*
X117833484Y-69146852D01*
X117817148Y-69171302D01*
X117805895Y-69198468D01*
X117800158Y-69227308D01*
X117800158Y-69256713D01*
X117805895Y-69285553D01*
X117814484Y-69313866D01*
X117820000Y-69369873D01*
X117820000Y-70155126D01*
X117813827Y-70217797D01*
X117813827Y-70247202D01*
X117819564Y-70276042D01*
X117830816Y-70303209D01*
X117847153Y-70327659D01*
X117867945Y-70348451D01*
X117892394Y-70364788D01*
X117919561Y-70376041D01*
X117948400Y-70381778D01*
X117963104Y-70382500D01*
X119890000Y-70382500D01*
X119890000Y-71682500D01*
X117890000Y-71682500D01*
X117890000Y-70523003D01*
X117887118Y-70493740D01*
X117878582Y-70465601D01*
X117864721Y-70439668D01*
X117846066Y-70416938D01*
X117823336Y-70398283D01*
X117797403Y-70384422D01*
X117769264Y-70375886D01*
X117740001Y-70373004D01*
X117710738Y-70375886D01*
X117669293Y-70390715D01*
X117665392Y-70392800D01*
X117618634Y-70406984D01*
X117562627Y-70412500D01*
X116077373Y-70412500D01*
X116021366Y-70406984D01*
X115974606Y-70392799D01*
X115931511Y-70369764D01*
X115893736Y-70338764D01*
X115862736Y-70300989D01*
X115839701Y-70257894D01*
X115825516Y-70211134D01*
X115820000Y-70155127D01*
X115820000Y-69369873D01*
X115825516Y-69313866D01*
X115839701Y-69267106D01*
X115862736Y-69224011D01*
X115893736Y-69186236D01*
X115931511Y-69155236D01*
X115974606Y-69132201D01*
X116021366Y-69118016D01*
X116077373Y-69112500D01*
X117562627Y-69112500D01*
X117618634Y-69118016D01*
G37*
G36*
X119688634Y-67848016D02*
G01*
X119735394Y-67862201D01*
X119778489Y-67885236D01*
X119816264Y-67916236D01*
X119847264Y-67954011D01*
X119870299Y-67997106D01*
X119884484Y-68043866D01*
X119890000Y-68099873D01*
X119890000Y-68885127D01*
X119884484Y-68941134D01*
X119870299Y-68987894D01*
X119847264Y-69030989D01*
X119816264Y-69068764D01*
X119778489Y-69099764D01*
X119735394Y-69122799D01*
X119688634Y-69136984D01*
X119632627Y-69142500D01*
X118147373Y-69142500D01*
X118091366Y-69136984D01*
X118044606Y-69122799D01*
X118020144Y-69109724D01*
X117992978Y-69098471D01*
X117964138Y-69092734D01*
X117934733Y-69092734D01*
X117905893Y-69098471D01*
X117878726Y-69109724D01*
X117867315Y-69117348D01*
X117876516Y-69108148D01*
X117892852Y-69083698D01*
X117904105Y-69056532D01*
X117909842Y-69027692D01*
X117909842Y-68998287D01*
X117904105Y-68969447D01*
X117895516Y-68941134D01*
X117890000Y-68885127D01*
X117890000Y-68099873D01*
X117895516Y-68043866D01*
X117909701Y-67997106D01*
X117932736Y-67954011D01*
X117963736Y-67916236D01*
X118001511Y-67885236D01*
X118044606Y-67862201D01*
X118091366Y-67848016D01*
X118147373Y-67842500D01*
X119632627Y-67842500D01*
X119688634Y-67848016D01*
G37*
G36*
X103512520Y-67309586D02*
G01*
X103676310Y-67377430D01*
X103676312Y-67377431D01*
X103725668Y-67410410D01*
X103823717Y-67475924D01*
X103949076Y-67601283D01*
X104047570Y-67748690D01*
X104115414Y-67912480D01*
X104150000Y-68086358D01*
X104150000Y-68263642D01*
X104115414Y-68437520D01*
X104047570Y-68601310D01*
X103949076Y-68748717D01*
X103823717Y-68874076D01*
X103725668Y-68939590D01*
X103676312Y-68972569D01*
X103676311Y-68972570D01*
X103676310Y-68972570D01*
X103512520Y-69040414D01*
X103338642Y-69075000D01*
X103161358Y-69075000D01*
X102987480Y-69040414D01*
X102823690Y-68972570D01*
X102823689Y-68972570D01*
X102823688Y-68972569D01*
X102774332Y-68939590D01*
X102676283Y-68874076D01*
X102550924Y-68748717D01*
X102452430Y-68601310D01*
X102384586Y-68437520D01*
X102350000Y-68263642D01*
X102350000Y-68086358D01*
X102384586Y-67912480D01*
X102452430Y-67748690D01*
X102550924Y-67601283D01*
X102676283Y-67475924D01*
X102774332Y-67410410D01*
X102823688Y-67377431D01*
X102823690Y-67377430D01*
X102987480Y-67309586D01*
X103161358Y-67275000D01*
X103338642Y-67275000D01*
X103512520Y-67309586D01*
G37*
G36*
X113672520Y-67309586D02*
G01*
X113836310Y-67377430D01*
X113836312Y-67377431D01*
X113885668Y-67410410D01*
X113983717Y-67475924D01*
X114109076Y-67601283D01*
X114207570Y-67748690D01*
X114275414Y-67912480D01*
X114310000Y-68086358D01*
X114310000Y-68263642D01*
X114275414Y-68437520D01*
X114207570Y-68601310D01*
X114109076Y-68748717D01*
X113983717Y-68874076D01*
X113885668Y-68939590D01*
X113836312Y-68972569D01*
X113836311Y-68972570D01*
X113836310Y-68972570D01*
X113672520Y-69040414D01*
X113498642Y-69075000D01*
X113321358Y-69075000D01*
X113147480Y-69040414D01*
X112983690Y-68972570D01*
X112983689Y-68972570D01*
X112983688Y-68972569D01*
X112934332Y-68939590D01*
X112836283Y-68874076D01*
X112710924Y-68748717D01*
X112612430Y-68601310D01*
X112544586Y-68437520D01*
X112510000Y-68263642D01*
X112510000Y-68086358D01*
X112544586Y-67912480D01*
X112612430Y-67748690D01*
X112710924Y-67601283D01*
X112836283Y-67475924D01*
X112934332Y-67410410D01*
X112983688Y-67377431D01*
X112983690Y-67377430D01*
X113147480Y-67309586D01*
X113321358Y-67275000D01*
X113498642Y-67275000D01*
X113672520Y-67309586D01*
G37*
G36*
X91761433Y-66653023D02*
G01*
X91931081Y-66704485D01*
X92087431Y-66788056D01*
X92224475Y-66900525D01*
X92336944Y-67037569D01*
X92420515Y-67193919D01*
X92471977Y-67363567D01*
X92489354Y-67540000D01*
X92471977Y-67716433D01*
X92420515Y-67886081D01*
X92336944Y-68042431D01*
X92224475Y-68179475D01*
X92087431Y-68291944D01*
X91931081Y-68375515D01*
X91761433Y-68426977D01*
X91629207Y-68440000D01*
X90740793Y-68440000D01*
X90608567Y-68426977D01*
X90438919Y-68375515D01*
X90282569Y-68291944D01*
X90145525Y-68179475D01*
X90033056Y-68042431D01*
X89949485Y-67886081D01*
X89898023Y-67716433D01*
X89880646Y-67540000D01*
X89898023Y-67363567D01*
X89949485Y-67193919D01*
X90033056Y-67037569D01*
X90145525Y-66900525D01*
X90282569Y-66788056D01*
X90438919Y-66704485D01*
X90608567Y-66653023D01*
X90740793Y-66640000D01*
X91629207Y-66640000D01*
X91761433Y-66653023D01*
G37*
G36*
X100105000Y-68440000D02*
G01*
X97505000Y-68440000D01*
X97505000Y-66640000D01*
X100105000Y-66640000D01*
X100105000Y-68440000D01*
G37*
G36*
X128941689Y-64038429D02*
G01*
X129123678Y-64113811D01*
X129287463Y-64223249D01*
X129426751Y-64362537D01*
X129536189Y-64526322D01*
X129611571Y-64708311D01*
X129650000Y-64901509D01*
X129650000Y-65098491D01*
X129611571Y-65291689D01*
X129536189Y-65473678D01*
X129426751Y-65637463D01*
X129287463Y-65776751D01*
X129123678Y-65886189D01*
X128941689Y-65961571D01*
X128748491Y-66000000D01*
X128551509Y-66000000D01*
X128358311Y-65961571D01*
X128176322Y-65886189D01*
X128012537Y-65776751D01*
X127873249Y-65637463D01*
X127763811Y-65473678D01*
X127688429Y-65291689D01*
X127650000Y-65098491D01*
X127650000Y-64901509D01*
X127688429Y-64708311D01*
X127763811Y-64526322D01*
X127873249Y-64362537D01*
X128012537Y-64223249D01*
X128176322Y-64113811D01*
X128358311Y-64038429D01*
X128551509Y-64000000D01*
X128748491Y-64000000D01*
X128941689Y-64038429D01*
G37*
G36*
X127110000Y-66000000D02*
G01*
X125110000Y-66000000D01*
X125110000Y-64000000D01*
X127110000Y-64000000D01*
X127110000Y-66000000D01*
G37*
G36*
X138540000Y-66000000D02*
G01*
X136540000Y-66000000D01*
X136540000Y-64000000D01*
X138540000Y-64000000D01*
X138540000Y-66000000D01*
G37*
G36*
X149970000Y-66000000D02*
G01*
X147970000Y-66000000D01*
X147970000Y-64000000D01*
X149970000Y-64000000D01*
X149970000Y-66000000D01*
G37*
G36*
X151801689Y-64038429D02*
G01*
X151983678Y-64113811D01*
X152147463Y-64223249D01*
X152286751Y-64362537D01*
X152396189Y-64526322D01*
X152471571Y-64708311D01*
X152510000Y-64901509D01*
X152510000Y-65098491D01*
X152471571Y-65291689D01*
X152396189Y-65473678D01*
X152286751Y-65637463D01*
X152147463Y-65776751D01*
X151983678Y-65886189D01*
X151801689Y-65961571D01*
X151608491Y-66000000D01*
X151411509Y-66000000D01*
X151218311Y-65961571D01*
X151036322Y-65886189D01*
X150872537Y-65776751D01*
X150733249Y-65637463D01*
X150623811Y-65473678D01*
X150548429Y-65291689D01*
X150510000Y-65098491D01*
X150510000Y-64901509D01*
X150548429Y-64708311D01*
X150623811Y-64526322D01*
X150733249Y-64362537D01*
X150872537Y-64223249D01*
X151036322Y-64113811D01*
X151218311Y-64038429D01*
X151411509Y-64000000D01*
X151608491Y-64000000D01*
X151801689Y-64038429D01*
G37*
G36*
X140371689Y-64038429D02*
G01*
X140553678Y-64113811D01*
X140717463Y-64223249D01*
X140856751Y-64362537D01*
X140966189Y-64526322D01*
X141041571Y-64708311D01*
X141080000Y-64901509D01*
X141080000Y-65098491D01*
X141041571Y-65291689D01*
X140966189Y-65473678D01*
X140856751Y-65637463D01*
X140717463Y-65776751D01*
X140553678Y-65886189D01*
X140371689Y-65961571D01*
X140178491Y-66000000D01*
X139981509Y-66000000D01*
X139788311Y-65961571D01*
X139606322Y-65886189D01*
X139442537Y-65776751D01*
X139303249Y-65637463D01*
X139193811Y-65473678D01*
X139118429Y-65291689D01*
X139080000Y-65098491D01*
X139080000Y-64901509D01*
X139118429Y-64708311D01*
X139193811Y-64526322D01*
X139303249Y-64362537D01*
X139442537Y-64223249D01*
X139606322Y-64113811D01*
X139788311Y-64038429D01*
X139981509Y-64000000D01*
X140178491Y-64000000D01*
X140371689Y-64038429D01*
G37*
G36*
X88675000Y-65900000D02*
G01*
X86075000Y-65900000D01*
X86075000Y-64100000D01*
X88675000Y-64100000D01*
X88675000Y-65900000D01*
G37*
G36*
X103512520Y-64134586D02*
G01*
X103676310Y-64202430D01*
X103676312Y-64202431D01*
X103707468Y-64223249D01*
X103823717Y-64300924D01*
X103949076Y-64426283D01*
X104047570Y-64573690D01*
X104115414Y-64737480D01*
X104150000Y-64911358D01*
X104150000Y-65088642D01*
X104115414Y-65262520D01*
X104047570Y-65426310D01*
X103949076Y-65573717D01*
X103823717Y-65699076D01*
X103744596Y-65751943D01*
X103676312Y-65797569D01*
X103676311Y-65797570D01*
X103676310Y-65797570D01*
X103512520Y-65865414D01*
X103338642Y-65900000D01*
X103161358Y-65900000D01*
X102987480Y-65865414D01*
X102823690Y-65797570D01*
X102823689Y-65797570D01*
X102823688Y-65797569D01*
X102755404Y-65751943D01*
X102676283Y-65699076D01*
X102550924Y-65573717D01*
X102452430Y-65426310D01*
X102384586Y-65262520D01*
X102350000Y-65088642D01*
X102350000Y-64911358D01*
X102384586Y-64737480D01*
X102452430Y-64573690D01*
X102550924Y-64426283D01*
X102676283Y-64300924D01*
X102792532Y-64223249D01*
X102823688Y-64202431D01*
X102823690Y-64202430D01*
X102987480Y-64134586D01*
X103161358Y-64100000D01*
X103338642Y-64100000D01*
X103512520Y-64134586D01*
G37*
G36*
X113672520Y-64134586D02*
G01*
X113836310Y-64202430D01*
X113836312Y-64202431D01*
X113867468Y-64223249D01*
X113983717Y-64300924D01*
X114109076Y-64426283D01*
X114207570Y-64573690D01*
X114275414Y-64737480D01*
X114310000Y-64911358D01*
X114310000Y-65088642D01*
X114275414Y-65262520D01*
X114207570Y-65426310D01*
X114109076Y-65573717D01*
X113983717Y-65699076D01*
X113904596Y-65751943D01*
X113836312Y-65797569D01*
X113836311Y-65797570D01*
X113836310Y-65797570D01*
X113672520Y-65865414D01*
X113498642Y-65900000D01*
X113321358Y-65900000D01*
X113147480Y-65865414D01*
X112983690Y-65797570D01*
X112983689Y-65797570D01*
X112983688Y-65797569D01*
X112915404Y-65751943D01*
X112836283Y-65699076D01*
X112710924Y-65573717D01*
X112612430Y-65426310D01*
X112544586Y-65262520D01*
X112510000Y-65088642D01*
X112510000Y-64911358D01*
X112544586Y-64737480D01*
X112612430Y-64573690D01*
X112710924Y-64426283D01*
X112836283Y-64300924D01*
X112952532Y-64223249D01*
X112983688Y-64202431D01*
X112983690Y-64202430D01*
X113147480Y-64134586D01*
X113321358Y-64100000D01*
X113498642Y-64100000D01*
X113672520Y-64134586D01*
G37*
G36*
X99381433Y-64113023D02*
G01*
X99551081Y-64164485D01*
X99707431Y-64248056D01*
X99844475Y-64360525D01*
X99956944Y-64497569D01*
X100040515Y-64653919D01*
X100091977Y-64823567D01*
X100109354Y-65000000D01*
X100091977Y-65176433D01*
X100040515Y-65346081D01*
X99956944Y-65502431D01*
X99844475Y-65639475D01*
X99707431Y-65751944D01*
X99551081Y-65835515D01*
X99381433Y-65886977D01*
X99249207Y-65900000D01*
X98360793Y-65900000D01*
X98228567Y-65886977D01*
X98058919Y-65835515D01*
X97902569Y-65751944D01*
X97765525Y-65639475D01*
X97653056Y-65502431D01*
X97569485Y-65346081D01*
X97518023Y-65176433D01*
X97500646Y-65000000D01*
X97518023Y-64823567D01*
X97569485Y-64653919D01*
X97653056Y-64497569D01*
X97765525Y-64360525D01*
X97902569Y-64248056D01*
X98058919Y-64164485D01*
X98228567Y-64113023D01*
X98360793Y-64100000D01*
X99249207Y-64100000D01*
X99381433Y-64113023D01*
G37*
G36*
X91761433Y-64113023D02*
G01*
X91931081Y-64164485D01*
X92087431Y-64248056D01*
X92224475Y-64360525D01*
X92336944Y-64497569D01*
X92420515Y-64653919D01*
X92471977Y-64823567D01*
X92489354Y-65000000D01*
X92471977Y-65176433D01*
X92420515Y-65346081D01*
X92336944Y-65502431D01*
X92224475Y-65639475D01*
X92087431Y-65751944D01*
X91931081Y-65835515D01*
X91761433Y-65886977D01*
X91629207Y-65900000D01*
X90740793Y-65900000D01*
X90608567Y-65886977D01*
X90438919Y-65835515D01*
X90282569Y-65751944D01*
X90145525Y-65639475D01*
X90033056Y-65502431D01*
X89949485Y-65346081D01*
X89898023Y-65176433D01*
X89880646Y-65000000D01*
X89898023Y-64823567D01*
X89949485Y-64653919D01*
X90033056Y-64497569D01*
X90145525Y-64360525D01*
X90282569Y-64248056D01*
X90438919Y-64164485D01*
X90608567Y-64113023D01*
X90740793Y-64100000D01*
X91629207Y-64100000D01*
X91761433Y-64113023D01*
G37*
G36*
X80331433Y-64113023D02*
G01*
X80501081Y-64164485D01*
X80657431Y-64248056D01*
X80794475Y-64360525D01*
X80906944Y-64497569D01*
X80990515Y-64653919D01*
X81041977Y-64823567D01*
X81059354Y-65000000D01*
X81041977Y-65176433D01*
X80990515Y-65346081D01*
X80906944Y-65502431D01*
X80794475Y-65639475D01*
X80657431Y-65751944D01*
X80501081Y-65835515D01*
X80331433Y-65886977D01*
X80199207Y-65900000D01*
X79310793Y-65900000D01*
X79178567Y-65886977D01*
X79008919Y-65835515D01*
X78852569Y-65751944D01*
X78715525Y-65639475D01*
X78603056Y-65502431D01*
X78519485Y-65346081D01*
X78468023Y-65176433D01*
X78450646Y-65000000D01*
X78468023Y-64823567D01*
X78519485Y-64653919D01*
X78603056Y-64497569D01*
X78715525Y-64360525D01*
X78852569Y-64248056D01*
X79008919Y-64164485D01*
X79178567Y-64113023D01*
X79310793Y-64100000D01*
X80199207Y-64100000D01*
X80331433Y-64113023D01*
G37*
G36*
X117618634Y-62768016D02*
G01*
X117665394Y-62782201D01*
X117689856Y-62795276D01*
X117717022Y-62806529D01*
X117745862Y-62812266D01*
X117775267Y-62812266D01*
X117804107Y-62806529D01*
X117831274Y-62795276D01*
X117842685Y-62787652D01*
X117833484Y-62796852D01*
X117817148Y-62821302D01*
X117805895Y-62848468D01*
X117800158Y-62877308D01*
X117800158Y-62906713D01*
X117805895Y-62935553D01*
X117814484Y-62963866D01*
X117820000Y-63019873D01*
X117820000Y-63805126D01*
X117813827Y-63867797D01*
X117813827Y-63897202D01*
X117819564Y-63926042D01*
X117830816Y-63953209D01*
X117847153Y-63977659D01*
X117867945Y-63998451D01*
X117892394Y-64014788D01*
X117919561Y-64026041D01*
X117948400Y-64031778D01*
X117963104Y-64032500D01*
X119890000Y-64032500D01*
X119890000Y-65332500D01*
X117890000Y-65332500D01*
X117890000Y-64173003D01*
X117887118Y-64143740D01*
X117878582Y-64115601D01*
X117864721Y-64089668D01*
X117846066Y-64066938D01*
X117823336Y-64048283D01*
X117797403Y-64034422D01*
X117769264Y-64025886D01*
X117740001Y-64023004D01*
X117710738Y-64025886D01*
X117669293Y-64040715D01*
X117665392Y-64042800D01*
X117618634Y-64056984D01*
X117562627Y-64062500D01*
X116077373Y-64062500D01*
X116021366Y-64056984D01*
X115974606Y-64042799D01*
X115931511Y-64019764D01*
X115893736Y-63988764D01*
X115862736Y-63950989D01*
X115839701Y-63907894D01*
X115825516Y-63861134D01*
X115820000Y-63805127D01*
X115820000Y-63019873D01*
X115825516Y-62963866D01*
X115839701Y-62917106D01*
X115862736Y-62874011D01*
X115893736Y-62836236D01*
X115931511Y-62805236D01*
X115974606Y-62782201D01*
X116021366Y-62768016D01*
X116077373Y-62762500D01*
X117562627Y-62762500D01*
X117618634Y-62768016D01*
G37*
G36*
X87951433Y-61573023D02*
G01*
X88121081Y-61624485D01*
X88277431Y-61708056D01*
X88414475Y-61820525D01*
X88526944Y-61957569D01*
X88610515Y-62113919D01*
X88661977Y-62283567D01*
X88679354Y-62460000D01*
X88661977Y-62636433D01*
X88610515Y-62806081D01*
X88526944Y-62962431D01*
X88414475Y-63099475D01*
X88277431Y-63211944D01*
X88121081Y-63295515D01*
X87951433Y-63346977D01*
X87819207Y-63360000D01*
X86930793Y-63360000D01*
X86798567Y-63346977D01*
X86628919Y-63295515D01*
X86472569Y-63211944D01*
X86335525Y-63099475D01*
X86223056Y-62962431D01*
X86139485Y-62806081D01*
X86088023Y-62636433D01*
X86070646Y-62460000D01*
X86088023Y-62283567D01*
X86139485Y-62113919D01*
X86223056Y-61957569D01*
X86335525Y-61820525D01*
X86472569Y-61708056D01*
X86628919Y-61624485D01*
X86798567Y-61573023D01*
X86930793Y-61560000D01*
X87819207Y-61560000D01*
X87951433Y-61573023D01*
G37*
G36*
X80331433Y-61573023D02*
G01*
X80501081Y-61624485D01*
X80657431Y-61708056D01*
X80794475Y-61820525D01*
X80906944Y-61957569D01*
X80990515Y-62113919D01*
X81041977Y-62283567D01*
X81059354Y-62460000D01*
X81041977Y-62636433D01*
X80990515Y-62806081D01*
X80906944Y-62962431D01*
X80794475Y-63099475D01*
X80657431Y-63211944D01*
X80501081Y-63295515D01*
X80331433Y-63346977D01*
X80199207Y-63360000D01*
X79310793Y-63360000D01*
X79178567Y-63346977D01*
X79008919Y-63295515D01*
X78852569Y-63211944D01*
X78715525Y-63099475D01*
X78603056Y-62962431D01*
X78519485Y-62806081D01*
X78468023Y-62636433D01*
X78450646Y-62460000D01*
X78468023Y-62283567D01*
X78519485Y-62113919D01*
X78603056Y-61957569D01*
X78715525Y-61820525D01*
X78852569Y-61708056D01*
X79008919Y-61624485D01*
X79178567Y-61573023D01*
X79310793Y-61560000D01*
X80199207Y-61560000D01*
X80331433Y-61573023D01*
G37*
G36*
X91761433Y-61573023D02*
G01*
X91931081Y-61624485D01*
X92087431Y-61708056D01*
X92224475Y-61820525D01*
X92336944Y-61957569D01*
X92420515Y-62113919D01*
X92471977Y-62283567D01*
X92489354Y-62460000D01*
X92471977Y-62636433D01*
X92420515Y-62806081D01*
X92336944Y-62962431D01*
X92224475Y-63099475D01*
X92087431Y-63211944D01*
X91931081Y-63295515D01*
X91761433Y-63346977D01*
X91629207Y-63360000D01*
X90740793Y-63360000D01*
X90608567Y-63346977D01*
X90438919Y-63295515D01*
X90282569Y-63211944D01*
X90145525Y-63099475D01*
X90033056Y-62962431D01*
X89949485Y-62806081D01*
X89898023Y-62636433D01*
X89880646Y-62460000D01*
X89898023Y-62283567D01*
X89949485Y-62113919D01*
X90033056Y-61957569D01*
X90145525Y-61820525D01*
X90282569Y-61708056D01*
X90438919Y-61624485D01*
X90608567Y-61573023D01*
X90740793Y-61560000D01*
X91629207Y-61560000D01*
X91761433Y-61573023D01*
G37*
G36*
X99381433Y-61573023D02*
G01*
X99551081Y-61624485D01*
X99707431Y-61708056D01*
X99844475Y-61820525D01*
X99956944Y-61957569D01*
X100040515Y-62113919D01*
X100091977Y-62283567D01*
X100109354Y-62460000D01*
X100091977Y-62636433D01*
X100040515Y-62806081D01*
X99956944Y-62962431D01*
X99844475Y-63099475D01*
X99707431Y-63211944D01*
X99551081Y-63295515D01*
X99381433Y-63346977D01*
X99249207Y-63360000D01*
X98360793Y-63360000D01*
X98228567Y-63346977D01*
X98058919Y-63295515D01*
X97902569Y-63211944D01*
X97765525Y-63099475D01*
X97653056Y-62962431D01*
X97569485Y-62806081D01*
X97518023Y-62636433D01*
X97500646Y-62460000D01*
X97518023Y-62283567D01*
X97569485Y-62113919D01*
X97653056Y-61957569D01*
X97765525Y-61820525D01*
X97902569Y-61708056D01*
X98058919Y-61624485D01*
X98228567Y-61573023D01*
X98360793Y-61560000D01*
X99249207Y-61560000D01*
X99381433Y-61573023D01*
G37*
G36*
X119688634Y-61498016D02*
G01*
X119735394Y-61512201D01*
X119778489Y-61535236D01*
X119816264Y-61566236D01*
X119847264Y-61604011D01*
X119870299Y-61647106D01*
X119884484Y-61693866D01*
X119890000Y-61749873D01*
X119890000Y-62535127D01*
X119884484Y-62591134D01*
X119870299Y-62637894D01*
X119847264Y-62680989D01*
X119816264Y-62718764D01*
X119778489Y-62749764D01*
X119735394Y-62772799D01*
X119688634Y-62786984D01*
X119632627Y-62792500D01*
X118147373Y-62792500D01*
X118091366Y-62786984D01*
X118044606Y-62772799D01*
X118020144Y-62759724D01*
X117992978Y-62748471D01*
X117964138Y-62742734D01*
X117934733Y-62742734D01*
X117905893Y-62748471D01*
X117878726Y-62759724D01*
X117867315Y-62767348D01*
X117876516Y-62758148D01*
X117892852Y-62733698D01*
X117904105Y-62706532D01*
X117909842Y-62677692D01*
X117909842Y-62648287D01*
X117904105Y-62619447D01*
X117895516Y-62591134D01*
X117890000Y-62535127D01*
X117890000Y-61749873D01*
X117895516Y-61693866D01*
X117909701Y-61647106D01*
X117932736Y-61604011D01*
X117963736Y-61566236D01*
X118001511Y-61535236D01*
X118044606Y-61512201D01*
X118091366Y-61498016D01*
X118147373Y-61492500D01*
X119632627Y-61492500D01*
X119688634Y-61498016D01*
G37*
G36*
X103512520Y-60959586D02*
G01*
X103512523Y-60959587D01*
X103512522Y-60959587D01*
X103676312Y-61027431D01*
X103725668Y-61060410D01*
X103823717Y-61125924D01*
X103949076Y-61251283D01*
X104047570Y-61398690D01*
X104115414Y-61562480D01*
X104150000Y-61736358D01*
X104150000Y-61913642D01*
X104115414Y-62087520D01*
X104047570Y-62251310D01*
X103949076Y-62398717D01*
X103823717Y-62524076D01*
X103725668Y-62589590D01*
X103676312Y-62622569D01*
X103676311Y-62622570D01*
X103676310Y-62622570D01*
X103512520Y-62690414D01*
X103338642Y-62725000D01*
X103161358Y-62725000D01*
X102987480Y-62690414D01*
X102823690Y-62622570D01*
X102823689Y-62622570D01*
X102823688Y-62622569D01*
X102774332Y-62589590D01*
X102676283Y-62524076D01*
X102550924Y-62398717D01*
X102452430Y-62251310D01*
X102384586Y-62087520D01*
X102350000Y-61913642D01*
X102350000Y-61736358D01*
X102384586Y-61562480D01*
X102452430Y-61398690D01*
X102550924Y-61251283D01*
X102676283Y-61125924D01*
X102774332Y-61060410D01*
X102823688Y-61027431D01*
X102987478Y-60959587D01*
X102987477Y-60959587D01*
X102987480Y-60959586D01*
X103161358Y-60925000D01*
X103338642Y-60925000D01*
X103512520Y-60959586D01*
G37*
G36*
X113672520Y-60959586D02*
G01*
X113672523Y-60959587D01*
X113672522Y-60959587D01*
X113836312Y-61027431D01*
X113885668Y-61060410D01*
X113983717Y-61125924D01*
X114109076Y-61251283D01*
X114207570Y-61398690D01*
X114275414Y-61562480D01*
X114310000Y-61736358D01*
X114310000Y-61913642D01*
X114275414Y-62087520D01*
X114207570Y-62251310D01*
X114109076Y-62398717D01*
X113983717Y-62524076D01*
X113885668Y-62589590D01*
X113836312Y-62622569D01*
X113836311Y-62622570D01*
X113836310Y-62622570D01*
X113672520Y-62690414D01*
X113498642Y-62725000D01*
X113321358Y-62725000D01*
X113147480Y-62690414D01*
X112983690Y-62622570D01*
X112983689Y-62622570D01*
X112983688Y-62622569D01*
X112934332Y-62589590D01*
X112836283Y-62524076D01*
X112710924Y-62398717D01*
X112612430Y-62251310D01*
X112544586Y-62087520D01*
X112510000Y-61913642D01*
X112510000Y-61736358D01*
X112544586Y-61562480D01*
X112612430Y-61398690D01*
X112710924Y-61251283D01*
X112836283Y-61125924D01*
X112934332Y-61060410D01*
X112983688Y-61027431D01*
X113147478Y-60959587D01*
X113147477Y-60959587D01*
X113147480Y-60959586D01*
X113321358Y-60925000D01*
X113498642Y-60925000D01*
X113672520Y-60959586D01*
G37*
G36*
X91761433Y-59033023D02*
G01*
X91931081Y-59084485D01*
X92087431Y-59168056D01*
X92224475Y-59280525D01*
X92336944Y-59417569D01*
X92420515Y-59573919D01*
X92471977Y-59743567D01*
X92489354Y-59920000D01*
X92471977Y-60096433D01*
X92420515Y-60266081D01*
X92336944Y-60422431D01*
X92224475Y-60559475D01*
X92087431Y-60671944D01*
X91931081Y-60755515D01*
X91761433Y-60806977D01*
X91629207Y-60820000D01*
X90740793Y-60820000D01*
X90608567Y-60806977D01*
X90438919Y-60755515D01*
X90282569Y-60671944D01*
X90145525Y-60559475D01*
X90033056Y-60422431D01*
X89949485Y-60266081D01*
X89898023Y-60096433D01*
X89880646Y-59920000D01*
X89898023Y-59743567D01*
X89949485Y-59573919D01*
X90033056Y-59417569D01*
X90145525Y-59280525D01*
X90282569Y-59168056D01*
X90438919Y-59084485D01*
X90608567Y-59033023D01*
X90740793Y-59020000D01*
X91629207Y-59020000D01*
X91761433Y-59033023D01*
G37*
G36*
X99381433Y-59033023D02*
G01*
X99551081Y-59084485D01*
X99707431Y-59168056D01*
X99844475Y-59280525D01*
X99956944Y-59417569D01*
X100040515Y-59573919D01*
X100091977Y-59743567D01*
X100109354Y-59920000D01*
X100091977Y-60096433D01*
X100040515Y-60266081D01*
X99956944Y-60422431D01*
X99844475Y-60559475D01*
X99707431Y-60671944D01*
X99551081Y-60755515D01*
X99381433Y-60806977D01*
X99249207Y-60820000D01*
X98360793Y-60820000D01*
X98228567Y-60806977D01*
X98058919Y-60755515D01*
X97902569Y-60671944D01*
X97765525Y-60559475D01*
X97653056Y-60422431D01*
X97569485Y-60266081D01*
X97518023Y-60096433D01*
X97500646Y-59920000D01*
X97518023Y-59743567D01*
X97569485Y-59573919D01*
X97653056Y-59417569D01*
X97765525Y-59280525D01*
X97902569Y-59168056D01*
X98058919Y-59084485D01*
X98228567Y-59033023D01*
X98360793Y-59020000D01*
X99249207Y-59020000D01*
X99381433Y-59033023D01*
G37*
G36*
X80331433Y-59033023D02*
G01*
X80501081Y-59084485D01*
X80657431Y-59168056D01*
X80794475Y-59280525D01*
X80906944Y-59417569D01*
X80990515Y-59573919D01*
X81041977Y-59743567D01*
X81059354Y-59920000D01*
X81041977Y-60096433D01*
X80990515Y-60266081D01*
X80906944Y-60422431D01*
X80794475Y-60559475D01*
X80657431Y-60671944D01*
X80501081Y-60755515D01*
X80331433Y-60806977D01*
X80199207Y-60820000D01*
X79310793Y-60820000D01*
X79178567Y-60806977D01*
X79008919Y-60755515D01*
X78852569Y-60671944D01*
X78715525Y-60559475D01*
X78603056Y-60422431D01*
X78519485Y-60266081D01*
X78468023Y-60096433D01*
X78450646Y-59920000D01*
X78468023Y-59743567D01*
X78519485Y-59573919D01*
X78603056Y-59417569D01*
X78715525Y-59280525D01*
X78852569Y-59168056D01*
X79008919Y-59084485D01*
X79178567Y-59033023D01*
X79310793Y-59020000D01*
X80199207Y-59020000D01*
X80331433Y-59033023D01*
G37*
G36*
X87951433Y-59033023D02*
G01*
X88121081Y-59084485D01*
X88277431Y-59168056D01*
X88414475Y-59280525D01*
X88526944Y-59417569D01*
X88610515Y-59573919D01*
X88661977Y-59743567D01*
X88679354Y-59920000D01*
X88661977Y-60096433D01*
X88610515Y-60266081D01*
X88526944Y-60422431D01*
X88414475Y-60559475D01*
X88277431Y-60671944D01*
X88121081Y-60755515D01*
X87951433Y-60806977D01*
X87819207Y-60820000D01*
X86930793Y-60820000D01*
X86798567Y-60806977D01*
X86628919Y-60755515D01*
X86472569Y-60671944D01*
X86335525Y-60559475D01*
X86223056Y-60422431D01*
X86139485Y-60266081D01*
X86088023Y-60096433D01*
X86070646Y-59920000D01*
X86088023Y-59743567D01*
X86139485Y-59573919D01*
X86223056Y-59417569D01*
X86335525Y-59280525D01*
X86472569Y-59168056D01*
X86628919Y-59084485D01*
X86798567Y-59033023D01*
X86930793Y-59020000D01*
X87819207Y-59020000D01*
X87951433Y-59033023D01*
G37*
G36*
X103512520Y-57784586D02*
G01*
X103676310Y-57852430D01*
X103676312Y-57852431D01*
X103721210Y-57882431D01*
X103823717Y-57950924D01*
X103949076Y-58076283D01*
X104047570Y-58223690D01*
X104115414Y-58387480D01*
X104150000Y-58561358D01*
X104150000Y-58738642D01*
X104115414Y-58912520D01*
X104047570Y-59076310D01*
X103949076Y-59223717D01*
X103823717Y-59349076D01*
X103725668Y-59414590D01*
X103676312Y-59447569D01*
X103676311Y-59447570D01*
X103676310Y-59447570D01*
X103512520Y-59515414D01*
X103338642Y-59550000D01*
X103161358Y-59550000D01*
X102987480Y-59515414D01*
X102823690Y-59447570D01*
X102823689Y-59447570D01*
X102823688Y-59447569D01*
X102774332Y-59414590D01*
X102676283Y-59349076D01*
X102550924Y-59223717D01*
X102452430Y-59076310D01*
X102384586Y-58912520D01*
X102350000Y-58738642D01*
X102350000Y-58561358D01*
X102384586Y-58387480D01*
X102452430Y-58223690D01*
X102550924Y-58076283D01*
X102676283Y-57950924D01*
X102778790Y-57882431D01*
X102823688Y-57852431D01*
X102823690Y-57852430D01*
X102987480Y-57784586D01*
X103161358Y-57750000D01*
X103338642Y-57750000D01*
X103512520Y-57784586D01*
G37*
G36*
X113672520Y-57784586D02*
G01*
X113836310Y-57852430D01*
X113836312Y-57852431D01*
X113881210Y-57882431D01*
X113983717Y-57950924D01*
X114109076Y-58076283D01*
X114207570Y-58223690D01*
X114275414Y-58387480D01*
X114310000Y-58561358D01*
X114310000Y-58738642D01*
X114275414Y-58912520D01*
X114207570Y-59076310D01*
X114109076Y-59223717D01*
X113983717Y-59349076D01*
X113885668Y-59414590D01*
X113836312Y-59447569D01*
X113836311Y-59447570D01*
X113836310Y-59447570D01*
X113672520Y-59515414D01*
X113498642Y-59550000D01*
X113321358Y-59550000D01*
X113147480Y-59515414D01*
X112983690Y-59447570D01*
X112983689Y-59447570D01*
X112983688Y-59447569D01*
X112934332Y-59414590D01*
X112836283Y-59349076D01*
X112710924Y-59223717D01*
X112612430Y-59076310D01*
X112544586Y-58912520D01*
X112510000Y-58738642D01*
X112510000Y-58561358D01*
X112544586Y-58387480D01*
X112612430Y-58223690D01*
X112710924Y-58076283D01*
X112836283Y-57950924D01*
X112938790Y-57882431D01*
X112983688Y-57852431D01*
X112983690Y-57852430D01*
X113147480Y-57784586D01*
X113321358Y-57750000D01*
X113498642Y-57750000D01*
X113672520Y-57784586D01*
G37*
G36*
X117618634Y-56418016D02*
G01*
X117665394Y-56432201D01*
X117689856Y-56445276D01*
X117717022Y-56456529D01*
X117745862Y-56462266D01*
X117775267Y-56462266D01*
X117804107Y-56456529D01*
X117831274Y-56445276D01*
X117842685Y-56437652D01*
X117833484Y-56446852D01*
X117817148Y-56471302D01*
X117805895Y-56498468D01*
X117800158Y-56527308D01*
X117800158Y-56556713D01*
X117805895Y-56585553D01*
X117814484Y-56613866D01*
X117820000Y-56669873D01*
X117820000Y-57455126D01*
X117813827Y-57517797D01*
X117813827Y-57547202D01*
X117819564Y-57576042D01*
X117830816Y-57603209D01*
X117847153Y-57627659D01*
X117867945Y-57648451D01*
X117892394Y-57664788D01*
X117919561Y-57676041D01*
X117948400Y-57681778D01*
X117963104Y-57682500D01*
X119890000Y-57682500D01*
X119890000Y-58982500D01*
X117890000Y-58982500D01*
X117890000Y-57823003D01*
X117887118Y-57793740D01*
X117878582Y-57765601D01*
X117864721Y-57739668D01*
X117846066Y-57716938D01*
X117823336Y-57698283D01*
X117797403Y-57684422D01*
X117769264Y-57675886D01*
X117740001Y-57673004D01*
X117710738Y-57675886D01*
X117669293Y-57690715D01*
X117665392Y-57692800D01*
X117618634Y-57706984D01*
X117562627Y-57712500D01*
X116077373Y-57712500D01*
X116021366Y-57706984D01*
X115974606Y-57692799D01*
X115931511Y-57669764D01*
X115893736Y-57638764D01*
X115862736Y-57600989D01*
X115839701Y-57557894D01*
X115825516Y-57511134D01*
X115820000Y-57455127D01*
X115820000Y-56669873D01*
X115825516Y-56613866D01*
X115839701Y-56567106D01*
X115862736Y-56524011D01*
X115893736Y-56486236D01*
X115931511Y-56455236D01*
X115974606Y-56432201D01*
X116021366Y-56418016D01*
X116077373Y-56412500D01*
X117562627Y-56412500D01*
X117618634Y-56418016D01*
G37*
G36*
X91761433Y-56493023D02*
G01*
X91931081Y-56544485D01*
X92087431Y-56628056D01*
X92224475Y-56740525D01*
X92336944Y-56877569D01*
X92420515Y-57033919D01*
X92471977Y-57203567D01*
X92489354Y-57380000D01*
X92471977Y-57556433D01*
X92420515Y-57726081D01*
X92336944Y-57882431D01*
X92224475Y-58019475D01*
X92087431Y-58131944D01*
X91931081Y-58215515D01*
X91761433Y-58266977D01*
X91629207Y-58280000D01*
X90740793Y-58280000D01*
X90608567Y-58266977D01*
X90438919Y-58215515D01*
X90282569Y-58131944D01*
X90145525Y-58019475D01*
X90033056Y-57882431D01*
X89949485Y-57726081D01*
X89898023Y-57556433D01*
X89880646Y-57380000D01*
X89898023Y-57203567D01*
X89949485Y-57033919D01*
X90033056Y-56877569D01*
X90145525Y-56740525D01*
X90282569Y-56628056D01*
X90438919Y-56544485D01*
X90608567Y-56493023D01*
X90740793Y-56480000D01*
X91629207Y-56480000D01*
X91761433Y-56493023D01*
G37*
G36*
X80331433Y-56493023D02*
G01*
X80501081Y-56544485D01*
X80657431Y-56628056D01*
X80794475Y-56740525D01*
X80906944Y-56877569D01*
X80990515Y-57033919D01*
X81041977Y-57203567D01*
X81059354Y-57380000D01*
X81041977Y-57556433D01*
X80990515Y-57726081D01*
X80906944Y-57882431D01*
X80794475Y-58019475D01*
X80657431Y-58131944D01*
X80501081Y-58215515D01*
X80331433Y-58266977D01*
X80199207Y-58280000D01*
X79310793Y-58280000D01*
X79178567Y-58266977D01*
X79008919Y-58215515D01*
X78852569Y-58131944D01*
X78715525Y-58019475D01*
X78603056Y-57882431D01*
X78519485Y-57726081D01*
X78468023Y-57556433D01*
X78450646Y-57380000D01*
X78468023Y-57203567D01*
X78519485Y-57033919D01*
X78603056Y-56877569D01*
X78715525Y-56740525D01*
X78852569Y-56628056D01*
X79008919Y-56544485D01*
X79178567Y-56493023D01*
X79310793Y-56480000D01*
X80199207Y-56480000D01*
X80331433Y-56493023D01*
G37*
G36*
X99381433Y-56493023D02*
G01*
X99551081Y-56544485D01*
X99707431Y-56628056D01*
X99844475Y-56740525D01*
X99956944Y-56877569D01*
X100040515Y-57033919D01*
X100091977Y-57203567D01*
X100109354Y-57380000D01*
X100091977Y-57556433D01*
X100040515Y-57726081D01*
X99956944Y-57882431D01*
X99844475Y-58019475D01*
X99707431Y-58131944D01*
X99551081Y-58215515D01*
X99381433Y-58266977D01*
X99249207Y-58280000D01*
X98360793Y-58280000D01*
X98228567Y-58266977D01*
X98058919Y-58215515D01*
X97902569Y-58131944D01*
X97765525Y-58019475D01*
X97653056Y-57882431D01*
X97569485Y-57726081D01*
X97518023Y-57556433D01*
X97500646Y-57380000D01*
X97518023Y-57203567D01*
X97569485Y-57033919D01*
X97653056Y-56877569D01*
X97765525Y-56740525D01*
X97902569Y-56628056D01*
X98058919Y-56544485D01*
X98228567Y-56493023D01*
X98360793Y-56480000D01*
X99249207Y-56480000D01*
X99381433Y-56493023D01*
G37*
G36*
X87951433Y-56493023D02*
G01*
X88121081Y-56544485D01*
X88277431Y-56628056D01*
X88414475Y-56740525D01*
X88526944Y-56877569D01*
X88610515Y-57033919D01*
X88661977Y-57203567D01*
X88679354Y-57380000D01*
X88661977Y-57556433D01*
X88610515Y-57726081D01*
X88526944Y-57882431D01*
X88414475Y-58019475D01*
X88277431Y-58131944D01*
X88121081Y-58215515D01*
X87951433Y-58266977D01*
X87819207Y-58280000D01*
X86930793Y-58280000D01*
X86798567Y-58266977D01*
X86628919Y-58215515D01*
X86472569Y-58131944D01*
X86335525Y-58019475D01*
X86223056Y-57882431D01*
X86139485Y-57726081D01*
X86088023Y-57556433D01*
X86070646Y-57380000D01*
X86088023Y-57203567D01*
X86139485Y-57033919D01*
X86223056Y-56877569D01*
X86335525Y-56740525D01*
X86472569Y-56628056D01*
X86628919Y-56544485D01*
X86798567Y-56493023D01*
X86930793Y-56480000D01*
X87819207Y-56480000D01*
X87951433Y-56493023D01*
G37*
G36*
X119688634Y-55148016D02*
G01*
X119735394Y-55162201D01*
X119778489Y-55185236D01*
X119816264Y-55216236D01*
X119847264Y-55254011D01*
X119870299Y-55297106D01*
X119884484Y-55343866D01*
X119890000Y-55399873D01*
X119890000Y-56185127D01*
X119884484Y-56241134D01*
X119870299Y-56287894D01*
X119847264Y-56330989D01*
X119816264Y-56368764D01*
X119778489Y-56399764D01*
X119735394Y-56422799D01*
X119688634Y-56436984D01*
X119632627Y-56442500D01*
X118147373Y-56442500D01*
X118091366Y-56436984D01*
X118044606Y-56422799D01*
X118020144Y-56409724D01*
X117992978Y-56398471D01*
X117964138Y-56392734D01*
X117934733Y-56392734D01*
X117905893Y-56398471D01*
X117878726Y-56409724D01*
X117867315Y-56417348D01*
X117876516Y-56408148D01*
X117892852Y-56383698D01*
X117904105Y-56356532D01*
X117909842Y-56327692D01*
X117909842Y-56298287D01*
X117904105Y-56269447D01*
X117895516Y-56241134D01*
X117890000Y-56185127D01*
X117890000Y-55399873D01*
X117895516Y-55343866D01*
X117909701Y-55297106D01*
X117932736Y-55254011D01*
X117963736Y-55216236D01*
X118001511Y-55185236D01*
X118044606Y-55162201D01*
X118091366Y-55148016D01*
X118147373Y-55142500D01*
X119632627Y-55142500D01*
X119688634Y-55148016D01*
G37*
G36*
X113672520Y-54609586D02*
G01*
X113836310Y-54677430D01*
X113836312Y-54677431D01*
X113885668Y-54710410D01*
X113983717Y-54775924D01*
X114109076Y-54901283D01*
X114207570Y-55048690D01*
X114275414Y-55212480D01*
X114310000Y-55386358D01*
X114310000Y-55563642D01*
X114275414Y-55737520D01*
X114207570Y-55901310D01*
X114109076Y-56048717D01*
X113983717Y-56174076D01*
X113885668Y-56239590D01*
X113836312Y-56272569D01*
X113836311Y-56272570D01*
X113836310Y-56272570D01*
X113672520Y-56340414D01*
X113498642Y-56375000D01*
X113321358Y-56375000D01*
X113147480Y-56340414D01*
X112983690Y-56272570D01*
X112983689Y-56272570D01*
X112983688Y-56272569D01*
X112934332Y-56239590D01*
X112836283Y-56174076D01*
X112710924Y-56048717D01*
X112612430Y-55901310D01*
X112544586Y-55737520D01*
X112510000Y-55563642D01*
X112510000Y-55386358D01*
X112544586Y-55212480D01*
X112612430Y-55048690D01*
X112710924Y-54901283D01*
X112836283Y-54775924D01*
X112934332Y-54710410D01*
X112983688Y-54677431D01*
X112983690Y-54677430D01*
X113147480Y-54609586D01*
X113321358Y-54575000D01*
X113498642Y-54575000D01*
X113672520Y-54609586D01*
G37*
G36*
X103512520Y-54609586D02*
G01*
X103676310Y-54677430D01*
X103676312Y-54677431D01*
X103725668Y-54710410D01*
X103823717Y-54775924D01*
X103949076Y-54901283D01*
X104047570Y-55048690D01*
X104115414Y-55212480D01*
X104150000Y-55386358D01*
X104150000Y-55563642D01*
X104115414Y-55737520D01*
X104047570Y-55901310D01*
X103949076Y-56048717D01*
X103823717Y-56174076D01*
X103725668Y-56239590D01*
X103676312Y-56272569D01*
X103676311Y-56272570D01*
X103676310Y-56272570D01*
X103512520Y-56340414D01*
X103338642Y-56375000D01*
X103161358Y-56375000D01*
X102987480Y-56340414D01*
X102823690Y-56272570D01*
X102823689Y-56272570D01*
X102823688Y-56272569D01*
X102774332Y-56239590D01*
X102676283Y-56174076D01*
X102550924Y-56048717D01*
X102452430Y-55901310D01*
X102384586Y-55737520D01*
X102350000Y-55563642D01*
X102350000Y-55386358D01*
X102384586Y-55212480D01*
X102452430Y-55048690D01*
X102550924Y-54901283D01*
X102676283Y-54775924D01*
X102774332Y-54710410D01*
X102823688Y-54677431D01*
X102823690Y-54677430D01*
X102987480Y-54609586D01*
X103161358Y-54575000D01*
X103338642Y-54575000D01*
X103512520Y-54609586D01*
G37*
G36*
X144152520Y-54292086D02*
G01*
X144284488Y-54346749D01*
X144316312Y-54359931D01*
X144327743Y-54367569D01*
X144463717Y-54458424D01*
X144589076Y-54583783D01*
X144687570Y-54731190D01*
X144755414Y-54894980D01*
X144790000Y-55068858D01*
X144790000Y-55246142D01*
X144755414Y-55420020D01*
X144687570Y-55583810D01*
X144589076Y-55731217D01*
X144463717Y-55856576D01*
X144365668Y-55922090D01*
X144316312Y-55955069D01*
X144316311Y-55955070D01*
X144316310Y-55955070D01*
X144152520Y-56022914D01*
X143978642Y-56057500D01*
X143801358Y-56057500D01*
X143627480Y-56022914D01*
X143463690Y-55955070D01*
X143463689Y-55955070D01*
X143463688Y-55955069D01*
X143414332Y-55922090D01*
X143316283Y-55856576D01*
X143190924Y-55731217D01*
X143092430Y-55583810D01*
X143024586Y-55420020D01*
X142990000Y-55246142D01*
X142990000Y-55068858D01*
X143024586Y-54894980D01*
X143092430Y-54731190D01*
X143190924Y-54583783D01*
X143316283Y-54458424D01*
X143452257Y-54367569D01*
X143463688Y-54359931D01*
X143495512Y-54346749D01*
X143627480Y-54292086D01*
X143801358Y-54257500D01*
X143978642Y-54257500D01*
X144152520Y-54292086D01*
G37*
G36*
X133992520Y-54292086D02*
G01*
X134124488Y-54346749D01*
X134156312Y-54359931D01*
X134167743Y-54367569D01*
X134303717Y-54458424D01*
X134429076Y-54583783D01*
X134527570Y-54731190D01*
X134595414Y-54894980D01*
X134630000Y-55068858D01*
X134630000Y-55246142D01*
X134595414Y-55420020D01*
X134527570Y-55583810D01*
X134429076Y-55731217D01*
X134303717Y-55856576D01*
X134205668Y-55922090D01*
X134156312Y-55955069D01*
X134156311Y-55955070D01*
X134156310Y-55955070D01*
X133992520Y-56022914D01*
X133818642Y-56057500D01*
X133641358Y-56057500D01*
X133467480Y-56022914D01*
X133303690Y-55955070D01*
X133303689Y-55955070D01*
X133303688Y-55955069D01*
X133254332Y-55922090D01*
X133156283Y-55856576D01*
X133030924Y-55731217D01*
X132932430Y-55583810D01*
X132864586Y-55420020D01*
X132830000Y-55246142D01*
X132830000Y-55068858D01*
X132864586Y-54894980D01*
X132932430Y-54731190D01*
X133030924Y-54583783D01*
X133156283Y-54458424D01*
X133292257Y-54367569D01*
X133303688Y-54359931D01*
X133335512Y-54346749D01*
X133467480Y-54292086D01*
X133641358Y-54257500D01*
X133818642Y-54257500D01*
X133992520Y-54292086D01*
G37*
G36*
X99381433Y-53953023D02*
G01*
X99551081Y-54004485D01*
X99707431Y-54088056D01*
X99844475Y-54200525D01*
X99956944Y-54337569D01*
X100040515Y-54493919D01*
X100091977Y-54663567D01*
X100109354Y-54840000D01*
X100091977Y-55016433D01*
X100040515Y-55186081D01*
X99956944Y-55342431D01*
X99844475Y-55479475D01*
X99707431Y-55591944D01*
X99551081Y-55675515D01*
X99381433Y-55726977D01*
X99249207Y-55740000D01*
X98360793Y-55740000D01*
X98228567Y-55726977D01*
X98058919Y-55675515D01*
X97902569Y-55591944D01*
X97765525Y-55479475D01*
X97653056Y-55342431D01*
X97569485Y-55186081D01*
X97518023Y-55016433D01*
X97500646Y-54840000D01*
X97518023Y-54663567D01*
X97569485Y-54493919D01*
X97653056Y-54337569D01*
X97765525Y-54200525D01*
X97902569Y-54088056D01*
X98058919Y-54004485D01*
X98228567Y-53953023D01*
X98360793Y-53940000D01*
X99249207Y-53940000D01*
X99381433Y-53953023D01*
G37*
G36*
X91761433Y-53953023D02*
G01*
X91931081Y-54004485D01*
X92087431Y-54088056D01*
X92224475Y-54200525D01*
X92336944Y-54337569D01*
X92420515Y-54493919D01*
X92471977Y-54663567D01*
X92489354Y-54840000D01*
X92471977Y-55016433D01*
X92420515Y-55186081D01*
X92336944Y-55342431D01*
X92224475Y-55479475D01*
X92087431Y-55591944D01*
X91931081Y-55675515D01*
X91761433Y-55726977D01*
X91629207Y-55740000D01*
X90740793Y-55740000D01*
X90608567Y-55726977D01*
X90438919Y-55675515D01*
X90282569Y-55591944D01*
X90145525Y-55479475D01*
X90033056Y-55342431D01*
X89949485Y-55186081D01*
X89898023Y-55016433D01*
X89880646Y-54840000D01*
X89898023Y-54663567D01*
X89949485Y-54493919D01*
X90033056Y-54337569D01*
X90145525Y-54200525D01*
X90282569Y-54088056D01*
X90438919Y-54004485D01*
X90608567Y-53953023D01*
X90740793Y-53940000D01*
X91629207Y-53940000D01*
X91761433Y-53953023D01*
G37*
G36*
X128941689Y-52608429D02*
G01*
X129123678Y-52683811D01*
X129287463Y-52793249D01*
X129426751Y-52932537D01*
X129536189Y-53096322D01*
X129611571Y-53278311D01*
X129650000Y-53471509D01*
X129650000Y-53668491D01*
X129611571Y-53861689D01*
X129536189Y-54043678D01*
X129426751Y-54207463D01*
X129287463Y-54346751D01*
X129123678Y-54456189D01*
X128941689Y-54531571D01*
X128748491Y-54570000D01*
X128551509Y-54570000D01*
X128358311Y-54531571D01*
X128176322Y-54456189D01*
X128012537Y-54346751D01*
X127873249Y-54207463D01*
X127763811Y-54043678D01*
X127688429Y-53861689D01*
X127650000Y-53668491D01*
X127650000Y-53471509D01*
X127688429Y-53278311D01*
X127763811Y-53096322D01*
X127873249Y-52932537D01*
X128012537Y-52793249D01*
X128176322Y-52683811D01*
X128358311Y-52608429D01*
X128551509Y-52570000D01*
X128748491Y-52570000D01*
X128941689Y-52608429D01*
G37*
G36*
X127110000Y-54570000D02*
G01*
X125110000Y-54570000D01*
X125110000Y-52570000D01*
X127110000Y-52570000D01*
X127110000Y-54570000D01*
G37*
G36*
X149261689Y-52608429D02*
G01*
X149443678Y-52683811D01*
X149607463Y-52793249D01*
X149746751Y-52932537D01*
X149856189Y-53096322D01*
X149931571Y-53278311D01*
X149970000Y-53471509D01*
X149970000Y-53668491D01*
X149931571Y-53861689D01*
X149856189Y-54043678D01*
X149746751Y-54207463D01*
X149607463Y-54346751D01*
X149443678Y-54456189D01*
X149261689Y-54531571D01*
X149068491Y-54570000D01*
X148871509Y-54570000D01*
X148678311Y-54531571D01*
X148496322Y-54456189D01*
X148332537Y-54346751D01*
X148193249Y-54207463D01*
X148083811Y-54043678D01*
X148008429Y-53861689D01*
X147970000Y-53668491D01*
X147970000Y-53471509D01*
X148008429Y-53278311D01*
X148083811Y-53096322D01*
X148193249Y-52932537D01*
X148332537Y-52793249D01*
X148496322Y-52683811D01*
X148678311Y-52608429D01*
X148871509Y-52570000D01*
X149068491Y-52570000D01*
X149261689Y-52608429D01*
G37*
G36*
X152510000Y-54570000D02*
G01*
X150510000Y-54570000D01*
X150510000Y-52570000D01*
X152510000Y-52570000D01*
X152510000Y-54570000D01*
G37*
G36*
X82557520Y-52704586D02*
G01*
X82557523Y-52704587D01*
X82557522Y-52704587D01*
X82721312Y-52772431D01*
X82732743Y-52780069D01*
X82868717Y-52870924D01*
X82994076Y-52996283D01*
X83092570Y-53143690D01*
X83160414Y-53307480D01*
X83195000Y-53481358D01*
X83195000Y-53658642D01*
X83160414Y-53832520D01*
X83092570Y-53996310D01*
X82994076Y-54143717D01*
X82868717Y-54269076D01*
X82770668Y-54334590D01*
X82721312Y-54367569D01*
X82721311Y-54367570D01*
X82721310Y-54367570D01*
X82557520Y-54435414D01*
X82383642Y-54470000D01*
X82206358Y-54470000D01*
X82032480Y-54435414D01*
X81868690Y-54367570D01*
X81868689Y-54367570D01*
X81868688Y-54367569D01*
X81819332Y-54334590D01*
X81721283Y-54269076D01*
X81595924Y-54143717D01*
X81497430Y-53996310D01*
X81429586Y-53832520D01*
X81395000Y-53658642D01*
X81395000Y-53481358D01*
X81429586Y-53307480D01*
X81497430Y-53143690D01*
X81595924Y-52996283D01*
X81721283Y-52870924D01*
X81857257Y-52780069D01*
X81868688Y-52772431D01*
X82032478Y-52704587D01*
X82032477Y-52704587D01*
X82032480Y-52704586D01*
X82206358Y-52670000D01*
X82383642Y-52670000D01*
X82557520Y-52704586D01*
G37*
G36*
X85057520Y-52704586D02*
G01*
X85057523Y-52704587D01*
X85057522Y-52704587D01*
X85221312Y-52772431D01*
X85232743Y-52780069D01*
X85368717Y-52870924D01*
X85494076Y-52996283D01*
X85592570Y-53143690D01*
X85660414Y-53307480D01*
X85695000Y-53481358D01*
X85695000Y-53658642D01*
X85660414Y-53832520D01*
X85592570Y-53996310D01*
X85494076Y-54143717D01*
X85368717Y-54269076D01*
X85270668Y-54334590D01*
X85221312Y-54367569D01*
X85221311Y-54367570D01*
X85221310Y-54367570D01*
X85057520Y-54435414D01*
X84883642Y-54470000D01*
X84706358Y-54470000D01*
X84532480Y-54435414D01*
X84368690Y-54367570D01*
X84368689Y-54367570D01*
X84368688Y-54367569D01*
X84319332Y-54334590D01*
X84221283Y-54269076D01*
X84095924Y-54143717D01*
X83997430Y-53996310D01*
X83929586Y-53832520D01*
X83895000Y-53658642D01*
X83895000Y-53481358D01*
X83929586Y-53307480D01*
X83997430Y-53143690D01*
X84095924Y-52996283D01*
X84221283Y-52870924D01*
X84357257Y-52780069D01*
X84368688Y-52772431D01*
X84532478Y-52704587D01*
X84532477Y-52704587D01*
X84532480Y-52704586D01*
X84706358Y-52670000D01*
X84883642Y-52670000D01*
X85057520Y-52704586D01*
G37*
G36*
X99381433Y-51413023D02*
G01*
X99551081Y-51464485D01*
X99707431Y-51548056D01*
X99844475Y-51660525D01*
X99956944Y-51797569D01*
X100040515Y-51953919D01*
X100091977Y-52123567D01*
X100109354Y-52300000D01*
X100091977Y-52476433D01*
X100040515Y-52646081D01*
X99956944Y-52802431D01*
X99844475Y-52939475D01*
X99707431Y-53051944D01*
X99551081Y-53135515D01*
X99381433Y-53186977D01*
X99249207Y-53200000D01*
X98360793Y-53200000D01*
X98228567Y-53186977D01*
X98058919Y-53135515D01*
X97902569Y-53051944D01*
X97765525Y-52939475D01*
X97653056Y-52802431D01*
X97569485Y-52646081D01*
X97518023Y-52476433D01*
X97500646Y-52300000D01*
X97518023Y-52123567D01*
X97569485Y-51953919D01*
X97653056Y-51797569D01*
X97765525Y-51660525D01*
X97902569Y-51548056D01*
X98058919Y-51464485D01*
X98228567Y-51413023D01*
X98360793Y-51400000D01*
X99249207Y-51400000D01*
X99381433Y-51413023D01*
G37*
G36*
X103512520Y-51434586D02*
G01*
X103676310Y-51502430D01*
X103676312Y-51502431D01*
X103725668Y-51535410D01*
X103823717Y-51600924D01*
X103949076Y-51726283D01*
X104047570Y-51873690D01*
X104115414Y-52037480D01*
X104150000Y-52211358D01*
X104150000Y-52388642D01*
X104115414Y-52562520D01*
X104047570Y-52726310D01*
X103949076Y-52873717D01*
X103823717Y-52999076D01*
X103744596Y-53051943D01*
X103676312Y-53097569D01*
X103676311Y-53097570D01*
X103676310Y-53097570D01*
X103512520Y-53165414D01*
X103338642Y-53200000D01*
X103161358Y-53200000D01*
X102987480Y-53165414D01*
X102823690Y-53097570D01*
X102823689Y-53097570D01*
X102823688Y-53097569D01*
X102755404Y-53051943D01*
X102676283Y-52999076D01*
X102550924Y-52873717D01*
X102452430Y-52726310D01*
X102384586Y-52562520D01*
X102350000Y-52388642D01*
X102350000Y-52211358D01*
X102384586Y-52037480D01*
X102452430Y-51873690D01*
X102550924Y-51726283D01*
X102676283Y-51600924D01*
X102774332Y-51535410D01*
X102823688Y-51502431D01*
X102823690Y-51502430D01*
X102987480Y-51434586D01*
X103161358Y-51400000D01*
X103338642Y-51400000D01*
X103512520Y-51434586D01*
G37*
G36*
X91761433Y-51413023D02*
G01*
X91931081Y-51464485D01*
X92087431Y-51548056D01*
X92224475Y-51660525D01*
X92336944Y-51797569D01*
X92420515Y-51953919D01*
X92471977Y-52123567D01*
X92489354Y-52300000D01*
X92471977Y-52476433D01*
X92420515Y-52646081D01*
X92336944Y-52802431D01*
X92224475Y-52939475D01*
X92087431Y-53051944D01*
X91931081Y-53135515D01*
X91761433Y-53186977D01*
X91629207Y-53200000D01*
X90740793Y-53200000D01*
X90608567Y-53186977D01*
X90438919Y-53135515D01*
X90282569Y-53051944D01*
X90145525Y-52939475D01*
X90033056Y-52802431D01*
X89949485Y-52646081D01*
X89898023Y-52476433D01*
X89880646Y-52300000D01*
X89898023Y-52123567D01*
X89949485Y-51953919D01*
X90033056Y-51797569D01*
X90145525Y-51660525D01*
X90282569Y-51548056D01*
X90438919Y-51464485D01*
X90608567Y-51413023D01*
X90740793Y-51400000D01*
X91629207Y-51400000D01*
X91761433Y-51413023D01*
G37*
G36*
X113672520Y-51434586D02*
G01*
X113836310Y-51502430D01*
X113836312Y-51502431D01*
X113885668Y-51535410D01*
X113983717Y-51600924D01*
X114109076Y-51726283D01*
X114207570Y-51873690D01*
X114275414Y-52037480D01*
X114310000Y-52211358D01*
X114310000Y-52388642D01*
X114275414Y-52562520D01*
X114207570Y-52726310D01*
X114109076Y-52873717D01*
X113983717Y-52999076D01*
X113904596Y-53051943D01*
X113836312Y-53097569D01*
X113836311Y-53097570D01*
X113836310Y-53097570D01*
X113672520Y-53165414D01*
X113498642Y-53200000D01*
X113321358Y-53200000D01*
X113147480Y-53165414D01*
X112983690Y-53097570D01*
X112983689Y-53097570D01*
X112983688Y-53097569D01*
X112915404Y-53051943D01*
X112836283Y-52999076D01*
X112710924Y-52873717D01*
X112612430Y-52726310D01*
X112544586Y-52562520D01*
X112510000Y-52388642D01*
X112510000Y-52211358D01*
X112544586Y-52037480D01*
X112612430Y-51873690D01*
X112710924Y-51726283D01*
X112836283Y-51600924D01*
X112934332Y-51535410D01*
X112983688Y-51502431D01*
X112983690Y-51502430D01*
X113147480Y-51434586D01*
X113321358Y-51400000D01*
X113498642Y-51400000D01*
X113672520Y-51434586D01*
G37*
G36*
X144152520Y-51117086D02*
G01*
X144152523Y-51117087D01*
X144152522Y-51117087D01*
X144316312Y-51184931D01*
X144350678Y-51207894D01*
X144463717Y-51283424D01*
X144589076Y-51408783D01*
X144687570Y-51556190D01*
X144755414Y-51719980D01*
X144790000Y-51893858D01*
X144790000Y-52071142D01*
X144755414Y-52245020D01*
X144687570Y-52408810D01*
X144589076Y-52556217D01*
X144463717Y-52681576D01*
X144365668Y-52747090D01*
X144316312Y-52780069D01*
X144316311Y-52780070D01*
X144316310Y-52780070D01*
X144152520Y-52847914D01*
X143978642Y-52882500D01*
X143801358Y-52882500D01*
X143627480Y-52847914D01*
X143463690Y-52780070D01*
X143463689Y-52780070D01*
X143463688Y-52780069D01*
X143414332Y-52747090D01*
X143316283Y-52681576D01*
X143190924Y-52556217D01*
X143092430Y-52408810D01*
X143024586Y-52245020D01*
X142990000Y-52071142D01*
X142990000Y-51893858D01*
X143024586Y-51719980D01*
X143092430Y-51556190D01*
X143190924Y-51408783D01*
X143316283Y-51283424D01*
X143429322Y-51207894D01*
X143463688Y-51184931D01*
X143627478Y-51117087D01*
X143627477Y-51117087D01*
X143627480Y-51117086D01*
X143801358Y-51082500D01*
X143978642Y-51082500D01*
X144152520Y-51117086D01*
G37*
G36*
X133992520Y-51117086D02*
G01*
X133992523Y-51117087D01*
X133992522Y-51117087D01*
X134156312Y-51184931D01*
X134190678Y-51207894D01*
X134303717Y-51283424D01*
X134429076Y-51408783D01*
X134527570Y-51556190D01*
X134595414Y-51719980D01*
X134630000Y-51893858D01*
X134630000Y-52071142D01*
X134595414Y-52245020D01*
X134527570Y-52408810D01*
X134429076Y-52556217D01*
X134303717Y-52681576D01*
X134205668Y-52747090D01*
X134156312Y-52780069D01*
X134156311Y-52780070D01*
X134156310Y-52780070D01*
X133992520Y-52847914D01*
X133818642Y-52882500D01*
X133641358Y-52882500D01*
X133467480Y-52847914D01*
X133303690Y-52780070D01*
X133303689Y-52780070D01*
X133303688Y-52780069D01*
X133254332Y-52747090D01*
X133156283Y-52681576D01*
X133030924Y-52556217D01*
X132932430Y-52408810D01*
X132864586Y-52245020D01*
X132830000Y-52071142D01*
X132830000Y-51893858D01*
X132864586Y-51719980D01*
X132932430Y-51556190D01*
X133030924Y-51408783D01*
X133156283Y-51283424D01*
X133269322Y-51207894D01*
X133303688Y-51184931D01*
X133467478Y-51117087D01*
X133467477Y-51117087D01*
X133467480Y-51117086D01*
X133641358Y-51082500D01*
X133818642Y-51082500D01*
X133992520Y-51117086D01*
G37*
G36*
X117618634Y-50068016D02*
G01*
X117665394Y-50082201D01*
X117689856Y-50095276D01*
X117717022Y-50106529D01*
X117745862Y-50112266D01*
X117775267Y-50112266D01*
X117804107Y-50106529D01*
X117831274Y-50095276D01*
X117842685Y-50087652D01*
X117833484Y-50096852D01*
X117817148Y-50121302D01*
X117805895Y-50148468D01*
X117800158Y-50177308D01*
X117800158Y-50206713D01*
X117805895Y-50235553D01*
X117814484Y-50263866D01*
X117820000Y-50319873D01*
X117820000Y-51105126D01*
X117813827Y-51167797D01*
X117813827Y-51197202D01*
X117819564Y-51226042D01*
X117830816Y-51253209D01*
X117847153Y-51277659D01*
X117867945Y-51298451D01*
X117892394Y-51314788D01*
X117919561Y-51326041D01*
X117948400Y-51331778D01*
X117963104Y-51332500D01*
X119890000Y-51332500D01*
X119890000Y-52632500D01*
X117890000Y-52632500D01*
X117890000Y-51473003D01*
X117887118Y-51443740D01*
X117878582Y-51415601D01*
X117864721Y-51389668D01*
X117846066Y-51366938D01*
X117823336Y-51348283D01*
X117797403Y-51334422D01*
X117769264Y-51325886D01*
X117740001Y-51323004D01*
X117710738Y-51325886D01*
X117669293Y-51340715D01*
X117665392Y-51342800D01*
X117618634Y-51356984D01*
X117562627Y-51362500D01*
X116077373Y-51362500D01*
X116021366Y-51356984D01*
X115974606Y-51342799D01*
X115931511Y-51319764D01*
X115893736Y-51288764D01*
X115862736Y-51250989D01*
X115839701Y-51207894D01*
X115825516Y-51161134D01*
X115820000Y-51105127D01*
X115820000Y-50319873D01*
X115825516Y-50263866D01*
X115839701Y-50217106D01*
X115862736Y-50174011D01*
X115893736Y-50136236D01*
X115931511Y-50105236D01*
X115974606Y-50082201D01*
X116021366Y-50068016D01*
X116077373Y-50062500D01*
X117562627Y-50062500D01*
X117618634Y-50068016D01*
G37*
G36*
X91761433Y-48873023D02*
G01*
X91931081Y-48924485D01*
X92087431Y-49008056D01*
X92224475Y-49120525D01*
X92336944Y-49257569D01*
X92420515Y-49413919D01*
X92471977Y-49583567D01*
X92489354Y-49760000D01*
X92471977Y-49936433D01*
X92420515Y-50106081D01*
X92336944Y-50262431D01*
X92224475Y-50399475D01*
X92087431Y-50511944D01*
X91931081Y-50595515D01*
X91761433Y-50646977D01*
X91629207Y-50660000D01*
X90740793Y-50660000D01*
X90608567Y-50646977D01*
X90438919Y-50595515D01*
X90282569Y-50511944D01*
X90145525Y-50399475D01*
X90033056Y-50262431D01*
X89949485Y-50106081D01*
X89898023Y-49936433D01*
X89880646Y-49760000D01*
X89898023Y-49583567D01*
X89949485Y-49413919D01*
X90033056Y-49257569D01*
X90145525Y-49120525D01*
X90282569Y-49008056D01*
X90438919Y-48924485D01*
X90608567Y-48873023D01*
X90740793Y-48860000D01*
X91629207Y-48860000D01*
X91761433Y-48873023D01*
G37*
G36*
X99381433Y-48873023D02*
G01*
X99551081Y-48924485D01*
X99707431Y-49008056D01*
X99844475Y-49120525D01*
X99956944Y-49257569D01*
X100040515Y-49413919D01*
X100091977Y-49583567D01*
X100109354Y-49760000D01*
X100091977Y-49936433D01*
X100040515Y-50106081D01*
X99956944Y-50262431D01*
X99844475Y-50399475D01*
X99707431Y-50511944D01*
X99551081Y-50595515D01*
X99381433Y-50646977D01*
X99249207Y-50660000D01*
X98360793Y-50660000D01*
X98228567Y-50646977D01*
X98058919Y-50595515D01*
X97902569Y-50511944D01*
X97765525Y-50399475D01*
X97653056Y-50262431D01*
X97569485Y-50106081D01*
X97518023Y-49936433D01*
X97500646Y-49760000D01*
X97518023Y-49583567D01*
X97569485Y-49413919D01*
X97653056Y-49257569D01*
X97765525Y-49120525D01*
X97902569Y-49008056D01*
X98058919Y-48924485D01*
X98228567Y-48873023D01*
X98360793Y-48860000D01*
X99249207Y-48860000D01*
X99381433Y-48873023D01*
G37*
G36*
X119688634Y-48798016D02*
G01*
X119735394Y-48812201D01*
X119778489Y-48835236D01*
X119816264Y-48866236D01*
X119847264Y-48904011D01*
X119870299Y-48947106D01*
X119884484Y-48993866D01*
X119890000Y-49049873D01*
X119890000Y-49835127D01*
X119884484Y-49891134D01*
X119870299Y-49937894D01*
X119847264Y-49980989D01*
X119816264Y-50018764D01*
X119778489Y-50049764D01*
X119735394Y-50072799D01*
X119688634Y-50086984D01*
X119632627Y-50092500D01*
X118147373Y-50092500D01*
X118091366Y-50086984D01*
X118044606Y-50072799D01*
X118020144Y-50059724D01*
X117992978Y-50048471D01*
X117964138Y-50042734D01*
X117934733Y-50042734D01*
X117905893Y-50048471D01*
X117878726Y-50059724D01*
X117867315Y-50067348D01*
X117876516Y-50058148D01*
X117892852Y-50033698D01*
X117904105Y-50006532D01*
X117909842Y-49977692D01*
X117909842Y-49948287D01*
X117904105Y-49919447D01*
X117895516Y-49891134D01*
X117890000Y-49835127D01*
X117890000Y-49049873D01*
X117895516Y-48993866D01*
X117909701Y-48947106D01*
X117932736Y-48904011D01*
X117963736Y-48866236D01*
X118001511Y-48835236D01*
X118044606Y-48812201D01*
X118091366Y-48798016D01*
X118147373Y-48792500D01*
X119632627Y-48792500D01*
X119688634Y-48798016D01*
G37*
G36*
X103512520Y-48259586D02*
G01*
X103512523Y-48259587D01*
X103512522Y-48259587D01*
X103676312Y-48327431D01*
X103725668Y-48360410D01*
X103823717Y-48425924D01*
X103949076Y-48551283D01*
X104047570Y-48698690D01*
X104115414Y-48862480D01*
X104150000Y-49036358D01*
X104150000Y-49213642D01*
X104115414Y-49387520D01*
X104047570Y-49551310D01*
X103949076Y-49698717D01*
X103823717Y-49824076D01*
X103725668Y-49889590D01*
X103676312Y-49922569D01*
X103676311Y-49922570D01*
X103676310Y-49922570D01*
X103512520Y-49990414D01*
X103338642Y-50025000D01*
X103161358Y-50025000D01*
X102987480Y-49990414D01*
X102823690Y-49922570D01*
X102823689Y-49922570D01*
X102823688Y-49922569D01*
X102774332Y-49889590D01*
X102676283Y-49824076D01*
X102550924Y-49698717D01*
X102452430Y-49551310D01*
X102384586Y-49387520D01*
X102350000Y-49213642D01*
X102350000Y-49036358D01*
X102384586Y-48862480D01*
X102452430Y-48698690D01*
X102550924Y-48551283D01*
X102676283Y-48425924D01*
X102774332Y-48360410D01*
X102823688Y-48327431D01*
X102987478Y-48259587D01*
X102987477Y-48259587D01*
X102987480Y-48259586D01*
X103161358Y-48225000D01*
X103338642Y-48225000D01*
X103512520Y-48259586D01*
G37*
G36*
X113672520Y-48259586D02*
G01*
X113672523Y-48259587D01*
X113672522Y-48259587D01*
X113836312Y-48327431D01*
X113885668Y-48360410D01*
X113983717Y-48425924D01*
X114109076Y-48551283D01*
X114207570Y-48698690D01*
X114275414Y-48862480D01*
X114310000Y-49036358D01*
X114310000Y-49213642D01*
X114275414Y-49387520D01*
X114207570Y-49551310D01*
X114109076Y-49698717D01*
X113983717Y-49824076D01*
X113885668Y-49889590D01*
X113836312Y-49922569D01*
X113836311Y-49922570D01*
X113836310Y-49922570D01*
X113672520Y-49990414D01*
X113498642Y-50025000D01*
X113321358Y-50025000D01*
X113147480Y-49990414D01*
X112983690Y-49922570D01*
X112983689Y-49922570D01*
X112983688Y-49922569D01*
X112934332Y-49889590D01*
X112836283Y-49824076D01*
X112710924Y-49698717D01*
X112612430Y-49551310D01*
X112544586Y-49387520D01*
X112510000Y-49213642D01*
X112510000Y-49036358D01*
X112544586Y-48862480D01*
X112612430Y-48698690D01*
X112710924Y-48551283D01*
X112836283Y-48425924D01*
X112934332Y-48360410D01*
X112983688Y-48327431D01*
X113147478Y-48259587D01*
X113147477Y-48259587D01*
X113147480Y-48259586D01*
X113321358Y-48225000D01*
X113498642Y-48225000D01*
X113672520Y-48259586D01*
G37*
G36*
X79298372Y-45585330D02*
G01*
X79607752Y-45713479D01*
X79886187Y-45899523D01*
X80122977Y-46136313D01*
X80309021Y-46414748D01*
X80437170Y-46724128D01*
X80502500Y-47052565D01*
X80502500Y-47387435D01*
X80437170Y-47715872D01*
X80309021Y-48025252D01*
X80122977Y-48303687D01*
X79886187Y-48540477D01*
X79607752Y-48726521D01*
X79298372Y-48854670D01*
X78969935Y-48920000D01*
X78635065Y-48920000D01*
X78306628Y-48854670D01*
X77997248Y-48726521D01*
X77718813Y-48540477D01*
X77482023Y-48303687D01*
X77295979Y-48025252D01*
X77167830Y-47715872D01*
X77102500Y-47387435D01*
X77102500Y-47052565D01*
X77167830Y-46724128D01*
X77295979Y-46414748D01*
X77482023Y-46136313D01*
X77718813Y-45899523D01*
X77997248Y-45713479D01*
X78306628Y-45585330D01*
X78635065Y-45520000D01*
X78969935Y-45520000D01*
X79298372Y-45585330D01*
G37*
G36*
X157085872Y-45585330D02*
G01*
X157395252Y-45713479D01*
X157673687Y-45899523D01*
X157910477Y-46136313D01*
X158096521Y-46414748D01*
X158224670Y-46724128D01*
X158290000Y-47052565D01*
X158290000Y-47387435D01*
X158224670Y-47715872D01*
X158096521Y-48025252D01*
X157910477Y-48303687D01*
X157673687Y-48540477D01*
X157395252Y-48726521D01*
X157085872Y-48854670D01*
X156757435Y-48920000D01*
X156422565Y-48920000D01*
X156094128Y-48854670D01*
X155784748Y-48726521D01*
X155506313Y-48540477D01*
X155269523Y-48303687D01*
X155083479Y-48025252D01*
X154955330Y-47715872D01*
X154890000Y-47387435D01*
X154890000Y-47052565D01*
X154955330Y-46724128D01*
X155083479Y-46414748D01*
X155269523Y-46136313D01*
X155506313Y-45899523D01*
X155784748Y-45713479D01*
X156094128Y-45585330D01*
X156422565Y-45520000D01*
X156757435Y-45520000D01*
X157085872Y-45585330D01*
G37*
M02*
